<?xml version="1.0" encoding="UTF-8"?>
<svg width="512px" height="512px" viewBox="0 0 512 512" version="1.1" xmlns="http://www.w3.org/2000/svg" xmlns:xlink="http://www.w3.org/1999/xlink">
    <title>AndStatus</title>
    <g id="AndStatus" stroke="none" stroke-width="1" fill="none" fill-rule="evenodd">
        <path d="M256,0 C397.384892,0 511.999983,114.615108 511.999983,256 C511.999983,397.384892 397.384892,512 256,512 C114.615091,512 -7.10542736e-13,397.384892 -7.10542736e-13,256 C-7.10542736e-13,114.615108 114.615091,0 256,0 Z M187.516672,74.1377391 C162.00957,74.330181 137.065912,87.4791854 121.326186,107.422399 L124.411255,105.644732 C95.6197717,122.233088 66.8618069,138.87971 38.0645888,155.458065 C66.2478034,171.706998 94.4317466,187.955158 122.592271,204.243394 C126.335654,209.421993 130.465989,214.321918 134.782433,218.91576 C141.013156,225.934028 147.231819,233.06779 153.930522,239.709849 C121.724018,254.704469 87.340603,276.576696 78.6548961,313.558319 C67.7189214,356.534611 91.5252795,404.663152 132.462954,421.600456 C167.89337,435.464845 210.185938,434.094064 244.239948,416.807443 C259.26249,408.25743 272.774742,397.087204 285.662867,385.592592 C299.430883,400.331654 305.761325,407.593033 319.456154,422.28313 L319.459366,422.303711 L319.496478,422.326383 C319.539012,422.372006 319.581618,422.417701 319.624295,422.463468 L319.619,422.404 L320.403395,422.89716 C351.714988,442.310282 398.611665,444.779107 425.317922,416.364732 C443.678208,393.248717 443.773252,354.771234 419.069406,336.093662 C410.428384,327.541081 400.621772,320.156474 390.69059,312.911281 L388.634427,311.413928 C388.291551,311.164588 387.948612,310.915329 387.605653,310.66611 L385.547999,309.170929 C370.461779,298.204771 355.501977,287.15131 344.304589,272.418065 C336.894635,252.441344 355.006447,228.996352 376.091255,230.658065 C398.372881,230.808934 416.673604,244.664866 431.291255,260.418065 C427.161668,245.99197 425.371665,229.831287 419.557922,216.524732 C404.160546,206.510165 385.725867,202.736777 367.451255,203.884732 C337.472307,204.469009 311.568077,232.339405 314.277922,262.498065 C314.259697,262.86223 314.245872,263.225511 314.236386,263.587888 C311.592549,292.507483 300.224752,320.235066 282.943988,343.492561 C253.569435,311.459537 224.194881,279.426529 194.820327,247.393505 C224.261601,231.515026 258.664703,214.348304 269.509528,180.001441 C280.080631,149.77131 273.311352,112.355082 247.438629,92.119628 C230.952218,78.2799979 208.787747,73.0560682 187.516672,74.1377391 Z M342.383684,312.74793 C349.06614,318.985943 356.807559,324.292428 364.66358,329.506565 L366.946725,331.018513 C368.215976,331.857887 369.485831,332.696972 370.752328,333.539288 L372.270258,334.551844 C387.175733,344.528326 401.39287,355.150856 408.411255,372.204732 C412.776602,392.556561 393.672516,413.954065 372.677922,410.124732 C350.949315,409.040747 330.056464,398.011533 316.1641,381.000077 L316.161719,380.961806 C308.804753,373.189225 308.106945,372.395196 300.749979,364.622614 C314.736965,345.990998 324.419443,325.166042 331.521965,303.313804 C334.881802,306.793168 338.557518,309.953926 342.383684,312.74793 Z M171.805116,262 C203.870077,296.887474 235.935039,331.774966 268,366.66244 C248.114884,389.07387 220.732433,406.096957 189.975261,406.728946 C160.071837,408.873897 126.508202,398.431959 112.110846,370.280663 C95.979246,343.047018 101.194052,303.870561 128.357093,285.7845 C141.599289,275.83876 156.654002,268.463816 171.805116,262 Z M245.425464,133.519353 C253.064714,159.99508 243.547405,191.029804 218.951423,204.99147 C206.122234,213.776549 192.298366,220.655891 178.196159,227 C174.898284,223.115431 171.349626,219.256973 167.731581,215.365733 L166.523245,214.067358 C150.384466,196.737348 133.273186,178.630518 131.114269,154.576427 C129.216526,126.835064 151.206447,102.403277 178.463366,99.1154977 C182.611464,98.3367348 186.897175,98.2231031 191.182424,98.1051835 C214.560659,96.6665813 239.432501,110.062539 245.425464,133.519353 Z" id="circle-2" fill="#000000" fill-rule="nonzero"></path>
    </g>
</svg>