<?xml version="1.0" encoding="UTF-8"?>
<svg width="512px" height="512px" viewBox="0 0 512 512" version="1.1" xmlns="http://www.w3.org/2000/svg" xmlns:xlink="http://www.w3.org/1999/xlink">
    <title>Anfora</title>
    <g id="Anfora" stroke="none" stroke-width="1" fill="none" fill-rule="evenodd">
        <g transform="translate(14.000000, -0.000000)" fill="#000000" fill-rule="nonzero">
            <path d="M89.8416903,93.50911 L208.389569,93.50911 C217.491866,93.50911 224.870737,100.886963 224.870737,109.988006 C224.870737,119.089049 217.491866,126.466902 208.389569,126.466902 L174.902329,126.466902 L174.902329,169.242348 C215.503648,192.793511 270.989556,237.016811 270.989556,287.688788 C270.989556,302.061442 268.487003,318.809948 263.965906,336.506017 L89.8416903,336.506017 L89.8416903,93.50911 Z" id="Path" transform="translate(180.415623, 215.007563) rotate(-10.000000) translate(-180.415623, -215.007563) "></path>
            <polygon id="Path" transform="translate(397.811195, 225.731795) rotate(10.000000) translate(-397.811195, -225.731795) " points="418.205703 281.76767 418.205703 100.39684 352.192518 100.39684 338.649177 63.1859664 456.973213 63.1859664 456.973213 388.277624"></polygon>
            <path d="M36.7895887,28.190399 L401.335179,28.190399 L401.335179,483.809601 L36.7895887,483.809601 L36.7895887,28.190399 Z M74.7630877,64.639935 L74.7630877,353.198763 L363.36168,353.198763 L363.36168,64.639935 L74.7630877,64.639935 Z" id="Shape" transform="translate(219.062384, 256.000000) rotate(-10.000000) translate(-219.062384, -256.000000) "></path>
        </g>
    </g>
</svg>