<svg width="512" xmlns="http://www.w3.org/2000/svg" height="512" id="screenshot-58e2ee3b-6ed5-8049-8004-22164845c09c" viewBox="0 0 512 512" xmlns:xlink="http://www.w3.org/1999/xlink" fill="none" version="1.1"><g id="shape-58e2ee3b-6ed5-8049-8004-22164845c09c"><defs><clipPath id="frame-clip-58e2ee3b-6ed5-8049-8004-22164845c09c-render-1" class="frame-clip frame-clip-def"><rect rx="20" ry="20" x="0" y="0" width="512" height="512" transform="matrix(1.000000, 0.000000, 0.000000, 1.000000, 0.000000, 0.000000)"/></clipPath></defs><g clip-path="url(#frame-clip-58e2ee3b-6ed5-8049-8004-22164845c09c-render-1)" fill="none"><g class="fills" id="fills-58e2ee3b-6ed5-8049-8004-22164845c09c"><rect rx="20" ry="20" x="0" y="0" width="512" height="512" transform="matrix(1.000000, 0.000000, 0.000000, 1.000000, 0.000000, 0.000000)" class="frame-background"/></g><g class="frame-children"><g id="shape-a2e26dde-73a9-8088-8004-30eac4da9deb" rx="0" ry="0" style="fill: rgb(0, 0, 0);"><g id="shape-a2e26dde-73a9-8088-8004-30eac4eb2807"><g class="fills" id="fills-a2e26dde-73a9-8088-8004-30eac4eb2807"><path d="M50.930,284.912C40.444,259.170,34.661,231.016,34.661,201.528C34.661,189.753,44.218,180.191,55.993,180.191C67.768,180.191,77.330,189.753,77.330,201.528C77.330,225.322,81.983,248.042,90.444,268.810C117.049,334.116,181.182,380.198,256.000,380.198C330.813,380.198,394.945,334.116,421.550,268.810C430.011,248.042,434.670,225.322,434.670,201.528C434.670,189.753,444.227,180.191,456.002,180.191C467.777,180.191,477.339,189.753,477.339,201.528C477.339,231.016,471.551,259.170,461.065,284.912C436.015,346.389,384.105,394.115,319.945,413.471L319.945,469.331L362.669,469.331C374.444,469.331,384.000,478.893,384.000,490.668C384.000,502.438,374.444,512.000,362.669,512.000L149.331,512.000C137.556,512.000,127.994,502.438,127.994,490.668C127.994,478.893,137.556,469.331,149.331,469.331L192.050,469.331L192.050,413.471C127.889,394.115,75.980,346.389,50.930,284.912ZZM277.276,421.854C270.276,422.524,263.177,422.867,256.000,422.867C248.818,422.867,241.724,422.524,234.718,421.854C234.718,442.228,234.718,469.331,234.718,469.331L277.276,469.331L277.276,421.854ZZM272.717,192.260C266.691,182.144,270.005,169.041,280.120,163.010C290.236,156.984,303.339,160.298,309.370,170.413C326.701,199.492,317.167,237.169,288.089,254.506C259.010,271.836,221.333,262.302,203.996,233.224C175.361,185.182,191.115,122.931,239.156,94.295C287.198,65.654,349.449,81.408,378.085,129.449C418.031,196.454,396.058,283.280,329.053,323.220C262.048,363.161,175.222,341.193,135.282,274.188C84.036,188.220,112.224,76.820,198.192,25.575C284.160,-25.671,395.560,2.517,446.805,88.485C452.837,98.600,449.517,111.703,439.407,117.735C429.292,123.761,416.183,120.446,410.157,110.331C370.969,44.593,285.781,23.035,220.038,62.223C154.300,101.411,132.742,186.599,171.930,252.342C199.813,299.116,260.427,314.455,307.207,286.572C353.981,258.689,369.320,198.075,341.437,151.295C324.859,123.484,288.819,114.365,261.002,130.943C233.191,147.521,224.072,183.561,240.650,211.378C245.924,220.226,257.394,223.125,266.242,217.852C275.090,212.578,277.996,201.108,272.717,192.260ZZ"/></g></g></g></g></g></g></svg>