<svg width="512" xmlns="http://www.w3.org/2000/svg" height="512" fill="none"><g data-testid="awakari"><defs><clipPath id="a" class="frame-clip frame-clip-def"><rect rx="20" ry="20" width="512" height="512"/></clipPath></defs><g clip-path="url(#a)"><g class="fills"><rect rx="20" ry="20" width="512" height="512" class="frame-background"/></g><g class="frame-children"><path d="M235.071.578c-16.414 1.286-26.391 3.021-47.633 8.484-7.145 1.799-23.881 7.391-24.782 8.226-.322.322-.966.579-1.352.579-1.803 0-21.242 9.383-31.799 15.296-6.63 3.727-22.4 13.882-25.49 16.388a744.63 744.63 0 0 1-8.304 6.62c-9.527 7.583-11.458 9.319-21.886 19.923-17.058 17.16-30.06 34.448-41.518 55.207-2.51 4.498-9.655 18.702-9.655 19.216 0 .129-.837 2.121-1.867 4.37-6.437 14.204-13.26 36.505-16.35 53.857-.579 3.021-1.287 7.198-1.674 9.319-3.154 18.124-3.154 57.649 0 75.837.322 2.121.966 5.591 1.288 7.712.772 4.499 2.317 11.89 3.154 15.103 1.609 6.106 5.857 21.016 6.372 22.173.322.707 1.803 4.627 3.283 8.676 1.545 4.049 2.961 7.648 3.219 8.034.193.321.965 2.057 1.609 3.856 2.124 5.784 9.913 20.373 16.607 31.106 5.279 8.419 19.826 28.857 21.629 30.271.193.192 2.446 2.635 4.892 5.462 10.749 12.211 24.911 25.258 39.008 35.734 3.411 2.57 18.603 12.789 18.989 12.789.193 0 1.866 1.028 3.798 2.25 11.844 7.519 36.368 18.38 53.105 23.458 3.733 1.092 7.466 2.249 8.368 2.57.901.257 3.089.772 4.827 1.157 6.18 1.35 12.231 2.764 14.483 3.342 1.224.321 4.699.9 7.725 1.285 3.025.386 7.531 1.029 9.977 1.35 9.334 1.221 29.932 2.378 25.748 1.414-.708-.129-5.021-1.478-9.591-2.892-22.079-6.877-37.978-16.196-51.625-30.206-7.402-7.584-10.621-11.89-13.324-17.931-1.996-4.306-2.639-6.491-4.892-16.196-.901-3.92-.901-25 0-29.499 2.703-13.239 4.313-18.638 8.11-26.479 5.536-11.375 16.093-23.715 26.907-31.299 8.947-6.362 20.212-11.375 31.541-14.074 8.046-1.928 27.422-1.928 33.344-.065 12.487 3.985 20.276 7.841 27.357 13.561 4.119 3.342 11.522 11.633 14.612 16.453 2.639 4.113 5.793 10.861 7.466 16.003 5.15 16.002 3.67 37.468-3.733 52.828-2.253 4.756-9.591 12.083-14.354 14.461-6.502 3.213-14.29 4.884-24.075 5.206l-4.441.128 3.476 2.314c12.938 8.612 25.361 13.753 43.063 17.738 6.244 1.478 34.824 1.671 40.875.321 16.35-3.599 31.026-9.64 42.226-17.224 17.638-12.018 37.85-31.363 53.427-51.029 14.741-18.638 25.426-37.276 37.013-64.59 1.416-3.342 7.338-21.401 8.239-25.257a648.76 648.76 0 0 0 1.867-7.52c2.446-9.64 3.54-15.938 5.6-30.849 2.703-19.794 2.124-44.281-1.674-70.695-2.317-16.196-8.175-39.59-13.002-51.736-.322-.9-1.416-3.664-2.382-6.106-2.51-6.555-2.382-6.17-7.596-17.031-2.639-5.463-6.372-12.597-8.175-15.746-3.476-5.977-12.359-19.28-14.933-22.301-.837-.9-2.768-3.406-4.378-5.463-4.119-5.27-18.602-20.052-25.104-25.515-11.522-9.704-25.039-18.573-32.828-21.594-1.223-.45-3.09-1.221-4.184-1.671-3.283-1.349-9.334-3.47-11.78-4.113-1.287-.321-5.278-1.35-8.819-2.249-13.968-3.599-20.662-4.371-37.656-4.371-15.449 0-22.336.579-32.506 2.893-3.67.771-19.44 5.591-20.921 6.362-.515.257-2.574 1.157-4.505 1.992-19.247 8.034-36.691 20.888-44.737 32.906-8.562 12.918-12.81 24.358-13.776 37.211-1.995 26.415 6.373 43.703 23.946 49.616 11.458 3.792 26.907 3.727 33.601-.129 1.674-.964 1.03-1.157-6.115-2.056-9.784-1.157-13.904-4.821-17.316-15.425-.901-2.763-.901-12.468 0-15.81 1.674-6.298 5.987-13.046 10.943-17.095 3.412-2.764 10.171-6.556 14.097-7.905 11.265-3.728 35.339-3.921 46.99-.257 11.265 3.534 17.637 7.133 24.139 13.689 4.441 4.434 5.085 5.27 7.788 9.64 5.407 8.933 8.175 17.995 10.428 34.384.644 4.177-.386 18.252-1.738 25.386-3.411 17.609-12.552 36.826-24.396 50.965-4.313 5.141-12.616 13.111-17.959 17.352-7.724 6.042-20.212 13.175-27.55 15.81-1.738.643-3.798 1.414-4.506 1.671-2.575 1.157-12.423 3.728-18.667 4.885-5.021.964-9.334 1.221-19.633 1.157-13.646 0-21.886-.9-32.507-3.471-26.262-6.363-52.075-21.273-70.098-40.553-5.214-5.592-15.642-19.088-17.831-23.073a466.578 466.578 0 0 1-2.381-4.177c-3.283-5.399-6.244-11.826-8.497-18.06-.773-2.121-1.609-4.37-1.931-5.077-.322-.707-1.03-3.021-1.609-5.141-.58-2.121-1.352-4.563-1.674-5.463-.258-.9-.837-3.342-1.223-5.463-.451-2.121-1.159-6.041-1.674-8.676-.45-2.635-1.223-9.769-1.609-15.81-1.545-24.487 2.317-47.366 11.136-65.811 5.536-11.569 16.801-26.929 27.615-37.79 11.844-11.89 24.01-19.988 42.097-28.15 4.571-2.057 24.911-9.062 32.507-11.183 1.609-.45 3.605-1.028 4.506-1.285.901-.321 3.798-1.028 6.437-1.671 2.639-.578 6.566-1.607 8.69-2.249L250.842 0h-4.828c-2.639.064-7.595.257-10.943.578Z" style="fill: rgb(0, 0, 0); fill-opacity: 1;" class="fills" data-testid="awakari"/></g></g></g></svg>