<svg width="512" xmlns="http://www.w3.org/2000/svg" height="512" id="screenshot-58e2ee3b-6ed5-8049-8004-2216468140ee" viewBox="0 0 512 512" xmlns:xlink="http://www.w3.org/1999/xlink" fill="none" version="1.1"><g id="shape-58e2ee3b-6ed5-8049-8004-2216468140ee"><defs><clipPath id="frame-clip-58e2ee3b-6ed5-8049-8004-2216468140ee-render-1" class="frame-clip frame-clip-def"><rect rx="20" ry="20" x="0" y="0" width="512" height="512" transform="matrix(1.000000, 0.000000, 0.000000, 1.000000, 0.000000, 0.000000)"/></clipPath></defs><g clip-path="url(#frame-clip-58e2ee3b-6ed5-8049-8004-2216468140ee-render-1)" fill="none"><g class="fills" id="fills-58e2ee3b-6ed5-8049-8004-2216468140ee"><rect rx="20" ry="20" x="0" y="0" width="512" height="512" transform="matrix(1.000000, 0.000000, 0.000000, 1.000000, 0.000000, 0.000000)" class="frame-background"/></g><g class="frame-children"><g id="shape-f22af9e7-b5ba-807e-8004-3b925ddb8a64" rx="0" ry="0" style="fill: rgb(0, 0, 0);"><g id="shape-f22af9e7-b5ba-807e-8004-3b925ddf4e3e"><g class="fills" id="fills-f22af9e7-b5ba-807e-8004-3b925ddf4e3e"><path d="M262.495,2.636C258.613,4.161,252.236,8.597,247.938,12.756C232.134,28.144,195.397,72.090,190.545,81.517C188.742,84.983,184.029,91.638,179.870,96.351C175.711,101.065,171.552,106.748,170.443,108.828C169.334,110.907,167.116,114.512,165.452,116.869C163.789,119.087,158.937,127.543,154.778,135.584C150.619,143.625,144.935,153.606,142.162,157.626C139.251,161.785,136.617,167.053,136.201,169.133C135.785,171.351,129.547,179.807,122.061,188.403C114.713,196.859,105.841,207.950,102.375,212.941C89.343,231.794,80.471,246.074,77.282,253.421C75.342,257.580,70.074,267.284,65.499,274.909C60.785,282.534,55.794,291.545,54.270,295.011C49.556,305.408,42.902,322.460,42.902,324.123C42.902,325.094,39.575,332.996,35.416,342.007C27.652,358.365,22.800,372.783,23.909,375.833C24.186,376.665,22.939,380.824,21.136,384.983C19.334,389.003,17.532,395.241,17.116,398.846C16.700,402.312,15.314,407.718,14.205,410.768C13.096,413.818,11.571,420.057,10.878,424.631C10.046,429.206,7.966,437.247,6.164,442.654C3.114,451.803,2.976,453.328,4.223,468.855C4.917,477.866,5.748,485.629,6.164,486.045C6.442,486.461,7.828,485.907,9.076,484.798C11.294,482.995,11.432,483.411,10.600,489.095C10.046,492.561,9.214,496.720,8.798,498.384C7.273,503.929,10.462,501.849,12.819,495.888C15.453,489.234,18.364,489.650,16.423,496.304C13.650,506.008,18.087,500.463,21.691,489.788L23.493,484.243L22.800,491.175C22.246,494.918,21.691,499.354,21.275,500.879C20.582,503.374,20.721,503.513,22.107,501.156C22.939,499.770,24.464,494.779,25.573,490.066C27.236,482.580,27.514,482.164,27.791,486.323C27.929,489.927,28.345,488.957,29.039,482.857C30.286,472.459,34.584,452.774,35.970,450.972C36.525,450.140,38.465,444.594,40.129,438.495C41.793,432.395,44.011,426.434,45.120,425.325C47.754,422.136,51.220,413.402,51.220,409.521C51.220,407.718,53.022,402.312,55.379,397.321C57.597,392.469,59.953,385.399,60.369,381.656C60.924,377.358,64.667,367.792,69.935,356.702C74.787,346.720,79.085,336.462,79.639,333.828C80.194,331.194,81.303,327.728,82.273,326.203C83.244,324.678,85.046,320.658,86.432,317.192C87.818,313.726,92.948,304.160,97.939,295.981C102.929,287.663,108.752,277.127,110.831,272.414C113.049,267.700,116.654,261.878,119.149,259.659C121.506,257.303,124.833,253.144,126.497,250.232C129.269,245.242,131.765,244.133,136.340,245.935C139.944,247.321,137.310,249.262,131.903,249.262C123.585,249.262,129.685,251.896,138.558,252.173L146.182,252.312L137.171,254.114L128.160,255.916L137.865,256.194C145.628,256.471,146.598,256.748,142.717,257.441C139.528,258.135,144.380,258.828,157.550,259.521C170.859,260.214,179.593,260.075,184.722,259.105C194.981,256.887,206.626,256.748,218.964,258.550C226.728,259.798,236.570,259.798,257.088,258.689C272.338,257.857,286.755,257.303,288.973,257.441C291.330,257.580,297.153,257.025,302.143,256.194C315.036,254.253,327.790,253.698,376.311,252.589C400.018,252.035,422.753,252.035,427.189,252.589L434.953,253.560L440.082,265.482C443.825,274.077,446.459,284.059,449.925,302.913C452.559,317.053,456.163,331.748,457.688,335.768C460.600,342.561,460.738,344.918,460.877,412.155L461.154,481.609L465.036,495.334C467.115,502.958,469.611,510.029,470.581,510.999C472.245,512.940,476.820,511.831,476.820,509.613C476.820,508.781,477.651,508.920,478.899,509.890C480.147,510.999,480.979,510.999,480.979,510.167C480.979,509.336,482.088,508.642,483.474,508.642C488.603,508.504,492.208,507.811,493.178,506.424C493.733,505.592,497.199,504.899,500.803,504.761C504.546,504.622,507.873,504.206,508.428,503.790C508.844,503.236,507.735,498.106,505.932,492.145C502.467,481.609,502.467,480.777,501.635,410.075C500.942,348.800,500.526,337.571,498.585,331.055C497.199,326.896,494.287,314.696,492.069,304.022C484.722,269.641,483.613,265.343,479.315,254.807C468.086,227.358,467.947,226.804,463.650,198.661C460.322,177.173,456.995,164.281,448.261,141.129C439.389,117.978,436.755,113.126,425.664,99.262C421.228,93.717,412.356,81.656,405.840,72.506C398.493,62.248,388.372,50.464,379.639,41.869C367.300,29.946,363.003,26.758,349.278,19.549C340.544,14.835,331.811,10.677,329.870,10.122C327.929,9.567,322.106,7.211,316.700,4.854C307.689,0.972,305.609,0.556,288.280,0.141C271.922,-0.275,268.733,0.141,262.495,2.636ZZM301.866,42.146C302.421,42.978,307.273,45.335,312.541,47.414C337.356,57.257,355.655,71.536,369.657,92.192C373.816,98.292,382.411,109.937,388.788,117.978C402.652,135.445,401.542,133.504,410.969,158.042C418.871,178.837,421.921,190.205,423.446,204.484L424.278,213.218L404.454,213.218C371.043,213.356,317.532,215.852,300.064,218.070C290.914,219.318,271.922,220.843,257.781,221.674C195.813,225.140,183.059,226.388,172.107,229.992C166.977,231.656,155.194,233.874,145.212,234.983C138.003,235.676,137.310,236.231,140.914,238.865C142.855,240.390,142.439,240.667,138.003,241.499C131.487,242.746,130.794,242.053,133.567,237.894C134.815,235.953,135.508,234.151,135.092,233.735C134.676,233.319,137.033,230.269,140.221,226.804C155.194,211.277,166.007,197.136,170.166,187.848C171.829,184.244,175.295,178.560,177.929,175.233C182.643,169.549,195.397,145.704,195.397,142.654C195.397,141.822,195.951,141.129,196.783,141.129C197.476,141.129,199.833,138.495,201.774,135.168C203.853,131.979,208.290,126.157,211.617,122.414C214.944,118.532,220.073,110.769,222.985,105.085C229.639,92.469,239.620,80.547,273.308,45.057L278.576,39.651L289.667,40.205C295.905,40.482,301.312,41.314,301.866,42.146ZZ" stroke="none" style="fill: rgb(0, 0, 0);"/></g></g></g></g></g></g></svg>