<svg xmlns:xlink="http://www.w3.org/1999/xlink" width="512" xmlns="http://www.w3.org/2000/svg" height="512" id="screenshot-e896cdf2-4b36-80a4-8004-193de1671353" viewBox="0 0 512 512" style="-webkit-print-color-adjust: exact;" fill="none" version="1.1"><g id="shape-e896cdf2-4b36-80a4-8004-193de1671353"><defs><clipPath class="frame-clip-def frame-clip" id="frame-clip-e896cdf2-4b36-80a4-8004-193de1671353-rumext-id-1"><rect rx="20" ry="20" x="0" y="0" width="512" height="512" transform="matrix(1.000000, 0.000000, 0.000000, 1.000000, 0.000000, 0.000000)"/></clipPath></defs><g clip-path="url(#frame-clip-e896cdf2-4b36-80a4-8004-193de1671353-rumext-id-1)" fill="none"><clipPath class="frame-clip-def frame-clip" id="frame-clip-e896cdf2-4b36-80a4-8004-193de1671353-rumext-id-1"><rect rx="20" ry="20" x="0" y="0" width="512" height="512" transform="matrix(1.000000, 0.000000, 0.000000, 1.000000, 0.000000, 0.000000)"/></clipPath><g class="fills" id="fills-e896cdf2-4b36-80a4-8004-193de1671353"><rect rx="20" ry="20" x="0" y="0" transform="matrix(1.000000, 0.000000, 0.000000, 1.000000, 0.000000, 0.000000)" width="512" height="512" class="frame-background"/></g><g class="frame-children"><g id="shape-e896cdf2-4b36-80a4-8004-193dde57c9d6"><g class="fills" id="fills-e896cdf2-4b36-80a4-8004-193dde57c9d6"><path fill-rule="nonzero" rx="0" ry="0" d="M326.310,0.000L326.471,2.357L326.861,4.458L327.678,7.087L328.238,8.469L328.905,9.875L330.493,12.694C331.419,14.170,332.464,15.552,333.532,16.926L336.869,21.157C337.887,22.531,338.860,23.930,339.755,25.388C340.598,26.763,341.350,28.179,342.072,29.620C342.960,31.391,343.702,33.303,344.040,35.262L344.252,38.083L343.965,40.904L343.336,43.725L342.918,45.135L341.867,47.955L340.408,50.755C339.512,52.187,338.481,53.511,337.292,54.712C336.090,55.927,334.747,56.978,333.341,57.942C332.011,58.854,330.605,59.609,329.166,60.328L326.536,61.355L324.435,61.858L322.079,62.061L323.610,64.359L325.352,66.274C326.991,67.833,328.713,69.305,330.548,70.632L333.362,72.612L339.004,76.287C340.450,77.250,341.850,78.275,343.236,79.324L347.467,82.670L354.519,88.512L358.745,92.084L360.140,93.330L362.850,95.967L364.127,97.343L366.428,100.144C367.432,101.490,368.316,102.904,369.125,104.375C370.132,106.206,370.974,108.125,371.860,110.017C372.950,112.345,374.106,114.661,375.016,117.069L375.974,119.890L376.341,121.300L376.623,122.711L376.956,125.532L377.030,126.942L377.087,132.584C377.087,134.936,377.088,137.287,376.960,139.636C376.884,141.055,376.685,142.462,376.483,143.868L376.023,146.689L375.310,150.920L374.769,153.735C374.384,155.932,373.837,158.183,374.489,160.391C375.205,162.815,377.075,164.652,378.623,166.562L379.746,167.901L381.885,170.672C382.861,172.031,383.757,173.445,384.585,174.898C385.365,176.265,386.107,177.677,386.715,179.129L387.830,181.950C388.313,183.351,388.770,184.756,389.176,186.182C389.836,188.496,390.426,190.849,390.768,193.234C391.036,195.104,391.151,196.987,391.151,198.876C391.151,200.288,391.096,201.703,390.946,203.107C390.538,206.962,389.416,210.675,388.371,214.391L390.289,212.864L390.844,212.273L393.069,210.098L395.555,207.799L396.888,206.730L399.625,204.966L401.003,204.318L403.661,203.495L404.350,203.311L406.707,203.107C406.709,206.398,406.633,209.703,406.946,212.984C407.020,213.754,407.122,214.521,407.231,215.288L407.452,216.821C407.672,218.354,407.865,219.889,407.865,221.444C407.865,224.291,407.241,227.085,406.941,229.906L406.472,235.548L405.480,242.601L405.107,245.421C404.889,246.842,404.661,248.251,404.338,249.653C403.670,252.549,402.688,255.351,401.608,258.116C400.484,260.990,399.216,263.797,397.880,266.579L396.495,269.399L395.197,272.220C394.658,273.576,394.149,274.975,394.091,276.452L394.139,277.862L394.907,280.683L395.544,282.094L397.041,284.915L397.815,286.325L400.086,290.556L401.663,293.377C402.722,295.259,403.843,297.105,404.845,299.019C405.805,300.856,406.719,302.730,407.477,304.661C408.207,306.520,408.897,308.395,409.487,310.303C410.495,313.564,411.357,316.862,412.165,320.176C412.851,322.985,413.474,325.803,414.034,328.639C414.404,330.507,414.739,332.385,414.928,334.281C415.162,336.621,415.179,338.983,415.162,341.333C415.145,343.693,415.083,346.046,414.746,348.386C414.333,351.255,413.573,354.076,412.742,356.848L411.363,361.080L410.282,363.901L409.667,365.311C409.034,366.754,408.282,368.183,407.441,369.516L405.594,372.155L404.550,373.326L403.422,374.334L400.939,375.745L398.286,376.386L397.055,376.512C395.564,376.594,394.098,376.577,392.602,376.595L393.853,374.238L394.292,373.550L395.128,372.138L397.615,368.125L400.853,362.490L403.288,358.259C404.591,355.949,405.898,353.627,406.990,351.207L407.619,349.796L408.629,346.975L409.227,344.154L409.467,341.333C409.511,339.923,409.533,338.512,409.506,337.102C409.478,335.689,409.427,334.278,409.286,332.871C409.097,330.975,408.762,329.096,408.388,327.229C407.911,324.845,407.360,322.477,406.564,320.176C405.896,318.244,405.063,316.382,404.193,314.534C403.300,312.637,402.358,310.763,401.409,308.893L399.214,304.661C398.162,302.739,397.034,300.863,395.849,299.019C393.371,295.164,390.596,291.518,388.015,287.736C386.774,285.915,385.645,284.022,384.579,282.094C383.813,280.704,383.088,279.287,382.390,277.862L381.565,276.180C381.155,275.338,380.754,274.492,380.383,273.631C379.788,272.246,379.259,270.838,378.809,269.399C377.969,266.716,377.473,263.954,377.014,261.187L376.740,259.526C376.431,257.660,376.071,255.777,375.971,253.884L375.971,251.063L376.099,249.653L376.868,244.011L377.327,239.780L377.812,236.959C378.211,235.053,378.796,233.193,379.310,231.317L380.396,227.085L381.614,221.444L382.565,217.212L383.956,211.570C384.293,210.167,384.644,208.762,384.895,207.339C385.143,205.934,385.323,204.531,385.423,203.107C385.520,201.698,385.526,200.288,385.538,198.876C385.555,197.002,385.520,195.096,385.289,193.234C385.110,191.800,384.832,190.395,384.442,189.003C384.039,187.564,383.517,186.162,382.974,184.771C382.418,183.351,381.801,181.960,381.163,180.575L379.837,177.945L378.633,175.844L377.087,173.488L377.225,175.844L377.322,176.533L377.490,177.945L378.095,181.957C378.281,183.359,378.391,184.769,378.437,186.182C378.496,188.062,378.442,189.952,378.256,191.824C378.068,193.719,377.731,195.598,377.358,197.466C376.782,200.344,376.080,203.186,375.016,205.928C373.877,208.872,372.404,211.675,370.806,214.391C369.401,216.781,367.859,219.088,366.401,221.444C364.960,223.774,363.560,226.131,362.175,228.496L360.613,231.317L359.206,234.138L358.576,235.548C357.988,236.947,357.421,238.348,356.916,239.780C356.105,242.079,355.381,244.424,354.979,246.832C354.435,250.089,354.524,253.416,354.519,256.705C354.515,260.466,354.411,264.257,354.942,267.989C355.213,269.892,355.673,271.756,356.088,273.631L356.629,276.452L356.828,279.273L356.477,282.092L356.060,283.497L354.718,286.247L352.715,288.758L351.511,289.854L350.210,290.817C348.906,291.719,347.475,292.410,346.055,293.104L344.646,293.751L340.415,295.565L337.594,296.650C336.175,297.201,334.722,297.702,333.364,298.394L330.562,300.009L327.874,302.158L325.506,304.723L323.686,307.488L323.000,308.894L321.998,311.713L321.328,314.534L321.094,315.945L320.816,318.766L320.820,321.587L320.933,322.997L321.399,325.818C321.701,327.248,322.121,328.665,322.585,330.050L324.087,334.281L326.198,339.923C326.995,342.246,327.647,344.613,328.314,346.975C328.840,348.847,329.417,350.713,329.815,352.617C330.108,354.016,330.307,355.423,330.405,356.848C330.500,358.262,330.465,359.667,330.405,361.080L330.280,362.490L330.082,363.901C329.880,365.334,329.471,366.744,329.074,368.132L328.184,370.952L327.231,373.747L326.191,376.385L324.997,378.556L323.792,379.904L322.079,380.826L322.073,375.121C322.050,373.730,322.053,372.340,321.947,370.950C321.839,369.524,321.645,368.121,321.348,366.722C321.045,365.290,320.619,363.884,320.177,362.490L317.882,355.438C317.305,353.571,316.764,351.693,316.289,349.796C315.820,347.927,315.414,346.043,315.032,344.154C314.558,341.820,314.094,339.474,313.857,337.102C313.621,334.758,313.628,332.402,313.617,330.050L313.616,322.997L313.617,314.534C313.621,312.656,313.606,310.768,313.743,308.893C313.847,307.472,314.015,306.066,314.266,304.664C314.588,302.857,315.025,301.067,315.265,299.245L315.305,297.833L315.390,297.145L315.026,294.788L314.095,297.145L313.123,299.245C311.372,302.898,309.472,306.482,308.101,310.303C307.112,313.060,306.391,315.898,305.803,318.766C305.421,320.629,305.235,322.526,304.970,324.408L303.982,331.234L303.802,333.335L303.742,335.691L301.386,337.223L300.699,337.831L299.290,338.965L296.711,341.417L294.108,344.161C292.477,346.001,290.907,347.885,289.363,349.796L286.010,354.028C284.942,355.414,283.880,356.809,282.900,358.259L281.110,361.078L279.621,363.874L278.333,366.512L277.056,368.682L276.213,369.550L275.838,370.031L274.123,370.953C274.135,369.472,274.106,367.977,274.179,366.496C274.269,364.670,274.468,362.867,274.853,361.077C275.159,359.650,275.571,358.231,276.041,356.848C276.523,355.425,277.018,354.009,277.584,352.617C278.166,351.181,278.808,349.774,279.495,348.386C280.684,345.986,282.055,343.687,283.326,341.333C284.859,338.497,286.229,335.574,287.995,332.871C289.593,330.422,291.463,328.171,293.195,325.818C294.882,323.529,296.524,321.197,298.003,318.766L299.629,315.945L300.335,314.534L301.438,311.713C302.032,309.888,302.367,307.963,302.673,306.072C302.900,304.663,303.122,303.259,303.283,301.840L303.377,299.019C303.326,297.124,302.972,295.251,302.713,293.377L301.950,287.736C301.679,285.857,301.342,283.985,301.161,282.094C300.937,279.749,300.923,277.394,300.924,275.041C300.924,272.694,300.899,270.323,301.181,267.989C301.474,265.580,302.071,263.234,302.844,260.937C303.331,259.494,303.892,258.097,304.508,256.705L306.018,253.884C307.936,250.671,310.349,247.764,312.808,244.957L315.026,242.601L312.669,243.876L310.569,245.275L307.940,247.317C306.518,248.541,305.125,249.785,303.803,251.120L301.222,253.890L300.061,255.296L299.000,256.705L297.208,259.526L295.792,262.347L295.218,263.758L294.315,266.579C293.835,268.406,293.515,270.328,293.481,272.220L293.466,273.631L293.763,279.273C293.858,281.147,293.895,283.039,293.811,284.915C293.749,286.324,293.675,287.757,293.409,289.146L293.139,290.556L292.398,293.377C291.951,294.801,291.485,296.214,290.955,297.609C290.040,300.024,289.014,302.424,287.715,304.661L285.917,307.482L283.695,310.302C282.419,311.736,281.113,313.131,279.743,314.479C275.856,318.302,271.574,321.700,267.070,324.766C263.414,327.254,259.576,329.467,255.787,331.742C252.470,333.732,249.140,335.703,245.913,337.835L243.094,339.816L241.687,340.882L238.917,343.168C237.563,344.381,236.281,345.656,235.089,347.030C233.569,348.782,232.202,350.671,230.945,352.617C229.504,354.851,228.217,357.190,227.250,359.669L226.299,362.490L225.959,363.901L225.727,365.311L225.618,366.722L225.700,369.543L226.051,373.774C226.179,375.653,226.195,377.543,226.405,379.416L227.337,386.243L227.518,388.343L227.577,390.700L225.505,389.777L223.906,388.429L222.202,386.258L220.712,383.621L219.443,380.825L218.327,378.006L217.381,375.185C216.719,372.862,216.181,370.510,215.752,368.132C215.499,366.732,215.241,365.320,215.124,363.901C214.889,361.088,214.819,358.256,215.010,355.438C215.169,353.067,215.557,350.727,215.948,348.386L216.697,344.154L217.003,342.744L217.763,339.923L218.686,337.102L220.260,332.871C221.192,330.481,222.186,328.127,223.305,325.818C224.006,324.370,224.820,322.970,225.641,321.587C227.378,318.656,229.289,315.836,231.352,313.124L236.971,306.072L238.999,303.258L239.915,301.875L242.915,297.145L244.503,294.788L242.585,296.320L242.030,296.928L240.869,298.062C238.879,300.227,236.941,302.437,235.012,304.657C233.422,306.485,231.873,308.348,230.158,310.063C227.997,312.225,225.604,314.130,223.344,316.185C221.418,317.936,219.550,319.750,217.709,321.592C216.322,322.980,214.932,324.374,213.604,325.818C212.347,327.185,211.099,328.571,209.972,330.050C207.903,332.762,205.986,335.583,204.238,338.512C202.869,340.807,201.633,343.175,200.438,345.565C199.509,347.424,198.589,349.290,197.784,351.207C197.201,352.590,196.660,353.992,196.249,355.438C195.853,356.830,195.578,358.235,195.392,359.669C195.210,361.074,195.153,362.490,195.036,363.901L194.791,366.722C194.669,368.132,194.531,369.536,194.531,370.953C194.531,373.290,194.856,375.615,195.015,377.942C195.146,379.842,195.121,381.745,195.136,383.647L192.779,383.169L190.679,382.251C188.768,381.159,186.972,379.905,185.261,378.522C183.825,377.360,182.412,376.178,181.032,374.949L175.391,369.777C173.120,367.739,170.734,365.823,168.577,363.661C166.440,361.521,164.515,359.174,162.588,356.847C161.432,355.452,160.274,354.057,159.174,352.617C157.780,350.792,156.463,348.906,155.220,346.975C153.481,344.274,151.888,341.491,150.672,338.512C149.923,336.679,149.331,334.782,148.815,332.871C148.313,331.010,147.895,329.133,147.598,327.229C147.307,325.358,147.167,323.467,146.962,321.587L146.583,318.766L146.174,315.945L146.015,314.534L145.881,311.713C145.881,310.295,146.004,308.890,146.174,307.482L146.783,303.251L147.446,297.692L147.997,295.241L148.737,293.499L150.001,291.967L149.863,294.324L149.765,295.012L149.598,296.424C149.334,298.231,149.030,300.026,148.830,301.843C148.625,303.706,148.589,305.609,148.652,307.482C148.715,309.372,148.884,311.266,149.245,313.124C149.705,315.495,150.291,317.838,150.889,320.176C151.989,324.475,153.208,328.751,154.872,332.871C155.842,335.274,156.974,337.601,158.120,339.923C159.041,341.790,159.975,343.649,160.964,345.482L162.430,347.933L163.340,349.067L163.760,349.675L165.517,351.207L164.585,348.850L164.246,348.161L163.618,346.750C162.771,344.947,161.886,343.164,161.104,341.331C159.925,338.567,158.926,335.730,158.001,332.871C157.405,331.033,156.839,329.199,156.421,327.312L156.130,324.860L156.279,323.726L156.289,323.119L157.054,321.587L157.986,323.944L158.972,326.044L160.331,328.674L163.513,334.281L165.953,338.512L167.693,341.331L169.611,344.119L171.593,346.750L172.755,348.161L173.296,348.850L175.390,351.207L174.180,348.850L171.573,344.119C170.135,341.377,168.720,338.613,167.588,335.727L166.636,333.096L166.235,331.684L166.020,330.996L165.517,328.639L167.611,330.171L168.152,330.779L169.319,331.913C170.789,333.583,172.118,335.370,173.504,337.109C175.009,338.999,176.520,340.882,178.092,342.717C179.186,343.995,180.267,345.288,181.410,346.522L182.608,347.656L183.164,348.264L185.263,349.796L183.675,347.439C181.587,344.178,179.524,340.876,177.956,337.328L177.219,335.227L176.800,332.871L179.158,334.264L181.258,335.741L183.881,337.776C185.234,338.902,186.552,340.055,187.858,341.235C189.392,342.618,190.843,344.122,192.315,345.565L191.064,343.208L190.626,342.520L189.795,341.109L188.211,338.512L186.802,335.916L185.906,333.817L185.263,331.460L187.614,332.965L188.273,333.517L190.741,335.433L192.126,336.456L192.785,337.007L195.136,338.512L193.662,336.156L193.122,335.467L192.102,334.055C190.674,332.213,189.197,330.406,187.680,328.636L181.451,321.587C179.560,319.337,177.756,317.007,176.164,314.534L174.471,311.713L173.030,308.893L171.814,306.072C171.057,304.242,170.511,302.331,169.972,300.430C169.449,298.583,169.035,296.686,168.761,294.788C168.290,291.521,168.328,288.208,168.339,284.915L168.393,280.683L168.582,277.862C168.708,276.441,168.979,275.020,169.297,273.631C169.624,272.205,170.017,270.776,170.516,269.399C171.382,267.012,172.394,264.684,173.386,262.347C174.186,260.463,174.953,258.559,175.826,256.705L177.181,253.884C178.153,251.979,179.163,250.099,180.224,248.242L184.390,241.190C185.438,239.378,186.441,237.526,187.148,235.548C188.436,231.949,188.770,228.040,188.212,224.264C187.853,221.834,187.171,219.407,186.035,217.219L184.342,214.469L183.296,213.168L182.141,211.964L180.884,210.885L178.189,209.198L176.795,208.600L173.979,207.824L172.569,207.605L169.748,207.395C167.399,207.311,165.041,207.385,162.696,207.212C158.835,206.926,155.005,206.089,151.417,204.615L148.653,203.339L147.334,202.590L146.092,201.739L143.996,199.736L142.587,197.317L142.156,195.994L141.882,194.623L141.754,193.229L141.882,190.415L142.587,187.613L143.202,186.237L144.971,183.606L147.327,181.196L152.371,177.000L154.111,175.383L155.643,173.488C152.339,174.426,149.015,175.310,145.768,176.435C144.330,176.935,142.918,177.536,141.539,178.176C138.601,179.541,135.793,181.177,133.076,182.936C130.638,184.515,128.253,186.186,126.025,188.052C123.130,190.475,120.443,193.161,118.020,196.057C116.159,198.279,114.465,200.656,112.921,203.107C111.509,205.349,110.198,207.663,109.286,210.160L108.438,212.981L108.153,214.391L107.954,215.802L107.805,218.623L107.994,221.444L108.608,224.264L109.111,225.674C109.649,227.180,110.549,228.525,111.429,229.846L112.475,231.169L113.631,232.425L114.888,233.582L117.582,235.555L120.383,237.066L123.202,238.160L124.613,238.540L127.434,238.908C128.846,238.973,130.273,238.809,131.665,238.589C134.022,238.217,136.350,237.674,138.718,237.366L141.539,237.086C143.420,236.988,145.297,236.966,147.180,236.966C149.058,236.966,150.955,236.993,152.822,237.204L155.643,237.640L158.458,238.414L161.202,239.692L163.658,241.617L165.477,244.093L166.076,245.448L166.713,248.244L166.843,251.063L166.789,252.474L166.462,255.293L166.175,256.700L165.308,259.471L164.709,260.810L163.115,263.356C161.757,265.165,160.032,266.676,158.402,268.229L154.232,272.242L148.596,277.862C146.772,279.716,144.905,281.544,143.194,283.504L140.788,286.325C139.343,288.153,137.933,290.006,136.670,291.967C134.945,294.647,133.513,297.483,132.305,300.430C131.547,302.279,130.889,304.176,130.260,306.072L128.901,310.303L128.159,313.124C127.711,314.976,127.514,316.883,127.252,318.766L126.679,322.997L126.552,324.408L126.553,327.229C126.630,328.648,126.872,330.059,127.092,331.460L128.012,337.102L128.440,339.921L128.601,341.326L128.741,344.071L128.612,346.522L128.338,347.656L128.259,348.264L127.434,349.796L126.502,347.439L126.164,346.751L125.537,345.339L124.934,344.091C124.295,342.713,123.652,341.336,123.098,339.920C122.023,337.171,121.262,334.325,120.567,331.460C120.226,330.057,119.881,328.650,119.625,327.229C119.372,325.825,119.203,324.419,119.098,322.997C118.961,321.121,118.976,319.234,118.972,317.355L118.971,308.893L118.971,299.019C118.972,297.141,118.944,295.255,119.027,293.377C119.089,291.960,119.192,290.554,119.374,289.146C119.617,287.266,119.977,285.397,120.121,283.504C120.229,282.089,120.227,280.687,120.120,279.273L119.761,276.452L119.242,273.631C118.946,272.215,118.662,270.794,118.276,269.399C117.877,267.958,117.409,266.540,116.810,265.168C115.486,262.137,113.644,259.371,111.696,256.712C110.378,254.914,108.999,253.158,107.489,251.516L106.260,250.382L105.674,249.774L103.456,248.242C104.543,250.571,105.723,252.877,106.515,255.330C107.254,257.616,107.636,259.983,108.033,262.347L108.694,266.579L108.858,267.989C109.047,270.339,109.124,272.686,108.970,275.041C108.784,277.898,108.248,280.704,107.682,283.504C106.724,288.242,105.508,292.920,104.340,297.609L103.298,301.840C102.980,303.245,102.683,304.650,102.448,306.072L101.663,311.713C101.619,312.026,101.571,312.339,101.523,312.652L101.226,314.529C101.082,315.469,100.952,316.410,100.874,317.355C100.682,319.704,100.625,322.051,100.641,324.408L100.761,328.639L101.038,331.460L101.452,334.281L101.862,337.102L102.433,341.333C102.723,343.225,103.085,345.102,103.478,346.975C103.776,348.397,104.119,349.817,104.547,351.207C105.298,353.638,106.282,355.984,107.420,358.259C108.643,360.706,110.027,363.086,111.621,365.311C112.673,366.782,113.807,368.184,115.001,369.543C116.709,371.488,118.547,373.311,120.331,375.185C122.076,377.015,123.785,378.877,125.398,380.826C126.526,382.190,127.601,383.587,128.635,385.023L130.269,387.653L131.188,389.753L131.665,392.110C129.771,392.093,127.849,392.157,125.960,391.956C124.545,391.807,123.130,391.583,121.795,391.064L119.028,389.653L116.410,387.557L115.199,386.315L112.992,383.626C111.955,382.276,111.003,380.845,110.079,379.416L104.796,370.953C103.620,369.076,102.386,367.228,101.273,365.311L99.665,362.490L98.200,359.669L97.530,358.259L96.896,356.848L95.835,354.028L95.033,351.207L94.329,348.386C93.846,346.507,93.301,344.641,92.892,342.744C92.489,340.876,92.261,338.991,91.989,337.102L91.579,334.281L91.324,332.592C91.198,331.747,91.082,330.901,91.001,330.050C90.800,327.940,90.766,325.822,90.761,323.704L90.762,321.587C90.762,319.238,90.726,316.879,90.888,314.534C91.051,312.162,91.443,309.826,91.826,307.482C92.057,306.070,92.276,304.648,92.580,303.251C92.892,301.822,93.243,300.406,93.713,299.019C94.676,296.179,95.846,293.414,96.762,290.556C97.358,288.696,97.857,286.807,98.336,284.915C98.929,282.572,99.506,280.228,100.002,277.862L100.747,273.631L101.212,270.810L101.621,267.989L101.749,266.579L101.729,263.758C101.491,260.818,100.550,257.989,99.393,255.295C98.773,253.850,98.086,252.426,97.301,251.063C96.449,249.582,95.493,248.180,94.443,246.832C92.574,244.429,90.399,242.286,88.388,240.005L86.652,237.905L85.120,235.548C88.407,235.551,91.713,235.468,94.989,235.788C96.335,235.919,97.663,236.149,98.998,236.359L100.411,236.571L101.099,236.701L103.456,236.959C102.557,234.148,101.601,231.346,100.855,228.489C100.489,227.088,100.169,225.688,99.900,224.264L99.703,222.854L99.592,220.033C99.643,218.140,99.982,216.240,100.365,214.391L101.326,210.160L101.727,208.749L102.704,205.928C103.480,204.014,104.323,202.134,105.247,200.287C106.972,196.836,108.895,193.471,111.255,190.413C112.781,188.436,114.468,186.618,116.207,184.828L118.977,182.210L121.792,179.860L123.202,178.792C124.593,177.792,125.996,176.815,127.434,175.884C130.153,174.124,132.961,172.496,135.897,171.122C139.445,169.462,143.169,168.164,146.954,167.167L149.055,166.715L151.412,166.435L150.341,164.078L149.899,163.396L149.084,161.998L147.262,159.476L146.216,158.211L143.935,155.807C141.889,153.841,139.592,152.174,137.302,150.511C132.584,147.084,127.572,143.900,123.666,139.509L121.495,136.795L120.535,135.400L118.857,132.584L118.144,131.174L117.010,128.353C116.533,126.973,116.208,125.544,115.890,124.121L115.021,119.890C114.367,116.619,113.684,113.351,113.455,110.017C113.359,108.610,113.339,107.195,113.355,105.785C113.372,104.372,113.430,102.960,113.570,101.554C113.759,99.657,114.103,97.782,114.464,95.912L115.339,91.680C115.977,88.833,116.706,86.003,117.600,83.224C118.165,81.466,118.769,79.714,119.528,78.029L120.185,76.895L120.468,76.287L121.792,74.755L123.380,77.112L128.921,86.039C130.445,88.431,132.031,90.781,133.679,93.091L136.785,97.322L141.047,102.964L145.495,108.606L148.998,112.837L155.409,119.890L161.298,126.716L163.218,128.816L165.517,131.174L165.055,128.816C164.482,126.287,163.847,123.769,163.054,121.298C162.288,118.913,161.362,116.588,160.472,114.248L159.425,111.427L157.866,107.196L156.201,102.964C155.628,101.541,155.041,100.121,154.388,98.733C153.712,97.293,152.968,95.898,152.207,94.501L150.599,91.680C148.807,88.479,146.988,85.254,145.701,81.807C145.017,79.974,144.492,78.083,144.105,76.165L143.569,73.344C143.358,71.934,143.175,70.536,143.075,69.113C142.911,66.768,142.953,64.409,142.949,62.061L142.955,56.419C142.992,54.060,143.003,51.698,143.413,49.366L144.062,46.545L145.040,43.725L146.336,40.910L147.934,38.165L149.668,35.714L150.660,34.580L151.139,33.973L152.822,32.441C153.191,34.343,153.534,36.255,153.962,38.146C154.277,39.542,154.549,40.950,154.984,42.316C155.453,43.792,156.042,45.191,156.797,46.545C157.623,48.028,158.624,49.415,159.660,50.756C161.100,52.619,162.668,54.367,164.347,56.016C166.074,57.713,167.961,59.240,169.733,60.890C171.117,62.178,172.459,63.505,173.734,64.902C174.965,66.249,176.155,67.653,177.251,69.113C178.287,70.494,179.346,71.875,180.258,73.344L181.946,76.165C182.674,77.553,183.361,78.941,183.951,80.395C184.938,82.829,185.615,85.359,186.211,87.913L186.674,90.270L188.751,87.913L190.406,85.812L194.433,80.396C197.303,76.706,200.373,73.128,203.839,69.982C205.994,68.025,208.295,66.228,210.653,64.524C213.811,62.240,217.109,60.146,220.525,58.269L224.756,56.075L231.809,52.531L234.629,51.085C236.054,50.326,237.500,49.579,238.861,48.707L241.682,46.844L243.091,45.799L244.496,44.671C245.901,43.450,247.288,42.223,248.547,40.847L250.829,38.077L251.750,36.671L253.059,33.851L253.630,31.030C253.789,29.120,253.397,27.212,252.868,25.388C252.449,23.947,251.912,22.523,251.290,21.157L249.848,18.336L248.997,16.926L247.083,14.105C245.727,12.151,244.212,10.300,242.695,8.469L239.259,4.458L238.158,3.045L237.567,2.357L236.040,0.000L238.397,0.022C239.981,0.071,241.561,0.186,243.128,0.424C247.008,1.014,250.731,2.263,254.376,3.688C258.839,5.434,263.292,7.394,267.049,10.424C269.819,12.659,272.247,15.312,274.130,18.337C275.487,20.514,276.539,22.922,277.240,25.388C277.893,27.688,278.217,30.050,278.037,32.441C277.891,34.352,277.446,36.281,276.795,38.083L276.283,39.493C275.495,41.421,274.643,43.312,273.630,45.135C271.977,48.113,269.976,50.868,267.948,53.598C266.531,55.504,265.081,57.384,263.600,59.240L261.239,62.061L257.600,66.292L256.441,67.702L254.274,70.523C252.988,72.346,251.746,74.183,250.713,76.165C248.641,80.142,247.489,84.507,246.513,88.860C245.799,92.048,245.161,95.265,244.744,98.506L244.562,100.607L244.503,102.964L246.102,101.432L246.458,100.825L247.281,99.692L247.932,98.543L249.466,95.941C250.305,94.581,251.248,93.289,252.305,92.089L254.637,89.733L255.918,88.610L257.253,87.531L260.024,85.599L262.839,84.133L264.249,83.589C266.065,82.928,267.959,82.559,269.856,82.232L272.486,81.935L273.898,81.863L276.944,81.807C276.094,79.476,275.138,77.164,274.653,74.720C274.195,72.413,274.118,70.048,274.149,67.702C274.179,65.332,274.334,62.966,274.869,60.650C275.553,57.685,276.755,54.846,278.220,52.187C280.173,48.644,282.612,45.375,285.538,42.574C288.061,40.159,290.944,38.142,293.869,36.248C295.707,35.057,297.589,33.950,299.511,32.902L300.919,32.194L303.707,30.987L306.338,30.172L308.438,29.781L310.795,29.620L310.016,31.977L309.649,32.665L308.988,34.078L305.786,39.495L304.198,42.314C303.246,44.160,302.340,46.022,301.577,47.956C300.315,51.153,299.453,54.474,298.735,57.829C298.336,59.694,298.068,61.591,297.752,63.471L296.577,70.523C296.192,72.871,295.783,75.211,295.519,77.576C295.363,78.980,295.337,80.396,295.306,81.807L295.363,84.623L295.728,87.388L296.730,89.969L297.541,91.124L299.720,93.078L302.359,94.483L303.749,94.970L306.563,95.479L309.384,95.386L310.795,95.138L312.205,94.772L315.019,93.694L317.739,92.099L318.971,91.089L320.032,89.953L321.315,87.387C321.748,85.404,320.919,83.469,319.909,81.807C319.023,80.347,318.012,78.973,317.033,77.576C315.727,75.712,314.421,73.849,313.190,71.934C311.448,69.223,309.759,66.437,308.482,63.471L307.408,60.650C306.845,58.791,306.383,56.918,306.026,55.008L305.565,52.189L305.326,49.401L305.400,46.772L305.740,44.671L306.563,42.314L307.994,43.846L308.353,44.454L309.159,45.588L309.840,46.740C310.937,48.567,312.029,50.398,313.190,52.186C314.384,54.029,315.633,55.838,316.942,57.603L318.069,59.016L318.590,59.703L320.668,62.061L320.990,59.703L321.562,57.603C322.334,55.305,323.334,53.089,324.062,50.777C324.787,48.472,325.282,46.104,325.684,43.725C325.997,41.873,326.156,39.956,325.954,38.083L325.406,35.262L324.409,32.441L322.548,28.209C321.957,26.824,321.424,25.417,320.980,23.978C320.275,21.702,319.700,19.318,319.634,16.926L319.772,14.105L320.008,12.694C320.335,11.264,320.710,9.861,321.179,8.469C321.781,6.680,322.478,4.929,323.392,3.274L324.224,2.140L324.596,1.532L326.310,0.000ZZM350.288,294.788L351.113,296.255L351.192,296.705L351.553,298.283L351.698,300.430L353.990,298.554L355.930,297.380L356.459,297.055L358.751,296.198L357.989,298.555L357.645,299.241L357.036,300.650L355.076,304.441L354.413,305.850L354.057,306.536L353.109,308.893L355.408,306.558L357.320,304.588L358.377,303.509L360.541,301.466L361.738,300.585L362.294,300.112L364.393,299.019L363.751,301.376L362.869,303.476C361.975,305.324,360.940,307.094,359.959,308.895C358.445,311.680,356.966,314.484,355.622,317.355L354.346,320.176L353.769,321.587L352.811,324.408L352.444,325.818L351.965,328.639L351.810,331.460L351.846,332.871L351.948,334.281L352.353,337.102C352.600,338.524,352.962,339.924,353.272,341.333C353.684,343.204,354.071,345.070,354.274,346.975C354.525,349.315,354.518,351.678,354.516,354.028L354.516,354.689C354.513,357.777,354.467,360.877,353.773,363.901C352.858,367.887,351.033,371.623,349.068,375.183C348.292,376.589,347.470,377.966,346.628,379.333L344.999,381.784L344.041,382.918L343.599,383.526L341.825,385.058L342.142,382.701L342.685,380.601L343.578,377.970C344.461,375.635,345.430,373.326,346.212,370.953C346.972,368.647,347.568,366.290,348.003,363.901C348.426,361.578,348.777,359.214,348.522,356.848C348.196,353.844,346.980,351.074,345.670,348.386C344.733,346.465,343.701,344.575,342.598,342.744C340.893,339.916,339.066,337.165,337.454,334.281C336.690,332.913,336.059,331.490,335.448,330.050L334.925,328.639L334.114,325.818L333.846,324.408L333.680,322.997L333.680,320.176C333.864,317.753,334.547,315.369,335.453,313.124C336.661,310.130,338.331,307.333,340.313,304.788C341.337,303.474,342.454,302.246,343.625,301.063C345.016,299.658,346.504,298.352,347.952,297.007L350.288,294.788ZZM365.803,317.355L367.089,318.887L367.336,319.495L367.938,320.629L368.796,323.080L370.033,327.230C370.845,330.021,371.686,332.825,372.200,335.691C372.702,338.481,372.912,341.323,372.719,344.154C372.621,345.582,372.420,346.985,372.130,348.386C371.738,350.286,371.171,352.146,370.703,354.028L369.340,359.662L368.455,362.407L367.305,364.859L366.106,366.600L364.393,368.132L364.391,361.045C364.383,359.173,364.363,357.308,364.266,355.438L363.989,352.617L363.329,348.386L362.404,342.744L361.975,339.923C361.687,337.580,361.565,335.232,361.598,332.871C361.632,330.500,361.789,328.143,362.316,325.825C362.627,324.456,363.070,323.127,363.560,321.812L364.201,320.401L364.480,319.712L365.803,317.355ZZM241.682,2.821L243.214,4.717L243.821,5.239L244.954,6.333C247.078,8.119,249.310,9.786,251.315,11.707L253.755,14.232L256.042,16.946L258.177,19.748L260.025,22.567L260.784,23.978L261.863,26.799L262.293,29.620L262.117,32.441L261.853,33.851L261.509,35.262C261.069,36.696,260.633,38.151,259.947,39.493L258.404,42.314L257.475,43.723L255.322,46.525C253.348,48.869,251.122,50.958,248.729,52.867C247.369,53.953,245.932,54.940,244.503,55.932L240.271,58.846C238.370,60.184,236.493,61.557,234.629,62.949C231.786,65.073,228.954,67.212,226.167,69.410C222.793,72.070,219.429,74.756,216.299,77.702C214.423,79.467,212.618,81.307,210.893,83.219C209.245,85.042,207.684,86.941,206.149,88.860C204.675,90.702,203.216,92.562,201.870,94.501C200.918,95.874,200.029,97.284,199.199,98.733C197.639,101.449,196.341,104.299,195.158,107.196C194.211,109.511,193.339,111.856,192.605,114.248C191.750,117.031,191.064,119.874,190.413,122.711C189.983,124.584,189.585,126.465,189.219,128.353C188.857,130.223,188.514,132.098,188.325,133.994C188.138,135.868,188.088,137.755,188.110,139.636C188.127,141.048,188.179,142.463,188.329,143.868C188.584,146.253,189.086,148.608,189.720,150.920C190.112,152.355,190.568,153.754,191.073,155.152L191.651,156.562L193.067,159.377L193.913,160.772L195.887,163.487C197.754,165.770,199.977,167.692,202.210,169.602C204.046,171.174,205.911,172.725,207.831,174.194L210.652,176.310L213.472,178.444L216.288,180.799C218.152,182.513,219.987,184.259,221.633,186.187L223.841,189.003L224.763,190.413L225.579,191.824L226.917,194.645C227.669,196.504,228.339,198.388,228.982,200.287C230.240,203.997,231.423,207.744,232.281,211.570C232.700,213.439,233.014,215.324,233.330,217.212L234.281,222.854L234.748,225.675L235.263,228.496L235.875,231.317C236.187,232.726,236.548,234.125,236.790,235.548C237.027,236.938,237.197,238.334,237.195,239.744L237.022,242.375L236.771,243.787L236.648,244.475L236.040,246.832L233.683,245.438L232.995,244.928L231.583,243.962C229.721,242.567,227.899,241.110,226.186,239.534C223.928,237.455,221.803,235.228,220.014,232.726C217.875,229.731,216.292,226.360,215.195,222.854C214.477,220.563,213.955,218.192,213.722,215.802C213.542,213.936,213.519,212.031,213.718,210.167L214.072,207.402L214.283,206.154L214.495,204.742L214.625,204.054L214.883,201.697L213.305,203.229L212.984,203.837L212.237,204.971L211.186,207.422C210.715,208.789,210.288,210.160,209.967,211.572C209.543,213.433,209.330,215.325,209.058,217.212L208.647,220.033C208.437,221.441,208.206,222.846,208.070,224.264C207.801,227.076,207.822,229.906,207.832,232.727C207.840,235.545,207.797,238.404,208.295,241.190C208.831,244.180,209.911,247.011,211.403,249.653C212.240,251.132,213.212,252.506,214.203,253.884L215.292,255.295L217.591,258.116C219.813,260.862,222.081,263.583,223.968,266.579C225.887,269.628,227.428,272.928,228.241,276.452C228.879,279.212,229.030,282.089,228.926,284.915C228.820,287.796,228.425,290.676,227.368,293.377C226.786,294.865,226.059,296.276,225.175,297.609C223.820,299.651,222.161,301.468,220.466,303.228C218.765,304.993,216.959,306.653,215.109,308.258L213.008,309.966L210.652,311.713L210.147,309.357L209.510,307.256L208.433,304.647L206.839,301.964L204.698,299.421L203.468,298.207L202.182,297.011L199.602,294.548L198.359,293.250L193.492,287.734C190.974,284.950,188.348,282.262,186.024,279.308C184.238,277.037,182.660,274.604,181.032,272.220L180.350,273.752L180.384,274.360L180.313,275.494L180.803,277.945L181.838,280.690L182.549,282.095L184.317,284.915C185.313,286.376,186.432,287.760,187.527,289.146C190.080,292.380,192.761,295.544,194.988,299.019L196.661,301.840L197.373,303.251L198.507,306.072C198.983,307.444,199.335,308.880,199.623,310.303L200.158,313.124C200.369,314.533,200.551,315.931,200.651,317.353C200.750,318.740,200.760,320.134,200.773,321.523L200.778,327.229L203.114,326.306L205.110,324.958L207.462,322.793L211.053,318.886C212.292,317.570,213.598,316.344,214.938,315.134L217.709,312.742L223.346,307.864C225.230,306.251,227.147,304.675,228.988,303.011C231.411,300.819,233.734,298.516,236.034,296.197L238.804,293.377L240.139,291.967L242.608,289.146L243.700,287.736L245.521,284.915L246.860,282.094L247.390,280.683L248.319,277.862C248.944,275.975,249.531,274.079,250.238,272.220C252.105,267.303,254.513,262.581,257.290,258.116C258.799,255.690,260.428,253.351,262.138,251.063C263.588,249.123,265.179,247.285,266.725,245.421C268.303,243.519,269.891,241.625,271.536,239.780L276.708,234.138L279.145,231.317L282.564,227.085C284.000,225.269,285.409,223.411,286.633,221.444C287.478,220.088,288.272,218.680,288.906,217.212C289.899,214.912,290.718,212.558,291.442,210.160C292.414,206.934,293.264,203.643,293.624,200.287C293.876,197.947,293.864,195.584,293.862,193.234C293.862,191.357,293.841,189.457,293.608,187.592L293.123,184.771L292.756,183.361L291.799,180.540C290.914,178.203,289.779,175.971,288.715,173.713L288.086,172.301L287.748,171.613L286.817,169.256L288.893,171.613L290.526,173.713C291.464,175.025,292.384,176.347,293.220,177.726C294.627,180.043,295.938,182.419,297.284,184.771C298.620,187.104,299.995,189.415,301.191,191.824C302.546,194.556,303.703,197.385,304.645,200.287C305.101,201.686,305.490,203.088,305.833,204.518L306.304,207.339C306.586,209.673,306.561,212.044,306.561,214.391C306.562,216.742,306.558,219.101,306.322,221.444C306.133,223.339,305.796,225.218,305.424,227.085C305.142,228.503,304.837,229.918,304.479,231.317C303.703,234.342,302.662,237.283,301.675,240.244L300.921,242.601L303.278,241.995L305.379,241.190L308.009,239.918C309.878,238.926,311.707,237.849,313.616,236.932C315.002,236.265,316.411,235.691,317.847,235.141L320.665,234.221L323.454,233.585L324.836,233.438L327.496,233.533L328.184,233.588L330.541,234.138C328.187,236.060,325.763,237.928,323.582,240.053L321.090,242.658L319.913,244.032L317.706,246.833L315.651,249.653C314.698,251.028,313.768,252.422,312.951,253.884C311.950,255.680,311.106,257.556,310.513,259.526C310.099,260.899,309.788,262.330,309.645,263.758C309.365,266.573,309.389,269.395,309.384,272.220L309.386,277.862C309.391,279.742,309.381,281.627,309.511,283.504L309.786,286.318L310.391,290.331L310.559,291.743L310.657,292.431L310.795,294.788L312.485,293.256L312.978,292.648L314.005,291.514L316.973,287.709L321.265,282.101C322.651,280.333,324.079,278.604,325.548,276.905L326.678,275.771L327.218,275.163L329.131,273.631L327.938,275.988L326.241,279.333L325.624,280.711C325.057,282.001,324.641,283.341,324.241,284.689L323.770,286.789L323.489,289.146L325.084,287.614L325.427,287.006L326.227,285.872L326.822,284.720L327.481,283.421L328.727,280.676C329.537,278.827,330.289,276.951,330.966,275.048L332.282,271.036L332.660,269.624L332.863,268.935L333.362,266.579L333.928,268.935L333.874,269.624L333.926,271.036C333.721,272.859,333.444,274.666,333.027,276.455L332.331,279.266L331.268,283.278L330.821,285.379L330.541,287.736L332.293,286.204L333.588,284.462L334.919,282.010L336.032,279.266L336.481,277.861L337.130,275.041C337.457,273.178,337.533,271.287,337.573,269.399L337.594,265.168L337.594,253.884L338.859,256.241L339.618,258.341L340.255,260.972L340.991,265.168C341.217,266.574,341.450,267.981,341.584,269.399C341.718,270.806,341.776,272.218,341.749,273.631C341.712,275.505,341.499,277.357,341.226,279.209L340.802,281.869L340.673,282.558L340.415,284.915L342.107,283.383L343.200,281.641L344.068,279.190L344.495,276.445C344.591,275.034,344.619,273.634,344.635,272.220C344.652,270.816,344.626,269.390,344.515,267.989C344.401,266.570,344.243,265.145,343.915,263.758C343.238,260.883,342.283,258.096,341.355,255.295C340.423,252.482,339.465,249.680,338.644,246.832C338.244,245.438,337.915,244.019,337.615,242.601C337.319,241.199,337.068,239.794,336.859,238.376L336.719,236.994L336.675,235.612L336.914,232.952L337.005,232.263L337.594,229.906L338.478,232.263L338.625,232.952L339.022,234.363C339.771,237.584,340.416,240.833,341.457,243.976L342.398,246.606L343.042,248.018L343.323,248.706L344.646,251.063L345.213,249.532L345.164,248.924L345.230,247.790L345.114,246.637L344.866,243.984L344.701,241.189L344.647,236.959L344.647,229.906C344.652,228.026,344.643,226.142,344.773,224.264C344.935,221.893,345.336,219.562,345.674,217.212C346.014,214.857,346.272,212.488,346.777,210.160C347.086,208.734,347.492,207.333,347.882,205.928L349.041,201.697L350.124,197.466C350.890,194.616,351.694,191.783,352.683,189.003C353.363,187.094,354.129,185.226,354.918,183.361L356.706,179.129C357.808,176.348,358.745,173.505,359.691,170.667C360.936,166.935,362.171,163.201,363.130,159.383C363.717,157.049,364.201,154.690,364.668,152.331C365.037,150.463,365.373,148.584,365.562,146.689C365.797,144.345,365.788,141.989,365.803,139.636L365.803,133.994L365.797,126.942C365.786,125.062,365.769,123.169,365.544,121.300C365.250,118.889,364.648,116.549,363.881,114.248C362.893,111.287,361.648,108.425,359.974,105.785C358.361,103.245,356.432,100.939,354.388,98.738C351.794,95.946,348.994,93.349,346.056,90.924L341.825,87.612L337.594,84.225L331.952,79.368L326.317,74.542L322.304,70.955L320.892,69.837L320.204,69.234L317.847,67.702L318.631,70.060L319.715,72.160L321.476,74.790L322.564,76.172L325.032,78.986C326.830,80.904,328.689,82.759,330.537,84.628C331.918,86.025,333.313,87.412,334.642,88.860C335.893,90.223,337.152,91.603,338.258,93.091L340.267,95.912L341.165,97.322C341.986,98.710,342.781,100.103,343.488,101.554L344.745,104.375L345.282,105.785L346.164,108.606C346.655,110.475,347.076,112.355,347.461,114.248C347.938,116.582,348.399,118.928,348.636,121.300C348.824,123.173,348.870,125.061,348.870,126.942C348.870,129.295,348.872,131.651,348.636,133.994C348.495,135.415,348.265,136.822,348.009,138.226C347.750,139.642,347.463,141.057,347.134,142.457C346.119,146.773,344.622,150.945,343.237,155.152C342.492,157.414,341.749,159.672,341.147,161.978L340.694,164.078L340.415,166.435L338.379,164.903L336.853,163.162L335.194,160.710L333.557,157.965C332.697,156.539,331.823,155.126,330.897,153.741L326.925,148.099L325.032,145.278L323.375,142.457L322.667,141.047L321.583,138.226L321.224,136.815L320.837,133.994C320.664,131.630,320.912,129.256,321.399,126.942C321.699,125.512,322.136,124.113,322.564,122.717L323.820,118.706L324.400,116.605L324.899,114.248L322.866,115.780L321.358,117.522L319.806,119.973L318.471,122.717C317.871,124.113,317.291,125.519,316.760,126.942C315.730,129.697,314.817,132.509,314.276,135.405C313.839,137.736,313.672,140.089,313.643,142.457C313.624,143.871,313.671,145.278,313.747,146.689L313.877,148.099L314.080,149.510L314.362,150.920L314.729,152.331L315.686,155.152C316.428,157.091,317.352,158.948,318.298,160.793L319.857,163.614L321.480,166.435C322.785,168.754,324.060,171.084,325.203,173.488C326.289,175.773,327.327,178.100,328.018,180.540C328.413,181.929,328.696,183.337,328.870,184.771C329.096,186.640,329.120,188.533,329.120,190.413C329.121,192.770,329.050,195.131,328.706,197.466C328.280,200.357,327.478,203.178,326.499,205.928C325.991,207.359,325.423,208.761,324.820,210.153L323.418,212.897L321.715,215.349L320.039,217.091L317.847,218.623L318.346,216.266L318.926,214.166C320.579,208.662,322.636,203.219,323.244,197.466C323.541,194.664,323.517,191.811,323.249,189.010C323.121,187.661,322.888,186.334,322.678,184.997L322.466,183.585L322.337,182.897L322.079,180.540L321.252,182.072L321.167,182.680L320.874,183.814L320.421,187.619C320.201,189.032,319.933,190.440,319.442,191.788L318.272,194.419L317.363,195.831L316.959,196.519L315.026,198.876L315.026,177.719L314.061,179.251L313.879,179.859L313.417,180.993L311.871,186.106L310.816,188.550L309.672,190.292L307.974,191.824L308.710,188.778L308.977,187.367L309.257,184.736L309.373,180.540L309.324,177.719L309.088,174.898L308.520,172.077L308.092,170.667L307.009,167.846C305.937,165.363,304.592,163.033,303.082,160.793C301.077,157.817,298.806,155.030,296.445,152.331C295.222,150.931,293.922,149.597,292.613,148.274L291.043,146.689C288.289,143.897,285.481,141.165,282.882,138.226C281.334,136.477,279.969,134.565,278.738,132.584C277.350,130.349,276.162,127.978,275.196,125.532C274.647,124.144,274.204,122.733,273.791,121.300L273.448,119.890L273.193,118.479L272.991,115.658L273.289,112.839L273.639,111.432L274.137,110.038L274.767,108.667L276.454,106.087L277.499,104.931L279.913,102.983L282.607,101.623L284.002,101.196L286.817,100.903C288.738,100.911,290.604,101.498,292.459,101.918L295.280,102.506L298.101,102.831C299.981,102.973,301.862,102.928,303.742,102.831L305.153,102.703L307.967,102.220C309.339,101.944,310.668,101.452,311.980,100.976L314.080,100.056L316.437,98.733L314.905,98.171L314.297,98.237L313.163,98.204L310.712,98.616L307.967,99.189L306.562,99.434L303.742,99.637L302.332,99.552L299.511,99.009L296.690,98.056L293.869,96.790L291.048,95.258L289.638,94.411C287.295,93.014,285.044,91.460,282.585,90.265C279.099,88.570,275.207,87.356,271.302,88.062L268.482,88.878L267.076,89.505L265.681,90.283L264.310,91.191L261.730,93.392L259.523,95.973C257.946,98.100,256.849,100.513,255.884,102.964L254.878,105.785L253.983,108.606L252.823,112.837L252.211,115.658C251.841,117.516,251.688,119.411,251.612,121.300C251.517,123.644,251.569,126.011,251.795,128.346C251.925,129.694,252.156,131.022,252.366,132.358L252.578,133.770L252.707,134.458L252.966,136.815L250.630,135.893L248.640,134.544L246.342,132.374L244.202,129.736L242.342,126.941C241.511,125.550,240.720,124.146,239.968,122.711C239.001,120.866,238.084,118.989,237.277,117.069C236.505,115.237,235.821,113.368,235.376,111.427C234.844,109.108,234.689,106.747,234.656,104.375C234.615,101.540,234.766,98.702,235.290,95.912C235.924,92.521,237.055,89.240,238.319,86.039C239.469,83.125,240.742,80.265,242.356,77.576C244.761,73.568,247.793,69.987,250.637,66.292L259.205,55.008C260.660,53.130,262.159,51.286,263.558,49.366C264.883,47.549,266.125,45.680,267.240,43.725L268.729,40.904L269.383,39.493L270.457,36.672C270.879,35.275,271.264,33.876,271.536,32.441C271.800,31.050,272.034,29.630,272.038,28.209C272.041,26.767,271.860,25.349,271.396,23.978C270.496,21.319,268.781,19.078,266.883,17.053C265.225,15.286,263.341,13.722,261.427,12.244C260.062,11.189,258.657,10.174,257.197,9.252L254.376,7.615C252.985,6.916,251.585,6.274,250.152,5.669C248.830,5.111,247.487,4.596,246.139,4.105L244.727,3.650L244.039,3.404L241.682,2.821ZZM298.101,196.055L297.490,198.412L297.078,200.512L296.502,204.525C296.291,205.942,296.054,207.349,295.748,208.749C295.120,211.624,294.294,214.473,293.213,217.212C292.256,219.641,291.109,222.002,289.807,224.264C288.683,226.222,287.444,228.100,286.090,229.906C284.639,231.843,283.068,233.688,281.520,235.548L276.760,241.190C275.147,243.062,273.505,244.909,271.952,246.832C269.072,250.396,266.351,254.131,264.079,258.116C262.782,260.388,261.646,262.745,260.658,265.168C259.534,267.926,258.620,270.770,257.799,273.631C256.057,279.711,254.844,285.936,252.925,291.967C252.008,294.849,250.944,297.671,249.705,300.430L247.689,304.654L245.874,308.667L245.104,310.767L244.503,313.124L246.184,311.657L246.589,311.207L247.717,310.079L250.145,307.482L249.683,309.838L249.198,311.905C248.617,314.204,247.968,316.484,247.324,318.766L249.418,317.843L249.960,317.362L251.125,316.495C252.631,315.030,253.929,313.388,255.164,311.692C256.102,310.405,256.976,309.066,257.809,307.708L258.576,306.296L258.984,305.608L260.018,303.251L260.784,305.606L260.964,307.674L260.789,310.111C260.581,311.595,260.282,313.060,260.018,314.534L262.375,313.750L264.475,312.667L267.104,310.905L268.482,309.818C269.893,308.606,271.307,307.389,272.565,306.015L274.997,303.245L277.062,300.430L277.970,299.019C279.052,297.190,280.073,295.341,280.894,293.377C281.468,292.005,281.959,290.583,282.344,289.146C282.968,286.823,283.494,284.489,283.750,282.094C283.952,280.221,283.979,278.333,283.990,276.452L284.002,269.399C284.024,267.518,284.031,265.629,284.257,263.758C284.430,262.322,284.718,260.920,285.103,259.526C285.501,258.092,286.010,256.671,286.571,255.295C287.559,252.879,288.610,250.505,289.917,248.242C291.322,245.814,292.995,243.555,294.497,241.190C295.360,239.830,296.126,238.414,296.814,236.959L298.003,234.138L299.003,231.317L299.848,228.496L300.191,227.085L300.662,224.264C300.888,222.394,300.899,220.503,300.916,218.623L300.920,212.981C300.909,210.628,300.916,208.273,300.680,205.930C300.457,203.700,300.026,201.509,299.524,199.329L299.132,198.195L298.985,197.587L298.101,196.055ZZM197.957,249.653L197.959,255.358C197.970,257.217,197.954,259.080,198.084,260.937C198.184,262.357,198.352,263.767,198.617,265.168C199.165,268.075,200.057,270.934,201.275,273.631C202.390,276.103,203.774,278.449,205.319,280.676C206.579,282.496,207.945,284.239,209.440,285.872L210.668,287.006L211.254,287.614L213.472,289.146L213.413,286.789L213.212,284.689C213.001,283.331,212.742,281.998,212.360,280.676C211.364,277.232,209.733,274.031,208.190,270.810C207.297,268.944,206.426,267.071,205.612,265.168C204.618,262.841,203.715,260.475,202.784,258.123C202.094,256.377,201.454,254.605,200.609,252.927L199.856,251.793L199.536,251.185L197.957,249.653ZZM150.001,244.011L147.644,244.675L145.545,245.682L142.935,247.444L141.589,248.564L138.979,251.125L136.643,253.890L134.639,256.705L133.752,258.116L132.197,260.937C131.048,263.212,130.178,265.602,129.296,267.989C128.604,269.861,127.917,271.734,127.296,273.631L126.886,275.039L126.367,277.827L126.311,280.458L126.614,282.558L127.434,284.915L129.190,283.383L129.611,282.775L130.520,281.641C131.322,280.412,132.016,279.126,132.712,277.835L133.422,276.445L136.332,270.810L141.103,262.347C142.359,260.024,143.525,257.654,144.708,255.295L148.099,248.468L148.730,247.056L149.070,246.368L150.001,244.011ZZM403.886,210.160L401.065,210.160L399.213,212.517L397.743,214.617C396.908,215.922,396.104,217.240,395.416,218.630C394.736,219.999,394.170,221.408,393.674,222.854C393.194,224.248,392.812,225.671,392.404,227.085L390.837,232.727L390.506,234.138L390.234,235.548C389.875,237.407,389.789,239.313,389.562,241.190L388.610,248.242C388.406,250.108,388.372,252.010,388.431,253.884C388.492,255.759,388.696,257.609,388.970,259.463L389.393,262.123L389.523,262.811L389.781,265.168L391.537,263.636L391.956,263.028L392.863,261.894L394.294,259.443C394.986,258.078,395.610,256.694,396.230,255.293L397.392,252.474L398.510,249.653C400.101,245.543,401.681,241.359,402.216,236.959C402.441,235.090,402.457,233.197,402.470,231.317L402.481,225.675C402.494,224.264,402.505,222.851,402.602,221.444L402.877,218.630L403.482,214.617L403.650,213.205L403.747,212.517L403.886,210.160ZZM209.241,93.091L209.247,96.136L209.262,97.549L209.389,100.178L209.543,101.560L210.156,104.375C210.602,105.847,211.230,107.249,211.949,108.606C212.726,110.074,213.622,111.485,214.585,112.837C216.728,115.845,219.237,118.563,221.956,121.055C225.030,123.872,228.406,126.347,231.809,128.747L238.861,133.635C241.742,135.720,244.513,137.953,247.324,140.130C250.181,142.342,253.097,144.490,255.765,146.934C258.070,149.044,260.205,151.319,262.179,153.742C265.606,157.947,268.671,162.589,270.189,167.846C270.588,169.232,270.869,170.644,271.041,172.077C271.209,173.479,271.258,174.897,271.261,176.309C271.264,178.678,271.066,181.029,270.646,183.361C270.390,184.785,270.039,186.193,269.671,187.592C269.172,189.491,268.594,191.365,267.996,193.234C267.084,196.078,266.114,198.904,265.060,201.697C263.251,206.488,261.282,211.235,258.946,215.795C258.246,217.161,257.533,218.510,256.736,219.823L255.112,221.994L253.590,223.342L251.555,224.264L251.620,221.908L251.700,221.219L251.851,219.807L252.414,217.177C253.269,213.872,254.841,210.769,255.197,207.339C255.442,204.961,255.080,202.619,254.641,200.287C254.194,197.904,253.640,195.506,252.782,193.234C251.645,190.219,250.005,187.446,248.222,184.771C246.923,182.822,245.542,180.929,244.043,179.129C242.404,177.162,240.628,175.320,238.840,173.488L236.039,170.672C234.187,168.840,232.330,167.014,230.398,165.265C227.627,162.757,224.669,160.459,221.990,157.846C220.205,156.104,218.530,154.259,216.949,152.329C215.819,150.954,214.757,149.528,213.697,148.099C212.348,146.284,211.062,144.404,209.911,142.457C208.845,140.653,207.846,138.775,207.090,136.815L206.551,135.405L205.630,132.584L204.869,129.763L204.255,126.942L203.845,124.121L203.726,122.711C203.654,121.300,203.608,119.893,203.626,118.479C203.649,116.589,203.770,114.714,204.001,112.837L204.771,107.196L205.247,100.178C205.425,98.475,205.724,96.790,206.040,95.109L206.420,93.091L209.241,93.091ZZM171.158,194.645L172.691,196.071L173.298,196.419L174.432,197.206L175.585,197.851L178.237,199.374C179.698,200.244,181.106,201.193,182.441,202.247L185.241,204.666L186.613,205.989L189.194,208.755L191.416,211.567L193.208,214.356L194.623,216.986L195.270,218.398L195.615,219.087L196.547,221.444L197.366,219.912L197.431,219.304L197.674,218.170L197.648,215.718L197.474,214.364L196.822,211.569C196.365,210.099,195.771,208.679,195.009,207.340C193.860,205.318,192.396,203.492,190.753,201.849L188.062,199.467L186.668,198.457L185.262,197.593L182.442,196.264L179.628,195.396L178.246,195.109L175.616,194.776L174.204,194.701L171.158,194.645ZZM209.241,115.658L209.846,118.016L210.125,118.703L210.653,120.116L211.951,122.746C213.608,125.791,215.687,128.569,217.965,131.174C219.241,132.632,220.602,134.014,221.951,135.405C223.762,137.272,225.593,139.117,227.337,141.047L233.457,148.099C236.027,150.954,238.755,153.661,241.274,156.562C243.644,159.293,245.877,162.146,248.064,165.025L251.140,169.256L254.173,173.488C255.782,175.785,257.387,178.076,258.743,180.537C259.708,182.290,260.523,184.106,261.280,185.956L262.069,188.056L262.839,190.413L263.808,188.881L264.001,188.274L264.482,187.140L264.843,185.987C265.254,184.647,265.694,183.312,266.010,181.943L266.557,179.129L266.682,177.719L266.589,174.898L266.390,173.488L265.760,170.667C265.338,169.228,264.898,167.812,264.297,166.435C263.197,163.916,261.730,161.603,260.119,159.383C258.702,157.429,257.153,155.590,255.541,153.796L252.911,151.161L251.534,149.917L247.324,146.414C245.469,144.900,243.577,143.428,241.682,141.965C238.889,139.813,236.067,137.696,233.219,135.618C229.941,133.227,226.573,130.955,223.346,128.495L220.526,126.287C219.102,125.094,217.707,123.885,216.357,122.610L212.697,118.927L211.550,117.797L210.989,117.191L209.241,115.658ZZM118.971,86.039L119.030,88.396L119.211,90.496C119.431,92.311,119.738,94.111,120.034,95.914C120.501,98.750,120.966,101.581,121.648,104.375C122.463,107.714,123.516,110.994,124.618,114.248C125.259,116.140,125.892,118.046,126.662,119.890L127.875,122.711C128.772,124.625,129.712,126.508,130.747,128.351C131.840,130.299,133.145,132.133,134.547,133.868C137.061,136.979,140.001,139.717,143.005,142.344L150.001,148.339C152.402,150.511,154.721,152.783,156.926,155.153C158.205,156.525,159.425,157.939,160.624,159.380L162.777,162.169L164.599,164.799L165.414,166.211L165.856,166.899L166.927,169.256L167.752,167.724L167.833,167.117L168.110,165.983C168.250,164.723,168.294,163.444,168.261,162.177C168.212,160.286,168.007,158.414,167.607,156.562C167.297,155.125,166.858,153.730,166.415,152.331C165.962,150.896,165.411,149.466,164.785,148.099C164.120,146.646,163.386,145.208,162.513,143.868L161.588,142.457C160.228,140.528,158.799,138.659,157.325,136.815C155.789,134.895,154.209,133.017,152.582,131.174L149.946,128.353L142.970,121.300C141.611,119.918,140.257,118.525,138.978,117.069L136.627,114.248C135.574,112.862,134.558,111.459,133.583,110.017C131.734,107.280,130.080,104.432,128.466,101.554C127.424,99.697,126.415,97.819,125.466,95.913L122.909,90.480L121.694,88.310L120.905,87.443L120.565,86.961L118.971,86.039ZZM327.720,90.270L327.355,90.847L326.626,92.003C325.167,94.314,323.673,96.604,321.775,98.591L319.197,100.998L317.826,102.045L315.025,103.751L313.616,104.417L312.205,104.991L309.384,105.885L307.974,106.230L306.563,106.515L303.742,106.824L300.921,106.737L299.511,106.576L296.690,106.187L295.280,106.025C293.404,105.872,291.521,105.759,289.638,105.818C287.316,105.891,284.851,106.017,282.794,107.235L280.615,109.054L279.206,111.510L278.585,114.254L278.498,115.660L278.661,118.479L279.275,121.300L280.408,124.121L281.182,125.532L283.086,128.353L284.171,129.763L286.475,132.584C287.638,134.005,288.814,135.429,290.041,136.795C291.284,138.176,292.542,139.556,293.923,140.801L296.660,143.187L299.285,145.229L300.697,146.195L301.386,146.706L303.742,148.099L303.764,145.742C303.816,144.158,303.933,142.576,304.202,141.012C304.696,138.132,305.637,135.346,306.569,132.584C307.539,129.708,308.549,126.837,309.916,124.121C311.679,120.619,313.925,117.364,316.296,114.249L318.503,111.448L319.681,110.072L320.913,108.733L322.205,107.442L324.914,105.056C326.193,104.015,327.540,103.099,328.905,102.175L330.317,101.422L331.005,101.007L333.362,100.143L332.778,102.501L332.534,103.188L332.083,104.601L330.647,108.613C329.720,111.378,328.894,114.195,328.376,117.069L327.966,119.890L327.849,121.300L327.761,124.121C327.733,125.999,327.863,127.912,328.184,129.763C328.606,132.193,329.392,134.526,330.296,136.814C330.854,138.225,331.474,139.600,332.135,140.964L332.832,142.247L334.343,144.418L335.757,145.766L337.594,146.689L337.732,144.332L337.829,143.644L337.997,142.232L338.622,138.219L339.386,132.584L340.013,128.353C340.186,126.945,340.309,125.539,340.354,124.121C340.413,122.234,340.329,120.359,340.169,118.479L339.991,117.069C339.755,115.166,339.271,113.287,338.819,111.427C338.124,108.565,337.399,105.682,336.247,102.964C335.419,101.013,334.410,99.135,333.272,97.348C332.450,96.058,331.612,94.781,330.711,93.544L329.771,92.410L329.324,91.802L327.720,90.270ZZM147.180,49.366L147.186,56.454C147.215,58.802,147.262,61.143,147.605,63.471C148.179,67.365,149.440,71.102,150.869,74.755C151.996,77.637,153.226,80.489,154.690,83.218C155.730,85.155,156.871,87.042,158.109,88.860L163.050,95.912C164.291,97.732,165.425,99.623,166.485,101.554C168.234,104.738,169.756,108.039,171.067,111.426L173.081,116.859L174.154,119.029L174.902,119.896L175.222,120.377L176.800,121.300L176.822,118.943C176.857,117.827,176.913,116.706,177.040,115.595L177.808,110.017L177.970,108.606L178.135,105.785C178.170,103.907,178.086,102.000,177.787,100.143L177.557,98.733C177.183,96.839,176.738,94.964,176.271,93.091L175.170,88.860C174.768,87.435,174.361,85.997,173.791,84.628L172.444,81.807L171.577,80.397L169.431,77.576L168.185,76.165L165.495,73.344C162.768,70.526,159.898,67.837,157.315,64.882L154.984,62.061L153.951,60.650L152.160,57.836C151.389,56.527,150.733,55.151,150.057,53.793L149.501,52.640L148.809,51.506L148.510,50.899L147.180,49.366ZZM299.511,36.672C297.132,38.610,294.697,40.502,292.445,42.587C288.940,45.831,285.707,49.428,283.337,53.598C281.831,56.248,280.766,59.116,279.996,62.061L279.354,64.882L279.141,66.292L279.038,67.702L279.233,70.523L279.543,71.934L279.994,73.343L280.575,74.748L282.131,77.493L284.086,79.944L285.333,81.078L285.935,81.685L288.227,83.218L288.248,80.860C288.284,79.744,288.340,78.623,288.467,77.513L289.404,70.523L289.749,66.292L290.100,63.471C290.398,61.538,291.017,59.653,291.708,57.829C292.253,56.390,292.899,54.986,293.562,53.598L297.031,46.547C297.699,45.172,298.367,43.803,298.967,42.397L299.795,39.946L299.881,38.812L300.013,38.205ZM323.489,9.873C323.495,11.777,323.485,13.676,323.550,15.578L323.789,18.343L324.387,21.157C324.942,23.111,325.812,24.952,326.640,26.799L327.285,28.209L328.471,31.030L329.428,33.851L330.077,36.672C330.323,38.070,330.430,39.487,330.479,40.904C330.544,42.782,330.481,44.668,330.302,46.539C330.173,47.887,329.940,49.215,329.730,50.550L329.519,51.963L329.389,52.651L329.131,55.008L331.344,53.734L331.918,53.257L333.122,52.334L335.090,50.292L336.843,47.823L337.592,46.489L338.247,45.114L339.230,42.313L339.532,40.904L339.688,39.493L339.536,36.672L339.245,35.262L338.323,32.441C337.513,30.498,336.613,28.597,335.513,26.799L333.721,23.978L330.835,19.748L329.914,18.343L328.268,15.598L326.846,13.140L326.232,12.145L325.428,11.277L325.084,10.796L323.489,9.873ZZ" style="fill: rgb(0, 0, 0);"/></g></g><g id="shape-e896cdf2-4b36-80a4-8004-193dde665bc2"><g class="fills" id="fills-e896cdf2-4b36-80a4-8004-193dde665bc2"><path fill-rule="nonzero" rx="0" ry="0" d="M437.737,444.298L440.088,444.131L440.761,443.979L442.133,443.685L444.507,442.635L446.626,440.864L447.504,439.745L448.269,438.502L449.543,435.814L450.620,433.012C451.101,431.612,451.562,430.211,451.953,428.782C452.464,426.922,452.868,425.031,453.246,423.140L454.064,418.909L454.775,414.678C455.241,411.867,455.751,409.061,455.946,406.215C456.043,404.807,456.055,403.394,456.067,401.983L456.073,397.752L456.072,389.289L456.046,386.475L455.990,385.085L455.626,382.453L455.227,381.302L453.873,379.664L451.933,379.305L450.899,379.664L449.892,380.350L448.966,381.302L448.107,382.453L447.327,383.731L445.896,386.475L444.610,389.289L444.018,390.700L442.954,393.521L442.023,396.342C441.435,398.194,440.997,400.088,440.578,401.983L439.429,407.625L438.335,413.267L437.390,418.909C437.085,420.788,436.779,422.657,436.586,424.551L436.508,427.372C436.579,430.217,437.224,433.002,437.497,435.828C437.771,438.644,437.728,441.472,437.737,444.298ZM419.401,404.804L420.137,401.762L420.404,400.353C420.569,399.091,420.693,397.834,420.755,396.562C420.827,395.081,420.799,393.590,420.811,392.110L418.514,393.642L416.615,395.384L414.475,397.828L413.475,399.154L411.742,401.758L410.561,403.858L409.528,406.215L409.164,403.858L409.248,403.170L409.289,401.759C409.522,400.010,409.945,398.295,410.288,396.566L410.674,394.467L410.938,392.110L409.027,393.033L408.491,393.512L407.382,394.375L406.450,395.343L404.613,397.608L403.376,399.632L402.475,401.983L401.929,399.627L402.015,398.938L402.022,397.526L402.580,394.903L403.836,390.925L404.543,388.825L405.296,386.468L403.077,387.391L401.262,388.739L399.152,390.910L397.052,393.542L393.175,398.710L392.128,399.844L391.640,400.452L389.781,401.983L390.227,399.627L391.193,394.903L391.981,390.925L392.208,389.514L392.342,388.825L392.602,386.468L390.389,388.000L389.813,388.608L388.605,389.742L386.593,392.191L384.706,394.903L383.131,397.526L382.465,398.938L382.097,399.627L381.318,401.983L380.499,399.627L380.190,397.526L380.195,394.903L380.511,392.171L380.930,389.514L381.060,388.825L381.318,386.468L379.242,388.000L378.723,388.605L377.613,389.735L375.837,392.130L375.064,393.320L373.889,395.395L372.855,397.752L372.288,395.397L372.338,394.714L372.271,393.329L372.387,392.110L372.638,389.506L372.721,388.824L372.855,386.468L370.778,388.000L369.129,389.742C367.782,391.384,366.580,393.127,365.349,394.855L363.539,397.299L362.504,398.433L362.019,399.041L360.161,400.573L359.672,398.241L359.576,397.624L358.751,396.342L357.037,397.873L356.666,398.478L355.838,399.608L354.693,402.003L354.244,403.194L353.614,405.268L353.109,407.625L355.466,408.087L362.985,409.813L368.624,410.799C370.982,411.216,373.334,411.658,375.676,412.154L384.139,414.080L388.371,414.953L391.191,415.469C392.595,415.688,394.004,415.885,395.423,415.961C398.712,416.142,402.004,416.067,405.296,416.090C406.704,416.099,408.123,416.067,409.528,416.171C410.963,416.277,412.394,416.445,413.759,416.934L416.574,418.294L417.969,419.231L420.679,421.410L421.955,422.569L424.235,424.954L426.005,427.499L426.653,428.837L427.470,431.609L427.676,433.015C427.795,434.414,427.844,435.805,427.857,437.210L427.864,444.298L433.506,444.298L433.504,439.840C433.489,437.560,433.482,435.286,433.266,433.014C433.132,431.596,432.898,430.191,432.699,428.782L432.390,425.961C432.242,424.071,432.450,422.188,432.720,420.320L433.230,417.499L434.424,411.857L435.805,406.215C436.417,403.850,437.050,401.497,437.772,399.163C438.915,395.471,440.259,391.845,441.236,388.104L441.689,386.004L441.968,383.647L439.611,384.312L437.531,385.319L435.008,387.080L432.501,389.443L431.304,390.762C429.749,392.581,428.257,394.447,426.787,396.335L423.691,400.378L422.799,401.531L421.749,402.665L421.260,403.273L419.401,404.804ZM89.351,394.931L80.882,400.995C79.464,402.022,78.031,403.027,76.663,404.120C74.763,405.637,72.933,407.257,71.332,409.092C69.856,410.783,68.526,412.640,67.570,414.678C66.705,416.520,66.027,418.427,65.287,420.320C64.731,421.744,64.152,423.156,63.523,424.551C62.233,427.413,60.761,430.191,59.389,433.014C58.708,434.413,57.997,435.804,57.407,437.245C56.843,438.623,56.366,440.020,56.051,441.477C55.649,443.333,55.567,445.226,55.522,447.118L55.500,451.350L55.500,464.044L57.607,463.600L58.321,463.398L61.142,462.634L62.065,464.068L62.546,464.275L63.413,464.820L65.583,465.280L68.221,465.429L71.016,465.453L73.836,465.449C75.716,465.428,77.606,465.421,79.478,465.215C82.305,464.904,85.100,464.364,87.941,464.171C90.286,464.010,92.644,464.048,94.993,464.044L104.866,464.044L109.098,464.037C110.504,464.020,111.901,463.993,113.301,463.835C114.994,463.645,116.822,463.098,117.994,461.783L119.128,459.604L119.336,458.319L119.366,456.965L119.240,454.169L119.292,451.351L119.778,448.556L120.198,447.202L121.368,444.750L122.680,443.008L124.613,441.477L123.650,443.833L123.471,444.522L123.025,445.934C122.581,447.714,122.208,449.522,122.056,451.353C121.940,452.763,121.941,454.171,122.053,455.581C122.166,457.003,122.403,458.412,122.665,459.813C123.022,461.722,123.485,463.596,124.047,465.455L125.120,468.275C126.386,471.219,128.074,473.962,129.661,476.738L133.670,483.791L136.109,488.022L140.128,495.069C140.929,496.438,141.711,497.826,142.575,499.159C143.379,500.400,144.213,501.615,145.254,502.673C147.038,504.486,149.239,505.757,151.434,507.000C153.260,508.034,155.131,508.997,157.019,509.914L159.648,511.028L161.749,511.661L164.106,512.000L164.105,500.716C164.091,497.892,164.128,495.046,163.642,492.253C163.046,488.829,161.729,485.588,160.433,482.380C159.271,479.504,158.071,476.633,156.562,473.917C155.197,471.463,153.594,469.165,151.990,466.865C150.339,464.498,148.668,462.144,146.967,459.813C145.588,457.924,144.198,456.040,142.765,454.192C141.363,452.382,139.941,450.585,138.294,448.989L135.769,446.787L134.433,445.791L131.695,444.021L129.071,442.668L126.970,441.900L124.613,441.477L126.970,440.148L127.658,439.855L129.071,439.178C131.329,438.221,133.608,437.314,135.897,436.433L141.539,434.338L145.770,432.615L150.001,430.826L157.054,428.184L162.696,425.961L168.337,423.705L172.542,421.990C174.583,421.070,176.862,420.142,178.166,418.205C179.129,416.774,179.400,414.968,179.300,413.276C179.159,410.892,178.644,408.558,178.211,406.215L176.353,407.137L175.868,407.618L174.833,408.486L173.027,410.630L170.305,414.232L168.785,415.967L166.927,417.499L166.879,413.075L166.701,410.638L166.422,409.253L166.342,408.570L165.517,406.215L163.908,407.747L163.449,408.355L162.486,409.489L156.624,417.273L154.916,419.373L152.822,421.730L152.822,410.446L151.222,411.369L150.868,411.850L150.045,412.717L149.398,413.713L147.922,416.169C146.894,417.926,145.890,419.705,144.937,421.504L144.259,422.916L143.898,423.605L142.949,425.961L142.124,423.605L142.044,422.916L141.765,421.504L141.587,418.881C141.526,416.070,141.539,413.259,141.539,410.446L139.943,411.978L139.600,412.586L138.800,413.720L135.447,420.318L132.409,425.736L131.676,427.148L131.283,427.836L130.255,430.193L129.489,427.836L129.310,425.736C129.354,423.915,129.629,422.121,129.857,420.317L130.129,417.501C130.222,416.112,130.236,414.721,130.249,413.331L130.255,407.625L128.498,409.157L128.078,409.765L127.168,410.899L125.702,413.350C124.713,415.183,123.789,417.047,122.854,418.909L118.053,428.557L117.421,429.969L117.082,430.657L116.150,433.014L115.384,430.657L115.205,428.557C115.249,426.736,115.524,424.942,115.752,423.138L116.024,420.327C116.216,417.511,116.148,414.676,116.150,411.857L114.394,413.389L113.974,413.996L113.064,415.130C111.977,416.796,111.073,418.561,110.163,420.327C108.770,423.030,107.444,425.764,106.238,428.557L105.735,429.969L105.467,430.657L104.866,433.014L104.100,430.657L104.086,429.969L103.922,428.557L104.108,425.926L104.754,421.730C105.193,418.987,105.695,416.252,106.037,413.493L106.218,411.393L106.277,409.036L104.681,409.958L104.339,410.439L103.539,411.307L102.269,413.477L101.625,414.761L99.568,418.911C97.985,422.102,96.335,425.269,94.954,428.557L94.183,430.657L93.583,433.014L92.780,430.657L92.525,428.557L92.628,425.926L93.044,423.138L93.859,418.909L94.374,416.088C94.591,414.696,94.787,413.300,94.867,411.892C95.001,409.529,94.987,407.170,94.993,404.804L93.669,406.336L93.386,406.944L92.729,408.078L91.728,410.529L90.276,414.679L88.717,418.909L87.540,421.730L85.713,425.961C84.901,427.856,84.109,429.758,83.187,431.603C82.226,433.526,81.139,435.381,80.071,437.245L78.463,440.066L76.023,444.298C74.848,446.210,73.635,448.089,72.365,449.939L70.287,452.753C68.857,454.621,67.231,456.318,65.543,457.949L63.494,459.691L61.142,461.223L63.236,458.866L63.778,458.178L64.944,456.766L69.074,451.347C70.452,449.505,71.820,447.645,73.064,445.708C75.093,442.553,76.740,439.185,78.416,435.835C80.044,432.581,81.703,429.337,83.071,425.961C83.822,424.107,84.475,422.214,85.114,420.320C85.746,418.448,86.360,416.571,86.924,414.678C87.758,411.882,88.491,409.053,89.167,406.215C89.501,404.816,89.820,403.422,90.088,402.010L90.290,400.656L90.408,398.205L90.201,397.071L90.154,396.463L89.351,394.931ZM330.541,410.446L328.970,412.803L328.671,413.491L327.979,414.903L327.292,417.534L327.404,420.317L327.837,421.709L329.361,424.424L331.437,426.970L332.578,428.184L335.014,430.595L337.649,433.120C339.917,435.268,342.188,437.405,344.646,439.335C347.332,441.446,350.213,443.305,353.109,445.109C354.955,446.258,356.825,447.375,358.715,448.450L361.346,449.825L362.758,450.395L363.446,450.708L365.803,451.350L365.663,453.707L365.377,455.807L364.843,458.437C364.481,459.854,364.110,461.261,363.604,462.634C363.067,464.086,362.422,465.481,361.717,466.858L359.493,470.871L358.762,472.283L358.368,472.971L357.340,475.328C359.676,476.508,361.989,477.765,364.428,478.727C366.260,479.449,368.157,479.982,370.034,480.569C372.394,481.307,374.757,482.042,377.087,482.871C378.510,483.379,379.927,483.896,381.315,484.494L386.734,486.887L388.146,487.341L388.835,487.605L391.191,488.022L391.053,485.665L390.956,484.977L390.788,483.565C390.524,481.760,390.194,479.964,390.021,478.146C389.840,476.270,389.804,474.390,389.787,472.507L389.781,466.865C389.782,463.099,389.702,459.323,390.189,455.581C390.373,454.164,390.630,452.749,390.921,451.350C391.413,448.975,391.952,446.621,392.657,444.298C393.646,441.042,394.962,437.898,395.973,434.650L396.516,432.550L396.833,430.193L394.482,431.286L392.431,432.647L389.988,434.743L387.592,437.272L385.372,439.845L383.537,441.941L381.318,444.298L381.576,441.941L381.706,441.252L381.918,439.840C382.128,438.506,382.356,437.180,382.489,435.835C382.768,433.022,382.720,430.194,382.729,427.372L380.533,428.294L378.823,429.643L377.008,431.806L376.187,433.062L374.779,435.615L373.788,437.709L372.855,440.066L372.030,437.709L371.950,437.024L371.671,435.615L371.493,433.042L371.445,427.372L369.367,428.294L368.844,428.775L367.716,429.641L365.803,431.778L363.890,434.225L362.239,436.299L360.161,438.656C360.587,436.372,361.036,434.100,361.333,431.795L361.512,429.727L361.572,427.372L359.220,428.289L358.562,428.741L357.177,429.581C356.093,430.389,355.067,431.265,354.050,432.153L351.698,434.424L352.435,431.382L352.701,429.973C352.866,428.710,352.990,427.454,353.052,426.181C353.124,424.700,353.096,423.210,353.109,421.730L350.917,422.647L349.251,423.939L347.590,425.946L347.143,426.512L346.056,428.782L345.231,426.431L345.151,425.772L344.872,424.387C344.756,423.351,344.700,422.303,344.667,421.260L344.646,418.909L342.582,420.355L342.054,420.856L340.003,422.605L339.474,423.105L337.594,424.551L337.594,416.088L335.486,416.769L334.773,417.225L331.952,418.909L331.931,416.579C331.900,415.604,331.847,414.624,331.726,413.657L331.447,412.551L331.366,411.972L330.541,410.446ZM221.935,420.320L221.995,422.676L222.175,424.777C222.451,427.045,222.883,429.294,223.106,431.568C223.339,433.929,223.326,436.286,223.346,438.656L221.588,436.299L220.238,434.199C219.134,432.404,218.114,430.555,216.937,428.808L215.020,426.172L213.038,424.001L211.336,422.652L209.241,421.730L209.501,424.087L209.862,426.187L210.928,431.606C211.196,433.008,211.467,434.412,211.654,435.828C211.831,437.162,211.945,438.496,212.007,439.840C212.075,441.323,212.049,442.814,212.062,444.298L210.474,441.941L209.137,439.840L207.475,437.217L205.594,434.505L203.530,432.056L201.661,430.314L199.368,428.782L199.389,431.139C199.424,432.256,199.481,433.378,199.608,434.488L200.538,441.470C200.812,444.286,200.770,447.114,200.778,449.939L198.919,447.583L197.385,445.482L194.531,441.470L192.461,438.663L190.284,435.918L188.066,433.467L186.151,431.725L183.853,430.193L184.132,432.550L184.584,434.650C185.312,437.436,186.249,440.152,187.138,442.887C187.739,444.736,188.348,446.592,188.764,448.494L189.234,451.124L189.364,452.536L189.435,453.224L189.494,455.581L187.395,453.224L186.838,452.536C185.312,450.719,183.792,448.897,182.198,447.140L179.600,444.508L177.021,442.337L174.926,440.989L172.569,440.066L172.849,442.423L173.014,443.111L173.300,444.523L174.036,447.154L175.394,451.347C176.010,453.167,176.637,454.985,177.358,456.766L178.014,458.178L178.297,458.866L179.621,461.223L177.704,459.691L177.147,459.083L175.983,457.949L172.436,454.151C171.109,452.783,169.764,451.446,168.367,450.150L165.743,447.979L163.642,446.630L161.285,445.708L161.785,448.065L162.365,450.165L165.847,460.997L166.427,463.098L166.927,465.455L164.570,463.236C161.687,460.689,158.700,458.250,155.643,455.914C154.253,454.852,152.842,453.827,151.414,452.817L148.626,450.946L145.996,449.313L144.584,448.556L143.896,448.151L141.539,447.118L142.021,449.475L142.970,451.576L144.682,454.206L146.855,456.995L150.273,461.223C151.383,462.621,152.504,464.014,153.558,465.455C155.565,468.198,157.501,470.992,159.235,473.917C160.324,475.755,161.311,477.637,162.238,479.559L163.451,482.380C164.205,484.211,164.753,486.121,165.292,488.022C165.816,489.868,166.230,491.765,166.504,493.664C166.907,496.459,166.912,499.273,166.926,502.091L166.927,509.179L169.284,508.257L169.972,507.780L171.385,506.928L174.014,504.869C175.408,503.725,176.770,502.541,178.211,501.457C180.448,499.771,182.797,498.269,185.263,496.942C187.099,495.953,188.998,495.103,190.905,494.263L193.726,493.066L202.189,489.235L207.831,486.768C209.268,486.088,210.671,485.356,212.062,484.586L216.293,482.184C218.604,480.909,220.942,479.681,223.346,478.589C225.193,477.751,227.076,476.991,228.988,476.308C231.809,475.301,234.672,474.403,237.450,473.278C239.771,472.339,242.013,471.240,244.277,470.174L245.689,469.545L246.377,469.206L248.734,468.275L248.421,465.230L248.143,463.818L247.218,461.188L245.836,458.399L243.374,454.171C241.994,451.831,240.590,449.508,239.297,447.118C237.549,443.894,235.931,440.592,234.433,437.245C233.594,435.369,232.854,433.447,231.944,431.603C231.222,430.143,230.435,428.727,229.490,427.399C228.518,426.033,227.416,424.788,226.246,423.593L224.920,422.459L224.270,421.851L221.935,420.320ZM395.423,490.843L397.780,490.778L398.468,490.696L401.128,490.287L403.891,489.425L406.685,488.064L409.379,486.294L410.636,485.303L411.793,484.241L413.767,481.956C414.945,480.349,415.770,478.537,416.559,476.717C417.361,474.864,418.091,472.974,418.837,471.096C419.762,468.764,420.714,466.433,421.488,464.044C422.236,461.739,422.854,459.391,423.208,456.992C423.483,455.124,423.593,453.236,423.611,451.350L423.577,447.118L423.392,444.298L422.841,440.066L422.679,438.656L422.560,435.835L422.632,433.014L422.591,431.603L422.380,430.194L421.244,427.400L419.171,424.787L417.903,423.672L416.553,422.791L415.168,422.218L412.403,422.218L411.065,422.791L409.773,423.672L407.362,426.050L406.241,427.400L404.127,430.194L403.135,431.603L401.367,434.424L399.974,437.245L399.010,440.066L398.668,441.477L398.137,444.298C397.713,446.637,397.352,448.990,397.052,451.350L396.615,455.581C396.333,457.937,395.887,460.272,395.663,462.634C395.484,464.511,395.445,466.391,395.429,468.275L395.423,473.917L395.423,490.843ZM265.660,421.730L264.575,424.087L263.856,426.187C263.345,427.973,262.914,429.781,262.567,431.606C262.211,433.478,261.857,435.347,261.670,437.245C261.483,439.117,261.428,441.007,261.489,442.887C261.596,446.219,262.145,449.509,262.860,452.760C263.172,454.176,263.479,455.612,263.931,456.992L264.909,459.813C265.699,461.739,266.536,463.651,267.582,465.455C268.441,466.933,269.388,468.339,270.441,469.686C271.989,471.666,273.742,473.467,275.427,475.328L277.932,478.149L280.237,480.970L282.416,483.791C284.243,486.153,286.057,488.528,287.952,490.836C289.079,492.208,290.215,493.560,291.422,494.864L293.769,497.035L295.765,498.383L298.101,499.306L299.508,496.949L299.835,496.261L300.570,494.849L303.019,489.430C303.922,487.496,304.957,485.638,306.020,483.791L311.075,475.328L313.537,471.132L314.912,468.501L315.795,466.401L316.437,464.044L314.080,465.438L311.981,466.912C310.202,468.256,308.462,469.644,306.788,471.116L304.689,473.029L302.332,475.328L302.835,472.971L303.448,470.876L304.355,468.304L305.384,465.676L305.675,464.991L306.563,462.634L304.206,463.298L302.106,464.305L299.483,466.061L296.751,468.366C294.803,470.173,292.935,472.047,291.048,473.917C291.801,471.560,292.587,469.209,293.271,466.830L295.108,459.876L296.690,454.171L294.333,455.093L293.648,455.569L292.239,456.416L289.666,458.418L288.447,459.443L287.038,460.521L286.353,461.107L283.996,462.634L284.880,460.277L285.027,459.588L285.425,458.177L285.697,456.928L286.305,454.171C286.581,452.842,286.876,451.512,287.055,450.165L287.096,448.753L287.181,448.065L286.817,445.708L284.466,447.234L283.807,447.812L282.422,448.918C280.528,450.601,278.753,452.398,276.944,454.171L277.714,451.814L278.475,449.715C279.106,447.990,279.772,446.278,280.315,444.522L280.656,443.111L280.858,442.423L281.175,440.066L278.824,440.405L276.780,441.051L274.312,442.268L273.653,442.605L271.302,444.298L271.581,441.941L271.746,441.255L272.028,439.846L273.063,436.055L273.426,434.646L273.625,433.960L274.123,431.603L271.771,431.942L269.728,432.588L267.259,433.805L266.601,434.142L264.249,435.835L265.335,433.483L265.782,432.825L266.640,431.440C267.423,430.365,268.255,429.331,269.110,428.313L271.302,425.961L269.835,424.086L269.385,423.758L267.807,422.586L265.660,421.730ZM299.511,503.537L301.868,504.145L302.556,504.268L303.968,504.519L306.599,504.688C308.506,504.673,310.370,504.345,312.205,503.839C313.645,503.440,315.036,502.902,316.437,502.388C317.860,501.866,319.269,501.282,320.668,500.699C323.062,499.705,325.434,498.665,327.720,497.438C330.677,495.852,333.474,494.005,336.183,492.029C338.111,490.623,340.030,489.173,341.825,487.599L344.640,485.074L347.412,482.359C348.732,480.984,350.035,479.600,351.274,478.149L353.559,475.328L355.614,472.507L356.552,471.096C357.653,469.278,358.699,467.440,359.476,465.455C360.511,462.811,361.253,459.893,360.632,457.054L359.691,454.492L358.945,453.372L356.947,451.602L354.442,450.552L353.082,450.262L351.691,450.099L348.877,450.018L347.467,450.078L346.056,450.206L343.236,450.726L340.415,451.667L339.004,452.301L336.183,453.839L334.773,454.717L331.957,456.638C330.084,457.985,328.276,459.422,326.550,460.952C324.856,462.453,323.256,464.055,321.696,465.696C320.031,467.446,318.431,469.253,316.875,471.102L315.751,472.508C314.665,473.867,313.683,475.309,312.696,476.738L309.871,480.970C308.666,482.816,307.477,484.674,306.422,486.612C305.181,488.894,304.174,491.276,303.150,493.661L300.866,499.080L300.376,500.492L300.110,501.180L299.511,503.537ZZ" style="fill: rgb(0, 0, 0);"/></g></g></g></g></g></svg>