<svg xmlns:xlink="http://www.w3.org/1999/xlink" width="512" xmlns="http://www.w3.org/2000/svg" height="512" id="screenshot-19143d7c-b9a0-8033-8004-20dd684c0c42" viewBox="0 0 512 512" style="-webkit-print-color-adjust: exact;" fill="none" version="1.1"><g id="shape-19143d7c-b9a0-8033-8004-20dd684c0c42"><defs><clipPath class="frame-clip-def frame-clip" id="frame-clip-19143d7c-b9a0-8033-8004-20dd684c0c42-rumext-id-1"><rect rx="20" ry="20" x="0" y="0" width="512" height="512" transform="matrix(1.000000, 0.000000, 0.000000, 1.000000, 0.000000, 0.000000)"/></clipPath></defs><g clip-path="url(#frame-clip-19143d7c-b9a0-8033-8004-20dd684c0c42-rumext-id-1)" fill="none"><clipPath class="frame-clip-def frame-clip" id="frame-clip-19143d7c-b9a0-8033-8004-20dd684c0c42-rumext-id-1"><rect rx="20" ry="20" x="0" y="0" width="512" height="512" transform="matrix(1.000000, 0.000000, 0.000000, 1.000000, 0.000000, 0.000000)"/></clipPath><g class="fills" id="fills-19143d7c-b9a0-8033-8004-20dd684c0c42"><rect rx="20" ry="20" x="0" y="0" transform="matrix(1.000000, 0.000000, 0.000000, 1.000000, 0.000000, 0.000000)" width="512" height="512" class="frame-background"/></g><g class="frame-children"><g id="shape-19143d7c-b9a0-8033-8004-20df0ebc7af3" rx="0" ry="0" style="fill: rgb(0, 0, 0);"><g id="shape-19143d7c-b9a0-8033-8004-20df0ec29b4d"><g class="fills" id="fills-19143d7c-b9a0-8033-8004-20df0ec29b4d"><path rx="0" ry="0" d="M177.828,0.167C135.014,1.743,93.644,28.732,67.494,66.417C41.344,104.103,31.526,152.604,48.244,200.250C63.606,244.034,97.332,278.840,141.620,292.124L133.037,346.624C119.826,340.279,105.615,335.396,90.995,334.874C68.171,334.060,33.577,340.712,11.913,379.041C-2.994,405.413,-5.388,442.669,14.164,474.416C27.212,495.600,50.544,515.331,105.746,505.872C137.416,500.446,153.185,477.165,167.788,442.454C175.719,423.600,181.676,397.823,193.164,381.872C208.875,360.054,241.911,347.947,262.664,347.497C242.657,337.843,181.906,322.064,143.538,385.914C133.146,403.209,120.914,437.496,101.706,448.914C95.310,452.715,85.339,451.034,78.706,446.039C74.421,442.811,58.243,423.976,75.289,404.663C79.940,399.394,86.994,396.917,95.248,397.538C100.866,397.961,107.138,400.155,114.123,405.080C118.727,395.554,123.523,386.125,128.706,376.911C132.808,369.621,139.236,360.901,147.498,352.536L166.123,238.078C160.922,240.216,154.921,241.409,149.831,242.037C141.022,243.124,132.398,242.593,124.455,240.162C114.120,236.999,103.145,231.248,97.373,220.204C95.534,216.687,96.857,212.307,100.248,210.246C103.954,207.992,108.263,209.646,110.914,213.079C119.671,224.416,135.924,231.419,155.456,225.622C182.332,218.543,201.504,206.533,215.132,205.393C228.496,204.274,235.175,218.971,240.728,232.825C242.632,224.142,247.913,206.863,262.061,226.409C262.489,209.540,272.377,206.278,282.103,218.324C255.950,155.400,203.172,180.718,174.180,188.142C160.569,191.628,134.858,193.019,119.905,154.971C115.808,113.930,137.655,89.232,161.499,77.785C185.179,66.416,214.318,70.677,234.124,82.743C226.418,97.905,213.448,96.832,197.791,98.451C218.494,110.810,233.320,109.479,250.500,103.451C251.570,117.242,244.675,123.631,236.249,133.367C260.491,133.681,273.116,130.623,277.207,128.659C275.715,126.084,274.277,123.437,272.916,120.659C269.691,114.077,268.635,99.225,270.624,83.535C276.032,88.923,284.871,94.336,293.208,95.160C290.237,83.357,294.264,65.205,300.999,53.660C304.824,58.360,314.980,63.973,323.749,64.701C323.031,61.728,323.435,56.564,324.124,51.118C304.468,45.711,297.696,41.754,285.374,35.077C269.597,26.527,215.350,-1.222,177.828,0.167ZZM422.244,30.791L411.494,52.540C398.297,46.045,382.700,54.667,381.119,69.290C381.119,69.290,347.519,56.572,343.161,41.081C337.649,50.050,335.859,68.661,340.994,82.414C335.583,83.628,312.350,78.527,308.453,73.331C304.685,82.596,307.152,107.326,316.578,115.622C301.545,115.003,290.749,113.403,282.410,105.539C283.589,119.508,307.086,158.996,347.701,157.748C387.933,156.511,461.655,114.134,456.868,174.331L473.159,154.831L482.743,177.914L485.493,145.871L498.910,148.080L498.576,129.580C475.370,134.223,451.301,132.866,428.784,125.580C428.784,125.580,446.180,99.453,497.283,112.205C497.283,112.205,520.119,108.334,508.908,89.704C497.698,71.075,487.242,98.746,487.242,98.746C477.612,92.672,468.969,85.234,459.701,78.621C442.753,66.528,429.075,50.453,422.244,30.791ZZM404.286,57.873C420.332,57.686,434.910,67.751,440.618,82.748C441.511,85.094,443.869,86.128,446.327,85.623C449.815,84.906,453.212,87.190,454.160,90.623C455.195,94.374,452.936,98.230,449.160,99.165C439.865,101.467,431.229,95.975,427.784,87.040C427.324,85.847,421.959,71.629,404.283,72.082C400.294,72.184,397.200,68.991,397.200,64.998C397.200,61.006,400.291,57.920,404.286,57.873ZZM409.785,81.248C415.479,81.271,420.089,85.888,420.077,91.582C420.066,97.259,415.462,101.851,409.785,101.873C404.076,101.896,399.422,97.291,399.410,91.582C399.399,85.856,404.060,81.225,409.785,81.248ZZM179.193,146.095C171.729,150.867,162.378,160.311,160.513,172.147L160.018,175.293C162.444,177.952,175.046,175.273,176.485,174.370C178.041,164.810,182.318,162.298,187.735,158.886C192.833,155.675,198.751,155.666,201.327,156.122L374.368,186.746L341.659,384.704L245.702,368.079C226.455,373.819,212.708,384.052,207.076,391.872C202.162,398.694,197.263,412.197,193.368,422.955L193.409,422.955L313.868,443.121L316.118,430.121L321.701,397.539C321.744,397.509,321.784,397.486,321.827,397.456L353.744,403.247L366.661,326.496C378.168,343.670,384.394,365.242,381.536,383.330C378.549,402.222,366.685,417.583,340.202,425.332C337.550,426.107,334.924,426.772,332.327,427.373L328.119,453.082C327.454,457.486,323.183,460.428,318.827,459.499L187.951,437.500L179.326,458.333C210.558,481.356,248.551,504.865,298.202,506.499C323.201,507.322,357.106,503.614,387.951,488.666C418.797,473.718,445.953,447.015,456.284,404.666C463.876,373.549,460.908,339.621,449.909,309.957C432.896,264.073,397.327,239.407,382.451,232.623L392.201,174.622L369.534,170.539C347.102,175.163,323.781,173.399,303.326,158.539L203.493,140.455C200.210,139.860,189.171,139.716,179.193,146.095ZZM205.909,223.081L205.909,223.081ZL188.534,326.498C205.186,320.863,221.377,320.301,235.576,322.040L249.365,239.836C244.391,244.754,240.541,244.534,239.080,244.318C228.036,242.682,225.694,223.135,217.993,219.541C215.624,218.436,211.690,218.982,205.909,223.081ZZ"/></g></g></g></g></g></g></svg>