<svg width="512" xmlns="http://www.w3.org/2000/svg" height="512" id="screenshot-58e2ee3b-6ed5-8049-8004-221648697123" viewBox="0 0 512 512" xmlns:xlink="http://www.w3.org/1999/xlink" fill="none" version="1.1"><g id="shape-58e2ee3b-6ed5-8049-8004-221648697123"><defs><clipPath id="frame-clip-58e2ee3b-6ed5-8049-8004-221648697123-render-1" class="frame-clip frame-clip-def"><rect rx="20" ry="20" x="0" y="0" width="512" height="512" transform="matrix(1.000000, 0.000000, 0.000000, 1.000000, 0.000000, 0.000000)"/></clipPath></defs><g clip-path="url(#frame-clip-58e2ee3b-6ed5-8049-8004-221648697123-render-1)" fill="none"><g class="fills" id="fills-58e2ee3b-6ed5-8049-8004-221648697123"><rect rx="20" ry="20" x="0" y="0" width="512" height="512" transform="matrix(1.000000, 0.000000, 0.000000, 1.000000, 0.000000, 0.000000)" class="frame-background"/></g><g class="frame-children"><g id="shape-a2e26dde-73a9-8088-8004-2f032607c2b4" version="1.0" width="1200.000000pt" height="600.000000pt" preserveAspectRatio="xMidYMid meet" rx="0" ry="0" style="fill: rgb(0, 0, 0);"><g id="shape-a2e26dde-73a9-8088-8004-2f032609b966"><g class="fills" id="fills-a2e26dde-73a9-8088-8004-2f032609b966"><path d="M245.187,151.982C244.770,152.399,244.414,153.410,244.414,154.183C244.414,155.253,244.651,155.550,245.365,155.253C246.198,154.956,246.257,155.015,245.603,155.788C244.949,156.561,245.068,156.680,246.376,156.680C247.149,156.680,248.814,157.097,249.944,157.572C252.323,158.524,255.118,158.762,255.118,157.989C255.118,156.680,262.551,155.372,264.870,156.264C266.060,156.740,266.179,160.843,265.049,160.843C264.573,160.843,263.621,161.557,262.789,162.389C261.540,163.757,261.064,163.876,258.388,163.579C249.587,162.627,246.435,162.568,244.711,163.281C243.759,163.697,242.748,163.995,242.511,163.935C242.213,163.876,242.035,164.054,242.035,164.411C242.035,164.708,241.678,165.006,241.262,165.006C240.191,165.006,237.694,161.557,238.169,160.784C238.407,160.486,237.932,159.654,237.159,159.000C236.088,157.989,235.256,157.810,233.115,158.108C231.628,158.286,228.774,158.583,226.752,158.702L223.065,158.940L223.659,157.453C224.492,155.253,224.314,154.896,222.708,154.896C221.875,154.896,221.221,155.194,221.221,155.550C221.221,155.967,220.627,156.086,219.616,155.788C218.307,155.491,218.129,155.550,218.664,156.145C219.497,156.978,219.021,158.464,217.951,158.464C217.118,158.464,215.275,160.367,215.275,161.319C215.275,161.676,215.750,162.032,216.345,162.151C217.178,162.330,216.880,162.805,214.918,164.946C212.896,167.147,212.123,167.563,210.041,167.682C208.614,167.741,207.425,167.622,207.247,167.384C206.771,166.611,211.112,160.843,212.896,159.951C213.907,159.416,214.680,158.643,214.680,158.108C214.680,157.632,214.442,157.335,214.145,157.572C213.847,157.751,213.372,157.335,213.193,156.680C212.717,155.194,211.647,155.432,210.755,157.216C210.101,158.524,207.544,160.665,207.544,159.951C207.544,159.773,206.949,160.011,206.236,160.486C205.403,161.081,204.273,161.319,203.084,161.081C201.478,160.784,201.240,160.962,200.586,162.627C200.229,163.638,200.051,164.887,200.229,165.363C200.408,165.838,200.229,166.195,199.873,166.195C199.516,166.195,199.218,166.611,199.218,167.087C199.218,167.563,198.862,167.979,198.445,167.979C197.553,167.979,195.056,170.655,195.056,171.607C195.056,171.904,194.818,172.023,194.461,171.845C194.164,171.666,193.866,172.023,193.866,172.618C193.866,173.450,193.450,173.807,192.558,173.866C186.374,174.045,182.924,175.413,178.583,179.456C176.621,181.300,172.458,183.143,172.458,182.192C172.458,181.894,171.923,181.657,171.328,181.657C170.020,181.657,168.295,179.575,168.295,177.970C168.295,176.602,167.225,176.602,165.738,177.910C165.084,178.505,164.727,178.624,164.965,178.207C165.560,177.256,163.538,176.483,162.943,177.494C162.587,178.029,162.230,178.029,161.219,177.494C159.554,176.661,158.186,177.613,158.186,179.575C158.186,181.359,159.732,181.894,161.873,180.765C163.835,179.813,164.727,180.051,164.727,181.419C164.727,181.894,165.025,182.132,165.322,181.954C165.679,181.776,166.095,182.013,166.274,182.549C166.749,183.738,165.203,185.462,162.765,186.473C161.695,186.890,160.386,187.841,159.792,188.614C158.721,189.982,155.570,191.766,154.321,191.766C153.904,191.766,153.429,192.123,153.250,192.599C153.072,193.074,151.823,193.907,150.515,194.502C149.147,195.096,148.077,195.810,148.077,196.107C148.077,196.345,147.541,196.404,146.828,196.226C145.757,195.869,145.638,196.048,145.817,197.296C145.995,198.962,144.092,201.459,143.141,200.864C142.784,200.627,141.595,200.389,140.524,200.270C138.859,200.091,138.086,200.508,135.589,202.827C133.923,204.373,132.615,205.919,132.615,206.335C132.615,206.752,132.199,207.465,131.604,207.882C131.069,208.357,130.355,209.428,129.999,210.260C129.344,211.806,125.420,215.553,124.468,215.553C124.171,215.553,123.100,216.326,122.030,217.337C120.960,218.288,119.830,219.121,119.592,219.121C118.819,219.121,113.942,223.997,113.824,224.889C113.467,227.268,110.612,227.387,110.612,225.068C110.612,224.414,110.255,223.878,109.780,223.878C108.769,223.878,103.119,228.219,102.168,229.825C101.633,230.658,101.216,230.777,100.384,230.360C99.730,230.003,98.897,230.003,98.243,230.360C96.994,231.014,90.929,237.556,91.583,237.556C92.356,237.556,92.713,240.053,92.118,241.243C91.523,242.373,88.907,242.729,88.312,241.718C88.134,241.362,87.717,241.124,87.420,241.124C86.885,241.124,81.890,245.108,76.419,249.925C75.943,250.341,75.527,251.352,75.527,252.066C75.527,252.839,74.991,254.147,74.337,254.980C73.683,255.812,73.148,256.883,73.148,257.358C73.148,257.894,72.851,258.488,72.494,258.726C72.137,258.904,71.483,260.034,71.007,261.105C70.294,262.770,69.818,263.127,68.331,263.127C67.142,263.127,66.607,263.365,66.726,263.840C67.023,264.732,62.622,267.884,61.076,267.884C60.481,267.884,60.065,268.241,60.184,268.598C60.481,270.084,58.876,271.987,56.735,272.641C54.475,273.414,52.334,274.901,52.334,275.793C52.334,276.091,52.751,276.685,53.226,277.161C54.000,277.993,53.940,278.291,52.632,280.015C51.799,281.086,51.145,282.275,51.145,282.691C51.145,283.405,50.788,283.881,48.053,286.914C47.101,287.865,46.388,289.292,46.388,290.065C46.388,291.611,44.961,293.931,44.485,293.098C43.950,292.266,45.079,285.486,45.734,285.248C46.685,284.951,46.507,283.940,45.555,283.940C44.604,283.940,41.452,289.173,41.987,289.946C42.166,290.244,42.047,290.482,41.749,290.482C41.392,290.482,40.857,291.195,40.500,292.087C39.311,295.179,37.468,297.856,35.684,299.283C34.673,300.056,34.019,300.948,34.197,301.245C34.435,301.542,34.137,301.780,33.602,301.780C32.948,301.780,32.710,302.078,32.889,302.613C33.127,303.148,32.710,303.564,31.878,303.802C28.726,304.575,22.958,310.641,22.541,313.674C22.363,314.506,21.649,315.458,20.817,315.874C18.379,317.063,17.130,318.907,17.903,320.275C18.854,322.059,17.368,325.567,15.703,325.567C14.156,325.567,9.340,330.562,9.637,331.930C9.756,332.465,9.161,333.655,8.329,334.487C4.880,338.174,4.166,339.185,4.166,340.018C4.166,340.493,3.809,341.029,3.393,341.207C2.382,341.564,0.717,344.954,0.182,347.630C-0.175,349.473,-0.116,349.533,1.371,349.116C2.679,348.819,2.977,348.938,2.977,349.889C2.977,350.543,3.333,351.138,3.750,351.317C4.166,351.435,4.404,352.565,4.344,354.290C4.285,356.252,4.463,357.085,5.058,357.085C6.069,357.085,6.545,355.777,6.545,352.982C6.545,351.733,6.723,350.543,7.020,350.306C7.258,350.068,7.437,349.651,7.437,349.473C7.496,348.284,9.934,345.191,10.767,345.191C12.194,345.191,14.394,342.278,13.978,340.969C13.621,339.958,16.119,337.461,17.487,337.461C18.557,337.461,21.411,334.249,21.411,333.120C21.411,332.525,21.828,331.930,22.304,331.752C22.779,331.514,23.196,330.860,23.196,330.265C23.196,329.670,23.493,329.135,23.850,329.135C24.147,329.135,24.325,328.897,24.147,328.600C23.969,328.303,24.147,327.946,24.623,327.768C25.098,327.589,26.050,326.162,26.823,324.616C27.596,323.070,28.964,321.048,29.915,320.156C30.807,319.264,31.521,318.312,31.521,318.015C31.521,317.301,33.900,315.398,34.375,315.696C34.613,315.815,36.932,315.696,39.549,315.398C42.166,315.042,46.031,314.685,48.172,314.566C50.313,314.387,52.632,314.150,53.405,313.971C54.237,313.733,54.654,313.912,54.594,314.387C54.475,314.744,54.892,315.220,55.486,315.339C56.140,315.458,56.497,315.160,56.497,314.447C56.497,313.614,56.616,313.555,57.032,314.209C57.389,314.804,58.995,315.101,62.147,315.220C64.644,315.339,67.558,315.696,68.569,315.993C76.002,318.372,82.484,319.799,83.317,319.323C83.614,319.085,84.328,318.847,84.863,318.728C87.123,318.312,92.534,316.528,94.080,315.696C95.805,314.744,101.098,314.566,101.098,315.398C101.098,316.707,105.379,317.361,111.445,316.944C118.581,316.469,121.079,316.826,121.495,318.491C121.673,319.145,122.327,319.621,122.981,319.621C124.706,319.621,125.241,318.431,123.576,318.372C122.387,318.312,122.327,318.253,123.398,318.015C124.052,317.836,125.122,317.242,125.776,316.588C126.966,315.517,127.025,315.517,128.869,316.588C130.534,317.658,130.950,317.658,132.972,316.944C134.280,316.469,135.648,316.112,136.124,316.052C136.599,316.052,137.491,315.636,138.086,315.042C138.681,314.506,139.157,314.387,139.157,314.685C139.157,315.042,139.811,315.458,140.643,315.577C141.476,315.755,142.130,315.696,142.130,315.458C142.130,314.804,145.876,315.220,147.304,315.993C148.790,316.766,150.455,316.885,150.455,316.171C150.455,315.577,155.153,315.755,160.267,316.588C162.587,316.944,167.225,317.539,170.674,317.836C174.123,318.193,177.394,318.788,177.989,319.085C178.762,319.502,179.356,319.502,179.832,319.085C180.665,318.372,183.043,318.847,184.471,320.037C185.244,320.750,185.719,320.750,186.730,320.215C187.860,319.621,188.336,319.739,189.823,320.810C191.190,321.821,192.023,321.999,193.688,321.702C195.175,321.464,195.650,321.107,195.413,320.453C195.234,319.977,195.472,319.621,195.948,319.621C196.364,319.621,196.780,319.145,196.780,318.550C196.780,316.944,197.851,312.484,198.326,312.009C198.564,311.771,198.564,312.247,198.326,313.020C197.970,314.150,198.089,314.387,198.802,314.090C199.337,313.912,199.873,314.150,200.051,314.625C200.229,315.101,199.992,315.458,199.516,315.458C199.040,315.458,198.624,315.636,198.564,315.874C198.564,316.171,198.445,316.826,198.326,317.361C198.207,318.074,198.505,318.431,199.278,318.431C199.873,318.431,200.408,318.669,200.408,318.907C200.408,319.561,208.257,319.442,209.209,318.788C209.625,318.550,211.171,318.491,212.599,318.728C214.145,318.907,215.750,318.847,216.404,318.491C217.178,318.015,219.318,318.015,223.065,318.431C227.882,318.907,228.774,318.847,229.666,318.015C230.617,317.182,231.093,317.182,233.293,317.836C236.980,318.907,240.013,320.572,241.321,322.297C242.570,323.843,244.057,324.259,244.711,323.189C244.949,322.832,245.662,323.010,246.614,323.783C248.517,325.270,250.003,325.270,251.431,323.783C252.561,322.594,254.107,322.475,264.632,322.653C266.416,322.713,268.855,322.475,269.984,322.178C271.233,321.821,275.218,321.761,280.094,322.059C284.494,322.297,294.961,322.653,303.286,322.772C311.611,322.951,321.542,323.426,325.348,323.783C329.154,324.199,333.198,324.378,334.387,324.140C337.361,323.605,340.156,320.810,340.156,318.491C340.156,316.766,340.275,316.647,341.345,317.242C342.059,317.599,342.713,318.669,342.951,319.680C343.189,320.810,343.724,321.523,344.556,321.702C347.886,322.356,350.681,322.594,358.888,322.891C363.824,323.070,369.830,323.367,372.327,323.545C376.074,323.843,376.906,323.724,377.204,323.010C377.561,322.059,379.939,322.297,380.653,323.367C380.891,323.664,381.545,323.664,382.318,323.248C383.032,322.832,383.864,322.713,384.221,322.891C384.518,323.129,385.172,322.951,385.648,322.594C386.302,322.059,386.897,322.118,388.384,322.832C390.822,324.021,392.427,324.021,393.795,322.772C394.747,321.940,396.352,321.761,404.083,321.761C411.278,321.702,413.300,321.523,413.300,320.929C413.300,320.513,413.598,320.334,413.955,320.572C414.311,320.750,414.787,320.691,415.025,320.394C415.560,319.680,421.626,318.550,421.983,319.145C422.161,319.383,422.934,319.621,423.767,319.621C424.540,319.621,425.194,319.858,425.194,320.156C425.194,321.107,429.535,321.821,431.438,321.167C432.449,320.810,433.400,320.334,433.579,320.037C433.757,319.799,434.292,319.977,434.709,320.513C435.125,320.988,436.136,321.405,436.968,321.405C438.812,321.405,440.715,323.010,440.239,324.199C440.001,324.735,440.239,324.973,440.715,324.913C442.083,324.616,444.164,326.043,445.115,327.946C445.651,328.957,445.888,329.730,445.651,329.730C445.413,329.730,445.591,330.146,446.007,330.622C446.602,331.336,446.543,331.514,445.710,331.514C444.045,331.514,445.056,333.001,446.899,333.179C449.040,333.476,451.003,334.963,451.240,336.569C451.300,337.223,451.478,337.996,451.538,338.353C451.835,339.423,456.355,345.191,456.890,345.191C457.247,345.191,458.139,344.478,458.912,343.645L460.339,342.099L458.793,340.731C457.960,339.958,457.306,338.769,457.306,338.055C457.306,337.401,457.068,336.866,456.830,336.866C456.533,336.866,456.355,336.271,456.355,335.558C456.414,334.725,455.938,333.952,455.106,333.595C454.392,333.298,453.679,332.525,453.500,331.930C453.322,331.098,452.906,330.860,452.192,331.157C451.359,331.454,451.300,331.395,451.954,330.622C452.549,329.908,452.549,329.730,451.776,329.730C451.181,329.730,450.943,329.373,451.122,328.838C451.359,328.243,451.122,327.946,450.527,327.946C449.694,327.946,449.516,327.411,449.694,325.151C449.873,322.713,450.051,322.297,451.478,321.940C453.084,321.523,457.306,322.951,457.306,323.843C457.306,324.081,457.960,325.091,458.793,326.043C459.625,327.054,460.042,327.946,459.685,328.065C459.328,328.184,459.566,328.838,460.220,329.552C460.874,330.206,461.231,330.979,461.053,331.157C460.517,331.692,462.658,333.893,465.453,335.677C466.821,336.569,467.832,337.461,467.594,337.699C467.416,337.877,467.653,338.055,468.129,338.055C469.437,338.055,470.567,336.450,470.151,335.320C469.794,334.368,471.459,330.919,472.292,330.919C473.481,330.919,472.589,329.730,471.459,329.670C470.686,329.670,470.448,329.492,470.865,329.314C471.995,328.838,471.697,327.351,470.389,327.351C469.616,327.351,469.318,327.054,469.556,326.459C469.794,325.983,469.616,325.151,469.200,324.675C468.070,323.307,468.724,320.037,470.329,319.145C471.162,318.728,475.265,318.134,479.547,317.777C483.828,317.420,487.515,317.004,487.753,316.885C487.932,316.766,490.727,316.944,493.819,317.301C498.755,317.896,499.706,317.836,500.955,317.063C502.680,315.874,506.664,315.101,506.664,315.934C506.664,316.231,507.615,316.052,508.745,315.577C509.875,315.042,510.827,314.387,510.827,314.090C510.827,313.852,511.124,313.793,511.421,313.971C512.373,314.566,512.135,313.555,510.827,311.414C510.172,310.403,509.280,309.511,508.745,309.511C508.210,309.511,508.032,309.154,508.210,308.619C508.507,307.905,508.091,307.727,506.188,307.727C504.820,307.727,503.572,307.430,503.393,307.073C503.096,306.657,500.122,306.538,494.235,306.776C489.478,306.954,483.412,306.895,480.796,306.597C477.882,306.300,475.919,306.359,475.681,306.716C475.444,307.013,474.789,307.073,474.135,306.895C473.422,306.657,472.649,306.835,472.173,307.430C471.102,308.679,467.534,308.560,464.561,307.132C461.766,305.765,460.517,305.646,460.101,306.657C459.863,307.251,459.625,307.251,458.733,306.657C458.079,306.240,456.830,305.646,455.938,305.289C454.392,304.694,454.273,304.397,454.571,302.613C454.927,300.888,454.749,300.472,452.965,299.164C451.895,298.331,450.586,296.904,450.170,296.012C449.694,295.061,448.564,293.455,447.613,292.385C446.602,291.136,446.067,290.006,446.305,289.352C446.483,288.757,446.245,287.924,445.710,287.508C444.759,286.735,444.461,285.130,445.294,285.130C445.591,285.130,446.305,285.665,446.899,286.319C447.970,287.449,449.992,288.043,449.338,286.973C449.159,286.676,449.873,286.319,450.884,286.081L452.727,285.724L450.408,283.643C449.159,282.513,447.732,281.561,447.375,281.561C446.959,281.561,446.661,281.383,446.721,281.086C446.780,280.848,446.245,279.421,445.532,277.875C444.818,276.328,444.223,274.842,444.223,274.604C444.223,273.177,442.558,270.857,440.655,269.609C437.979,267.825,434.828,264.554,434.411,263.067C434.173,262.354,433.460,261.937,432.627,261.937C430.962,261.937,430.308,260.332,430.843,257.775C431.200,256.110,431.141,256.050,428.524,255.693C427.037,255.455,425.788,255.039,425.788,254.801C425.788,254.563,424.480,254.504,422.815,254.682C420.377,254.920,419.842,254.801,419.842,254.028C419.842,253.434,418.950,252.839,417.463,252.423C416.155,252.066,415.084,251.471,415.084,251.055C415.084,250.639,414.252,249.449,413.241,248.379C411.933,246.952,411.695,246.476,412.408,246.476C414.430,246.476,412.825,244.989,410.505,244.632C407.710,244.276,406.164,243.205,406.164,241.718C406.164,241.124,405.748,240.351,405.272,239.934C404.440,239.280,404.499,239.042,405.689,238.210C406.462,237.734,408.246,237.258,409.732,237.258C412.765,237.258,413.538,236.010,411.635,234.166C407.651,230.360,405.748,230.063,405.986,233.274C406.224,235.712,404.440,236.902,403.191,235.118C402.715,234.523,401.942,233.988,401.526,233.988C401.050,233.988,400.812,233.631,400.991,233.215C401.110,232.858,401.645,232.561,402.180,232.679C402.894,232.798,403.072,232.382,403.013,231.193C402.953,230.301,402.656,229.587,402.418,229.706C402.180,229.766,401.645,230.003,401.169,230.182C400.693,230.360,399.623,230.063,398.790,229.528C397.779,228.874,396.709,228.636,395.698,228.874C394.687,229.171,394.330,229.052,394.568,228.636C394.747,228.338,394.747,227.506,394.568,226.852C394.271,225.960,393.795,225.722,392.725,225.900C391.595,226.138,391.298,225.900,391.298,225.008C391.298,224.354,390.881,223.700,390.406,223.522C389.157,222.986,389.276,221.678,390.703,220.905C391.714,220.370,392.011,220.489,392.606,221.797C393.379,223.581,394.271,223.759,394.271,222.154C394.271,221.500,394.568,220.786,394.866,220.608C395.876,220.013,395.520,219.121,393.438,216.980C391.773,215.256,391.238,215.018,390.049,215.434C388.681,215.969,388.681,215.969,390.881,217.396C393.022,218.824,393.676,219.716,392.487,219.716C392.190,219.716,391.892,219.478,391.892,219.180C391.892,218.110,389.930,217.932,388.859,218.883C387.313,220.251,385.232,219.537,384.102,217.218C383.567,216.029,382.615,215.196,381.842,215.077C381.188,214.958,380.712,214.661,380.891,214.364C381.069,214.066,380.534,213.650,379.701,213.412C378.869,213.234,377.917,212.520,377.561,211.925C377.263,211.271,376.490,210.855,375.955,210.914C375.182,211.033,374.944,210.617,374.944,209.249C374.885,207.049,373.755,205.443,372.209,205.443C371.554,205.443,371.079,205.146,371.079,204.849C371.079,203.719,368.700,201.875,367.213,201.875C366.262,201.875,365.727,201.519,365.727,200.983C365.727,200.270,365.310,200.151,364.121,200.448C362.932,200.686,362.694,200.627,363.288,200.210C363.943,199.735,363.586,199.318,361.683,198.367C358.650,196.821,357.401,196.761,356.985,198.248C356.747,199.259,356.450,199.318,354.547,198.783C352.465,198.188,351.514,197.415,351.454,196.345C351.454,195.929,353.179,195.096,356.450,193.907C357.282,193.609,357.401,193.372,356.866,192.717C356.450,192.242,356.331,191.231,356.569,190.279C356.925,188.793,356.807,188.733,355.260,188.912C354.071,189.031,353.595,189.387,353.714,190.101C353.952,191.528,347.946,193.372,346.162,192.420C345.210,191.885,344.913,191.885,344.854,192.480C344.854,192.896,344.556,192.717,344.259,192.063C343.664,190.874,338.312,188.198,336.528,188.198C335.993,188.198,335.220,187.544,334.804,186.711C333.733,184.689,332.009,184.273,330.522,185.641C329.808,186.236,329.452,186.354,329.689,185.998C329.927,185.522,329.571,184.987,328.679,184.570C327.073,183.857,325.646,181.359,326.240,180.408C326.419,180.051,327.251,179.575,328.024,179.278C329.927,178.505,329.808,177.851,327.549,176.186C323.148,173.093,320.413,172.558,323.802,175.472C325.527,176.959,325.586,177.018,324.397,177.851C323.267,178.683,323.148,178.624,322.672,176.959C322.078,174.818,321.899,174.758,319.996,176.305C318.331,177.732,318.748,179.278,320.829,179.278C321.721,179.278,322.256,179.516,322.018,179.873C321.840,180.170,322.316,180.765,323.148,181.121C324.456,181.716,324.516,181.894,323.743,182.727C322.613,183.857,318.153,183.322,317.439,182.013C317.142,181.478,316.607,181.062,316.190,181.062C315.774,181.062,314.466,180.110,313.217,178.981C310.898,176.840,309.411,176.483,307.449,177.494C306.497,178.029,306.140,177.791,305.367,176.305C303.821,173.331,301.978,172.499,298.885,173.272C294.247,174.402,291.393,174.104,289.490,172.320C287.468,170.417,287.170,167.682,289.014,168.158C289.668,168.336,290.203,168.217,290.203,167.920C290.203,167.622,290.620,167.384,291.095,167.384C291.571,167.384,291.987,167.087,291.987,166.790C291.987,166.433,292.701,166.195,293.533,166.195C295.555,166.195,295.258,164.173,293.177,163.935C292.344,163.816,291.333,163.638,290.917,163.519C290.501,163.341,289.965,163.222,289.728,163.222C289.490,163.162,288.479,162.508,287.408,161.676C285.862,160.486,284.851,160.248,281.699,160.248C279.023,160.248,277.656,159.951,277.120,159.356C276.704,158.881,276.050,158.464,275.634,158.464C275.218,158.464,274.980,157.989,275.099,157.394C275.396,156.086,274.444,154.599,273.612,155.134C273.255,155.372,272.958,156.086,272.958,156.740C272.958,157.691,272.660,157.810,271.352,157.513C268.973,156.918,268.795,156.799,268.795,155.194C268.795,153.350,267.487,152.993,263.146,153.707C261.183,154.004,259.518,154.302,259.399,154.302C259.280,154.302,259.399,154.540,259.578,154.896C260.351,156.205,255.891,155.491,254.345,154.064C252.144,152.042,246.435,150.734,245.187,151.982ZZM219.318,181.359C219.497,181.538,218.783,182.013,217.772,182.370C216.702,182.786,215.869,183.322,215.869,183.560C215.869,183.797,214.264,184.333,212.301,184.749C210.339,185.165,208.317,185.879,207.841,186.414C207.068,187.247,207.365,187.306,210.577,187.187C212.539,187.068,214.918,186.592,215.869,186.117C217.713,185.165,223.897,184.868,224.433,185.760C224.611,186.057,224.195,186.949,223.541,187.841C222.767,188.852,222.232,190.636,221.994,192.777C221.875,194.680,221.459,196.999,221.102,197.891C220.389,199.735,220.627,200.270,221.994,199.735C222.886,199.437,223.124,198.843,223.897,193.966C224.195,192.063,224.373,191.766,225.146,192.420C226.454,193.491,228.595,192.242,230.379,189.447C232.282,186.473,233.828,185.522,235.553,186.414C237.218,187.306,236.623,189.685,234.245,191.944C231.866,194.264,232.044,195.096,235.256,195.869C238.526,196.702,239.121,196.404,238.645,194.145C238.407,192.777,238.526,192.361,239.299,192.361C240.429,192.361,240.251,190.160,239.061,189.387C237.872,188.614,240.727,188.376,243.224,188.971C244.354,189.268,245.960,189.566,246.792,189.625C247.565,189.744,249.409,190.815,250.836,192.063C252.739,193.728,253.571,194.145,254.107,193.609C254.463,193.253,256.188,192.955,257.913,192.955C259.637,192.955,261.600,192.599,262.254,192.242C263.205,191.647,263.681,191.647,264.632,192.242C265.287,192.599,266.179,192.955,266.654,192.955C267.130,192.955,267.665,193.491,267.903,194.085C268.081,194.799,268.914,195.334,269.865,195.453C270.876,195.572,271.709,196.167,272.066,196.999C272.482,197.951,273.017,198.248,273.850,198.070C274.504,197.891,275.396,197.713,275.812,197.713C276.228,197.713,276.407,197.415,276.169,197.059C275.931,196.583,276.169,196.523,277.061,196.821C278.012,197.118,278.310,196.940,278.369,196.107C278.369,195.215,278.488,195.275,278.904,196.345C279.559,197.891,280.689,198.248,284.613,198.129C287.170,198.070,288.062,198.367,290.263,199.972C291.630,201.043,293.296,201.875,293.831,201.875C294.425,201.875,295.080,202.173,295.317,202.530C295.496,202.886,296.447,203.065,297.399,202.946C298.350,202.767,299.183,202.946,299.302,203.243C299.599,204.135,302.097,203.124,302.097,202.113C302.097,201.638,301.799,201.281,301.502,201.281C301.145,201.281,299.659,200.508,298.112,199.556L295.317,197.772L296.983,197.356C297.934,197.118,300.610,196.940,302.929,196.880C306.735,196.821,307.151,196.702,307.330,195.572C307.449,194.918,307.092,193.966,306.557,193.550C305.724,192.836,305.308,192.896,303.643,193.788C301.799,194.799,301.621,194.739,297.220,193.312C294.782,192.539,291.333,191.766,289.549,191.647C287.527,191.528,285.981,191.112,285.267,190.398C284.673,189.804,283.900,189.506,283.602,189.744C283.186,189.982,283.067,189.685,283.305,188.912C283.543,188.257,283.424,187.544,283.067,187.306C282.175,186.771,282.354,184.868,283.365,184.035C284.613,183.024,287.051,182.905,288.241,183.797C288.836,184.214,289.787,184.630,290.322,184.630C290.917,184.630,291.333,184.808,291.274,185.046C291.095,186.117,292.641,188.793,293.474,188.793C294.544,188.793,294.723,185.819,293.652,185.760C293.058,185.760,293.058,185.641,293.652,185.403C294.009,185.284,294.425,184.035,294.425,182.668C294.485,180.646,294.604,180.467,294.901,181.716C295.080,182.549,295.972,184.095,296.804,185.165C298.350,187.128,298.410,187.128,299.896,186.117C301.324,185.165,301.561,185.225,304.059,186.295C307.151,187.663,307.924,188.614,306.438,189.209C303.940,190.101,303.821,192.361,306.259,192.361C307.211,192.361,307.984,192.539,307.984,192.777C307.924,193.074,307.924,194.085,307.984,195.096C308.043,196.702,308.400,197.118,310.422,197.951C311.730,198.486,314.466,198.902,316.547,198.902C320.234,198.902,320.234,198.902,318.510,199.794C317.082,200.567,316.190,200.627,313.871,200.151C311.076,199.556,309.649,199.735,308.162,200.864C307.627,201.340,307.687,201.638,308.460,202.232C309.054,202.649,309.946,203.065,310.482,203.065C311.730,203.065,314.644,204.551,314.228,204.968C314.109,205.146,314.287,205.979,314.644,206.871C315.120,207.941,315.834,208.417,316.904,208.476C317.915,208.536,318.093,208.655,317.439,208.833C316.190,209.130,316.012,210.201,317.201,210.201C319.164,210.201,319.937,209.487,319.580,208.060C319.164,206.395,320.888,205.325,321.840,206.692C322.316,207.346,322.494,207.406,322.732,206.752C322.970,206.157,323.386,206.276,324.397,207.227C325.170,207.941,325.646,208.893,325.527,209.309C325.348,209.725,325.765,210.260,326.359,210.498C327.905,210.974,330.700,216.267,330.046,217.337C329.749,217.872,329.808,218.526,330.165,219.002C331.176,220.132,338.253,223.284,339.977,223.284C340.750,223.284,341.523,223.700,341.702,224.176C341.940,224.651,342.415,225.068,342.891,225.068C343.367,225.068,344.259,225.900,344.854,226.911C346.102,228.933,348.838,230.658,349.373,229.766C350.265,228.338,355.023,229.706,355.023,231.371C355.023,231.847,355.915,232.620,356.985,233.036C361.326,234.939,363.110,235.653,364.418,236.069C366.559,236.723,368.462,241.302,366.797,241.837C366.381,242.016,366.262,242.551,366.500,243.146C366.738,243.681,367.154,243.978,367.511,243.800C367.867,243.621,368.819,243.978,369.651,244.632C370.543,245.346,371.792,245.881,372.506,245.881C374.290,245.881,375.003,246.535,375.479,248.438C375.836,249.865,376.014,250.044,376.728,249.449C377.442,248.855,377.620,248.855,377.620,249.390C377.620,249.865,378.096,249.984,378.750,249.747C379.523,249.509,380.356,249.806,381.129,250.579C381.842,251.293,383.032,251.828,383.864,251.828C384.697,251.828,385.351,252.066,385.351,252.423C385.351,252.720,386.064,253.196,387.016,253.374C387.908,253.612,388.859,253.909,389.157,254.088C389.870,254.504,388.265,255.396,386.719,255.396C385.767,255.396,385.351,255.753,385.351,256.585C385.351,257.239,385.648,257.775,386.005,257.775C386.362,257.775,387.313,258.607,388.205,259.618C391.000,263.008,394.211,264.911,396.947,264.911C399.207,264.911,399.504,265.089,399.801,266.516C400.039,267.527,400.991,268.717,402.299,269.549C403.429,270.263,404.380,271.274,404.380,271.749C404.380,272.285,405.272,273.236,406.402,273.890C407.532,274.544,408.900,275.734,409.376,276.566C409.911,277.339,410.684,277.993,411.100,277.993C411.576,277.993,411.933,278.885,411.992,280.194C412.052,281.443,412.289,283.167,412.468,284.059C412.765,285.427,412.587,285.724,411.635,285.724C410.981,285.724,410.327,286.081,410.149,286.438C409.851,287.330,416.809,294.644,417.939,294.644C418.355,294.644,418.533,294.942,418.355,295.239C418.117,295.596,418.236,296.190,418.533,296.607C418.831,297.023,419.307,298.153,419.485,299.223C419.901,301.126,422.399,303.326,423.410,302.672C423.767,302.494,424.004,302.732,424.004,303.208C424.004,303.743,424.302,304.159,424.599,304.159C424.956,304.159,425.194,303.921,425.194,303.564C425.194,302.791,429.892,304.694,431.141,305.943C432.568,307.370,432.984,309.392,432.033,310.344C431.438,310.879,430.130,311.057,427.513,310.879C425.491,310.760,423.648,310.938,423.469,311.236C423.231,311.592,421.685,311.355,419.544,310.581C416.095,309.452,416.036,309.452,415.144,310.581C413.122,313.079,410.268,313.733,408.484,312.128C407.235,310.998,402.834,310.522,399.385,311.057C396.828,311.473,397.482,312.484,400.396,312.484C402.537,312.484,402.418,313.258,400.099,314.923C399.088,315.696,398.434,315.993,398.671,315.577C398.969,315.101,398.612,314.863,397.601,314.863C396.768,314.863,396.055,314.506,396.055,314.090C396.055,313.733,394.925,312.722,393.617,311.949C391.714,310.938,390.287,310.581,387.611,310.641C385.648,310.641,383.864,310.819,383.507,310.998C383.210,311.236,382.972,311.057,382.972,310.760C382.972,310.403,382.734,310.106,382.377,310.106C382.080,310.106,381.902,310.819,382.021,311.711C382.140,313.079,381.842,313.555,380.177,314.328C378.334,315.220,378.215,315.220,378.215,314.328C378.215,313.139,376.014,311.117,375.241,311.592C374.885,311.830,374.647,311.711,374.647,311.414C374.647,310.819,370.306,309.808,368.462,309.987C367.867,310.046,367.035,310.581,366.619,311.117C366.083,311.830,365.429,311.949,363.764,311.652C362.575,311.414,361.623,311.057,361.623,310.819C361.861,309.392,361.445,308.857,360.434,309.214C359.839,309.392,358.650,309.273,357.817,308.976C356.509,308.500,355.677,308.679,353.179,309.868C350.919,310.998,349.670,311.295,348.184,311.057C346.876,310.819,346.102,310.938,345.984,311.414C345.805,311.949,345.210,311.890,343.605,311.117C340.988,309.868,338.372,309.808,336.826,310.998C335.220,312.187,333.733,312.128,333.317,310.760C332.841,309.273,331.117,308.619,330.344,309.630C329.214,311.117,326.121,310.819,322.910,308.916C320.353,307.430,319.461,307.192,317.677,307.489C316.428,307.727,315.239,308.084,314.882,308.322C314.585,308.500,311.374,308.619,307.746,308.560C297.756,308.262,297.756,308.262,296.031,309.511C294.306,310.760,292.820,310.581,291.571,308.976C291.095,308.322,290.857,308.262,290.798,308.738C290.798,309.927,285.446,309.749,285.446,308.619C285.446,307.370,283.305,306.359,282.056,307.073C281.462,307.370,279.678,307.787,278.012,308.024C273.790,308.619,272.958,308.916,272.958,309.868C272.958,310.938,272.898,310.879,267.249,309.749C263.919,309.035,262.551,308.976,262.373,309.452C262.254,309.808,261.897,309.987,261.659,309.808C261.362,309.630,260.113,309.749,258.805,309.987C256.902,310.463,256.485,310.403,256.545,309.630C256.604,308.560,253.393,307.311,252.798,308.203C251.966,309.511,248.576,309.630,245.246,308.381C243.046,307.549,241.619,307.311,241.024,307.668C240.429,307.965,239.359,307.965,238.288,307.608C237.099,307.192,235.910,307.192,234.423,307.608C233.174,307.965,230.736,308.262,228.893,308.203C226.514,308.203,224.611,308.619,222.232,309.689C219.556,310.879,218.843,311.057,218.605,310.344C218.426,309.868,217.653,309.511,216.821,309.511C215.988,309.511,215.156,309.214,214.977,308.916C214.502,308.143,210.339,308.143,209.625,308.857C209.268,309.214,208.020,309.571,206.771,309.689C205.581,309.808,203.916,310.463,203.203,311.176C201.419,312.841,199.992,312.841,200.051,311.236C200.110,310.284,199.456,309.689,197.434,308.916C195.948,308.262,193.866,307.787,192.737,307.787C190.774,307.727,187.087,309.511,185.779,311.057C185.422,311.473,184.054,312.009,182.746,312.247C180.605,312.544,180.248,312.484,179.892,311.355C179.654,310.641,179.773,309.689,180.189,309.214C180.546,308.738,180.665,308.024,180.427,307.608C180.070,307.013,180.248,307.073,180.962,307.668C181.854,308.381,181.973,308.322,181.973,307.430C181.973,306.597,181.616,306.538,180.070,306.835C179.000,307.073,177.870,307.489,177.513,307.727C177.216,307.965,175.313,308.262,173.350,308.381C171.388,308.500,169.425,308.797,169.069,309.095C168.593,309.452,168.295,309.392,168.295,309.035C168.295,307.965,164.371,307.251,157.651,307.013L151.466,306.776L149.623,309.630C147.541,312.841,146.828,313.079,145.698,311.057C145.103,309.868,145.103,309.333,145.936,307.668C146.471,306.657,146.887,305.586,146.887,305.408C146.887,304.694,143.854,304.754,143.676,305.527C142.725,308.560,142.784,308.560,141.654,307.489C140.108,306.181,138.859,306.300,138.086,307.846C137.610,308.916,137.432,308.976,137.432,308.143C137.373,307.608,136.897,307.132,136.362,307.132C135.826,307.132,134.756,306.538,134.042,305.884C132.556,304.516,129.344,303.802,128.750,304.754C128.512,305.111,128.096,305.229,127.798,305.051C127.501,304.813,127.085,305.111,126.906,305.586C126.728,306.121,126.014,306.538,125.360,306.538C124.528,306.538,124.290,306.835,124.528,307.430C124.706,307.905,124.528,308.322,124.111,308.322C123.695,308.322,122.803,308.500,122.089,308.679C120.960,308.976,120.722,308.797,120.722,307.549C120.722,305.765,119.235,305.051,118.224,306.359C115.072,310.225,110.315,314.804,109.958,314.209C109.720,313.852,109.245,313.733,108.888,313.912C108.531,314.150,108.234,314.090,108.234,313.733C108.234,313.436,107.758,313.079,107.223,312.960C106.271,312.782,106.271,312.722,107.282,311.890C107.936,311.414,110.196,309.273,112.337,307.192L116.202,303.445L114.834,302.316C113.407,301.126,109.423,300.769,109.423,301.780C109.423,302.078,109.958,302.375,110.612,302.375C112.337,302.375,112.040,303.862,109.958,305.586C107.758,307.489,105.795,308.024,103.774,307.311L102.227,306.835L103.476,305.527C104.130,304.813,104.666,303.981,104.666,303.624C104.666,302.910,98.065,302.197,95.686,302.672C93.902,303.089,93.843,303.208,94.199,305.229C94.378,306.419,94.378,308.441,94.140,309.630C93.902,311.414,93.486,312.009,92.296,312.306C91.285,312.544,90.691,312.366,90.275,311.652C89.977,311.117,89.085,310.700,88.312,310.700C87.480,310.700,86.825,310.344,86.825,309.927C86.825,309.452,86.588,309.511,86.231,310.106C85.814,310.760,85.636,310.463,85.636,308.857C85.636,307.668,86.052,306.359,86.528,305.943C87.777,304.873,87.658,303.683,86.171,303.267C85.398,303.029,84.566,303.208,83.912,303.802C83.317,304.337,82.603,304.754,82.246,304.754C81.354,304.754,77.846,306.597,75.824,308.084C74.635,308.976,73.743,309.273,73.148,308.916C71.959,308.262,62.325,306.478,61.909,306.835C61.790,307.013,61.076,306.716,60.303,306.240C59.114,305.467,58.935,305.527,58.638,306.300C58.460,306.835,58.281,307.787,58.281,308.500C58.281,309.571,58.162,309.630,57.686,308.916C57.211,308.143,57.032,308.203,56.735,309.273C56.438,310.463,55.962,310.522,50.669,310.581C46.269,310.581,44.187,310.879,41.809,311.830L38.657,313.079L38.657,311.236C38.657,309.927,38.954,309.333,39.846,309.095C41.452,308.679,41.333,306.716,39.727,306.181C38.954,305.943,36.873,305.705,35.089,305.586C33.305,305.527,31.699,305.467,31.521,305.408C31.402,305.348,31.878,304.932,32.591,304.397C33.662,303.683,34.137,303.624,34.792,304.159C35.446,304.694,35.921,304.694,36.457,304.278C36.873,303.921,39.133,303.743,41.809,303.862C46.031,304.040,46.447,303.981,47.042,302.791C49.658,297.737,51.561,295.596,54.535,294.287C56.319,293.455,57.746,292.444,57.984,291.671C58.162,291.017,58.697,290.482,59.114,290.482C59.589,290.482,60.065,289.649,60.303,288.698C60.481,287.687,61.017,286.914,61.492,286.914C61.968,286.914,62.920,286.200,63.574,285.248C64.287,284.356,65.120,283.286,65.477,282.870C65.833,282.454,66.012,281.740,65.833,281.324C65.655,280.848,66.012,280.610,66.785,280.610C67.499,280.669,68.331,280.134,68.688,279.361C69.699,277.399,71.423,275.615,72.375,275.615C72.791,275.615,73.148,275.317,73.148,274.961C73.148,274.604,73.683,274.485,74.337,274.723C75.110,274.961,75.527,274.842,75.527,274.306C75.527,273.831,76.062,273.117,76.716,272.641C77.370,272.166,77.905,271.393,77.905,270.976C77.905,270.382,78.381,270.263,79.570,270.501C80.819,270.798,81.354,270.620,81.949,269.668C82.365,268.954,82.544,267.884,82.365,267.289C82.187,266.695,82.246,266.041,82.603,265.862C82.901,265.684,83.971,263.840,85.041,261.818C88.193,255.693,90.988,252.541,90.988,255.099C90.988,255.574,91.345,255.991,91.821,255.991C92.237,255.991,93.307,256.526,94.140,257.180C94.972,257.834,95.983,258.369,96.340,258.369C96.756,258.369,96.935,257.894,96.756,257.180C96.578,256.526,96.697,255.991,96.994,255.991C97.292,255.991,97.530,255.634,97.530,255.158C97.530,254.682,98.481,253.077,99.611,251.590C100.741,250.103,101.633,248.498,101.514,248.081C101.454,247.606,102.049,247.427,103.357,247.546C105.498,247.665,107.223,246.416,107.936,244.216C108.174,243.324,108.947,242.729,110.137,242.492C111.207,242.254,112.099,241.659,112.218,241.005C112.396,240.410,112.932,239.934,113.407,239.934C115.251,239.934,119.949,236.247,120.781,234.166C121.138,233.155,121.911,232.798,124.528,232.501C126.312,232.263,128.036,232.263,128.393,232.442C129.642,233.274,132.020,232.085,132.377,230.479C132.913,228.041,133.923,225.662,134.399,225.662C134.637,225.662,134.994,225.127,135.172,224.414C135.470,223.224,135.767,223.165,139.216,223.581C142.487,223.938,142.844,223.878,142.546,223.046C142.308,222.511,142.487,222.094,142.903,222.094C143.319,222.094,144.092,221.559,144.687,220.905C145.222,220.251,146.114,219.716,146.590,219.716C147.066,219.716,147.482,219.418,147.482,219.061C147.482,218.764,147.720,218.586,148.017,218.764C148.255,218.943,149.325,218.764,150.336,218.407C151.823,217.813,152.120,217.456,151.883,216.385C151.645,215.553,151.883,215.018,152.477,214.780C153.012,214.542,153.429,213.709,153.429,212.936C153.429,211.212,154.796,210.320,158.364,209.725C160.565,209.309,160.862,209.071,160.862,207.703C160.922,205.443,161.397,205.146,165.084,205.146C167.106,205.146,168.533,204.849,168.831,204.373C169.069,203.957,169.961,203.659,170.734,203.719C173.766,204.016,174.777,203.659,174.956,202.292C175.075,201.519,175.491,201.043,176.026,201.102C176.561,201.221,177.216,200.686,177.513,199.913C178.048,198.783,178.583,198.605,181.854,198.545C185.838,198.426,187.920,197.296,187.920,195.215C187.920,194.620,188.217,194.145,188.633,194.145C189.882,194.145,193.331,191.052,193.034,190.220C192.855,189.744,193.034,189.566,193.569,189.804C194.045,189.982,194.283,190.339,194.104,190.696C193.866,191.052,194.639,191.112,196.067,190.815C199.218,190.220,201.002,189.506,201.002,188.793C201.002,188.495,200.408,188.198,199.694,188.198L198.326,188.198L199.754,187.068C200.527,186.473,201.002,185.700,200.824,185.403C200.289,184.570,201.478,183.619,203.560,183.143C204.927,182.786,205.106,182.549,204.452,181.776C203.797,181.002,203.857,180.943,204.927,181.538C205.581,181.894,206.711,182.073,207.365,181.894C208.079,181.716,209.149,181.835,209.863,182.192C210.815,182.727,211.528,182.608,213.253,181.716C215.215,180.646,218.426,180.467,219.318,181.359ZZM323.148,192.242C323.564,193.491,326.716,194.918,331.890,196.226C336.885,197.475,338.788,198.248,339.145,199.140C339.323,199.556,340.453,199.913,341.761,199.972C343.902,200.091,345.805,201.459,345.151,202.530C345.032,202.767,346.578,203.957,348.600,205.146C350.681,206.395,353.476,208.357,354.844,209.547C359.483,213.531,361.148,214.601,362.694,214.482C364.002,214.364,364.240,214.601,364.359,216.207C364.478,217.932,364.418,218.051,362.813,217.753C361.564,217.515,360.791,217.694,360.018,218.586C358.353,220.489,359.720,221.143,366.202,221.500C371.435,221.797,372.268,221.975,374.885,223.700C376.431,224.770,377.977,225.662,378.334,225.781C378.690,225.900,379.107,227.090,379.345,228.338C379.642,230.479,380.058,230.895,382.972,232.501C386.302,234.345,392.130,239.578,393.914,242.373C394.866,243.919,394.866,243.978,393.319,244.335C391.238,244.870,388.086,242.432,388.740,240.708C389.038,239.875,383.924,236.366,382.377,236.366C380.831,236.366,379.999,235.177,380.653,233.869C380.950,233.274,381.129,232.561,380.950,232.263C380.534,231.609,373.517,227.446,372.803,227.446C372.090,227.446,372.090,230.241,372.863,230.717C374.111,231.490,373.398,232.204,371.376,232.204C368.581,232.204,366.738,230.539,367.213,228.457C367.511,227.327,367.273,226.733,366.262,226.019C364.597,224.889,362.932,224.770,362.575,225.781C362.040,227.446,356.152,222.808,352.882,218.229C351.692,216.623,351.454,216.504,350.325,217.159C348.600,218.229,347.708,218.110,346.519,216.683C345.627,215.672,344.973,215.553,342.653,215.791C340.037,216.088,339.977,216.088,341.821,215.493L343.843,214.899L341.583,212.698C339.383,210.558,339.323,210.558,340.810,210.201C343.307,209.606,346.340,210.379,346.578,211.688C346.876,213.293,348.184,214.661,350.444,215.850C351.514,216.326,352.763,217.099,353.298,217.456C353.833,217.813,354.666,217.932,355.201,217.753C356.628,217.218,355.260,214.126,352.465,211.569C350.681,209.963,350.027,209.666,349.373,210.201C348.719,210.736,348.362,210.558,347.530,209.309C346.459,207.703,344.437,206.335,343.902,206.871C343.724,207.049,343.902,207.644,344.378,208.238C344.973,209.012,344.735,208.893,343.367,208.001C341.345,206.573,335.874,204.254,334.506,204.254C333.376,204.254,326.003,199.497,323.862,197.356C322.078,195.572,320.413,192.420,320.888,191.647C321.424,190.815,322.851,191.171,323.148,192.242ZZM415.620,265.208C416.987,266.695,418.058,268.241,418.058,268.657C418.058,269.490,421.269,272.701,423.053,273.652C423.707,274.009,424.242,275.020,424.302,275.972C424.361,276.923,424.599,278.231,424.837,278.885C425.134,279.599,424.480,279.183,423.231,277.815C422.102,276.626,421.031,275.615,420.793,275.615C419.842,275.615,420.555,278.648,421.804,279.540C422.815,280.253,422.815,280.432,422.042,280.134C421.388,279.956,420.258,279.599,419.425,279.421C417.285,278.885,414.371,275.555,415.203,274.604C415.560,274.188,416.333,273.831,416.928,273.831C418.177,273.831,418.236,273.771,417.701,272.404C417.523,271.868,416.690,271.452,415.917,271.452C414.668,271.452,414.549,271.274,414.847,269.668C415.263,267.706,414.490,266.278,411.041,262.413L408.900,260.094L411.041,261.343C412.230,261.997,414.311,263.781,415.620,265.208ZZM206.176,198.367C205.403,199.259,205.284,199.794,205.760,200.627C206.236,201.578,205.998,202.054,204.452,203.362C203.381,204.254,201.894,205.265,201.181,205.622C200.408,205.979,199.813,206.811,199.754,207.465C199.754,208.179,199.575,208.357,199.397,207.941C198.981,206.871,197.197,207.049,195.531,208.417C194.223,209.368,193.747,209.487,191.904,208.893C189.466,208.119,188.574,208.536,189.644,209.844C190.120,210.379,190.120,210.796,189.763,211.033C189.406,211.271,189.287,211.806,189.466,212.223C189.823,213.234,191.963,213.888,192.380,213.174C192.558,212.877,193.510,212.520,194.521,212.282C195.531,212.044,196.483,211.509,196.661,211.033C196.840,210.558,197.434,210.201,197.970,210.201C198.505,210.201,199.218,209.963,199.575,209.725C199.873,209.428,201.359,208.714,202.965,208.179C204.511,207.584,205.760,206.871,205.760,206.514C205.760,206.157,206.117,206.157,206.652,206.633C207.306,207.168,207.544,207.168,207.544,206.692C207.544,206.276,207.782,206.098,208.079,206.276C208.614,206.633,214.502,205.027,215.572,204.314C215.929,204.076,216.821,203.838,217.594,203.778C219.497,203.719,220.924,202.232,220.389,200.924C220.091,200.151,219.497,199.972,217.296,200.270C215.869,200.389,214.145,200.983,213.550,201.519C213.015,202.054,211.647,202.649,210.636,202.827C209.149,203.124,208.733,203.005,208.733,202.232C208.733,201.697,208.674,201.102,208.614,200.805C208.555,200.567,209.268,200.270,210.220,200.091C212.777,199.616,212.836,198.307,210.279,198.307C209.090,198.307,208.139,198.010,208.139,197.713C208.139,196.821,207.365,197.059,206.176,198.367ZZM175.550,208.179C174.123,209.606,173.172,211.033,173.350,211.331C173.469,211.628,173.231,211.985,172.756,212.223C172.280,212.401,171.864,213.055,171.864,213.709C171.864,214.364,171.566,214.958,171.150,215.077C170.793,215.196,169.782,216.564,168.950,218.051C166.452,222.392,163.895,225.603,162.646,225.960C161.992,226.138,159.673,227.149,157.532,228.160C153.369,230.063,153.369,230.063,154.083,234.999C154.261,236.188,156.343,235.891,157.116,234.582C157.532,233.928,158.127,233.393,158.364,233.393C158.662,233.393,159.970,232.620,161.338,231.669C162.706,230.717,166.155,229.171,169.069,228.279C171.923,227.387,174.242,226.435,174.242,226.138C174.242,225.841,174.421,225.722,174.718,225.841C175.372,226.257,177.513,225.306,177.572,224.532C177.751,223.105,177.870,222.986,178.405,223.878C178.821,224.532,179.059,224.414,179.535,223.105C179.892,222.154,180.189,220.905,180.189,220.310C180.189,219.716,180.546,218.824,180.962,218.407C181.854,217.456,184.352,212.223,184.352,211.212C184.352,210.855,184.887,209.844,185.541,209.012C187.325,206.752,187.028,205.979,184.530,206.038C183.281,206.098,181.319,205.979,180.189,205.800C178.345,205.562,177.810,205.800,175.550,208.179ZZM131.010,242.670C129.761,243.919,128.393,244.870,128.036,244.811C127.620,244.692,127.263,245.049,127.263,245.584C127.263,246.060,127.025,246.476,126.728,246.476C126.431,246.476,126.074,247.308,125.836,248.379C125.063,252.244,128.096,255.336,131.723,254.444C133.210,254.088,133.329,253.850,132.972,251.947C132.794,250.817,132.318,249.628,131.902,249.390C130.891,248.795,132.020,245.584,133.210,245.584C133.805,245.584,134.161,244.870,134.280,243.562C134.578,240.351,133.567,240.053,131.010,242.670ZZM190.596,162.151C188.931,163.995,188.574,164.114,185.422,163.935C183.281,163.816,181.973,163.995,181.973,164.411C181.973,164.708,182.330,165.006,182.746,165.006C183.876,165.065,179.773,168.514,178.048,168.931C177.156,169.168,175.967,169.050,175.372,168.633C173.648,167.563,171.864,167.801,171.864,169.109C171.864,170.179,170.080,172.201,170.080,171.190C170.020,170.001,168.295,173.093,168.295,174.342C168.295,176.186,169.604,176.126,176.264,173.866C182.627,171.666,185.482,169.823,189.109,165.363C191.250,162.746,192.201,162.092,193.866,161.913C196.423,161.676,196.602,160.605,194.164,160.367C192.796,160.248,191.963,160.665,190.596,162.151ZZM302.691,165.006C301.561,165.957,300.253,166.790,299.837,166.790C299.421,166.790,299.183,167.028,299.361,167.325C299.540,167.563,301.561,167.682,303.881,167.503C306.735,167.325,308.043,167.444,308.043,167.920C308.043,168.276,308.579,168.574,309.173,168.574C309.827,168.574,310.541,168.812,310.719,169.168C310.898,169.466,311.909,169.763,312.860,169.763C314.406,169.763,314.585,169.942,314.287,170.952C313.931,172.023,314.109,172.142,315.655,171.845C316.904,171.666,317.677,171.904,318.450,172.737C319.521,173.926,319.521,173.926,320.948,172.618C321.721,171.904,322.316,171.012,322.316,170.596C322.316,169.644,319.699,167.979,318.212,167.979C317.558,167.979,316.071,167.444,314.942,166.849C313.812,166.195,312.801,165.779,312.622,165.957C312.266,166.314,308.222,164.530,307.746,163.816C307.032,162.687,304.773,163.222,302.691,165.006ZZM332.425,181.419C332.425,183.797,332.544,184.095,333.317,183.441C333.971,182.905,334.209,182.905,334.209,183.381C334.209,183.797,334.566,184.035,334.982,183.916C336.231,183.619,339.442,185.284,339.739,186.354C339.918,187.128,340.810,187.544,342.832,187.722C344.556,187.960,345.924,188.436,346.221,189.031C346.519,189.566,347.113,189.982,347.589,189.982C348.778,189.982,349.314,187.722,348.422,186.652C347.827,185.879,347.827,185.641,348.541,185.225C349.195,184.808,349.195,184.511,348.600,183.916C348.065,183.381,347.886,183.381,347.886,184.154C347.886,185.344,346.876,185.581,342.772,185.344C339.383,185.106,338.729,184.333,340.453,182.608C342.297,180.824,341.226,179.873,338.788,181.121C337.836,181.657,337.480,181.657,337.301,181.121C337.182,180.765,336.766,180.467,336.290,180.467C335.874,180.467,335.220,180.051,334.804,179.575C333.317,177.791,332.425,178.505,332.425,181.419ZZM146.590,183.500C144.984,184.808,142.844,186.295,141.833,186.771C136.659,189.268,129.761,194.145,125.955,197.832C125.360,198.426,124.528,198.724,123.992,198.545C123.398,198.307,123.100,198.545,123.100,199.378C123.100,200.329,122.625,200.746,121.079,201.043C119.949,201.221,118.878,201.757,118.700,202.232C118.521,202.708,118.105,203.065,117.808,203.065C116.975,203.065,110.196,207.882,107.401,210.439C106.152,211.628,104.903,212.580,104.666,212.580C104.428,212.580,104.071,213.115,103.893,213.769C103.714,214.482,103.060,214.958,102.346,214.958C101.692,214.958,100.919,215.315,100.681,215.791C100.443,216.267,99.195,217.218,97.946,217.932C95.329,219.478,95.151,221.262,97.648,221.083C99.135,221.024,99.195,221.083,98.659,222.511C98.124,223.997,98.659,225.008,99.968,225.068C100.562,225.068,101.930,223.224,102.108,222.213C102.168,221.678,102.525,221.143,102.822,221.024C103.179,220.905,103.476,220.310,103.476,219.656C103.476,218.407,104.963,217.634,108.471,217.040C109.958,216.802,110.850,216.326,111.029,215.553C111.207,214.958,111.921,214.304,112.575,214.126C114.002,213.769,117.927,210.736,123.100,205.979C127.025,202.411,129.285,201.162,130.177,202.054C130.593,202.470,131.426,202.113,132.853,200.805C133.983,199.794,135.410,198.724,136.005,198.367C136.897,197.891,136.956,197.594,136.362,196.583C135.410,195.037,135.351,194.264,136.302,195.215C137.373,196.286,139.157,196.107,139.216,194.858C139.275,194.323,139.335,193.431,139.394,192.955C139.513,191.409,140.286,190.696,143.022,189.804C145.460,188.971,145.757,188.971,146.649,189.804C147.898,191.112,149.207,189.863,148.077,188.495C147.423,187.663,147.601,187.306,149.504,185.700C150.991,184.452,151.645,183.500,151.526,182.608C151.228,180.646,149.801,180.884,146.590,183.500ZZM91.107,224.651C90.393,225.424,89.799,226.733,89.799,227.625C89.799,229.052,89.442,229.290,86.469,230.182C84.447,230.777,82.187,231.966,80.819,233.215C78.441,235.355,77.667,237.258,79.511,236.545C80.343,236.247,80.403,236.485,80.106,238.032C79.868,239.102,79.927,239.934,80.225,239.934C81.711,239.934,91.583,231.252,91.583,230.003C91.583,229.647,91.940,229.052,92.356,228.695C93.248,227.982,93.664,223.284,92.891,223.284C92.594,223.284,91.821,223.878,91.107,224.651ZZM71.959,241.243C71.899,241.659,70.591,243.027,68.985,244.276C67.320,245.524,66.012,246.892,66.012,247.308C66.012,247.665,65.239,248.319,64.228,248.676C62.028,249.509,61.849,251.293,63.871,252.363C65.358,253.196,66.904,252.779,66.309,251.768C66.071,251.471,66.250,251.233,66.607,251.233C67.618,251.233,72.553,246.416,73.207,244.811C73.802,243.265,73.326,240.529,72.494,240.529C72.196,240.529,71.959,240.886,71.959,241.243ZZM476.633,349.414C476.395,349.770,476.990,350.781,477.941,351.733C478.893,352.684,480.023,354.587,480.439,356.014C481.926,360.891,482.877,361.723,484.066,358.869C484.839,357.025,485.612,356.609,485.969,357.739C486.326,358.750,488.824,357.323,488.824,356.193C488.824,354.706,486.505,352.803,485.256,353.219C483.769,353.695,481.688,352.565,481.688,351.317C481.688,349.354,477.584,347.808,476.633,349.414ZZ" style="fill: rgb(0, 0, 0);"/></g></g></g></g></g></g></svg>