<?xml version="1.0" encoding="UTF-8"?>
<svg width="512px" height="512px" viewBox="0 0 512 512" version="1.1" xmlns="http://www.w3.org/2000/svg" xmlns:xlink="http://www.w3.org/1999/xlink">
    <title>Brighteon Social</title>
    <g id="All-Fediverse-Symbols" stroke="none" stroke-width="1" fill="none" fill-rule="evenodd">
        <g id="Brighteon-Social">
            <path d="M311.751111,16 L268.976042,46.4071167 C263.833684,46.254112 260.083624,46.121508 256.252262,46.121508 C206.851071,46.121508 162.043449,55.8832023 123.800972,75.37599 C117.550873,77.7628619 112.886165,81.0575612 106.951111,84.433863 L250.876161,120.675556 L311.751111,16 Z" id="Path" fill="#000000" fill-rule="nonzero"></path>
            <path d="M323.128889,54.6844444 L362.73401,167.393372 L466.298657,229.32035 L398.315624,307.569011 L418.849731,446.08 C464.774602,412.858069 497.236983,365.933234 508.250824,312.502056 C510.689312,299.195013 512,285.441357 512,271.149735 C512,261.638905 511.359897,252.35138 510.272737,243.236411 C496.982974,152.350628 421.958804,78.4158451 323.128889,54.6844444 Z" id="Path" fill="#000000" fill-rule="nonzero"></path>
            <path d="M159.247381,449.85262 L202.43036,249.785323 L98.3488285,93.3688889 C38.5054993,134.655033 0,198.685093 0,270.641524 C0,375.440129 81.5870144,463.543625 192.091202,488.824791 C212.901421,493.584673 234.71613,496.142222 257.210647,496.142222 C288.187535,496.142222 317.875833,491.321446 345.372514,482.52226 L425.528889,479.46741 L309.971806,375.247298 L159.247381,449.85262 Z" id="Path" fill="#000000" fill-rule="nonzero"></path>
            <rect id="Rectangle" x="0" y="0" width="512" height="512"></rect>
        </g>
    </g>
</svg>