<svg xmlns:xlink="http://www.w3.org/1999/xlink" width="512" xmlns="http://www.w3.org/2000/svg" height="512" id="screenshot-7df70fec-7f90-8051-8004-1ce34bd07f38" viewBox="0 0 512 512" style="-webkit-print-color-adjust: exact;" fill="none" version="1.1"><g id="shape-7df70fec-7f90-8051-8004-1ce34bd07f38"><defs><clipPath class="frame-clip-def frame-clip" id="frame-clip-7df70fec-7f90-8051-8004-1ce34bd07f38-rumext-id-1"><rect rx="20" ry="20" x="0" y="0" width="512" height="512" transform="matrix(1.000000, 0.000000, 0.000000, 1.000000, 0.000000, 0.000000)"/></clipPath></defs><g clip-path="url(#frame-clip-7df70fec-7f90-8051-8004-1ce34bd07f38-rumext-id-1)" fill="none"><clipPath class="frame-clip-def frame-clip" id="frame-clip-7df70fec-7f90-8051-8004-1ce34bd07f38-rumext-id-1"><rect rx="20" ry="20" x="0" y="0" width="512" height="512" transform="matrix(1.000000, 0.000000, 0.000000, 1.000000, 0.000000, 0.000000)"/></clipPath><g class="fills" id="fills-7df70fec-7f90-8051-8004-1ce34bd07f38"><rect rx="20" ry="20" x="0" y="0" transform="matrix(1.000000, 0.000000, 0.000000, 1.000000, 0.000000, 0.000000)" width="512" height="512" class="frame-background"/></g><g class="frame-children"><g id="shape-24b0466e-7c13-801d-8004-20f73a11c348" rx="0" ry="0"><g id="shape-24b0466e-7c13-801d-8004-20f709e9b1a8"><g class="fills" id="fills-24b0466e-7c13-801d-8004-20f709e9b1a8"><path rx="0" ry="0" d="M460.800,93.091L377.027,93.091L377.027,65.164C376.987,29.191,347.836,0.040,311.864,-0.000L200.155,-0.000C164.182,0.040,135.031,29.191,134.991,65.164L134.991,93.091L51.200,93.091C35.776,93.091,23.273,105.594,23.273,121.018C23.273,136.442,35.776,148.945,51.200,148.945L60.509,148.945L60.509,465.455C60.538,491.149,81.360,511.971,107.055,512.000L404.945,512.000C430.640,511.971,451.462,491.149,451.491,465.455L451.491,148.945L460.800,148.945C476.224,148.945,488.727,136.442,488.727,121.018C488.727,105.594,476.224,93.091,460.800,93.091ZL460.800,93.091ZM190.845,65.164C190.851,60.025,195.016,55.860,200.155,55.855L311.864,55.855C317.002,55.860,321.167,60.025,321.173,65.164L321.173,93.091L190.845,93.091L190.845,65.164ZM395.636,456.145L116.364,456.145L116.364,148.945L395.636,148.945L395.636,456.145ZM228.082,223.418L228.082,372.364C228.082,387.787,215.578,400.291,200.155,400.291C184.731,400.291,172.227,387.787,172.227,372.364L172.227,223.418C172.227,207.994,184.731,195.491,200.155,195.491C215.578,195.491,228.082,207.994,228.082,223.418ZL228.082,223.418ZM339.791,223.418L339.791,372.364C339.791,387.787,327.287,400.291,311.864,400.291C296.440,400.291,283.936,387.787,283.936,372.364L283.936,223.418C283.936,207.994,296.440,195.491,311.864,195.491C327.287,195.491,339.791,207.994,339.791,223.418ZL339.791,223.418Z" style="fill: rgb(0, 0, 0); fill-opacity: 1;"/></g></g></g></g></g></g></svg>