<svg width="512" xmlns="http://www.w3.org/2000/svg" height="512" fill="none"><g data-testid="buttondown"><defs><clipPath id="a" class="frame-clip frame-clip-def"><rect rx="20" ry="20" width="512" height="512"/></clipPath></defs><g clip-path="url(#a)"><g class="fills"><rect rx="20" ry="20" width="512" height="512" class="frame-background"/></g><g class="frame-children"><path d="M0 196.267C0 87.944 87.944 0 196.267 0h119.466C424.056 0 512 87.944 512 196.267v119.466C512 424.056 424.056 512 315.733 512H196.267C87.944 512 0 424.056 0 315.733V196.267Zm106.667-34.987v189.44c0 30.142 24.471 54.613 54.613 54.613h189.44c30.142 0 54.613-24.471 54.613-54.613V161.28c0-30.142-24.471-54.613-54.613-54.613H161.28c-30.142 0-54.613 24.471-54.613 54.613Zm58.88 40.107-35.84 35.84s61.44 76.8 128 76.8S384 237.227 384 237.227l-35.84-35.84s-51.2 61.44-90.453 61.44c-42.667 0-92.16-61.44-92.16-61.44Z" style="fill: rgb(0, 0, 0); fill-opacity: 1;" class="fills" data-testid="buttondown"/></g></g></g></svg>