<svg xmlns:xlink="http://www.w3.org/1999/xlink" width="512" xmlns="http://www.w3.org/2000/svg" height="512" id="screenshot-24b0466e-7c13-801d-8004-20e97782b654" viewBox="0 0 512 512" style="-webkit-print-color-adjust: exact;" fill="none" version="1.1"><g id="shape-24b0466e-7c13-801d-8004-20e97782b654"><defs><clipPath class="frame-clip-def frame-clip" id="frame-clip-24b0466e-7c13-801d-8004-20e97782b654-rumext-id-4"><rect rx="20" ry="20" x="0" y="0" width="512" height="512" transform="matrix(1.000000, 0.000000, 0.000000, 1.000000, 0.000000, 0.000000)"/></clipPath></defs><g clip-path="url(#frame-clip-24b0466e-7c13-801d-8004-20e97782b654-rumext-id-4)" fill="none"><clipPath class="frame-clip-def frame-clip" id="frame-clip-24b0466e-7c13-801d-8004-20e97782b654-rumext-id-4"><rect rx="20" ry="20" x="0" y="0" width="512" height="512" transform="matrix(1.000000, 0.000000, 0.000000, 1.000000, 0.000000, 0.000000)"/></clipPath><g class="fills" id="fills-24b0466e-7c13-801d-8004-20e97782b654"><rect rx="20" ry="20" x="0" y="0" transform="matrix(1.000000, 0.000000, 0.000000, 1.000000, 0.000000, 0.000000)" width="512" height="512" class="frame-background"/></g><g class="frame-children"><g id="shape-24b0466e-7c13-801d-8004-20ea3a77e95b" width="512px" height="341px" version="1.1" xmlns:xlink="http://www.w3.org/1999/xlink" rx="0" ry="0" style="fill: rgb(0, 0, 0);"><g id="shape-24b0466e-7c13-801d-8004-20ea3a7aae9f"><g class="fills" id="fills-24b0466e-7c13-801d-8004-20ea3a7aae9f"><path fill-rule="nonzero" rx="0" ry="0" d="M477.396,85.500C496.417,85.500,511.872,100.868,512.000,119.910L512.000,391.858C512.061,401.010,508.478,409.811,502.042,416.312C495.606,422.813,486.849,426.480,477.706,426.500L393.947,426.500C393.947,426.500,390.970,420.144,387.768,413.541L387.251,412.478C387.079,412.124,386.906,411.770,386.734,411.417L386.389,410.713C384.554,406.970,382.774,403.431,381.561,401.235C378.178,394.763,370.052,394.868,369.583,394.879L142.050,394.880C142.050,394.880,133.767,393.795,129.664,401.235C128.331,403.459,126.652,406.645,124.958,410.009L124.607,410.707C124.490,410.940,124.373,411.174,124.257,411.409L123.907,412.112L123.559,412.817C120.145,419.738,117.046,426.500,117.046,426.500L34.603,426.500C15.583,426.500,0.128,411.132,0.000,392.090L0.000,120.142C0.000,101.100,15.351,85.628,34.371,85.500L477.396,85.500ZZM374.798,158.500L374.128,158.502L140.022,158.502C99.693,158.502,67.000,191.184,67.000,231.501C67.000,271.817,99.693,304.500,140.022,304.500L374.128,304.500C414.283,304.500,446.996,271.798,446.996,231.656C447.204,212.245,439.604,193.564,425.902,179.808C412.201,166.053,393.546,158.376,374.128,158.502ZM355.679,203.835C369.079,203.809,381.367,211.279,387.509,223.184C393.652,235.089,392.616,249.429,384.826,260.328C384.826,260.328,384.749,260.289,384.602,260.214L384.374,260.101C381.779,258.813,368.474,252.502,356.919,252.502C339.710,252.502,327.462,261.646,327.462,261.646C318.988,250.876,317.423,236.209,323.434,223.894C329.445,211.579,341.972,203.786,355.679,203.835ZZM157.697,203.835L157.619,203.913C171.297,203.887,183.790,211.669,189.795,223.955C195.800,236.240,194.262,250.875,185.836,261.646C185.836,261.646,173.665,252.502,156.379,252.502C143.773,252.502,129.085,260.087,128.491,260.396L128.472,260.406C120.629,249.494,119.574,235.106,125.741,223.167C131.909,211.228,144.256,203.759,157.697,203.835ZZ" style="fill: rgb(0, 0, 0);"/></g></g></g></g></g></g></svg>