<?xml version="1.0" encoding="UTF-8"?>
<svg width="512px" height="512px" viewBox="0 0 512 512" version="1.1" xmlns="http://www.w3.org/2000/svg" xmlns:xlink="http://www.w3.org/1999/xlink">
    <title>Chatter Net</title>
    <g id="Chatter-Net" stroke="none" stroke-width="1" fill="none" fill-rule="evenodd">
        <path d="M512.201433,256 L512.201433,307.2 C512.201433,358.4 461.001433,409.6 409.801433,409.6 L333.001433,512 L333.001433,409.6 L102.601433,409.6 C51.4014328,409.6 0.201432754,358.4 0.201432754,307.2 L0.201432754,256 C0.201432754,256 51.4014328,307.2 256.201433,307.2 C461.001433,307.2 512.201433,256 512.201433,256 Z M205.001433,0 L205.001433,102.4 L409.801433,102.4 C461.001433,102.4 512.201433,153.6 512.201433,204.8 C512.201433,204.8 461.001433,256 256.201433,256 C51.4014328,256 -3.82109525,204.96896 0.201432754,204.8 C0.201432754,153.6 51.4014328,102.400003 102.601433,102.4 L205.001433,0 Z" id="Path-2" fill="#000000" fill-rule="nonzero"></path>
    </g>
</svg>