<?xml version="1.0" encoding="UTF-8"?>
<svg width="512px" height="371px" viewBox="0 0 512 371" version="1.1" xmlns="http://www.w3.org/2000/svg" xmlns:xlink="http://www.w3.org/1999/xlink">
    <title>Chirp</title>
    <g id="All-Fediverse-Symbols" stroke="none" stroke-width="1" fill="none" fill-rule="evenodd">
        <g id="Chirp" transform="translate(0.000000, -71.000000)" fill="#000000" fill-rule="nonzero">
            <path d="M447.572123,331.592085 C447.513771,331.790923 447.386124,332.275365 447.349653,332.716424 C447.207418,334.542118 447.484594,337.495766 448.053535,341.255611 C451.569296,364.472657 466.336222,417.497324 469.253866,428.516564 C469.625865,429.922891 469.79363,430.739934 469.79363,430.84116 C469.79363,431.293065 469.596689,431.611206 469.264807,431.83535 C469.097042,431.943807 468.82716,432.081186 468.415043,432.023343 C468.32022,432.008882 468.123279,431.961884 467.857044,431.831735 C467.437632,431.625667 466.489398,431.058075 465.092576,430.179572 C448.513064,419.738771 365.936443,363.735149 354.801984,355.958776 C353.886573,356.16123 350.600577,356.902353 346.417404,357.994154 C305.891329,368.57595 139.14943,415.794548 66.633576,434.257559 C48.3497949,438.910367 35.999043,441.726636 33.0679049,441.726636 C28.2107569,441.726636 23.9203614,442.08816 20.1908829,441.979703 C16.2101223,441.864015 12.8387846,441.206042 10.0484228,439.199586 C6.39917949,436.57854 3.67774701,431.589514 2.07705454,422.070598 C-1.73776504,399.377761 0.798761747,147.584163 1.16383196,103.075907 C1.28017301,88.8893595 5.00053387,81.0294748 10.6436222,76.6178023 C16.2681105,72.2209522 23.9043143,71.2347158 32.1379058,71.0047868 C48.0675129,70.5601128 370.921967,101.243706 375.411492,101.68838 C378.190548,101.964222 384.820894,103.87849 390.273241,107.166185 C394.047943,109.441615 397.23547,112.389117 398.391586,115.825037 C401.075819,123.817601 498.452188,270.859735 508.390413,286.980073 C511.479469,291.99079 512.292762,296.217001 511.913469,299.712934 C511.340881,305.009255 508.000179,308.68595 505.264887,310.945472 C502.730184,313.042309 497.551366,315.511515 491.194549,317.995183 C476.792328,323.616875 456.263056,329.426559 447.572123,331.592085 Z M17.3257564,116.011583 C16.9898627,153.336726 18.4373788,372.852774 21.9462105,391.879762 C25.4550421,410.906749 34.5365739,407.55181 49.3975939,407.55181 C64.2582491,407.55181 359.732802,329.292795 361.286448,330.286985 C371.020438,336.519652 446.674948,402.624243 446.674948,401.695128 C446.674948,400.762397 417.699095,319.343666 423.476031,318.038565 C434.690725,315.504285 475.694565,303.758383 483.291381,298.031849 C487.197377,295.089047 492.627842,289.109447 485.931848,279.207315 C476.774093,265.661026 393.475356,137.329184 390.999005,130.613522 C388.522655,123.897859 373.551494,115.362287 369.423028,114.989195 C365.294561,114.616102 61.9613338,89.708572 47.3067372,90.0816644 C32.6525053,90.4547567 17.5321797,93.0664032 17.3257564,116.011583 Z"></path>
        </g>
    </g>
</svg>