<?xml version="1.0" encoding="UTF-8"?>
<svg width="512px" height="512px" viewBox="0 0 512 512" version="1.1" xmlns="http://www.w3.org/2000/svg" xmlns:xlink="http://www.w3.org/1999/xlink">
    <title>COmmunecter</title>
    <g id="COmmunecter" stroke="none" stroke-width="1" fill="none" fill-rule="evenodd">
        <g id="Group" transform="translate(59.000000, 31.000000)" fill="#000000">
            <path d="M43.3329928,0 C63.5026372,0 80.4537578,13.8332477 85.2851902,32.5642732 L316,32.5642458 L316,54.5977654 L85.2431813,54.597303 C80.3561759,73.2462493 63.4445982,87 43.3329928,87 C19.4008417,87 0,67.5243866 0,43.5 C0,19.4756134 19.4008417,0 43.3329928,0 Z" id="Oval-Copy-34"></path>
            <circle id="Oval-Copy-33" cx="340.5" cy="43.5" r="43.5"></circle>
        </g>
        <path d="M154.359526,175.348762 C203.137744,175.348762 242.680301,214.89132 242.680301,263.669537 L242.680301,283.990125 L179.063509,283.990125 L179.063509,259.794403 C179.063509,248.469295 169.882696,239.288482 158.557589,239.288482 L81.3778256,239.288482 C70.0527185,239.288482 60.8719053,248.469295 60.8719053,259.794403 L60.8719053,397.684607 C60.8719053,409.009714 70.0527185,418.190527 81.3778256,418.190527 L158.557589,418.190527 C169.882696,418.190527 179.063509,409.009714 179.063509,397.684607 L179.063509,373.168204 L242.680301,373.168204 L242.680301,392.679225 C242.680301,441.457442 203.137744,481 154.359526,481 L88.320775,481 C39.5425579,481 8.24229573e-13,441.457442 8.24229573e-13,392.679225 L8.24229573e-13,263.669537 C8.24229573e-13,214.89132 39.5425579,175.348762 88.320775,175.348762 L154.359526,175.348762 Z" id="Path" fill="#000000"></path>
        <path d="M424.16577,175.348762 C472.943987,175.348762 512.486545,214.89132 512.486545,263.669537 L512.486545,373.079164 L448.869752,373.079164 L448.869752,259.794403 C448.869752,248.469295 439.688939,239.288482 428.363832,239.288482 L351.184069,239.288482 C339.858962,239.288482 330.678149,248.469295 330.678149,259.794403 L330.678149,397.684607 C330.678149,409.009714 339.858962,418.190527 351.184069,418.190527 L428.363832,418.190527 C439.688939,418.190527 448.869752,409.009714 448.869752,397.684607 L448.869752,373.079164 L512.486545,373.079164 L512.486545,392.679225 C512.486545,441.457442 472.943987,481 424.16577,481 L358.127018,481 C309.348801,481 269.806243,441.457442 269.806243,392.679225 L269.806243,263.669537 C269.806243,214.89132 309.348801,175.348762 358.127018,175.348762" id="Path-Copy-2" fill="#000000"></path>
    </g>
</svg>