<?xml version="1.0" encoding="UTF-8"?>
<svg width="512px" height="512px" viewBox="0 0 512 512" version="1.1" xmlns="http://www.w3.org/2000/svg" xmlns:xlink="http://www.w3.org/1999/xlink">
    <title>Discourse</title>
    <g id="All-Fediverse-Symbols" stroke="none" stroke-width="1" fill="none" fill-rule="evenodd">
        <g id="Discourse">
            <path d="M258.668773,0 C397.32238,0 510,117.038436 510,255.926019 C510,394.813602 397.420961,511.753396 258.619483,511.753396 L3,512 L3,251.536461 C3,112.599557 119.867295,0 258.668773,0 Z M242,82 C174,86 129.083546,119.58552 105,167 C73,230 90,290 115,326 L97,418 L199,407 C249,436 324,441 386,384 C443,331 443,257 416,200 C389,143 310,78 242,82 Z" id="Path-2" fill="#000000" fill-rule="nonzero"></path>
            <rect id="Rectangle" x="0" y="0" width="512" height="512"></rect>
        </g>
    </g>
</svg>