<?xml version="1.0" encoding="UTF-8"?>
<svg width="506px" height="566px" viewBox="0 0 506 566" version="1.1" xmlns="http://www.w3.org/2000/svg" xmlns:xlink="http://www.w3.org/1999/xlink">
    <title>Dolphin</title>
    <g id="All-Fediverse-Symbols" stroke="none" stroke-width="1" fill="none" fill-rule="evenodd">
        <g id="Dolphin" transform="translate(-3.000000, 0.000000)" fill="#000000">
            <g transform="translate(3.000000, 0.000000)">
                <path d="M124.49304,24.3832153 C125.711601,26.89623 127.902063,28.8031173 130.557697,29.6667146 C133.21333,30.528971 136.104901,30.272842 138.567495,28.9573311 C174.152447,10.4878803 214.555342,0 257.385978,0 C375.197706,0 474.629127,79.3517232 505.134727,187.491813 C505.948442,190.503676 504.640064,193.687185 501.945554,195.254802 C499.249704,196.82376 495.837999,196.389279 493.622067,194.194079 C454.885477,156.072425 401.760743,132.531351 343.181304,132.531351 C340.178467,132.531351 337.189036,132.593036 334.215692,132.716407 C332.188777,132.796867 330.400481,134.064102 329.651113,135.948192 C328.901744,137.833624 329.332061,139.98323 330.747684,141.434181 C338.450496,149.186443 343.206774,159.864743 343.206774,171.646679 C343.206774,195.329897 323.984599,214.558348 300.309111,214.558348 C276.633623,214.558348 257.411448,195.329897 257.411448,171.646679 C257.411448,167.182524 258.09513,162.876606 259.361951,158.826817 C259.959837,156.929317 259.386081,154.857488 257.895387,153.539295 C256.404694,152.221102 254.278578,151.904629 252.468833,152.732019 C179.361832,186.872275 128.692989,261.108123 128.692989,347.089699 C128.692989,402.349202 149.621686,452.758345 183.977352,490.808927 C186.079337,493.126157 186.366216,496.565796 184.67578,499.198158 C182.985343,501.830521 179.739867,502.999864 176.75982,502.051784 C74.1472698,468.160952 0,371.408547 0,257.470018 C0,194.227604 22.8430055,136.279417 60.7203013,91.4407451 C62.5447926,89.3058895 63.4268758,86.521995 63.162787,83.7246905 C62.8973577,80.927386 61.511227,78.3580498 59.318084,76.6026943 C49.309523,68.7820425 42.8976629,56.5897644 42.8976629,42.9116697 C42.8976629,19.228451 62.1198376,0 85.7953259,0 C102.839104,0 117.574451,9.96489429 124.49304,24.3832153 Z M407.527798,85.8233393 C419.366212,85.8233393 428.976629,95.4489633 428.976629,107.304653 C428.976629,119.160343 419.366212,128.785967 407.527798,128.785967 C395.689384,128.785967 386.078966,119.160343 386.078966,107.304653 C386.078966,95.4489633 395.689384,85.8233393 407.527798,85.8233393 Z" id="Shape"></path>
                <g id="moon" transform="translate(284.854124, 396.914917) rotate(-45.000000) translate(-284.854124, -396.914917) translate(175.442791, 268.193782)">
                    <path d="M218.510832,217.214234 C219.165164,218.833975 218.769615,220.688364 217.513243,221.900488 C194.399754,243.913143 163.128563,257.442271 128.721135,257.442271 C57.6777954,257.442271 0,199.764475 0,128.721135 C0,57.6777954 57.6777954,0 128.721135,0 C163.128563,0 194.399754,13.5291277 217.502516,35.5511686 C218.754865,36.7606109 219.147733,38.6082956 218.496082,40.2213323 C217.844432,41.8357099 216.278324,42.8922958 214.537907,42.8922958 C214.536567,42.9070451 214.536567,42.9070451 214.535226,42.9070451 C167.172552,42.9070451 128.721135,81.3584618 128.721135,128.721135 C128.721135,176.083809 167.172552,214.535226 214.535226,214.535226 C216.285029,214.533885 217.856499,215.594493 218.510832,217.214234 Z" id="Path"></path>
                </g>
            </g>
        </g>
    </g>
</svg>