<svg xmlns:xlink="http://www.w3.org/1999/xlink" width="512" xmlns="http://www.w3.org/2000/svg" height="512" id="screenshot-e896cdf2-4b36-80a4-8004-193950482926" viewBox="0 0 512 512" style="-webkit-print-color-adjust: exact;" fill="none" version="1.1"><g id="shape-e896cdf2-4b36-80a4-8004-193950482926"><defs><clipPath class="frame-clip-def frame-clip" id="frame-clip-e896cdf2-4b36-80a4-8004-193950482926-rumext-id-1"><rect rx="20" ry="20" x="0" y="0" width="512" height="512" transform="matrix(1.000000, 0.000000, 0.000000, 1.000000, 0.000000, 0.000000)"/></clipPath></defs><g clip-path="url(#frame-clip-e896cdf2-4b36-80a4-8004-193950482926-rumext-id-1)" fill="none"><clipPath class="frame-clip-def frame-clip" id="frame-clip-e896cdf2-4b36-80a4-8004-193950482926-rumext-id-1"><rect rx="20" ry="20" x="0" y="0" width="512" height="512" transform="matrix(1.000000, 0.000000, 0.000000, 1.000000, 0.000000, 0.000000)"/></clipPath><g class="fills" id="fills-e896cdf2-4b36-80a4-8004-193950482926"><rect rx="20" ry="20" x="0" y="0" transform="matrix(1.000000, 0.000000, 0.000000, 1.000000, 0.000000, 0.000000)" width="512" height="512" class="frame-background"/></g><g class="frame-children"><g id="shape-e896cdf2-4b36-80a4-8004-1939476c19b9"><g class="fills" id="fills-e896cdf2-4b36-80a4-8004-1939476c19b9"><path fill-rule="nonzero" rx="0" ry="0" d="M255.924,0.000C265.750,37.170,297.816,70.291,332.246,104.740L335.480,107.974C335.840,108.333,336.200,108.693,336.560,109.053C390.609,163.052,451.863,224.257,451.863,316.038C451.752,424.210,364.096,511.876,255.924,512.000C147.757,511.871,60.108,424.205,60.000,316.038C60.000,227.006,117.641,166.752,170.415,113.933L173.672,110.675C174.214,110.134,174.755,109.593,175.295,109.053L178.533,105.817C213.361,70.980,246.003,37.557,255.924,0.000ZZM255.924,293.874C255.924,293.874,242.997,307.932,229.767,322.639L228.398,324.162L227.030,325.687C218.374,335.339,209.962,344.874,205.343,350.521C194.735,362.950,188.795,378.690,188.547,395.028C188.530,419.114,201.369,441.377,222.225,453.425C243.081,465.473,268.782,465.473,289.638,453.425C310.493,441.377,323.333,419.114,323.316,395.028C323.462,378.555,317.431,362.625,306.412,350.379C301.228,344.596,291.808,334.057,282.496,323.634L281.135,322.110C268.219,307.650,255.924,293.874,255.924,293.874ZZM255.924,112.725L255.924,112.725ZC255.881,112.767,255.868,112.781,255.852,112.796L255.642,113.006C255.458,113.190,255.186,113.462,254.837,113.811L254.037,114.611C253.962,114.685,253.886,114.762,253.807,114.841L251.885,116.762C251.781,116.866,251.676,116.971,251.569,117.078L250.566,118.080C250.102,118.543,249.616,119.030,249.109,119.537L247.935,120.710C247.399,121.245,246.846,121.799,246.277,122.368L243.164,125.479C243.011,125.633,242.857,125.787,242.702,125.941L240.820,127.823C240.344,128.299,239.864,128.778,239.382,129.261L235.003,133.638C234.679,133.963,234.355,134.287,234.031,134.610L232.105,136.537C231.627,137.015,231.152,137.489,230.683,137.959L229.750,138.892C229.596,139.046,229.442,139.200,229.289,139.353L228.379,140.263C228.079,140.564,227.781,140.861,227.487,141.155L226.187,142.456C226.046,142.598,225.905,142.738,225.765,142.878L224.140,144.504C223.748,144.897,223.366,145.279,222.996,145.649L222.272,146.374C221.801,146.845,221.352,147.295,220.928,147.719L220.313,148.335C220.114,148.534,219.922,148.726,219.738,148.911C212.379,156.281,196.511,170.350,214.980,190.307C235.974,212.993,348.223,330.302,361.083,349.339C366.938,358.009,367.789,362.069,375.716,361.781C380.158,361.616,383.458,356.314,384.908,353.137C391.714,338.263,403.246,293.180,369.769,241.076C336.291,188.976,255.924,112.725,255.924,112.725ZZM169.180,203.493C86.925,284.862,131.267,361.286,143.276,361.693C144.527,361.735,146.598,361.884,148.018,357.925C154.900,338.727,210.262,283.213,223.244,269.892C224.282,269.062,224.916,267.829,224.986,266.503C225.056,265.176,224.557,263.883,223.613,262.948L169.180,203.493ZZ" style="fill: rgb(0, 0, 0);"/></g></g></g></g></g></svg>