<svg xmlns:xlink="http://www.w3.org/1999/xlink" width="512" xmlns="http://www.w3.org/2000/svg" height="512" id="screenshot-58e2ee3b-6ed5-8049-8004-2216378d136f" viewBox="0 0 512 512" style="-webkit-print-color-adjust: exact;" fill="none" version="1.1"><g id="shape-58e2ee3b-6ed5-8049-8004-2216378d136f"><defs><clipPath class="frame-clip-def frame-clip" id="frame-clip-58e2ee3b-6ed5-8049-8004-2216378d136f-rumext-id-1"><rect rx="20" ry="20" x="0" y="0" width="512" height="512" transform="matrix(1.000000, 0.000000, 0.000000, 1.000000, 0.000000, 0.000000)"/></clipPath></defs><g clip-path="url(#frame-clip-58e2ee3b-6ed5-8049-8004-2216378d136f-rumext-id-1)" fill="none"><clipPath class="frame-clip-def frame-clip" id="frame-clip-58e2ee3b-6ed5-8049-8004-2216378d136f-rumext-id-1"><rect rx="20" ry="20" x="0" y="0" width="512" height="512" transform="matrix(1.000000, 0.000000, 0.000000, 1.000000, 0.000000, 0.000000)"/></clipPath><g class="fills" id="fills-58e2ee3b-6ed5-8049-8004-2216378d136f"><rect rx="20" ry="20" x="0" y="0" transform="matrix(1.000000, 0.000000, 0.000000, 1.000000, 0.000000, 0.000000)" width="512" height="512" class="frame-background"/></g><g class="frame-children"><g id="shape-58e2ee3b-6ed5-8049-8004-23fc0af03a3f" rx="0" ry="0" style="fill: rgb(0, 0, 0);"><g id="shape-58e2ee3b-6ed5-8049-8004-23fc0af579d2"><g class="fills" id="fills-58e2ee3b-6ed5-8049-8004-23fc0af579d2"><path rx="0" ry="0" d="M26.030,1.348C25.798,3.795,25.891,10.843,26.185,13.322C26.712,17.690,27.811,22.260,29.237,26.148C30.290,28.967,32.923,34.280,34.565,36.851C44.742,52.729,62.618,65.632,91.740,78.102C109.538,85.723,143.632,98.022,181.041,110.337C195.416,115.062,197.012,115.588,219.147,122.760C230.347,126.401,244.505,131.017,250.593,133.015C256.680,135.029,261.900,136.733,262.179,136.826C262.489,136.934,262.675,137.089,262.675,137.259C262.675,137.414,262.505,138.607,262.288,139.908C261.792,143.006,261.358,146.414,261.018,149.946C260.692,153.478,260.646,163.825,260.940,166.753C261.839,175.474,263.372,182.026,266.114,188.811C271.845,203.047,283.076,216.353,297.141,225.616C310.323,234.306,326.263,239.975,347.407,243.507C352.317,244.328,360.403,245.459,360.481,245.350C360.496,245.319,360.682,245.041,360.899,244.746C361.116,244.452,361.333,244.127,361.395,244.034C361.456,243.925,361.100,243.337,360.605,242.717C360.109,242.082,358.606,240.037,357.243,238.163C351.558,230.278,349.080,227.397,346.013,225.120C343.612,223.339,340.885,222.502,333.311,221.201C327.997,220.303,326.263,219.900,323.397,218.878C313.824,215.516,305.599,210.838,298.519,204.735C296.149,202.690,292.153,198.554,290.325,196.262C282.363,186.286,278.181,174.823,278.165,162.942C278.165,155.275,279.544,149.373,283.819,138.638C286.205,132.643,286.422,131.915,286.437,129.576C286.453,127.500,286.267,126.741,285.337,125.022C283.804,122.172,280.210,118.656,275.826,115.697C270.498,112.103,264.286,109.237,251.119,104.265C247.959,103.072,243.498,101.337,241.205,100.408C238.913,99.479,229.867,95.838,221.084,92.322C191.699,80.549,181.243,76.026,160.439,66.066C154.011,62.983,138.226,55.145,128.065,49.972C122.736,47.261,114.464,43.047,109.662,40.631L100.941,36.216L100.554,36.573C100.352,36.758,100.182,36.975,100.182,37.053C100.182,37.239,102.227,39.531,104.364,41.731C109.662,47.183,115.688,52.125,122.705,56.756C131.844,62.813,140.643,67.460,159.510,76.212C176.425,84.050,218.109,103.816,234.947,111.964C250.422,119.446,249.384,118.919,249.276,119.306C249.214,119.507,249.121,119.709,249.059,119.755C248.935,119.895,243.142,118.640,238.572,117.494C216.421,111.964,192.396,102.453,163.460,87.768C145.925,78.861,126.779,68.452,114.665,61.218C91.678,47.493,70.007,32.530,30.197,2.912C28.044,1.317,26.262,0.000,26.231,0.000C26.200,0.000,26.108,0.604,26.030,1.348ZZ" style="fill: rgb(0, 0, 0);"/></g></g><g id="shape-58e2ee3b-6ed5-8049-8004-23fc0af6861b"><g class="fills" id="fills-58e2ee3b-6ed5-8049-8004-23fc0af6861b"><path rx="0" ry="0" d="M14.986,64.780C14.986,65.462,15.481,70.372,15.683,71.720C18.750,92.570,30.739,110.213,51.140,123.891C64.725,133.000,80.664,139.536,101.654,144.602C116.819,148.273,130.342,150.596,153.298,153.509C158.627,154.190,167.115,155.305,172.134,155.987C195.974,159.240,207.080,160.340,218.807,160.588L223.485,160.681L223.454,155.445L223.407,150.194L222.245,149.992C179.833,142.387,149.952,134.580,121.574,123.674C119.839,123.008,118.476,122.451,118.569,122.420C118.693,122.373,223.670,141.333,224.275,141.519C224.476,141.566,224.646,140.884,225.328,137.166C225.777,134.734,226.118,132.705,226.071,132.659C226.025,132.612,222.509,131.543,218.264,130.273C149.751,109.888,102.784,92.632,58.993,71.735C56.825,70.713,55.028,69.861,55.012,69.861C54.842,69.861,55.322,70.914,59.675,80.085C62.277,85.553,64.384,90.060,64.369,90.076C64.338,90.107,53.277,84.376,39.770,77.358C26.262,70.357,15.171,64.610,15.109,64.610C15.032,64.594,14.986,64.687,14.986,64.780ZZ" style="fill: rgb(0, 0, 0);"/></g></g><g id="shape-58e2ee3b-6ed5-8049-8004-23fc0b00780d"><g class="fills" id="fills-58e2ee3b-6ed5-8049-8004-23fc0b00780d"><path rx="0" ry="0" d="M325.875,73.858C325.875,74.353,326.634,76.352,327.362,77.761C330.538,83.864,338.934,91.253,350.629,98.208C351.837,98.921,352.828,99.571,352.828,99.618C352.828,99.680,350.660,101.105,348.026,102.778C339.135,108.416,335.712,110.972,331.839,114.860C327.750,118.934,325.364,122.435,323.381,127.237C323.134,127.826,322.932,128.383,322.932,128.492C322.932,128.616,324.899,128.290,329.283,127.408C335.077,126.246,335.619,126.168,335.355,126.463C334.720,127.160,330.213,132.612,329.035,134.068C322.344,142.402,319.338,149.032,318.951,156.328C318.905,157.335,318.905,158.156,318.967,158.156C319.060,158.156,329.686,153.571,329.918,153.416C329.980,153.385,329.454,154.810,328.741,156.576C326.479,162.261,325.147,166.737,324.543,170.625C324.171,173.119,324.202,177.209,324.605,179.548C325.054,182.073,326.371,186.038,326.758,186.038C326.836,186.038,328.555,184.148,330.584,181.856C332.614,179.548,334.287,177.673,334.302,177.673C334.318,177.673,334.318,180.415,334.318,183.746C334.318,190.236,334.410,191.584,335.108,194.930C336.533,201.714,339.925,206.950,345.625,211.194C349.111,213.797,351.744,215.253,359.427,218.847C367.467,222.611,369.976,224.051,374.964,227.784C376.947,229.272,383.886,234.926,384.862,235.839C384.971,235.948,384.568,236.536,384.382,236.536C384.274,236.536,378.960,234.895,372.579,232.896C366.197,230.883,360.899,229.272,360.806,229.287C360.697,229.318,365.902,235.638,372.377,243.337C378.852,251.035,384.119,257.340,384.088,257.371C384.057,257.402,381.842,257.495,379.162,257.588C345.331,258.781,316.721,252.414,293.656,238.581C278.831,229.690,267.570,218.738,259.546,205.401C252.637,193.923,248.672,181.871,247.231,168.069C246.859,164.507,246.859,155.553,247.231,151.960C247.727,147.220,248.470,142.820,249.493,138.561C249.741,137.538,249.896,136.655,249.849,136.609C249.648,136.423,237.364,134.146,237.255,134.254C237.193,134.332,236.868,135.261,236.512,136.345C231.849,150.813,231.230,166.846,234.731,182.475C237.906,196.603,244.412,210.250,253.675,222.208C258.942,229.024,265.603,235.700,272.589,241.199C290.759,255.497,313.282,264.388,344.293,269.515C346.818,269.934,350.025,270.429,351.434,270.631C352.844,270.816,354.021,271.002,354.037,271.018C354.207,271.142,342.156,285.315,338.252,289.591C323.862,305.391,310.308,314.840,294.600,320.029C289.272,321.779,285.120,322.693,280.690,323.050C279.095,323.174,276.973,323.359,275.997,323.452C270.002,324.010,267.074,325.342,259.654,330.888C258.121,332.034,252.823,335.860,247.882,339.392C228.318,353.333,220.665,359.219,211.325,367.507C207.638,370.791,200.544,377.870,197.662,381.154C184.542,396.164,176.688,411.453,173.234,428.771C172.181,434.053,171.592,439.010,170.818,449.063C169.625,464.584,169.253,468.256,168.572,470.873C166.806,477.565,162.391,481.298,151.346,485.434C143.137,488.517,135.082,490.050,126.206,490.221C118.956,490.360,113.240,489.679,106.998,487.928C98.339,485.481,91.105,481.345,85.141,475.397C78.434,468.720,74.065,460.386,72.470,451.232C70.750,441.411,72.501,431.606,77.845,421.181C80.602,415.790,82.941,412.212,92.359,398.875C97.285,391.904,100.771,385.832,103.048,380.240C109.368,364.672,107.617,352.078,97.858,342.893C92.158,337.533,86.101,336.170,80.509,339.005C77.024,340.771,73.244,344.674,70.332,349.538C66.847,355.347,63.950,363.278,62.850,370.078C62.541,372.030,62.215,375.810,62.339,375.949C62.386,375.995,62.974,375.391,63.671,374.632C67.343,370.543,69.186,369.350,71.680,369.474C73.151,369.536,74.546,370.187,75.707,371.364C76.699,372.355,77.009,372.897,77.504,374.338C78.449,377.173,78.031,381.293,76.342,385.506C74.546,390.014,72.625,393.407,67.188,401.740C63.532,407.348,61.859,410.136,60.279,413.203C57.088,419.415,54.873,426.091,53.727,432.984C52.968,437.430,52.859,438.979,52.859,444.493C52.859,449.977,53.030,451.944,53.804,456.189C58.374,481.050,76.575,500.165,102.691,507.523C106.889,508.716,112.171,509.707,116.834,510.188C120.505,510.575,128.746,510.575,132.557,510.203C146.374,508.809,158.456,505.293,181.274,495.999C183.830,494.945,186.029,494.062,186.169,494.031C186.432,493.954,187.857,495.766,191.203,500.413C195.773,506.764,199.134,509.893,202.573,511.009C205.129,511.830,209.357,512.000,216.049,511.551C219.256,511.334,223.763,511.318,254.543,511.380C280.380,511.427,292.664,511.520,302.020,511.721C317.418,512.047,342.496,512.093,350.427,511.830C357.321,511.582,364.291,511.226,364.415,511.117C364.586,510.931,360.945,502.799,359.489,500.135C357.429,496.417,355.431,493.660,353.123,491.413C351.512,489.849,350.784,489.322,349.188,488.532C345.780,486.828,342.388,486.395,334.689,486.673C332.025,486.782,329.825,486.890,329.794,486.921C329.748,486.952,330.352,488.780,331.127,490.964C331.901,493.148,332.536,495.007,332.536,495.085C332.536,495.441,332.071,495.162,331.684,494.558C330.832,493.272,329.454,491.553,328.276,490.298C324.714,486.519,320.996,484.644,315.466,483.823C311.764,483.281,303.414,483.374,296.599,484.009C293.005,484.350,286.716,484.458,284.702,484.226C280.009,483.684,275.454,481.717,272.062,478.773L271.458,478.247L272.945,477.131C279.621,472.113,286.778,464.817,292.354,457.350C301.494,445.082,307.055,432.349,308.759,419.786C309.099,417.293,309.239,411.375,309.006,408.804C308.216,399.990,305.118,392.059,300.595,387.319C297.451,384.035,294.136,382.207,289.473,381.185C288.017,380.875,287.444,380.828,283.897,380.828C279.513,380.844,278.057,381.014,273.782,382.099C263.124,384.763,248.796,392.307,236.698,401.601C235.939,402.190,235.412,402.499,235.412,402.360C235.412,401.539,236.729,397.000,237.596,394.816C243.668,379.589,258.214,368.994,276.616,366.407C279.017,366.082,285.926,365.942,288.513,366.175C302.500,367.460,311.748,372.990,316.844,383.152C320.547,390.494,322.173,399.943,322.359,415.062L322.390,417.695L324.404,415.062C330.832,406.635,335.619,401.229,340.219,397.186C342.543,395.141,343.705,394.320,347.779,391.749C351.822,389.209,352.565,388.713,353.959,387.551C356.329,385.584,357.940,383.198,358.498,380.828C358.715,379.837,358.730,378.784,358.560,369.288C358.467,363.541,358.374,347.462,358.358,333.583L358.327,308.318L360.589,312.052C361.828,314.096,364.415,318.279,366.320,321.346C372.764,331.647,375.491,336.356,378.403,342.180C383.499,352.388,386.241,361.218,387.124,370.171C387.372,372.727,387.558,375.732,387.465,375.624C387.434,375.593,383.065,370.156,377.768,363.557C367.033,350.189,367.885,351.242,367.777,351.335C367.637,351.490,366.940,355.115,366.630,357.376C364.926,369.675,366.894,378.954,372.253,383.973C373.338,384.980,374.313,385.692,375.491,386.343L376.234,386.746L374.236,388.310C371.107,390.758,370.178,391.997,369.821,394.212C369.434,396.783,370.828,399.432,374.995,403.971C375.971,405.009,377.164,406.325,377.659,406.868L378.573,407.859L378.016,408.525C375.506,411.577,375.677,417.060,378.542,425.673C379.983,429.995,381.532,433.790,385.172,441.783C387.511,446.956,387.852,447.777,389.354,451.944C392.933,461.843,393.227,463.268,393.413,471.601C393.568,478.371,393.723,479.873,394.590,482.801C394.807,483.513,395.225,484.629,395.520,485.279C396.124,486.627,397.595,489.028,397.797,489.028C397.874,489.028,398.509,488.548,399.191,487.944C399.872,487.355,400.476,486.859,400.523,486.859C400.647,486.859,403.048,490.407,406.735,495.999C413.612,506.439,416.989,509.831,421.760,511.024C425.013,511.845,429.924,512.016,437.560,511.551C441.913,511.288,441.340,511.288,465.830,511.659C474.133,511.783,478.981,511.783,484.108,511.659C490.351,511.504,496.888,511.226,497.012,511.102C497.043,511.086,496.795,510.621,496.454,510.079C495.850,509.072,495.153,507.802,492.241,502.427C486.928,492.653,483.427,488.687,478.733,487.076C476.317,486.255,475.449,486.162,470.554,486.162C468.045,486.162,464.715,486.255,463.166,486.364C461.121,486.488,459.897,486.503,458.782,486.379C451.687,485.651,446.266,481.484,442.595,473.925C440.658,469.944,439.450,465.762,438.706,460.448C438.366,458.001,438.226,446.755,438.474,441.163C439.342,421.971,442.982,395.482,447.629,374.477C448.791,369.195,449.348,367.228,450.742,363.309C453.407,355.796,454.228,353.147,454.754,350.421C455.080,348.733,455.343,345.433,455.157,345.433C455.095,345.433,454.661,345.635,454.166,345.882C453.686,346.115,451.610,346.998,449.565,347.834C441.681,351.025,439.373,352.078,436.491,353.782C432.355,356.230,429.614,358.941,428.127,362.054C426.733,364.935,424.455,373.966,423.170,381.634C421.992,388.620,421.342,394.987,420.908,403.522C419.839,424.960,419.437,443.192,419.715,456.684C419.824,461.393,419.979,466.706,420.056,468.503C420.211,471.772,420.769,480.462,420.924,482.057L421.001,482.909L420.521,482.367C417.500,479.037,414.836,473.631,413.488,468.101C412.249,463.004,411.846,458.605,411.459,445.965C410.917,428.213,411.351,412.971,412.791,399.045C414.929,378.242,420.025,359.111,428.266,340.864C430.744,335.380,436.646,324.149,436.755,324.707C436.786,324.831,436.305,329.741,435.701,335.597C435.097,341.452,434.648,346.285,434.679,346.316C434.803,346.440,440.286,343.683,442.889,342.180C452.260,336.805,459.603,330.485,465.288,322.895C469.269,317.582,471.995,312.516,474.427,305.871L475.171,303.873L475.914,305.065C478.052,308.411,478.470,309.031,478.594,308.954C478.671,308.907,478.981,308.427,479.291,307.885C483.195,300.914,483.644,288.692,480.623,271.250C480.360,269.763,480.174,268.524,480.220,268.493C480.251,268.462,481.274,269.624,482.482,271.080C483.706,272.520,484.759,273.713,484.837,273.713C484.914,273.713,485.177,273.605,485.425,273.481L485.890,273.233L485.890,270.615C485.890,266.231,485.301,262.793,483.721,258.068C482.017,252.925,479.678,248.170,473.033,236.273L472.584,235.483L474.241,236.165C480.453,238.767,479.942,238.597,480.422,238.302C480.654,238.147,480.887,238.008,480.917,237.977C481.041,237.884,478.842,234.228,476.983,231.425C472.568,224.748,468.386,219.776,461.555,213.069C454.259,205.897,447.551,200.444,435.934,192.234C425.044,184.536,420.660,181.035,415.874,176.248C406.719,167.078,402.846,157.954,405.062,150.736C406.502,146.027,410.700,142.108,416.958,139.629C426.330,135.927,435.732,137.089,440.070,142.480C441.417,144.152,442.595,146.817,442.904,148.893C442.966,149.311,443.075,149.636,443.137,149.636C443.416,149.636,445.429,147.266,446.483,145.686C450.634,139.428,452.477,131.110,451.192,124.387C450.619,121.335,449.426,118.686,447.675,116.502C445.553,113.854,443.431,112.769,438.722,111.917C433.130,110.910,431.813,110.043,425.834,103.398C421.512,98.611,419.684,97.279,413.891,94.708C406.936,91.609,400.415,89.813,384.893,86.668C380.850,85.847,373.570,84.283,368.706,83.183C359.055,80.999,346.772,78.272,334.472,75.593C330.135,74.648,326.417,73.842,326.232,73.780C326.030,73.734,325.875,73.765,325.875,73.858ZZM403.358,105.194C405.433,105.411,407.648,105.984,408.655,106.542C409.089,106.790,409.678,107.286,409.957,107.642C410.375,108.200,410.452,108.432,410.452,109.129C410.452,111.205,409.213,112.816,407.199,113.327C406.332,113.544,406.007,113.559,404.876,113.404C402.986,113.141,400.507,112.258,397.750,110.895C395.504,109.764,390.795,107.069,390.346,106.666C390.191,106.511,390.206,106.356,390.423,105.830L390.702,105.194L392.174,105.132C395.907,105.009,401.917,105.040,403.358,105.194ZZM373.136,129.901C372.021,134.301,371.835,139.583,372.656,143.626C373.833,149.388,376.668,154.283,381.671,159.163C383.793,161.238,385.172,162.416,387.372,163.980C388.069,164.476,388.564,164.909,388.487,164.940C388.394,164.971,387.774,164.848,387.093,164.662C379.255,162.663,371.649,156.777,368.102,149.961C364.400,142.805,365.376,136.098,370.906,130.722C372.191,129.483,373.307,128.538,373.384,128.631C373.415,128.662,373.307,129.235,373.136,129.901ZZM444.035,266.123C452.090,277.632,455.297,289.591,453.655,301.905C453.546,302.634,453.422,303.269,453.376,303.331C453.314,303.408,450.882,294.687,447.954,283.968C445.027,273.264,442.595,264.388,442.548,264.264C442.409,263.861,442.718,264.249,444.035,266.123ZZM294.678,416.874C295.747,424.945,293.237,433.077,287.243,441.086C283.587,445.934,278.909,450.550,269.258,458.822C264.332,463.051,263.264,464.011,256.944,469.897C254.093,472.546,250.918,475.489,249.896,476.403C238.185,486.983,229.588,492.575,220.696,495.441C218.559,496.138,215.678,496.804,214.020,497.005C213.215,497.098,213.137,497.083,212.905,496.711C212.765,496.494,212.641,496.262,212.641,496.184C212.641,496.045,229.603,480.601,238.123,472.965C244.149,467.574,250.778,461.781,255.549,457.738C267.942,447.235,270.792,444.695,275.997,439.475C283.742,431.714,289.008,424.929,293.144,417.385C293.810,416.177,294.384,415.201,294.415,415.232C294.446,415.263,294.554,415.991,294.678,416.874ZZ" style="fill: rgb(0, 0, 0);"/></g></g><g id="shape-58e2ee3b-6ed5-8049-8004-23fc0b01b2dc"><g class="fills" id="fills-58e2ee3b-6ed5-8049-8004-23fc0b01b2dc"><path rx="0" ry="0" d="M23.040,130.025C23.040,130.444,24.094,133.557,24.915,135.571C32.009,152.889,48.646,164.956,75.258,172.081C89.494,175.892,109.507,179.006,129.226,180.446C139.341,181.190,146.808,181.500,161.214,181.732C170.911,181.887,176.704,181.871,197.461,181.654C211.046,181.500,222.819,181.391,223.624,181.391L225.080,181.391L224.972,179.796C224.600,174.064,223.996,171.849,222.354,170.207C221.037,168.890,219.225,168.178,215.817,167.620C212.843,167.140,209.528,166.861,204.664,166.675C193.960,166.273,190.444,165.994,175.697,164.352C121.435,158.295,86.396,150.550,31.064,132.426C26.898,131.063,23.397,129.917,23.273,129.870C23.118,129.809,23.040,129.870,23.040,130.025ZZ" style="fill: rgb(0, 0, 0);"/></g></g><g id="shape-58e2ee3b-6ed5-8049-8004-23fc0b036866"><g class="fills" id="fills-58e2ee3b-6ed5-8049-8004-23fc0b036866"><path rx="0" ry="0" d="M47.918,179.563C48.646,180.988,50.691,184.195,52.116,186.116C65.050,203.573,87.341,213.828,119.235,217.003C127.801,217.871,134.849,218.165,146.266,218.165C159.556,218.150,167.038,217.824,192.582,216.167C208.087,215.160,219.085,214.525,221.006,214.556C221.688,214.556,221.657,214.571,220.077,215.175C217.583,216.105,210.395,218.459,207.375,219.327C189.189,224.532,169.284,227.490,144.871,228.636C135.701,229.070,131.194,229.132,108.438,229.210L84.088,229.287L84.335,229.674C84.769,230.325,89.106,234.290,91.507,236.211C104.984,247.023,122.798,253.622,144.174,255.729C162.283,257.510,183.520,256.132,206.120,251.701C215.786,249.812,223.252,247.968,228.829,246.140C234.978,244.111,237.240,243.585,239.316,243.693L240.354,243.739L238.464,245.087C226.505,253.576,212.208,259.602,194.069,263.799C184.186,266.076,175.016,267.595,153.933,270.383C143.338,271.792,137.994,272.551,137.870,272.691C137.746,272.815,137.591,272.737,140.100,273.915C160.764,283.642,179.105,286.276,201.179,282.682C209.048,281.396,218.481,279.135,228.674,276.083C233.553,274.627,237.519,273.357,248.966,269.608C258.322,266.541,265.928,264.109,266.145,264.109C266.331,264.109,263.651,266.293,261.575,267.858C253.133,274.193,243.188,279.445,230.486,284.309C224.058,286.771,218.869,288.506,205.067,292.844C193.000,296.623,192.349,296.840,192.349,296.964C192.349,297.119,195.246,298.110,197.538,298.730C202.077,299.969,206.043,300.511,211.325,300.620C217.211,300.744,221.688,300.325,228.054,299.040C238.293,296.980,249.137,293.122,265.061,285.873C271.365,283.007,272.961,282.233,276.368,280.374C279.885,278.453,282.053,277.462,284.021,276.858C285.167,276.517,285.663,276.455,287.305,276.439C289.396,276.439,290.031,276.594,291.580,277.508C292.184,277.865,292.246,277.957,292.076,278.159C291.967,278.298,290.728,279.336,289.318,280.451C281.728,286.539,273.425,291.713,262.520,297.150C256.463,300.186,249.911,303.160,238.743,307.947C236.109,309.093,233.879,310.069,233.817,310.131C233.646,310.270,235.846,310.781,238.293,311.200C245.016,312.315,252.219,311.943,259.360,310.115C263.666,309.015,269.568,306.754,274.138,304.461C279.916,301.565,287.397,297.042,296.211,291.093C299.929,288.599,301.478,287.469,305.661,284.169C311.826,279.321,315.900,278.128,319.958,279.987C320.392,280.188,320.764,280.389,320.764,280.451C320.764,280.668,316.814,284.897,314.397,287.267C307.907,293.618,302.562,297.862,287.227,308.814C277.391,315.847,278.181,315.274,278.165,315.428C278.165,315.568,278.645,315.521,282.038,314.979C295.034,312.919,307.179,307.172,318.486,297.754C324.636,292.627,331.343,285.641,337.865,277.555C338.546,276.703,338.717,276.827,336.254,276.424C320.918,273.899,305.661,269.020,292.107,262.312C285.879,259.230,282.038,257.030,276.446,253.328C264.131,245.180,253.443,235.266,245.248,224.377C239.842,217.174,234.235,207.213,232.469,201.621C230.114,194.202,229.216,192.064,227.837,190.515C226.923,189.477,225.793,188.919,223.918,188.563C222.199,188.238,216.297,188.377,212.564,188.826C209.481,189.198,204.432,189.322,182.745,189.616C167.472,189.818,145.321,189.725,139.218,189.462C122.875,188.718,108.330,187.308,87.635,184.474C82.415,183.761,78.310,183.173,56.205,179.920C51.837,179.284,48.088,178.758,47.887,178.758L47.515,178.758L47.918,179.563ZZ" style="fill: rgb(0, 0, 0);"/></g></g><g id="shape-58e2ee3b-6ed5-8049-8004-23fc0b044c22"><g class="fills" id="fills-58e2ee3b-6ed5-8049-8004-23fc0b044c22"><path rx="0" ry="0" d="M104.519,315.940C95.736,316.544,87.898,318.697,80.432,322.569C77.706,323.979,75.336,325.451,75.506,325.621C75.568,325.683,77.799,325.962,80.432,326.225C86.566,326.829,89.014,327.186,91.631,327.852C96.325,329.060,99.346,330.655,105.991,335.457C107.524,336.573,109.337,337.843,110.003,338.292L111.227,339.129L111.536,338.679C111.707,338.432,112.295,337.796,112.838,337.254C113.937,336.154,115.285,335.442,116.509,335.287C119.808,334.884,123.944,338.416,127.120,344.364C129.381,348.609,130.156,352.063,129.768,356.121C129.009,364.099,124.750,372.417,117.702,379.698L115.781,381.680L115.068,380.519C114.681,379.884,114.309,379.372,114.247,379.403C114.092,379.450,90.082,416.564,90.160,416.626C90.191,416.657,90.640,416.410,91.167,416.084C95.488,413.281,100.972,410.957,110.328,407.936C122.070,404.157,126.020,402.732,130.171,400.733C137.064,397.434,141.820,393.592,145.181,388.574C145.987,387.381,146.266,386.854,146.111,386.823C145.925,386.777,139.620,388.155,138.722,388.434C138.536,388.496,138.939,387.520,140.069,385.212C144.019,377.111,146.359,370.218,147.567,363.092C148.527,357.469,148.465,351.257,147.412,346.208C145.956,339.160,142.501,332.932,137.049,327.464C134.911,325.327,133.409,324.103,130.930,322.461C125.818,319.100,119.576,316.947,112.652,316.157C111.134,315.986,105.882,315.847,104.519,315.940ZZ" style="fill: rgb(0, 0, 0);"/></g></g></g></g></g></g></svg>