<svg xmlns:xlink="http://www.w3.org/1999/xlink" width="512" xmlns="http://www.w3.org/2000/svg" height="512" id="screenshot-e896cdf2-4b36-80a4-8004-193d378b2557" viewBox="0 0 512 512" style="-webkit-print-color-adjust: exact;" fill="none" version="1.1"><g id="shape-e896cdf2-4b36-80a4-8004-193d378b2557"><defs><clipPath class="frame-clip-def frame-clip" id="frame-clip-e896cdf2-4b36-80a4-8004-193d378b2557-rumext-id-1"><rect rx="20" ry="20" x="0" y="0" width="512" height="512" transform="matrix(1.000000, 0.000000, 0.000000, 1.000000, 0.000000, 0.000000)"/></clipPath></defs><g clip-path="url(#frame-clip-e896cdf2-4b36-80a4-8004-193d378b2557-rumext-id-1)" fill="none"><clipPath class="frame-clip-def frame-clip" id="frame-clip-e896cdf2-4b36-80a4-8004-193d378b2557-rumext-id-1"><rect rx="20" ry="20" x="0" y="0" width="512" height="512" transform="matrix(1.000000, 0.000000, 0.000000, 1.000000, 0.000000, 0.000000)"/></clipPath><g class="fills" id="fills-e896cdf2-4b36-80a4-8004-193d378b2557"><rect rx="20" ry="20" x="0" y="0" transform="matrix(1.000000, 0.000000, 0.000000, 1.000000, 0.000000, 0.000000)" width="512" height="512" class="frame-background"/></g><g class="frame-children"><g id="shape-e896cdf2-4b36-80a4-8004-193d59690829"><g class="fills" id="fills-e896cdf2-4b36-80a4-8004-193d59690829"><path fill-rule="nonzero" rx="0" ry="0" d="M439.319,117.000L439.319,125.076L436.620,124.782L435.832,124.638L432.789,124.235L431.211,124.131L428.082,124.355L425.039,125.218L421.552,126.691L421.226,129.384L420.656,131.732C420.192,133.169,419.654,134.556,418.971,135.904C418.281,137.267,417.446,138.540,416.584,139.799L414.815,142.301L413.961,143.591L412.475,146.351C411.630,148.253,411.138,150.245,410.740,152.280L410.406,154.679L410.246,157.379L408.001,158.434L407.474,158.980L406.292,159.956L403.106,163.658L400.623,166.368L395.393,171.592L390.299,176.737C388.669,178.367,387.049,179.994,385.271,181.467L379.639,185.789L374.051,190.566L371.353,192.614C370.044,193.541,368.653,194.354,367.299,195.212L363.132,197.908L360.114,199.980L356.940,202.256C354.895,203.686,352.831,205.150,350.486,206.057C348.945,206.653,347.298,207.048,345.640,207.094L344.025,207.109C341.871,207.015,339.724,206.751,337.565,206.755C335.402,206.759,333.255,207.014,331.104,207.197L327.874,207.386C324.647,207.511,321.412,207.433,318.183,207.454C316.568,207.465,314.949,207.482,313.338,207.593C310.626,207.778,307.956,208.235,305.268,208.609C303.209,208.896,301.114,209.034,299.076,209.458L296.256,210.208L293.496,211.147L292.066,211.558L289.047,212.085C287.465,212.271,285.854,212.272,284.263,212.286C281.036,212.315,277.796,212.217,274.574,212.438C270.782,212.698,267.060,213.504,263.268,213.764C260.582,213.948,257.883,213.904,255.192,213.909L247.117,213.902C244.959,213.877,242.806,213.843,240.656,213.634C238.493,213.425,236.349,213.052,234.202,212.725C232.632,212.485,231.046,212.284,229.496,211.938L226.580,211.153C224.734,210.542,222.924,209.830,221.000,209.482C218.445,209.019,215.823,209.082,213.238,209.064L205.123,209.063L204.067,206.892L202.523,205.475L200.043,204.200L194.090,202.149L189.902,200.542L188.511,200.114L187.084,199.793L185.602,199.588L184.086,199.489L181.035,199.588L178.126,200.107L176.735,200.519L173.975,201.455L172.547,201.860L169.550,202.307L166.499,202.153L165.017,201.854L163.590,201.431L158.009,199.330C156.498,198.856,154.976,198.511,153.421,198.218L150.271,197.695L147.252,197.045C145.361,196.548,143.570,195.732,141.672,195.263C139.740,194.786,137.697,194.543,135.712,194.796L132.715,195.501L131.287,196.179L129.899,197.085L128.533,198.176C127.181,199.331,125.881,200.550,124.481,201.648L122.195,203.162L119.521,204.218L120.457,199.372L120.690,197.942L120.842,197.184L121.136,194.527L118.595,194.754L116.494,195.287L113.950,196.287L111.169,197.477C109.670,198.036,108.169,198.487,106.575,198.679L103.367,198.759L101.754,198.622L98.524,198.212C96.910,198.028,95.303,197.878,93.678,197.827C91.531,197.759,89.355,197.798,87.218,198.031L83.987,198.443C82.374,198.677,80.766,198.943,79.142,199.098C77.530,199.252,75.920,199.303,74.303,199.356C72.233,199.424,70.156,199.420,68.110,199.791C65.693,200.229,63.464,201.264,61.101,201.891C59.084,202.426,57.016,202.711,54.972,203.121L51.961,203.950C50.126,204.567,48.418,205.490,46.636,206.235L45.210,206.709L44.535,206.988L41.994,207.448L40.312,209.694L39.711,210.218L38.583,211.397L36.405,213.408L34.208,215.585L33.215,216.620L31.971,217.812L31.409,218.399L29.073,220.369L29.385,223.061L29.309,225.385L29.027,226.686L27.735,229.245L26.717,230.322L25.513,231.249L22.814,232.784L21.433,233.470C20.068,234.126,18.708,234.761,17.305,235.334L15.878,235.833L14.398,236.271C12.869,236.701,11.306,237.052,9.832,237.658L6.962,239.093L5.604,239.940L4.418,240.749L3.042,241.548L2.404,241.999L0.000,242.981L0.227,245.522L0.768,247.623L1.853,250.167L3.440,252.942L4.377,254.392L6.368,257.282L7.449,258.882L8.028,259.664L9.691,262.363L17.805,262.361L22.548,262.276L25.568,261.938L28.385,261.153L33.803,258.874L36.089,258.113L38.763,257.517L37.009,259.959L35.017,261.670L32.248,263.190L29.324,264.209L24.227,265.593L23.932,268.290L23.782,269.072L23.540,270.658L23.074,273.449L22.882,275.035L22.770,275.817L22.612,278.514L25.025,278.005L25.842,277.774L29.073,276.899L29.073,283.360L32.560,283.360L35.604,283.352C38.209,283.287,40.835,283.310,43.335,282.457L46.148,281.131L47.501,280.286L48.852,279.386C51.040,277.983,53.213,276.503,55.606,275.460C56.969,274.866,58.388,274.326,59.865,274.094L62.755,273.756C64.456,273.674,66.131,273.688,67.836,273.669L69.591,271.456L71.585,269.952L74.391,268.612L75.942,268.126L79.142,267.512C81.715,267.142,84.349,267.303,86.905,266.791L89.512,266.065L91.482,265.180L93.678,263.978L94.205,266.223L95.172,267.927L96.808,269.946L97.773,271.036L99.706,273.415L100.593,274.686L102.046,277.367L102.925,280.275L103.154,281.807L103.280,283.381L103.361,286.551L103.369,294.666L100.966,295.630L100.328,296.066L98.952,296.846L96.408,298.581L90.424,302.607C88.847,303.634,87.271,304.675,85.603,305.553C84.033,306.379,82.423,307.055,80.758,307.663C78.667,308.427,76.503,308.990,74.441,309.838L71.527,311.180L70.137,311.972L67.375,313.761C64.791,315.477,62.251,317.258,59.899,319.284C58.409,320.564,57.033,321.976,55.600,323.320L54.229,324.538L51.410,326.518C49.025,327.920,46.337,328.645,43.752,329.569L40.840,330.638C38.986,331.383,37.157,332.200,35.260,332.833C32.781,333.662,30.191,334.127,27.733,335.018L24.952,336.193L22.409,337.569L20.983,338.326L20.308,338.736L17.767,339.890L17.982,342.588L18.113,344.964C18.274,346.814,18.421,348.783,19.508,350.369L21.528,352.297L22.856,352.982L24.323,353.496L25.873,353.846L27.465,354.058L29.074,354.129C31.791,354.180,34.464,353.602,37.147,353.271L40.355,352.925C41.885,352.782,43.431,352.698,44.942,352.399L47.695,351.662L50.258,350.680L50.896,350.380L53.300,349.580L54.356,347.108L55.901,345.242L58.384,343.294L61.383,341.568L65.947,339.205L71.504,336.039C73.332,335.039,75.212,334.145,77.089,333.243C78.879,332.384,80.694,331.454,82.646,331.019L85.666,330.659L87.241,330.683C88.849,330.756,90.452,330.903,92.063,330.893C94.764,330.875,97.438,330.493,100.131,330.338C103.359,330.150,106.598,330.200,109.830,330.199L108.567,333.540L107.914,335.023C107.226,336.327,106.519,337.604,105.688,338.824C104.480,340.595,103.090,342.225,101.609,343.774C100.488,344.948,99.312,346.082,98.067,347.125L96.713,348.036L96.082,348.548L93.678,349.580L93.223,352.279L92.956,353.068L92.504,354.684L90.814,359.278C89.966,361.468,89.028,363.660,87.664,365.586L85.235,368.470L83.812,369.797L82.301,371.023L79.136,373.107C77.126,374.200,74.965,374.953,72.681,375.190C70.532,375.413,68.378,375.402,66.221,375.453L64.607,375.518L61.407,375.936L58.384,377.083L55.889,379.167L54.281,381.979L53.837,383.527L53.604,385.114L53.619,388.271L53.775,389.701L54.217,392.106L54.915,394.804L67.835,394.804L72.618,394.716L75.637,394.362L78.456,393.507L79.826,392.890L82.623,391.450C85.001,390.213,87.427,389.053,89.619,387.498C92.202,385.664,94.308,383.156,97.206,381.777L100.195,380.758L101.738,380.501L104.726,380.299L106.343,380.276L109.830,380.268L110.285,377.728L110.552,377.051L111.004,375.626C111.524,374.311,112.105,373.010,112.693,371.724C113.381,370.224,114.042,368.710,114.877,367.284C115.867,365.590,116.999,364.028,118.266,362.531C119.575,360.980,121.031,359.554,122.517,358.175L124.116,356.876L124.897,356.180L127.596,354.426L128.150,351.727L129.252,349.345L131.271,346.455L132.511,345.002C134.147,343.175,135.867,341.424,137.305,339.429C139.304,336.653,140.569,333.402,142.914,330.867C144.802,328.826,147.231,327.474,149.436,325.825L151.772,323.796L153.535,321.608L154.525,319.674L155.054,317.278L157.753,317.975L158.541,318.121L161.587,318.605L164.753,318.828L171.197,318.893L180.896,318.893L180.896,314.047L187.429,314.049C190.101,314.067,192.769,314.068,195.432,314.322L201.893,315.202C203.506,315.401,205.113,315.528,206.738,315.599C209.426,315.717,212.125,315.661,214.814,315.662L229.350,315.662L230.382,317.901L231.807,319.523L233.974,321.149L235.220,321.798L236.528,322.268L239.311,322.425L240.777,322.076L242.271,321.480L245.233,319.792L248.039,317.715L249.386,316.538L250.714,315.251L251.996,313.879L254.270,311.046L255.223,309.451L255.758,308.671L256.808,305.972L259.204,306.771L259.810,307.072L262.154,308.050L263.496,308.488L264.102,308.748L266.498,309.202L267.298,306.805L267.598,306.199L268.577,303.856L269.015,302.514L269.275,301.908L269.729,299.511L272.040,300.561L273.726,302.018L274.590,303.013C275.448,304.004,276.267,305.057,277.226,305.955L278.814,307.034L281.035,307.587L281.035,296.281L283.659,298.429L285.880,299.773L286.486,300.146L289.110,301.126L290.055,298.469L290.147,297.712L290.467,296.281L290.669,294.092L290.726,291.435L293.166,290.421L293.707,289.899L294.843,289.092L296.172,287.415L297.186,284.975L299.885,284.816L300.673,284.703L302.290,284.505C304.377,284.164,306.449,283.747,308.495,283.214C311.724,282.374,314.843,281.110,318.143,280.548C320.829,280.091,323.547,280.160,326.259,280.129L326.809,282.796L327.882,284.994L329.743,287.259L331.734,288.766L334.334,289.820L332.847,286.590L332.201,284.975L331.920,284.369L331.104,281.744L333.803,281.911L334.590,282.047L336.203,282.302L339.156,283.180L342.139,284.658L343.565,285.597L346.325,287.685L350.536,290.935L353.222,293.210L354.503,294.616L355.192,295.289L356.946,297.896L363.407,297.896L364.457,300.141L364.991,300.659L365.944,301.822L367.004,302.727L369.501,304.649L372.176,306.409L373.560,307.160L376.473,308.286C378.003,308.742,379.584,308.910,381.156,309.137C382.701,309.360,384.228,309.546,385.744,309.932C387.180,310.297,388.542,310.859,389.934,311.348C391.359,311.851,392.773,312.321,394.240,312.686C396.319,313.203,398.436,313.535,400.557,313.836C402.708,314.139,404.871,314.367,407.009,314.756C408.599,315.045,410.156,315.402,411.716,315.813L413.202,316.276L414.631,316.811C416.498,317.602,418.319,318.492,420.147,319.369C422.009,320.261,423.862,321.156,425.655,322.180C428.234,323.656,430.631,325.447,433.343,326.687C437.292,328.495,441.564,329.246,445.779,330.150L449.008,331.022L452.216,332.357C454.312,333.358,456.271,334.634,458.238,335.860C460.913,337.528,463.565,339.247,466.379,340.681C467.714,341.361,469.061,341.989,470.467,342.511L476.346,344.438L479.237,345.599L481.997,346.668L484.814,347.122C486.376,347.142,487.846,346.707,489.340,346.319L490.750,345.877L493.150,345.189L495.849,344.735L495.849,335.044L493.511,333.297L492.949,332.625L491.704,331.391L490.706,330.215L488.421,327.907L485.820,326.263L484.375,325.722L481.288,324.987C479.154,324.583,477.011,324.260,474.858,323.982C473.292,323.780,471.699,323.670,470.152,323.338L467.236,322.528L465.846,321.971L463.085,320.687L460.170,319.272L457.069,317.536L455.494,316.455L452.448,313.839C450.261,311.730,448.501,309.237,446.504,306.957L445.320,305.964L444.794,305.413L442.549,304.356L445.248,303.412L446.036,303.320L447.653,303.000C449.717,302.785,451.786,302.778,453.858,302.746L460.315,302.741L465.161,302.748C466.776,302.762,468.394,302.775,470.006,302.887C472.175,303.035,474.319,303.336,476.460,303.701C478.544,304.056,480.619,304.447,482.653,305.028L488.233,306.916L489.661,307.320C491.686,307.832,493.730,308.257,495.710,308.927C497.643,309.583,499.478,310.483,501.377,311.222L504.158,312.007C506.728,312.523,509.396,312.403,512.000,312.432L511.976,304.318L511.824,301.154L511.305,298.106L510.159,295.431L508.343,293.265L507.247,292.346L506.050,291.500L503.438,289.917C501.999,289.093,500.518,288.308,499.016,287.607C496.997,286.666,494.910,285.789,492.681,285.505C491.200,285.316,489.685,285.377,488.233,285.740C486.820,286.092,485.465,286.611,484.082,287.058L481.167,287.787C479.106,288.149,477.008,288.171,474.923,288.197L468.391,288.205L467.341,285.960L466.807,285.442L465.854,284.279L464.796,283.373L463.586,282.382L461.033,280.475C459.799,279.569,458.558,278.684,457.273,277.852L454.721,276.526L451.959,275.739L450.479,275.581L447.370,275.756C445.127,276.101,443.050,276.991,440.934,277.765L437.705,278.744L434.497,278.996C432.401,278.915,430.393,278.232,428.473,277.442L424.361,275.565L421.667,274.564L420.131,274.200L419.381,273.995L416.707,273.669L417.215,271.256L417.446,270.438L418.322,267.208L416.267,265.028L415.594,263.921L415.061,261.583C414.886,259.670,414.935,257.740,414.634,255.839C414.203,253.108,413.268,250.493,412.565,247.826L411.831,244.596L411.443,242.981L410.303,239.751L409.513,238.139L407.751,234.945L406.345,231.934L405.657,229.529L405.401,226.830L402.708,226.295L400.360,225.682C398.937,225.235,397.540,224.755,396.188,224.124C393.940,223.076,391.919,221.660,389.863,220.288L388.758,219.523L386.802,218.298L384.404,217.139L385.830,214.943L386.314,214.309L388.030,211.799L389.506,209.170L390.380,206.892L390.864,204.218C393.578,204.194,396.278,204.221,398.980,203.904C400.594,203.714,402.185,203.382,403.785,203.107L405.401,202.863L407.016,202.697L410.238,202.785L411.831,203.050L414.851,203.967L417.337,205.342L418.881,206.850L419.937,209.063L424.782,209.063L425.740,206.406L426.168,205.648L426.866,204.218L428.132,202.029L429.628,199.372L426.929,199.297L424.550,199.006L421.697,198.213L419.045,196.816L417.735,195.716L415.091,192.912C416.771,192.931,418.512,192.871,420.195,193.005C421.759,193.130,423.279,193.356,424.787,193.792C426.435,194.268,427.988,194.998,429.555,195.682L430.984,196.334L432.601,196.898L433.389,197.236L436.088,197.757L435.190,195.653L433.979,194.017L432.155,192.205L431.204,191.394L430.161,190.388L429.602,189.942L428.013,188.066L430.553,188.526L431.230,188.805L432.653,189.279L437.721,191.554L439.916,192.316L442.549,192.912L441.769,190.499L441.247,189.681L439.319,186.451L445.779,186.451L445.275,183.826L444.668,181.000L444.164,178.375L447.627,178.075L449.205,177.826L452.004,177.019L454.756,175.796L457.306,174.266L459.474,172.552L460.387,171.426L460.899,170.923L461.931,168.685L459.232,168.314L456.827,167.635L453.816,166.395L452.240,165.586L449.105,163.703L446.298,161.627L444.999,160.351L444.303,159.756L442.549,157.379L445.248,158.177L446.036,158.478L449.082,159.459L452.240,160.159L455.375,160.285L458.187,159.667L460.269,158.277L460.978,157.127L461.931,154.148L459.233,154.627L456.866,154.941L454.075,155.023L452.488,154.847L449.009,154.148L451.642,153.111L452.353,152.904L455.081,151.949L459.164,150.454L462.068,149.722C463.539,149.455,465.032,149.384,466.522,149.333L471.621,149.303L469.942,148.358L469.426,148.267L467.619,147.853L465.161,147.688L467.860,146.719L468.648,146.593L470.263,146.211L473.237,145.812L476.210,145.616L478.613,145.670L481.312,146.073L481.312,134.767L478.613,133.565C476.863,132.860,475.073,132.271,473.196,132.017C470.515,131.654,467.842,132.067,465.161,132.193C463.541,132.269,461.934,132.209,460.322,132.047L457.148,131.579L454.129,130.863L449.979,129.454L447.380,128.725L445.892,128.513L442.549,128.306L442.518,125.614L442.349,123.296L441.822,120.709L441.199,119.443L440.961,118.752L439.319,117.000ZZ" style="fill: rgb(0, 0, 0);"/></g></g></g></g></g></svg>