<?xml version="1.0" encoding="UTF-8"?>
<svg width="513px" height="512px" viewBox="0 0 513 512" version="1.1" xmlns="http://www.w3.org/2000/svg" xmlns:xlink="http://www.w3.org/1999/xlink">
    <title>f2ap</title>
    <g id="All-Fediverse-Symbols" stroke="none" stroke-width="1" fill="none" fill-rule="evenodd">
        <g id="f2ap" transform="translate(1.000000, 0.000000)">
            <g transform="translate(-1.000000, 0.000000)">
                <path d="M253.008745,191.63177 C266.923566,191.594369 280.27317,196.889798 290.069919,206.33294 C299.952229,215.795054 305.479442,228.631621 305.427563,242 L327,242 C327,202.841414 293.784763,171 253,171 L253.008745,191.63177 Z" id="path320" fill="#000000" fill-rule="nonzero"></path>
                <path d="M252,155.509514 C302.314241,155.509514 343.252956,194.318926 343.252956,242 L365,242 C365,183.021663 314.315659,135 252,135 L252,155.509514 Z" id="path322" fill="#000000" fill-rule="nonzero"></path>
                <g id="layer2" transform="translate(24.000000, 141.000000)" fill="#000000" fill-rule="nonzero">
                    <path d="M31.0902495,74.1773502 C28.2318126,79.6488492 23.7529048,84.104784 18.2654811,86.9363382 L88.6716479,157.582368 L105.64581,148.98432 L31.0902495,74.1773502 Z M123.958042,167.358084 L106.98388,175.956127 L142.658775,211.752842 C145.517603,206.280332 149.997474,201.823732 155.486098,198.992153 L123.958042,167.358084 Z" id="path9722"></path>
                    <path d="M205.417347,102.130548 L165.558208,122.320955 L168.497043,141.110215 L213.596264,118.26452 C209.272731,113.856695 206.416323,108.22206 205.417347,102.130548 Z M142.419044,134.041622 L48.1749228,181.780772 C52.4993863,186.18883 55.3564216,191.824127 56.3555372,197.916445 L145.35788,152.83173 L142.419044,134.041622 Z" id="path9729"></path>
                    <path d="M112.110899,16.4475073 L66.6350768,105.183496 L80.0617268,118.65538 L128.211144,24.7048245 C122.121688,23.6752698 116.498822,20.791476 112.110899,16.4475073 L112.110899,16.4475073 Z M54.8074859,128.262857 L31.7728886,173.209071 C37.8616384,174.23872 43.4838549,177.122187 47.8714357,181.465535 L68.2332871,141.733892 L54.8074859,128.262857 Z" id="path9713"></path>
                    <path d="M17.8744291,87.1334692 C13.2360855,89.4543289 8.07472422,90.5328774 2.89462665,90.2637371 C1.92542135,90.2097963 0.959408257,90.1088475 0,89.9612475 L13.4504542,175.952729 C18.0887965,173.63187 23.2501562,172.553322 28.4302523,172.822461 C29.3988899,172.876457 30.3643352,172.977406 31.3231814,173.124951 L17.8744291,87.1334692 Z" id="path1015"></path>
                    <path d="M56.4269497,198.342138 C56.7348115,200.338786 56.8399092,202.361429 56.7406392,204.37921 C56.5112234,208.496178 55.4343503,212.521546 53.5773765,216.203535 L139.596679,230 C139.288475,228.003104 139.183092,225.980175 139.282136,223.962084 C139.511932,219.845343 140.589092,215.82027 142.446248,212.138604 L56.4269497,198.342138 Z" id="path1674"></path>
                    <path d="M213.898902,118.578908 L174.195332,196.052217 C180.285495,197.081675 185.909011,199.965794 190.297279,204.310382 L230,126.837922 C223.910039,125.808062 218.28683,122.923652 213.898902,118.578908 L213.898902,118.578908 Z" id="path1676"></path>
                    <path d="M159.748554,9.00504705 C156.889726,14.4775575 152.409855,18.9341572 146.921231,21.7657361 L208.408039,83.4593977 C211.266642,77.9870126 215.746201,73.5304255 221.234509,70.6987043 L159.748554,9.00504705 Z" id="path1678"></path>
                    <path d="M103.628495,0 L25.9020247,39.3705269 C30.225867,43.7782392 33.0825772,49.4128833 34.0817904,55.5044945 L111.807408,16.1322709 C107.484186,11.724902 104.627803,6.09090687 103.628495,0 L103.628495,0 Z" id="path1680"></path>
                    <path d="M146.779263,21.8371092 C142.079137,24.2433278 136.826605,25.3662446 131.552931,25.0922823 C130.674549,25.0390489 129.798937,24.9471935 128.928638,24.8169829 L135.813685,68.8829139 L154.600281,71.8959247 L146.779263,21.8371092 Z M139.815156,94.5011586 L156.093926,198.686266 C160.676942,196.44003 165.757783,195.400321 170.855247,195.665607 C171.906202,195.725202 172.953289,195.840069 173.992159,196.00973 L158.602601,97.5133168 L139.815156,94.5011586 Z" id="path9758"></path>
                    <path d="M34.1370462,55.835027 C34.4567749,57.8624244 34.5673022,59.9172861 34.4668881,61.96726 C34.2404115,66.0516717 33.1798059,70.0465104 31.350385,73.7057681 L75.4719799,80.788809 L84.1439556,63.862076 L34.1370462,55.835027 Z M109.756944,67.9728913 L101.084115,84.9013254 L205.334039,101.636031 C205.034485,99.6616611 204.933102,97.6623108 205.031401,95.6677869 C205.263352,91.5268366 206.352646,87.4790729 208.230367,83.7805811 L109.756944,67.9728913 Z" id="path9760"></path>
                </g>
                <circle id="path817" fill="#000000" fill-rule="nonzero" transform="translate(157.436336, 136.443411) rotate(3.117818) translate(-157.436336, -136.443411) " cx="157.436336" cy="136.443411" r="27.2730189"></circle>
                <circle id="path819" fill="#000000" fill-rule="nonzero" transform="translate(259.274692, 238.675885) rotate(3.117818) translate(-259.274692, -238.675885) " cx="259.274692" cy="238.675885" r="27.2730189"></circle>
                <circle id="path823" fill="#000000" fill-rule="nonzero" transform="translate(193.493955, 367.094585) rotate(3.117818) translate(-193.493955, -367.094585) " cx="193.493955" cy="367.094585" r="27.2730189"></circle>
                <circle id="path825" fill="#000000" fill-rule="nonzero" transform="translate(51.000840, 344.229262) rotate(3.117818) translate(-51.000840, -344.229262) " cx="51.0008401" cy="344.229262" r="27.2730189"></circle>
                <circle id="path827" fill="#000000" fill-rule="nonzero" transform="translate(28.716011, 201.678983) rotate(3.117818) translate(-28.716011, -201.678983) " cx="28.7160108" cy="201.678983" r="27.2730189"></circle>
                <path d="M421.791565,320.675214 C421.791565,325.019943 421.964866,328.669516 422.311469,331.623933 C422.658072,334.404559 423.524588,336.663818 424.911016,338.40171 C426.297428,340.139602 428.550355,341.529915 431.669798,342.572649 C434.962524,343.615385 439.468379,344.484331 445.18736,345.179487 C446.227169,345.353275 447.007025,345.874643 447.526929,346.743591 C448.046833,347.438747 448.306786,348.307693 448.306786,349.350429 C448.306786,350.219375 448.046833,351.001425 447.526929,351.696581 C447.007025,352.565527 446.313819,353 445.447312,353 C438.515221,353 432.276344,352.652422 426.730681,351.957267 C421.35832,351.435898 416.072601,351.175213 410.873523,351.175213 C405.327861,351.175213 399.782198,351.435898 394.236535,351.957267 C388.690873,352.652422 383.318503,353 378.119425,353 C377.079617,353 376.299761,352.565527 375.779856,351.696581 C375.259952,351.001425 375,350.219375 375,349.350429 C375,348.307693 375.259952,347.438747 375.779856,346.743591 C376.299761,345.874645 377.166276,345.353277 378.379404,345.179487 C383.058559,344.65812 386.611247,343.962963 389.037467,343.094017 C391.637005,342.051283 393.54333,340.66097 394.75644,338.923078 C395.969549,337.185186 396.662755,334.925926 396.836056,332.145298 C397.182659,329.364672 397.355961,325.801994 397.355961,321.457265 L397.355961,250.029916 C397.355961,247.596866 397.182659,246.206552 396.836056,245.858974 C396.489454,245.337607 395.189693,245.076923 392.936775,245.076923 L379.939117,245.076923 C378.899308,245.076923 378.119443,244.64245 377.599521,243.773504 C377.079617,242.73077 376.819665,241.688034 376.819665,240.645298 C376.819665,239.428775 377.079617,238.299146 377.599521,237.25641 C378.292744,236.213675 379.15926,235.605413 380.199069,235.431623 L394.236535,234.128204 C394.929741,234.128204 395.449645,234.04131 395.796248,233.867521 C396.316152,233.693733 396.662755,233.346154 396.836056,232.824785 C397.182659,232.129629 397.355961,231.086895 397.355961,229.696582 C397.355961,228.132479 397.355961,226.047008 397.355961,223.44017 C397.355961,215.793448 398.482429,208.754986 400.735365,202.324786 C403.161584,195.720798 406.62763,190.072649 411.133502,185.380341 C415.639356,180.514244 421.185019,176.777777 427.77049,174.170939 C434.355978,171.390313 441.894616,170 450.386402,170 C454.718955,170 458.964857,170.434473 463.124109,171.303419 C467.456661,172.172365 471.26931,173.649573 474.562054,175.735043 C478.0281,177.646724 480.800931,180.253561 482.880548,183.555557 C484.960183,186.683762 486,190.594017 486,195.286324 C486,198.414529 484.786881,201.108261 482.360644,203.367522 C479.934424,205.626781 476.988292,206.756411 473.522246,206.756411 C470.576104,206.756411 467.889924,206.061254 465.463704,204.670941 C463.210768,203.106838 462.0843,200.847578 462.0843,197.893161 C462.0843,195.286324 462.430903,193.635327 463.124109,192.940171 C463.990633,192.071225 464.423896,191.02849 464.423896,189.811966 C464.423896,186.336182 462.950825,183.729344 460.004683,181.991452 C457.058542,180.253561 453.332544,179.384615 448.82669,179.384615 C442.067917,179.384615 436.868858,180.861823 433.22951,183.816239 C429.590163,186.770656 426.903983,190.507123 425.170969,195.025641 C423.437937,199.544159 422.39812,204.497151 422.051517,209.884616 C421.878162,215.09829 421.791485,220.051281 421.791485,224.743589 L421.791485,229.696582 C421.791485,231.782051 421.964787,233.08547 422.311389,233.606839 C422.657992,233.954416 423.78446,234.128204 425.690793,234.128204 L450.906254,234.128204 C451.946062,234.128204 452.725918,234.736466 453.245823,235.952991 C453.765727,236.995727 454.025679,238.212252 454.025679,239.602565 C454.025679,240.992878 453.765727,242.296297 453.245823,243.512821 C452.725918,244.555556 451.946062,245.076923 450.906254,245.076923 L425.690793,245.076923 C423.78446,245.076923 422.657992,245.337607 422.311389,245.858974 C421.964787,246.206552 421.791485,247.596866 421.791485,250.029916 L421.791565,320.675214 Z" id="path7220" fill="#000000" fill-rule="nonzero"></path>
                <path d="M453.952431,404 C453.16513,404 452.546539,403.774922 452.096658,403.324767 C451.646777,402.87463 451.309366,402.311958 451.084426,401.636752 C450.971858,400.961528 450.971858,400.286313 451.084426,399.611107 C451.309366,398.935883 451.646777,398.373202 452.096658,397.923065 C459.969667,391.508544 466.549255,386.05057 471.835421,381.549143 C477.234048,377.047715 481.507963,372.996432 484.657167,369.395294 C487.91885,365.794155 490.224522,362.418087 491.574183,359.26709 C492.923827,356.116092 493.598648,352.683756 493.598648,348.970082 C493.598648,346.606835 493.429947,344.299856 493.092545,342.049144 C492.755126,339.79843 492.080295,337.829057 491.068053,336.141024 C490.055812,334.452989 488.64992,333.102562 486.850378,332.089742 C485.163297,330.964386 482.913864,330.401708 480.10208,330.401708 C477.402758,330.401708 475.097086,330.795582 473.185064,331.583332 C471.27306,332.258545 469.642228,333.15883 468.292567,334.284186 C467.055384,335.297007 466.155613,336.422363 465.593253,337.660254 C465.030893,338.78561 464.749712,339.742162 464.749712,340.529912 C464.749712,340.867518 464.749712,341.317661 464.749712,341.88034 C464.862103,342.443017 465.030813,343.005695 465.255842,343.568374 C465.593244,344.018517 466.099365,344.468659 466.774204,344.9188 C467.449026,345.256408 468.405028,345.425212 469.64221,345.425212 C471.554232,345.425212 472.791423,345.98789 473.353783,347.113246 C474.028605,348.238602 474.366016,349.476493 474.366016,350.82692 C474.366016,352.177346 473.691194,353.415238 472.34155,354.540594 C471.10435,355.66595 469.361039,356.228628 467.111615,356.228628 C464.974653,356.228628 463.231341,355.834753 461.88168,355.047004 C460.532019,354.259256 459.463538,353.302704 458.676237,352.177348 C457.888936,350.939456 457.326584,349.645296 456.989182,348.294868 C456.764242,346.831905 456.651771,345.481478 456.651771,344.243588 C456.651771,341.655269 457.214123,339.179486 458.338826,336.816238 C459.576008,334.45299 461.31932,332.427349 463.568761,330.739316 C465.818185,328.938745 468.573738,327.53205 471.835421,326.51923 C475.209565,325.50641 479.08983,325 483.476216,325 C487.862601,325 491.742866,325.618945 495.117011,326.856836 C498.603634,327.982192 501.471666,329.55769 503.721108,331.583332 C505.970531,333.608973 507.657603,336.028489 508.782324,338.841878 C510.019506,341.542732 510.638097,344.412391 510.638097,347.450852 C510.638097,351.83974 509.400906,356.059825 506.926524,360.111108 C504.45216,364.162389 501.302957,367.988599 497.478913,371.589738 C493.654888,375.078344 489.437212,378.341874 484.825886,381.380328 C480.327021,384.306257 475.996866,387.007117 471.835421,389.482908 C471.27306,389.707977 470.99188,390.101852 470.99188,390.664532 C470.99188,391.11467 471.27306,391.339738 471.835421,391.339738 L496.12927,391.339738 C497.591393,391.339738 498.828575,391.227204 499.840816,391.002135 C500.965537,390.664523 501.921548,390.158114 502.708849,389.482908 C503.608629,388.695159 504.452169,387.626069 505.23947,386.275639 C506.139232,384.812666 507.039004,382.899555 507.938784,380.536307 C508.163724,380.08617 508.557375,379.748567 509.119735,379.523498 C509.682095,379.185886 510.244456,379.073352 510.806816,379.185895 C511.369159,379.185895 511.875279,379.354701 512.325178,379.692313 C512.775059,380.029907 513,380.480044 513,381.042725 C512.10022,384.868946 511.200449,388.582624 510.300686,392.183759 C509.400906,395.672351 509.007256,399.611098 509.119735,404 L453.952431,404 Z" id="path7222" fill="#000000" fill-rule="nonzero"></path>
                <rect id="Rectangle" x="1" y="0" width="512" height="512"></rect>
            </g>
        </g>
    </g>
</svg>