<?xml version="1.0" encoding="UTF-8"?>
<svg width="468px" height="512px" viewBox="0 0 468 512" version="1.1" xmlns="http://www.w3.org/2000/svg" xmlns:xlink="http://www.w3.org/1999/xlink">
    <title>Fedibird</title>
    <g id="All-Fediverse-Symbols" stroke="none" stroke-width="1" fill="none" fill-rule="evenodd">
        <g id="Fedibird" fill="#000000" transform="translate(0.000000, -0.000000)">
            <path d="M128,14.7692308 L142.538462,14.7692308 C150.822733,14.7692308 157.538462,21.4849595 157.538462,29.7692308 L157.538462,497.230769 C157.538462,505.38759 150.926052,512 142.769231,512 C134.61241,512 128,505.38759 128,497.230769 L128,14.7692308 L128,14.7692308 Z" id="Rectangle"></path>
            <rect id="Rectangle-Copy-6" transform="translate(71.384615, 384.000000) rotate(-90.000000) translate(-71.384615, -384.000000) " x="56.6153846" y="312.615385" width="29.5384615" height="142.769231" rx="14.7692308"></rect>
            <rect id="Rectangle-Copy-2" transform="translate(297.846154, 14.769231) rotate(-90.000000) translate(-297.846154, -14.769231) " x="283.076923" y="-155.076923" width="29.5384615" height="339.692308" rx="14.7692308"></rect>
            <path d="M327.384615,59.0769231 C404.874414,59.0769231 467.692308,121.894817 467.692308,199.384615 C467.692308,276.874414 404.874414,339.692308 327.384615,339.692308 C249.894817,339.692308 187.076923,276.874414 187.076923,199.384615 C187.076923,121.894817 249.894817,59.0769231 327.384615,59.0769231 Z M328.615385,86.1538462 C325.214575,86.1538462 321.848407,86.3021597 318.525476,86.5938213 C341.602471,101.210647 356.923077,126.97001 356.923077,156.307692 C356.923077,201.849942 320.003789,238.769231 274.461538,238.769231 C251.018976,238.769231 229.861159,228.987077 214.846655,213.281008 C221.149327,270.536338 269.68085,315.076923 328.615385,315.076923 C391.830747,315.076923 443.076923,263.830747 443.076923,200.615385 C443.076923,137.400022 391.830747,86.1538462 328.615385,86.1538462 Z" id="Oval-3"></path>
        </g>
    </g>
</svg>