<svg xmlns:xlink="http://www.w3.org/1999/xlink" width="512" xmlns="http://www.w3.org/2000/svg" height="512" id="screenshot-24b0466e-7c13-801d-8004-21dc79235b08" viewBox="0 0 512 512" style="-webkit-print-color-adjust: exact;" fill="none" version="1.1"><g id="shape-24b0466e-7c13-801d-8004-21dc79235b08"><defs><clipPath class="frame-clip-def frame-clip" id="frame-clip-24b0466e-7c13-801d-8004-21dc79235b08-rumext-id-1"><rect rx="20" ry="20" x="0" y="0" width="512" height="512" transform="matrix(1.000000, 0.000000, 0.000000, 1.000000, 0.000000, 0.000000)"/></clipPath></defs><g clip-path="url(#frame-clip-24b0466e-7c13-801d-8004-21dc79235b08-rumext-id-1)" fill="none"><clipPath class="frame-clip-def frame-clip" id="frame-clip-24b0466e-7c13-801d-8004-21dc79235b08-rumext-id-1"><rect rx="20" ry="20" x="0" y="0" width="512" height="512" transform="matrix(1.000000, 0.000000, 0.000000, 1.000000, 0.000000, 0.000000)"/></clipPath><g class="fills" id="fills-24b0466e-7c13-801d-8004-21dc79235b08"><rect rx="20" ry="20" x="0" y="0" transform="matrix(1.000000, 0.000000, 0.000000, 1.000000, 0.000000, 0.000000)" width="512" height="512" class="frame-background"/></g><g class="frame-children"><g id="shape-24b0466e-7c13-801d-8004-2206a8b197e7" version="1.0" width="1570.000000pt" height="1438.000000pt" preserveAspectRatio="xMidYMid meet" rx="0" ry="0" style="fill: rgb(0, 0, 0);"><g id="shape-24b0466e-7c13-801d-8004-2206a8b3c450" rx="0" ry="0" style="fill: rgb(0, 0, 0);"><g id="shape-24b0466e-7c13-801d-8004-2206a8b8a266"><g class="fills" id="fills-24b0466e-7c13-801d-8004-2206a8b8a266"><path rx="0" ry="0" d="M242.412,0.192C201.816,2.314,162.225,14.121,127.402,34.419C108.333,45.592,92.057,58.032,75.968,73.823C36.042,113.116,9.785,165.295,2.224,220.603C0.697,231.627,0.288,237.698,0.064,251.143C-0.159,265.482,0.176,273.526,1.479,285.035C7.029,334.495,27.141,381.386,59.245,419.896C98.165,466.526,152.989,498.221,212.058,508.277C225.987,510.623,235.820,511.554,250.233,511.926C311.314,513.342,370.793,492.857,418.018,454.123C433.549,441.386,448.745,425.520,460.812,409.468C477.236,387.531,490.458,362.428,498.838,337.140C511.315,299.486,514.965,260.193,509.602,220.789C499.806,148.796,458.950,83.618,398.093,42.948C360.401,17.771,318.204,3.432,272.654,0.303C267.589,-0.032,247.961,-0.106,242.412,0.192ZZM268.483,24.512C306.546,26.672,342.003,37.473,374.368,56.803C436.231,93.786,477.423,156.989,485.952,228.051C487.479,240.640,487.963,259.932,487.106,271.850C484.760,304.067,476.268,334.234,461.780,362.205C445.765,393.155,422.972,420.082,395.299,440.902C383.605,449.691,373.176,456.209,360.848,462.466C320.438,483.025,275.634,491.144,230.121,486.153C224.609,485.520,213.697,483.844,212.542,483.397C211.946,483.174,214.516,481.349,225.764,474.086C240.699,464.440,244.870,461.274,249.861,455.762C257.235,447.643,261.965,440.678,267.068,430.362C277.757,408.760,282.226,383.211,278.911,362.130C276.267,344.998,279.991,327.009,297.310,274.160C301.667,260.789,301.928,260.081,302.785,260.119C304.312,260.193,315.895,261.385,315.969,261.459C316.714,262.502,319.843,268.350,321.779,272.372C329.489,288.536,334.479,305.780,336.677,323.955C337.161,327.866,337.385,344.216,337.012,350.547L336.826,353.862L339.992,354.719C353.511,358.443,365.765,357.028,377.422,350.361C381.295,348.164,383.791,346.413,389.191,342.205C391.314,340.529,394.107,338.592,395.374,337.884C399.508,335.538,407.851,333.043,414.629,332.149L417.944,331.665L417.720,323.061C416.715,287.381,410.569,252.633,402.189,235.500C399.471,229.951,396.975,226.375,393.698,223.359L391.165,221.012L392.543,217.660C396.491,207.828,398.353,196.990,397.981,186.152C397.683,177.176,395.932,170.360,391.761,161.757C388.223,154.420,384.461,149.056,378.763,143.209C367.590,131.701,354.293,124.699,337.198,121.310C328.967,119.671,315.857,119.373,306.397,120.602C268.110,125.518,243.455,142.650,227.328,175.537C222.039,186.375,218.278,196.952,211.872,219.113C205.391,241.534,203.343,247.567,199.544,255.128C196.453,261.310,197.049,261.012,193.510,258.145C177.682,245.482,154.739,236.469,128.817,232.744C118.054,231.180,115.186,231.031,98.836,231.031C84.832,231.031,81.778,231.143,74.627,231.887C58.426,233.563,49.338,235.239,40.548,238.182C35.260,239.932,28.742,242.614,26.135,244.141L24.533,245.072L24.533,243.433C24.533,242.577,24.720,239.821,24.906,237.362C26.545,217.772,30.008,200.975,36.265,182.241C53.323,130.993,88.631,86.710,134.962,58.330C141.778,54.158,146.732,51.477,155.074,47.380C164.683,42.687,172.542,39.484,183.194,35.909C209.860,27.007,240.289,22.910,268.483,24.512ZZM330.010,132.557C354.070,135.574,372.990,148.945,381.780,169.206C385.690,178.181,386.808,187.567,385.281,197.697C382.078,218.405,372.580,232.372,355.597,241.236C343.902,247.344,328.483,250.025,312.580,248.759C303.157,248.014,295.001,246.078,281.705,241.385C272.096,237.996,272.840,238.182,271.202,238.629C267.440,239.634,265.615,243.396,267.142,247.009C268.148,249.430,271.015,250.808,283.380,254.755C286.546,255.761,289.377,256.655,289.675,256.767C289.935,256.841,290.047,257.176,289.935,257.474C289.824,257.772,287.626,264.439,285.094,272.297C273.474,307.903,269.451,322.689,266.956,339.225C265.801,346.786,265.727,358.220,266.807,363.806C267.812,369.170,267.887,384.253,266.881,390.436C263.790,409.579,256.751,427.084,246.769,440.529C243.157,445.371,235.596,452.857,231.239,455.874C223.268,461.386,195.373,479.263,194.739,479.263C193.920,479.263,184.199,476.395,179.655,474.794C153.100,465.408,129.376,451.889,106.471,432.969C100.363,427.904,85.726,413.416,80.288,407.047C67.104,391.591,57.010,376.283,48.184,358.406C33.435,328.536,25.986,299.225,24.347,264.327L24.087,259.262L27.029,257.549C37.643,251.329,49.450,247.456,64.012,245.407C102.523,240.044,137.644,243.359,164.199,254.942C172.356,258.517,178.240,261.906,184.795,266.897L188.445,269.690L187.440,270.770C185.801,272.409,180.587,275.798,177.384,277.214C172.505,279.411,171.909,279.821,170.940,281.646C170.233,283.024,170.121,283.657,170.344,285.035C170.717,287.530,172.579,289.504,175.112,290.063C176.937,290.473,177.235,290.435,180.028,289.355C186.918,286.711,194.814,281.273,200.214,275.463C209.600,265.333,213.920,255.836,222.337,226.748C229.525,201.906,232.281,193.824,237.012,183.507C247.850,159.895,263.045,145.556,285.243,137.920C300.327,132.744,316.304,130.844,330.010,132.557ZZM387.031,233.861C394.219,242.092,400.551,265.705,403.642,296.022C404.536,304.588,405.132,312.633,405.243,317.735L405.355,321.422L401.072,322.652C392.953,324.998,388.148,327.456,382.078,332.335C375.262,337.773,369.042,341.460,363.828,343.173C361.109,344.030,359.843,344.216,355.187,344.365L349.675,344.514L349.675,339.002C349.675,315.016,343.195,287.940,332.133,265.780C330.904,263.359,329.936,261.236,329.936,261.050C329.936,260.901,331.165,260.603,332.655,260.491C345.094,259.262,360.215,253.787,369.787,246.971C373.958,243.955,379.992,238.256,382.822,234.606C383.940,233.154,384.983,231.962,385.132,231.962C385.243,231.962,386.100,232.819,387.031,233.861ZZ" style="fill: rgb(0, 0, 0);"/></g></g><g id="shape-24b0466e-7c13-801d-8004-2206a8b90e66"><g class="fills" id="fills-24b0466e-7c13-801d-8004-2206a8b90e66"><path rx="0" ry="0" d="M304.759,195.053C300.215,197.101,298.576,202.874,301.258,207.157C304.200,211.776,310.867,212.223,314.554,207.977C316.900,205.332,317.161,201.385,315.187,198.182C313.101,194.830,308.409,193.414,304.759,195.053ZZ" style="fill: rgb(0, 0, 0);"/></g></g></g></g><g id="shape-81e29eef-4883-8031-8004-2207c686d073"><g class="fills" id="fills-81e29eef-4883-8031-8004-2207c686d073"><path rx="0" ry="0" d="M354.955,279.631C354.373,280.744,353.462,281.652,352.345,282.228L366.675,296.609L370.130,294.859L354.955,279.631ZM373.857,298.599L370.402,300.349L377.663,307.636C378.245,306.522,379.156,305.615,380.274,305.039L373.857,298.599ZM381.141,266.364C380.559,267.478,379.647,268.385,378.530,268.962L391.045,281.520C391.627,280.406,392.538,279.499,393.655,278.923L381.141,266.364ZM383.371,304.915C386.429,305.082,388.776,307.698,388.610,310.755C388.443,313.812,385.826,316.158,382.768,315.992C379.710,315.825,377.363,313.208,377.530,310.152C377.696,307.095,380.314,304.749,383.371,304.915ZM376.036,258.008C379.094,258.175,381.441,260.792,381.274,263.848C381.108,266.905,378.490,269.251,375.433,269.085C372.375,268.918,370.028,266.302,370.194,263.245C370.361,260.188,372.978,257.842,376.036,258.008ZM396.753,278.799C399.811,278.966,402.158,281.582,401.992,284.639C401.825,287.696,399.207,290.042,396.150,289.876C393.092,289.709,390.745,287.092,390.912,284.036C391.078,280.979,393.696,278.633,396.753,278.799ZM354.384,300.265C357.441,300.432,359.788,303.048,359.622,306.105C359.455,309.162,356.838,311.508,353.780,311.342C350.722,311.175,348.375,308.558,348.542,305.502C348.708,302.445,351.326,300.099,354.384,300.265ZM349.850,271.275C352.908,271.442,355.255,274.058,355.088,277.115C354.922,280.172,352.304,282.518,349.247,282.352C346.189,282.185,343.842,279.568,344.008,276.512C344.175,273.455,346.793,271.109,349.850,271.275ZM369.719,264.531L353.899,272.545C354.779,273.442,355.361,274.590,355.564,275.830L371.384,267.815C370.504,266.918,369.922,265.771,369.719,264.531ZL369.719,264.531ZM390.436,285.321L382.324,289.431L382.922,293.256L392.101,288.605C391.221,287.708,390.639,286.561,390.436,285.321ZL390.436,285.321ZM377.614,291.817L358.432,301.535C359.313,302.432,359.894,303.579,360.097,304.820L378.212,295.642L377.614,291.817ZM371.445,267.879L362.190,285.942L364.922,288.685L374.722,269.560C373.483,269.350,372.338,268.763,371.445,267.879ZL371.445,267.879ZM359.782,290.641L355.094,299.790C356.333,300.000,357.478,300.587,358.371,301.471L362.515,293.383L359.782,290.641ZM352.265,282.268C351.321,282.741,350.271,282.960,349.216,282.905C349.019,282.894,348.823,282.874,348.627,282.844L351.365,300.349C352.309,299.876,353.359,299.657,354.414,299.711C354.611,299.722,354.807,299.743,355.003,299.773L352.265,282.268ZM360.112,304.906C360.175,305.313,360.196,305.724,360.176,306.135C360.129,306.973,359.910,307.793,359.532,308.542L377.040,311.351C376.977,310.944,376.955,310.532,376.976,310.122C377.022,309.284,377.242,308.464,377.620,307.715L360.112,304.906ZM392.162,288.669L384.081,304.440C385.321,304.650,386.466,305.237,387.359,306.121L395.439,290.351C394.200,290.141,393.055,289.554,392.162,288.669ZL392.162,288.669ZM378.501,268.976C377.545,269.466,376.476,269.694,375.402,269.639C375.224,269.628,375.045,269.609,374.868,269.583L376.270,278.553L380.093,279.166L378.501,268.976ZM377.084,283.768L380.397,304.976C381.330,304.519,382.364,304.307,383.402,304.361C383.616,304.374,383.829,304.397,384.040,304.431L380.908,284.381L377.084,283.768ZM355.575,275.897C355.640,276.310,355.663,276.728,355.642,277.145C355.596,277.977,355.380,278.790,355.008,279.535L363.988,280.977L365.753,277.531L355.575,275.897ZM370.966,278.368L369.201,281.814L390.419,285.220C390.358,284.818,390.338,284.411,390.358,284.005C390.405,283.162,390.626,282.338,391.009,281.586L370.966,278.368Z" style="fill: rgb(0, 0, 0); fill-opacity: 1;"/></g></g></g></g></g></svg>