<?xml version="1.0" encoding="UTF-8"?>
<svg width="512px" height="512px" viewBox="0 0 512 512" version="1.1" xmlns="http://www.w3.org/2000/svg" xmlns:xlink="http://www.w3.org/1999/xlink">
    <title>Flockingbird</title>
    <g id="All-Fediverse-Symbols" stroke="none" stroke-width="1" fill="none" fill-rule="evenodd">
        <g id="Flockingbird" fill="#000000">
            <path d="M512,0 L512,512 L254.5,512 L0,257.5 L0,0 L512,0 Z M412.5,308 C367.475655,308 328.976966,335.939651 313.401873,375.426934 C297.820858,335.939651 259.322169,308 214.297824,308 C200.79036,308 187.870218,310.514629 175.98,315.101285 C238.503583,340.468082 288.334386,390.599615 313.302861,453.325459 L313.400027,453.56994 L313.494963,453.325459 C338.463438,390.599615 388.294241,340.468082 450.817824,315.101285 C438.927606,310.514629 426.007464,308 412.5,308 Z M215.83693,194.56994 C185.835122,194.56994 160.18166,213.187425 149.803254,239.499633 C139.420902,213.187425 113.76744,194.56994 83.7656316,194.56994 C74.7649818,194.56994 66.1556926,196.245554 58.232689,199.301856 C99.8950507,216.204929 133.099625,249.609893 149.737278,291.407031 L149.802024,291.56994 L149.865284,291.407031 C166.502937,249.609893 199.707511,216.204929 241.369873,199.301856 C233.446869,196.245554 224.83758,194.56994 215.83693,194.56994 Z M373.286515,205.56994 C355.347289,205.56994 340.008106,216.702045 333.802461,232.435117 C327.594456,216.702045 312.255273,205.56994 294.316047,205.56994 C288.934215,205.56994 283.786393,206.571854 279.048927,208.399333 C303.960442,218.506325 323.814724,238.480428 333.763011,263.472531 L333.801725,263.56994 L333.839551,263.472531 C343.787838,238.480428 363.64212,218.506325 388.553635,208.399333 C383.816169,206.571854 378.668346,205.56994 373.286515,205.56994 Z M309.582892,104.56994 C285.14843,104.56994 264.255404,119.732634 255.802888,141.162164 C247.347158,119.732634 226.454132,104.56994 202.01967,104.56994 C194.689244,104.56994 187.677554,105.934615 181.224799,108.423769 C215.156001,122.190189 242.198901,149.396294 255.749154,183.437262 L255.801886,183.56994 L255.853407,183.437262 C269.40366,149.396294 296.446561,122.190189 330.377763,108.423769 C323.925007,105.934615 316.913318,104.56994 309.582892,104.56994 Z M436.178993,54.5699404 C413.291015,54.5699404 393.720333,68.7729702 385.802786,88.8462005 C377.882229,68.7729702 358.311547,54.5699404 335.423569,54.5699404 C328.557094,54.5699404 321.989183,55.8482435 315.944829,58.1798554 C347.728487,71.0749831 373.059811,96.5591828 385.752454,128.445659 L385.801848,128.56994 L385.850108,128.445659 C398.54275,96.5591828 423.874075,71.0749831 455.657732,58.1798554 C449.613379,55.8482435 443.045468,54.5699404 436.178993,54.5699404 Z"></path>
        </g>
    </g>
</svg>