<svg xmlns:xlink="http://www.w3.org/1999/xlink" width="512" xmlns="http://www.w3.org/2000/svg" height="512" id="screenshot-7df70fec-7f90-8051-8004-1be16cea66d8" viewBox="0 0 512 512" style="-webkit-print-color-adjust: exact;" fill="none" version="1.1"><g id="shape-7df70fec-7f90-8051-8004-1be16cea66d8"><defs><clipPath class="frame-clip-def frame-clip" id="frame-clip-7df70fec-7f90-8051-8004-1be16cea66d8-rumext-id-1"><rect rx="20" ry="20" x="0" y="0" width="512" height="512" transform="matrix(1.000000, 0.000000, 0.000000, 1.000000, 0.000000, 0.000000)"/></clipPath></defs><g clip-path="url(#frame-clip-7df70fec-7f90-8051-8004-1be16cea66d8-rumext-id-1)" fill="none"><clipPath class="frame-clip-def frame-clip" id="frame-clip-7df70fec-7f90-8051-8004-1be16cea66d8-rumext-id-1"><rect rx="20" ry="20" x="0" y="0" width="512" height="512" transform="matrix(1.000000, 0.000000, 0.000000, 1.000000, 0.000000, 0.000000)"/></clipPath><g class="fills" id="fills-7df70fec-7f90-8051-8004-1be16cea66d8"><rect rx="20" ry="20" x="0" y="0" transform="matrix(1.000000, 0.000000, 0.000000, 1.000000, 0.000000, 0.000000)" width="512" height="512" class="frame-background"/></g><g class="frame-children"><g id="shape-7df70fec-7f90-8051-8004-1be17f804ccb"><g class="fills" id="fills-7df70fec-7f90-8051-8004-1be17f804ccb"><path fill="none" stroke-linecap="round" stroke-linejoin="round" rx="0" ry="0" d="M127.667,204.667L487.000,204.667L384.333,102.000M384.333,307.333L25.000,307.333L127.667,410.000" style="fill: none;"/></g><g id="strokes-7df70fec-7f90-8051-8004-1be17f804ccb" class="strokes"><g class="stroke-shape"><path stroke-linecap="round" stroke-linejoin="round" rx="0" ry="0" d="M127.667,204.667L487.000,204.667L384.333,102.000M384.333,307.333L25.000,307.333L127.667,410.000" style="fill: none; stroke-width: 50; stroke: rgb(0, 0, 0); stroke-opacity: 1;"/></g></g></g></g></g></g></svg>