<?xml version="1.0" encoding="UTF-8"?>
<svg width="512px" height="512px" viewBox="0 0 512 512" version="1.1" xmlns="http://www.w3.org/2000/svg" xmlns:xlink="http://www.w3.org/1999/xlink">
    <title>ForgeFlex</title>
    <g id="All-Fediverse-Symbols" stroke="none" stroke-width="1" fill="none" fill-rule="evenodd">
        <g id="ForgeFlex">
            <path d="M24.1130298,368.686763 L67.2911801,368.686763 C80.6084388,368.686763 91.40421,379.482534 91.40421,392.799792 L91.40421,436.085801 C91.40421,449.403059 80.6084388,460.19883 67.2911801,460.19883 L24.1130298,460.19883 C10.7957712,460.19883 -1.92181986e-15,449.403059 0,436.085801 L0,392.799792 C-5.1836075e-15,379.482534 10.7957712,368.686763 24.1130298,368.686763 Z M24.1130298,50 L310.233949,50 C323.551207,50 334.346979,60.7957712 334.346979,74.1130298 L334.346979,117.399038 C334.346979,130.716297 323.551207,141.512068 310.233949,141.512068 L24.1130298,141.512068 C10.7957712,141.512068 1.58417485e-14,130.716297 0,117.399038 L0,74.1130298 C-5.1836075e-15,60.7957712 10.7957712,50 24.1130298,50 Z M24.1130298,210.547487 L188.361669,210.547487 C201.678927,210.547487 212.474699,221.343259 212.474699,234.660517 L212.474699,277.946525 C212.474699,291.263784 201.678927,302.059555 188.361669,302.059555 L24.1130298,302.059555 C10.7957712,302.059555 -3.11319635e-15,291.263784 0,277.946525 L0,234.660517 C-5.1836075e-15,221.343259 10.7957712,210.547487 24.1130298,210.547487 Z" id="left" fill="#000000"></path>
            <path d="M323.528235,209.688109 L487.88697,209.688109 C501.204229,209.688109 512,220.48388 512,233.801139 L512,277.395742 C512,290.713001 501.204229,301.508772 487.88697,301.508772 L323.528235,301.508772 C310.210976,301.508772 299.415205,290.713001 299.415205,277.395742 L299.415205,233.801139 C299.415205,220.48388 310.210976,209.688109 323.528235,209.688109 Z M444.292367,50 L487.88697,50 C501.204229,50 512,60.7957712 512,74.1130298 L512,117.707633 C512,131.024892 501.204229,141.820663 487.88697,141.820663 L444.292367,141.820663 C430.975108,141.820663 420.179337,131.024892 420.179337,117.707633 L420.179337,74.1130298 C420.179337,60.7957712 430.975108,50 444.292367,50 Z M201.766051,368.378168 L487.88697,368.378168 C501.204229,368.378168 512,379.173939 512,392.491197 L512,436.085801 C512,449.403059 501.204229,460.19883 487.88697,460.19883 L201.766051,460.19883 C188.448793,460.19883 177.653021,449.403059 177.653021,436.085801 L177.653021,392.491197 C177.653021,379.173939 188.448793,368.378168 201.766051,368.378168 Z" id="right" fill="#000000"></path>
            <rect id="Rectangle" x="0" y="0" width="512" height="512"></rect>
        </g>
    </g>
</svg>