<svg xmlns:xlink="http://www.w3.org/1999/xlink" width="512" xmlns="http://www.w3.org/2000/svg" height="512" id="screenshot-e896cdf2-4b36-80a4-8004-193a8464ad4e" viewBox="0 0 512 512" style="-webkit-print-color-adjust: exact;" fill="none" version="1.1"><g id="shape-e896cdf2-4b36-80a4-8004-193a8464ad4e"><defs><clipPath class="frame-clip-def frame-clip" id="frame-clip-e896cdf2-4b36-80a4-8004-193a8464ad4e-rumext-id-1"><rect rx="20" ry="20" x="0" y="0" width="512" height="512" transform="matrix(1.000000, 0.000000, 0.000000, 1.000000, 0.000000, 0.000000)"/></clipPath></defs><g clip-path="url(#frame-clip-e896cdf2-4b36-80a4-8004-193a8464ad4e-rumext-id-1)" fill="none"><clipPath class="frame-clip-def frame-clip" id="frame-clip-e896cdf2-4b36-80a4-8004-193a8464ad4e-rumext-id-1"><rect rx="20" ry="20" x="0" y="0" width="512" height="512" transform="matrix(1.000000, 0.000000, 0.000000, 1.000000, 0.000000, 0.000000)"/></clipPath><g class="fills" id="fills-e896cdf2-4b36-80a4-8004-193a8464ad4e"><rect rx="20" ry="20" x="0" y="0" transform="matrix(1.000000, 0.000000, 0.000000, 1.000000, 0.000000, 0.000000)" width="512" height="512" class="frame-background"/></g><g class="frame-children"><g id="shape-e896cdf2-4b36-80a4-8004-193b17399aa3"><g class="fills" id="fills-e896cdf2-4b36-80a4-8004-193b17399aa3"><path rx="0" ry="0" d="M355.000,0.000C322.967,0.000,297.000,25.967,297.000,58.000C297.000,90.033,322.967,116.000,355.000,116.000C387.033,116.000,413.000,90.033,413.000,58.000C413.000,25.967,387.033,0.000,355.000,0.000ZM355.000,34.370C368.050,34.370,378.630,44.950,378.630,58.000C378.630,71.050,368.050,81.630,355.000,81.630C341.950,81.630,331.370,71.050,331.370,58.000C331.370,44.950,341.950,34.370,355.000,34.370ZM355.000,160.000C322.967,160.000,297.000,185.967,297.000,218.000C297.000,250.033,322.967,276.000,355.000,276.000C387.033,276.000,413.000,250.033,413.000,218.000C413.000,185.967,387.033,160.000,355.000,160.000ZM355.000,194.370C368.050,194.370,378.630,204.950,378.630,218.000C378.630,231.050,368.050,241.630,355.000,241.630C341.950,241.630,331.370,231.050,331.370,218.000C331.370,204.950,341.950,194.370,355.000,194.370ZM157.000,396.000C124.967,396.000,99.000,421.967,99.000,454.000C99.000,486.033,124.967,512.000,157.000,512.000C189.033,512.000,215.000,486.033,215.000,454.000C215.000,421.967,189.033,396.000,157.000,396.000ZM157.000,430.370C170.050,430.370,180.630,440.950,180.630,454.000C180.630,467.050,170.050,477.630,157.000,477.630C143.950,477.630,133.370,467.050,133.370,454.000C133.370,440.950,143.950,430.370,157.000,430.370Z" style="fill: rgb(0, 0, 0);"/></g></g><g id="shape-e896cdf2-4b36-80a4-8004-193b026bca0d"><g class="fills" id="fills-e896cdf2-4b36-80a4-8004-193b026bca0d"><path rx="0" ry="0" d="M186.309,342.530L186.309,429.000L186.309,429.000L186.309,429.000L128.000,429.000L128.000,429.000L128.000,342.530L128.000,181.688C128.000,97.361,196.648,29.000,281.330,29.000L331.000,29.000L331.000,87.065L281.330,87.065C228.851,87.065,186.309,129.429,186.309,181.688L186.309,222.813C212.433,202.266,245.441,190.000,281.330,190.000L331.000,190.000L331.000,248.005L281.330,248.005C228.851,248.005,186.309,290.325,186.309,342.530Z" style="fill: rgb(0, 0, 0);"/></g></g></g></g></g></svg>