<?xml version="1.0" encoding="UTF-8"?>
<svg width="512px" height="504px" viewBox="0 0 512 504" version="1.1" xmlns="http://www.w3.org/2000/svg" xmlns:xlink="http://www.w3.org/1999/xlink">
    <title>forgefriends</title>
    <g id="All-Fediverse-Symbols" stroke="none" stroke-width="1" fill="none" fill-rule="evenodd">
        <g id="forgefriends" transform="translate(0.000000, -4.000000)" fill="#000000" fill-rule="nonzero">
            <g transform="translate(0.000000, 4.000000)">
                <path d="M67.3100557,0.0152248168 C40.0932381,0 15.5416068,16.3431438 5.09035255,41.4400068 C-5.26196928,66.614759 0.465496856,95.5318748 19.6352182,114.874848 C29.062446,124.020579 40.913818,130.476389 53.8425875,133.16631 L53.8425875,270.352276 C45.1685289,271.989219 36.9199332,275.37581 29.6011447,280.304984 C7.29498718,295.595242 -3.6817462,322.733265 1.7322095,349.205975 C7.14616521,375.678685 27.8993618,396.344797 54.4227023,401.675369 C80.9460428,407.005941 108.08841,395.965718 123.334724,373.645239 C130.726705,362.574182 134.663696,349.561899 134.647397,336.255339 C134.760893,327.010838 132.925475,317.84592 129.26041,309.356129 C120.809214,288.753442 102.62309,273.719341 80.7775239,269.276308 L80.7775239,204.718206 C94.6934745,224.359853 113.180555,240.329966 134.647397,251.253838 C152.188696,260.222979 171.307362,265.704311 190.941414,267.393363 C191.565369,267.44704 198.401569,269.192687 198.544128,267.393363 C198.74154,264.901714 195.848169,256.293968 189.864017,241.570123 C133.34868,235.119183 88.8391128,190.445285 82.6629695,133.973286 C86.7233078,133.21768 90.694779,132.045847 94.5143415,130.476389 C119.554188,120.076692 135.903691,95.6909929 135.994144,68.608208 C136.10764,59.3637072 134.272222,50.1987899 130.607156,41.7089989 C123.946799,25.1931031 110.951692,12.0215338 94.5143415,5.12607455 C85.9933119,1.55808998 76.8169839,-0.183099717 67.5794051,0.0152248168 L67.3100557,0.0152248168 Z M67.4619298,27 C72.7197163,26.9720049 77.9317776,27.9811297 82.8013997,29.9705172 C100.728351,37.2655295 110.976418,56.2947903 107.232994,75.3366538 C103.489571,94.3785172 86.8072167,108.078877 67.4619298,107.998584 C50.9697785,108.13646 36.0527015,98.1948633 29.786039,82.8892061 C26.8892421,75.5051968 26.233824,67.4265929 27.9022445,59.6697814 C31.0110197,43.5413676 43.5817808,30.9295093 59.6576382,27.8105707 C62.314554,27.2674082 65.0195333,26.996026 67.7310433,27 L67.4619298,27 Z M67.4782603,295 C72.7502279,294.97202 77.9763469,295.980592 82.8591032,297.968888 C90.1447656,301.207031 96.6209099,306.33409 101.208179,313.080221 C111.90322,329.133636 109.783934,350.503906 96.1441984,364.14394 C82.5044628,377.783973 61.1346584,379.903305 45.0815944,369.208031 C38.3759735,364.681757 33.1269552,358.30781 29.9705908,350.858555 C26.9756283,343.505789 26.2244925,335.430903 27.8118761,327.651864 C30.9290362,311.532296 43.5337026,298.927354 59.6529192,295.810126 C62.3170012,295.267262 65.0292762,294.996028 67.7480996,295 L67.4782603,295 Z" id="Shape"></path>
                <path d="M256.509824,182.69376 C260.155596,182.548122 263.685155,182.639245 267.098501,182.967128 C267.699239,183.024834 268.583952,183.136319 269.75264,183.301582 C270.682533,183.490707 271.63068,183.673748 272.546843,183.900867 C293.153696,189.009334 310.168953,203.63043 318.26041,223.356129 C321.925475,231.84592 323.760893,241.010838 323.647397,250.255339 C323.663696,263.561899 319.726705,276.574182 312.334724,287.645239 C297.08841,309.965718 269.946043,321.005941 243.422702,315.675369 C216.899362,310.344797 196.146165,289.678685 190.73221,263.205975 C185.318254,236.733265 196.294987,209.595242 218.601145,194.304984 C225.919933,189.37581 234.168529,185.989219 242.842588,184.352276 C245.873646,183.780264 249.597467,182.969887 256.509824,182.69376 Z M256.5,209 C234.132468,209 216,227.132468 216,249.5 C216,271.867532 234.132468,290 256.5,290 C278.867532,290 297,271.867532 297,249.5 C297,227.132468 278.867532,209 256.5,209 Z" id="Path-2"></path>
                <path d="M441.687621,100.081722 C420.508313,101.128095 401.061617,112.105064 389.212556,129.702032 C381.827339,140.784755 377.893951,153.81075 377.910234,167.131333 C377.711828,176.36638 379.453735,185.540193 383.02319,194.058888 C391.466652,214.683285 409.636135,229.733229 431.461711,234.180944 L431.461711,298.807075 C417.558494,279.144731 399.08833,263.157788 377.641132,252.222406 C360.198449,243.277122 341.191834,237.790927 321.667729,236.065873 C312.524124,238.053423 304.676289,247.725567 305.378906,253.904613 C305.842479,257.981424 311.63089,260.651994 322.74414,261.916325 C379.312639,268.256813 423.921392,313.006059 430.116197,369.626544 C426.059574,370.382946 422.091737,371.556014 418.275669,373.127126 C393.062906,383.491582 376.591615,408.05487 376.56472,435.329777 C376.366314,444.564824 378.108221,453.738637 381.677675,462.257332 C388.454129,478.740289 401.534177,491.828729 418.006566,498.60953 C426.499855,502.273591 435.668547,504.108506 444.916856,503.995041 C472.076193,503.859384 496.490184,487.395921 506.810523,462.257332 C517.222005,437.108799 511.607175,408.168573 492.548069,388.745107 C483.13352,379.506113 471.275581,373.152907 458.372001,370.43437 L458.372001,233.103842 C466.944394,231.430402 475.09067,228.041575 482.322159,223.140647 C507.359117,206.25301 518.085315,174.742564 508.555953,146.073403 C499.026591,117.404242 471.576141,98.5996455 441.418518,100.081722 L441.687621,100.081722 Z M447.133561,127.023642 C454.548197,127.325573 461.737209,129.659874 467.915049,133.771476 C474.621914,138.298892 479.871907,144.674447 483.028858,152.125582 C486.024376,159.480203 486.775651,167.557126 485.187973,175.338128 C482.070234,191.461764 469.463228,204.069887 453.341018,207.187901 C445.560705,208.77572 437.484496,208.024378 430.130526,205.028595 C422.68005,201.871365 416.305059,196.620908 411.778044,189.913448 C403.374493,177.281192 402.738518,161.010248 410.130432,147.760493 C417.522345,134.510738 431.701291,126.506361 446.863672,127.023642 L447.133561,127.023642 Z M445.584443,396 C461.99749,395.972725 476.797067,405.895535 483.034011,421.109511 C486.024334,428.466247 486.774306,436.545494 485.189382,444.328734 C482.07705,460.457007 469.491909,473.068756 453.397662,476.187668 C445.630842,477.775943 437.568641,477.024385 430.227426,474.02774 C412.279967,466.732791 402.020177,447.703696 405.767883,428.661998 C409.515589,409.6203 426.217026,395.920059 445.584443,396 Z" id="Shape"></path>
            </g>
        </g>
    </g>
</svg>