<svg width="512" xmlns="http://www.w3.org/2000/svg" height="512" fill="none"><g data-testid="forte"><defs><clipPath id="a" class="frame-clip frame-clip-def"><rect rx="20" ry="20" width="512" height="512"/></clipPath></defs><g clip-path="url(#a)"><g class="fills"><rect rx="20" ry="20" width="512" height="512" class="frame-background"/></g><g class="frame-children"><path d="M321.286 189.131h46.689c6.496-.164 11.903-2.406 16.223-6.726 4.319-4.319 6.561-9.727 6.726-16.223-.165-6.495-2.407-11.903-6.726-16.222-4.32-4.319-9.727-6.562-16.223-6.727h-33.236c5.358-23.822 12.645-45.815 21.861-65.978 9.215-20.162 23.822-30.879 43.82-32.148h5.54c4.533-.115 8.523.313 11.969 1.286 3.445.973 5.259 3.182 5.44 6.627-1.253 11.063-6.265 18.416-15.035 22.059-8.771 3.644-13.783 10.799-15.036 21.465.264 9.76 3.693 17.937 10.288 24.532 6.594 6.595 14.771 10.024 24.531 10.287 13.832-.659 24.153-7.056 30.962-19.19 6.808-12.134 10.205-26.048 10.188-41.743-.495-19.899-7.221-36.484-20.179-49.756C436.129 7.403 419.907.511 400.42 0c-36.748 1.369-70.083 16.042-100.006 44.019-29.923 27.977-51.981 61.049-66.176 99.214h-41.941c-6.496.165-11.903 2.408-16.223 6.727-4.319 4.319-6.561 9.727-6.726 16.222.165 6.496 2.407 11.904 6.726 16.223 4.32 4.32 9.727 6.562 16.223 6.726h29.28l-52.229 208.124c-4.138 17.822-10.7 33.813-19.685 47.975-8.985 14.162-21.679 21.647-38.083 22.455h-4.748c-4.913.131-9.134-.33-12.662-1.385-3.528-1.055-5.375-3.495-5.539-7.32 1.253-10.667 6.264-17.822 15.035-21.465 8.771-3.644 13.783-10.997 15.036-22.059-.215-9.727-3.545-17.772-9.991-24.136-6.446-6.364-14.722-9.661-24.828-9.892-13.486.61-23.708 6.908-30.665 18.893-6.957 11.986-10.452 25.999-10.485 42.041.494 19.866 7.221 36.319 20.179 49.36 12.958 13.04 29.181 19.8 48.668 20.278 26.104-1.041 50.743-12.676 73.917-34.907 23.174-22.231 43.358-48.814 60.553-79.75 17.194-30.936 29.875-59.981 38.043-87.136l37.193-121.076Z" style="fill: rgb(0, 0, 0); fill-opacity: 1;" class="fills" data-testid="svg-path"/></g></g></g></svg>