<svg xmlns:xlink="http://www.w3.org/1999/xlink" width="512" xmlns="http://www.w3.org/2000/svg" height="512" id="screenshot-e896cdf2-4b36-80a4-8004-19427d312b5b" viewBox="0 0 512 512" style="-webkit-print-color-adjust: exact;" fill="none" version="1.1"><g id="shape-e896cdf2-4b36-80a4-8004-19427d312b5b"><defs><clipPath class="frame-clip-def frame-clip" id="frame-clip-e896cdf2-4b36-80a4-8004-19427d312b5b-rumext-id-1"><rect rx="20" ry="20" x="0" y="0" width="512" height="512" transform="matrix(1.000000, 0.000000, 0.000000, 1.000000, 0.000000, 0.000000)"/></clipPath></defs><g clip-path="url(#frame-clip-e896cdf2-4b36-80a4-8004-19427d312b5b-rumext-id-1)" fill="none"><clipPath class="frame-clip-def frame-clip" id="frame-clip-e896cdf2-4b36-80a4-8004-19427d312b5b-rumext-id-1"><rect rx="20" ry="20" x="0" y="0" width="512" height="512" transform="matrix(1.000000, 0.000000, 0.000000, 1.000000, 0.000000, 0.000000)"/></clipPath><g class="fills" id="fills-e896cdf2-4b36-80a4-8004-19427d312b5b"><rect rx="20" ry="20" x="0" y="0" transform="matrix(1.000000, 0.000000, 0.000000, 1.000000, 0.000000, 0.000000)" width="512" height="512" class="frame-background"/></g><g class="frame-children"><g id="shape-e896cdf2-4b36-80a4-8004-1942f2265359"><g class="fills" id="fills-e896cdf2-4b36-80a4-8004-1942f2265359"><path rx="0" ry="0" d="M449.946,193.741L449.946,193.853C449.047,193.853,448.484,194.078,447.698,194.190C446.239,194.615,444.811,195.140,443.426,195.764L220.061,293.788C223.830,308.485,219.157,324.062,207.920,334.257C202.749,338.753,196.679,342.126,189.934,344.037C183.367,345.963,176.543,346.873,169.700,346.735C154.505,346.544,139.609,342.482,126.421,334.931C111.378,326.302,99.038,313.650,90.786,298.397C76.003,298.807,61.933,304.838,51.441,315.259C40.092,327.230,33.532,342.950,33.006,359.437C32.562,375.775,36.316,391.954,43.910,406.426C51.847,423.073,64.618,436.941,80.556,446.220C88.538,450.717,97.418,453.527,106.636,454.314C115.825,455.201,125.091,453.811,133.615,450.267C148.335,443.445,159.853,431.202,165.765,416.094C171.482,402.346,173.121,387.244,170.487,372.590L309.429,311.212L329.664,357.077C330.341,358.428,331.092,359.742,331.912,361.011C332.699,362.135,333.935,363.260,335.172,363.822C336.521,364.496,338.095,364.608,339.556,364.496C341.024,364.355,342.444,363.895,343.715,363.147L373.842,349.658C375.062,349.089,376.229,348.412,377.327,347.634C378.389,346.753,379.170,345.581,379.575,344.262C379.953,342.977,379.953,341.612,379.575,340.327C379.350,338.978,378.676,337.854,378.226,336.618L357.317,289.741L392.165,274.566L413.524,324.477C414.064,325.805,414.782,327.053,415.660,328.187C416.559,329.423,417.683,330.322,419.145,330.772C420.541,331.166,422.020,331.166,423.416,330.772C424.816,330.491,426.175,330.038,427.463,329.423L457.815,316.158C458.939,315.596,460.288,315.034,461.187,314.135C462.211,313.261,462.921,312.077,463.211,310.763C463.507,309.463,463.468,308.109,463.098,306.828C462.757,305.539,462.267,304.294,461.637,303.119L439.154,254.106L467.257,241.516L470.630,239.830C471.642,239.169,472.488,238.285,473.103,237.244C473.762,236.168,474.039,234.901,473.890,233.647C473.890,232.523,473.215,231.399,472.766,230.275L458.377,200.261C457.702,198.912,457.140,197.563,456.016,196.438C454.413,194.809,452.231,193.880,449.946,193.853L449.946,193.741ZM97.418,346.622L98.542,346.622C108.772,346.622,119.114,354.491,124.397,365.845C131.255,381.021,127.095,397.883,115.067,403.391C103.039,408.787,87.751,400.918,80.781,385.742C73.924,370.566,78.083,353.817,89.999,348.309C92.362,347.341,94.869,346.772,97.418,346.622ZM298.863,82.227C276.729,82.355,256.340,94.263,245.354,113.478C233.829,92.750,211.200,80.731,187.574,82.789C156.655,85.737,132.811,111.318,132.042,142.368C131.729,155.738,135.239,168.919,142.159,180.363C148.903,191.717,158.571,201.385,169.587,208.691C191.845,223.305,219.049,228.476,245.579,228.589C273.008,228.813,301.336,223.755,324.268,208.579C335.780,201.034,345.335,190.863,352.146,178.902C358.891,166.874,362.264,153.047,361.139,139.333C358.283,107.893,332.544,83.453,300.998,82.227L298.863,82.227ZM192.520,101.674C203.664,101.703,214.400,105.870,222.646,113.365C231.302,121.234,236.698,132.813,237.148,144.504L207.133,145.178C207.761,140.800,206.447,136.367,203.536,133.037C200.587,129.761,196.366,127.917,191.958,127.979C187.611,128.084,183.517,130.049,180.716,133.375C177.979,136.785,176.833,141.205,177.569,145.515L148.117,146.190C148.117,134.948,152.613,123.820,160.482,115.838C168.848,107.133,180.336,102.117,192.407,101.899L192.520,101.674ZM299.987,101.674C323.838,101.823,343.423,120.569,344.615,144.391L314.600,145.178C315.258,140.817,313.986,136.386,311.116,133.037C308.157,129.773,303.942,127.931,299.537,127.979C295.190,128.084,291.097,130.049,288.296,133.375C285.505,136.760,284.316,141.187,285.036,145.515L255.696,146.190C255.696,134.948,260.192,123.820,267.949,115.838C276.342,107.105,287.876,102.087,299.987,101.899L299.987,101.674ZM246.028,149.113L278.516,196.663L249.064,221.956L216.014,199.136L246.028,149.113ZM248.951,53.224L248.839,53.224C309.654,53.561,380.587,48.166,451.744,26.245C448.687,44.217,441.191,61.141,429.936,75.482C419.744,88.493,406.605,98.896,391.603,105.833C398.573,115.726,399.810,118.649,404.756,129.665C410.376,142.368,412.287,155.745,414.985,169.347L437.805,159.792C442.484,157.649,447.385,156.028,452.419,154.958C457.489,154.002,462.721,154.390,467.595,156.082C472.449,157.915,476.721,161.021,479.960,165.075C483.100,169.189,485.706,173.684,487.717,178.452L506.939,220.495C508.933,224.341,510.444,228.419,511.436,232.635C512.318,236.881,512.164,241.277,510.986,245.451C509.721,249.656,507.488,253.506,504.466,256.692C501.413,259.796,497.930,262.446,494.124,264.561C491.727,266.010,489.250,267.324,486.705,268.495L497.946,293.226C500.470,298.206,502.322,303.498,503.454,308.964C504.472,314.474,503.927,320.160,501.881,325.376C499.651,330.502,496.077,334.929,491.539,338.191C486.989,341.343,482.084,343.946,476.925,345.948L423.192,368.768C405.430,414.520,368.671,452.516,323.481,471.851C274.469,492.759,216.351,491.073,168.576,467.467C154.729,477.973,138.219,484.398,120.913,486.015C98.430,488.038,75.498,481.631,56.612,469.265C37.727,456.900,22.776,438.801,12.996,418.454C3.553,398.670,-1.280,376.637,0.293,354.829C1.813,332.858,10.232,311.928,24.350,295.025C38.556,278.462,57.986,267.240,79.432,263.212C67.476,210.573,74.858,155.390,100.229,107.745C89.212,98.189,76.172,88.634,68.303,76.269C58.748,61.093,49.305,43.107,45.821,25.571C112.171,42.932,180.375,52.217,248.951,53.224Z" style="fill: rgb(0, 0, 0); fill-opacity: 1;"/></g></g></g></g></g></svg>