<?xml version="1.0" encoding="UTF-8"?>
<svg width="512px" height="512px" viewBox="0 0 512 512" version="1.1" xmlns="http://www.w3.org/2000/svg" xmlns:xlink="http://www.w3.org/1999/xlink">
    <title>Friendica</title>
    <g id="Friendica" stroke="none" stroke-width="1" fill="none" fill-rule="evenodd">
        <path d="M435.353293,0 C477.684101,0 512,34.3158994 512,76.6467066 L512,435.353293 C512,477.684101 477.684101,512 435.353293,512 L76.6467066,512 C34.3158994,512 0,477.684101 0,435.353293 L0,76.6467066 C0,34.3158994 34.3158994,0 76.6467066,0 L435.353293,0 Z M427.596036,20 L347.929408,20 L347.929408,143.224919 L184,143.224919 L184,246.550162 L347.929408,246.550162 L347.929408,389.674757 L184,389.674757 L184,493 L429.128087,493 C464.365249,493 493.47421,465.446602 491.942159,428.708738 L491.942159,84.2912621 C491.942159,49.0841424 464.365249,20 427.596036,20 Z" fill="#000000" fill-rule="nonzero"></path>
    </g>
</svg>