<svg width="512" xmlns="http://www.w3.org/2000/svg" height="512" fill="none"><g data-testid="ghost"><defs><clipPath id="a" class="frame-clip frame-clip-def"><rect rx="20" ry="20" width="512" height="512"/></clipPath></defs><g clip-path="url(#a)"><g class="fills"><rect rx="20" ry="20" width="512" height="512" class="frame-background"/></g><g class="frame-children"><path d="M256 0c141.29 0 256 114.71 256 256 0 141.29-114.71 256-256 256C114.71 512 0 397.29 0 256 0 114.71 114.71 0 256 0Zm0 50.693c-114.059 0-190.099 76.04-190.099 228.119 0 92.937 56.087 185.663 190.099 175.736 68.436-5.069 200.238-76.04 208.686-174.046C474.258 169.467 348.092 50.693 256 50.693Z" style="fill: rgb(0, 0, 0); fill-opacity: 1;" class="fills" data-testid="ghost"/></g></g></g></svg>