<svg width="512" xmlns="http://www.w3.org/2000/svg" height="512" id="screenshot-58e2ee3b-6ed5-8049-8004-221647775c90" viewBox="0 0 512 512" xmlns:xlink="http://www.w3.org/1999/xlink" fill="none" version="1.1"><g id="shape-58e2ee3b-6ed5-8049-8004-221647775c90"><defs><clipPath id="frame-clip-58e2ee3b-6ed5-8049-8004-221647775c90-render-1" class="frame-clip frame-clip-def"><rect rx="20" ry="20" x="0" y="0" width="512" height="512" transform="matrix(1.000000, 0.000000, 0.000000, 1.000000, 0.000000, 0.000000)"/></clipPath></defs><g clip-path="url(#frame-clip-58e2ee3b-6ed5-8049-8004-221647775c90-render-1)" fill="none"><g class="fills" id="fills-58e2ee3b-6ed5-8049-8004-221647775c90"><rect rx="20" ry="20" x="0" y="0" width="512" height="512" transform="matrix(1.000000, 0.000000, 0.000000, 1.000000, 0.000000, 0.000000)" class="frame-background"/></g><g class="frame-children"><g id="shape-a2e26dde-73a9-8088-8004-3274bf9ea121" rx="0" ry="0" style="fill: rgb(0, 0, 0);"><g id="shape-a2e26dde-73a9-8088-8004-3274bfa189dc"><g class="fills" id="fills-a2e26dde-73a9-8088-8004-3274bfa189dc"><path d="M503.469,204.603L502.749,202.764L433.064,20.901C431.647,17.336,429.136,14.313,425.893,12.263C419.247,8.138,410.732,8.595,404.567,13.410C401.590,15.828,399.430,19.104,398.382,22.793L351.330,166.748L160.803,166.748L113.751,22.793C112.731,19.084,110.567,15.791,107.567,13.383C101.401,8.569,92.886,8.111,86.240,12.237C83.004,14.294,80.496,17.315,79.069,20.874L9.251,202.657L8.558,204.496C-12.050,258.342,5.451,319.327,51.478,354.049L51.718,354.236L52.357,354.689L158.511,434.184L211.027,473.932L243.017,498.084C250.708,503.923,261.346,503.923,269.036,498.084L301.026,473.932L353.543,434.184L460.336,354.209L460.602,353.996C506.521,319.270,523.989,258.392,503.469,204.603ZL503.469,204.603ZM503.469,204.603L502.749,202.764C468.794,209.733,436.798,224.116,409.045,244.884L256.000,360.607C308.117,400.035,353.489,434.291,353.489,434.291L460.282,354.316L460.549,354.103C506.535,319.377,524.031,258.434,503.469,204.603ZL503.469,204.603ZM158.511,434.291L211.027,474.038L243.017,498.191C250.708,504.029,261.346,504.029,269.036,498.191L301.026,474.038L353.543,434.291C353.543,434.291,308.117,399.928,256.000,360.607C203.883,399.928,158.511,434.291,158.511,434.291ZL158.511,434.291ZM102.928,244.884C75.198,224.073,43.208,209.653,9.251,202.657L8.558,204.496C-12.050,258.342,5.451,319.327,51.478,354.049L51.718,354.236L52.357,354.689L158.511,434.184C158.511,434.184,203.830,399.928,256.000,360.501L102.928,244.884Z"/></g></g></g></g></g></g></svg>