<svg xmlns:xlink="http://www.w3.org/1999/xlink" width="512" xmlns="http://www.w3.org/2000/svg" height="512" id="screenshot-e896cdf2-4b36-80a4-8004-193832db4615" viewBox="0 0 512 512" style="-webkit-print-color-adjust: exact;" fill="none" version="1.1"><g id="shape-e896cdf2-4b36-80a4-8004-193832db4615"><defs><clipPath class="frame-clip-def frame-clip" id="frame-clip-e896cdf2-4b36-80a4-8004-193832db4615-rumext-id-1"><rect rx="0" ry="0" x="0" y="0" width="512" height="512" transform="matrix(1.000000, 0.000000, 0.000000, 1.000000, 0.000000, 0.000000)"/></clipPath></defs><g clip-path="url(#frame-clip-e896cdf2-4b36-80a4-8004-193832db4615-rumext-id-1)" fill="none"><clipPath class="frame-clip-def frame-clip" id="frame-clip-e896cdf2-4b36-80a4-8004-193832db4615-rumext-id-1"><rect rx="0" ry="0" x="0" y="0" width="512" height="512" transform="matrix(1.000000, 0.000000, 0.000000, 1.000000, 0.000000, 0.000000)"/></clipPath><g class="fills" id="fills-e896cdf2-4b36-80a4-8004-193832db4615"><rect rx="0" ry="0" x="0" y="0" transform="matrix(1.000000, 0.000000, 0.000000, 1.000000, 0.000000, 0.000000)" width="512" height="512" class="frame-background"/></g><g class="frame-children"><g id="shape-e896cdf2-4b36-80a4-8004-19388b9ccee1"><g fill="none"><g class="fills" id="fills-e896cdf2-4b36-80a4-8004-19388b9ccee1"><rect rx="0" ry="0" x="67" y="0" transform="" width="377.9298969072164" height="512" class="frame-background"/></g><g class="frame-children"><g id="shape-e896cdf2-4b36-80a4-8004-19380d734da4"><g class="fills" id="fills-e896cdf2-4b36-80a4-8004-19380d734da4"><path rx="0" ry="0" d="M135.256,0.000C129.219,0.000,121.171,4.517,111.110,13.550C101.049,22.583,92.397,32.921,85.153,44.564C77.104,57.812,73.080,69.656,73.080,80.094L73.080,83.105C73.080,95.551,73.482,105.387,74.287,112.614C75.897,124.658,79.116,134.896,83.945,143.327C89.982,154.166,98.634,162.798,109.902,169.222C93.403,185.682,81.531,206.358,74.287,231.250C69.055,251.323,66.641,274.408,67.043,300.504C67.446,333.023,72.476,362.733,82.134,389.631C94.610,424.158,113.726,451.459,139.481,471.532C170.067,495.621,209.304,508.970,257.194,511.579C305.084,514.189,344.321,504.654,374.906,482.974C400.260,464.908,418.973,439.414,431.046,406.493C440.302,379.996,444.930,351.291,444.930,320.377L282.547,320.377L309.108,391.438L356.797,389.029L356.797,395.051C356.394,399.468,355.187,404.085,353.175,408.902C350.358,414.924,346.132,420.144,340.498,424.560C333.254,430.582,323.998,434.998,312.730,437.808C299.047,441.020,282.748,442.225,263.834,441.422C229.225,440.217,203.267,429.980,185.963,410.709C166.646,389.431,156.987,355.707,156.987,309.537C156.987,283.843,157.994,264.572,160.006,251.725C162.420,236.469,167.149,224.926,174.192,217.098C181.234,209.269,191.597,203.548,205.280,199.935C217.755,196.723,236.066,194.515,260.212,193.310C277.114,192.909,292.407,195.117,306.090,199.935C317.760,203.949,328.224,209.971,337.480,218.001C344.723,224.424,351.162,231.852,356.797,240.283C360.418,246.305,363.437,252.728,365.851,259.554L368.266,267.382L443.723,268.587L442.515,259.554C440.906,251.524,438.491,243.294,435.271,234.863C431.247,223.622,426.418,212.982,420.784,202.946C413.138,190.098,404.485,178.857,394.827,169.222C411.729,159.988,422.796,145.735,428.028,126.465C431.247,114.822,432.454,99.365,431.650,80.094C431.247,72.065,426.015,60.823,415.955,46.370C407.101,32.319,397.443,20.676,386.979,11.442C376.113,1.405,368.668,-1.807,364.644,1.807C362.229,3.814,361.425,6.223,362.229,9.033C362.632,10.639,364.242,13.851,367.059,18.669C371.888,26.698,375.510,33.925,377.924,40.348C381.546,51.590,383.156,64.035,382.754,77.685L382.150,86.719C382.150,94.748,381.748,100.369,380.943,103.581C379.333,109.201,375.912,113.216,370.681,115.625C364.644,118.435,355.388,119.840,342.913,119.840C336.474,119.840,331.242,118.435,327.218,115.625C324.803,114.420,321.785,111.510,318.163,106.893C314.541,102.276,311.120,99.164,307.901,97.558C302.669,94.347,295.626,92.741,286.773,92.741C268.663,92.741,257.194,101.372,252.365,118.636C247.535,101.372,236.066,92.741,217.956,92.741C208.700,92.741,201.457,94.347,196.225,97.558C193.005,99.164,189.585,102.276,185.963,106.893C182.341,111.510,179.323,114.420,176.908,115.625C172.884,118.435,167.853,119.840,161.817,119.840C149.341,119.840,140.085,118.435,134.049,115.625C128.817,113.216,125.396,109.201,123.787,103.581C122.579,100.369,121.976,94.748,121.976,86.719L121.976,77.685C121.171,64.035,122.780,51.590,126.805,40.348C128.817,33.925,132.238,26.698,137.067,18.669C140.286,13.851,142.097,10.639,142.500,9.033C142.902,6.223,141.896,3.814,139.481,1.807C138.677,0.602,137.268,0.000,135.256,0.000ZZ" style="fill: rgb(0, 0, 0);"/></g></g></g></g></g></g></g></g></svg>