<svg xmlns:xlink="http://www.w3.org/1999/xlink" width="512" xmlns="http://www.w3.org/2000/svg" height="512" id="screenshot-7df70fec-7f90-8051-8004-1c6da38dfa55" viewBox="0 0 512 512" style="-webkit-print-color-adjust: exact;" fill="none" version="1.1"><g id="shape-7df70fec-7f90-8051-8004-1c6da38dfa55"><defs><clipPath class="frame-clip-def frame-clip" id="frame-clip-7df70fec-7f90-8051-8004-1c6da38dfa55-rumext-id-1"><rect rx="20" ry="20" x="0" y="0" width="512" height="512" transform="matrix(1.000000, 0.000000, 0.000000, 1.000000, 0.000000, 0.000000)"/></clipPath></defs><g clip-path="url(#frame-clip-7df70fec-7f90-8051-8004-1c6da38dfa55-rumext-id-1)" fill="none"><clipPath class="frame-clip-def frame-clip" id="frame-clip-7df70fec-7f90-8051-8004-1c6da38dfa55-rumext-id-1"><rect rx="20" ry="20" x="0" y="0" width="512" height="512" transform="matrix(1.000000, 0.000000, 0.000000, 1.000000, 0.000000, 0.000000)"/></clipPath><g class="fills" id="fills-7df70fec-7f90-8051-8004-1c6da38dfa55"><rect rx="20" ry="20" x="0" y="0" transform="matrix(1.000000, 0.000000, 0.000000, 1.000000, 0.000000, 0.000000)" width="512" height="512" class="frame-background"/></g><g class="frame-children"><g id="shape-7df70fec-7f90-8051-8004-1c6d93793633"><g class="fills" id="fills-7df70fec-7f90-8051-8004-1c6d93793633"><path rx="0" ry="0" d="M135.419,233.263C136.763,232.900,137.786,231.797,138.038,230.436C138.290,229.076,137.725,227.706,136.592,226.927C56.220,169.903,87.019,61.665,172.496,31.687C227.407,12.405,280.089,16.668,330.541,44.476C332.695,45.635,335.366,44.942,336.643,42.893C353.597,15.907,386.978,-7.971,419.538,2.531C452.801,13.208,456.673,64.893,421.239,76.743C408.919,80.908,391.378,77.271,375.479,80.732C373.651,81.114,372.127,82.370,371.401,84.091C370.675,85.812,370.840,87.780,371.842,89.356C413.495,156.059,369.496,227.925,301.326,249.162C267.378,259.722,233.880,261.579,200.831,254.735C190.819,252.662,183.642,256.260,179.301,265.530L178.362,267.408C174.021,276.677,176.896,282.172,186.986,283.893C238.377,292.693,288.283,300.202,336.702,306.421C369.085,310.566,395.817,320.657,416.898,336.692C460.193,369.604,453.622,434.664,410.972,467.986C343.448,520.786,168.565,528.177,95.995,478.722C32.343,435.251,81.388,386.558,128.966,365.908C129.195,365.803,129.342,365.574,129.342,365.321C129.342,365.069,129.195,364.840,128.966,364.735C92.182,347.252,61.089,317.040,87.958,274.448C91.165,269.364,97.403,263.360,106.673,256.438C116.470,249.104,122.747,236.609,135.419,233.263ZZM272.169,178.938C289.123,165.386,290.062,129.013,282.670,110.827C278.798,101.323,274.848,95.417,270.819,93.110C174.431,38.433,161.232,222.761,258.324,190.788C263.369,189.145,268.238,182.106,272.169,178.938ZZM339.048,434.076C363.218,412.311,327.491,398.231,311.827,396.002C273.420,390.409,234.975,385.031,196.490,379.869C194.652,379.634,193.009,380.064,191.562,381.159C162.816,403.100,153.781,433.841,197.429,444.694C233.156,453.553,309.422,460.710,339.048,434.076ZZ" style="fill: rgb(0, 0, 0); fill-opacity: 1;"/></g></g></g></g></g></svg>