<svg xmlns:xlink="http://www.w3.org/1999/xlink" width="512" xmlns="http://www.w3.org/2000/svg" height="512" id="screenshot-24b0466e-7c13-801d-8004-20e7dfa57faa" viewBox="0 0 512 512" style="-webkit-print-color-adjust: exact;" fill="none" version="1.1"><g id="shape-24b0466e-7c13-801d-8004-20e7dfa57faa"><defs><clipPath class="frame-clip-def frame-clip" id="frame-clip-24b0466e-7c13-801d-8004-20e7dfa57faa-rumext-id-1"><rect rx="20" ry="20" x="0" y="0" width="512" height="512.0000000000009" transform="matrix(1.000000, 0.000000, 0.000000, 1.000000, 0.000000, 0.000000)"/></clipPath></defs><g clip-path="url(#frame-clip-24b0466e-7c13-801d-8004-20e7dfa57faa-rumext-id-1)" fill="none"><clipPath class="frame-clip-def frame-clip" id="frame-clip-24b0466e-7c13-801d-8004-20e7dfa57faa-rumext-id-1"><rect rx="20" ry="20" x="0" y="0" width="512" height="512.0000000000009" transform="matrix(1.000000, 0.000000, 0.000000, 1.000000, 0.000000, 0.000000)"/></clipPath><g class="fills" id="fills-24b0466e-7c13-801d-8004-20e7dfa57faa"><rect rx="20" ry="20" x="0" y="0" transform="matrix(1.000000, 0.000000, 0.000000, 1.000000, 0.000000, 0.000000)" width="512" height="512.0000000000009" class="frame-background"/></g><g class="frame-children"><g id="shape-24b0466e-7c13-801d-8004-20e7f2511cd3" width="512px" height="266px" version="1.1" xmlns:xlink="http://www.w3.org/1999/xlink" rx="0" ry="0" style="fill: rgb(0, 0, 0);"><g id="shape-24b0466e-7c13-801d-8004-20e7f25807b3"><g class="fills" id="fills-24b0466e-7c13-801d-8004-20e7f25807b3"><path fill-rule="nonzero" rx="0" ry="0" d="M265.439,126.995L259.752,130.892L259.752,145.897L259.752,160.903L265.144,170.841C268.184,176.200,272.791,183.800,275.438,187.697L280.242,194.810L271.713,201.241C256.811,212.349,248.968,216.831,239.361,219.851L230.342,222.774L218.871,217.318C212.499,214.297,201.813,210.205,195.048,208.256C173.971,202.021,142.305,190.328,125.051,182.338L108.482,174.641L86.816,174.641C74.856,174.641,57.013,175.128,47.014,175.713C30.543,176.590,27.602,177.077,15.152,180.585C7.603,182.728,0.838,184.677,0.152,184.872C-0.632,185.164,1.623,189.256,6.721,196.759C19.269,215.272,21.524,217.513,37.602,227.841C51.229,236.610,53.190,237.487,71.327,243.723C81.915,247.328,97.306,252.200,105.345,254.538C119.560,258.533,120.345,258.923,129.266,265.451C134.266,269.251,137.991,272.564,137.599,272.954C137.109,273.344,133.188,274.903,128.874,276.462C103.777,285.231,91.914,291.272,76.817,303.256C72.013,307.154,64.562,314.169,60.249,318.846C55.935,323.621,48.974,329.954,44.759,332.974C40.543,335.995,30.642,343.692,22.799,350.123C10.250,360.451,8.877,361.815,11.819,361.328C17.113,360.549,55.837,359.477,55.837,360.159C55.837,360.549,53.386,363.082,50.347,365.908C45.837,370.097,44.269,372.436,41.131,380.036C39.073,384.908,37.602,389.000,37.896,389.000C40.445,389.000,73.581,375.359,85.640,369.318C101.620,361.328,112.796,356.846,145.932,345.056C156.324,341.354,165.834,337.749,167.010,337.164C168.088,336.579,175.343,331.415,182.990,325.667C194.950,316.703,198.088,313.779,205.832,304.133C210.832,297.995,215.832,292.149,217.107,291.077C218.283,290.005,222.695,286.108,226.910,282.308L234.459,275.585L242.890,274.415C247.596,273.733,257.007,273.149,263.968,273.149C275.830,273.051,276.615,273.149,280.634,275.682C282.889,277.046,286.516,279.287,288.575,280.651C293.183,283.477,293.183,283.477,280.340,287.179C275.242,288.641,265.439,292.636,258.674,296.046L246.321,302.087L240.733,315.046C235.145,327.713,235.047,328.005,234.851,338.041C234.655,344.374,234.949,348.467,235.636,348.954C236.224,349.441,240.733,351.585,245.635,353.728C254.360,357.626,254.851,357.723,266.223,357.821C277.399,358.015,278.379,357.821,289.163,354.118C305.437,348.662,319.261,340.964,329.260,332.000C334.358,327.323,337.887,324.790,338.868,325.082C345.632,327.713,357.201,329.467,371.024,330.149L386.710,330.831L392.102,335.021L397.494,339.210L407.297,335.800L417.199,332.390L422.493,322.744L427.885,313.097L440.139,307.251C446.904,304.036,454.845,300.528,457.786,299.359C460.727,298.190,471.609,293.318,482.001,288.446L500.726,279.677L506.314,271.882L512.000,264.087L511.412,255.610L510.824,247.231L500.824,237.779C492.393,229.887,487.687,226.477,470.531,216.149C449.257,203.287,418.375,187.892,401.121,181.462C390.925,177.564,376.612,174.544,359.750,172.692L350.436,171.621L343.770,165.092C340.044,161.487,333.966,154.764,330.241,150.185L323.378,141.805L304.849,132.451L286.320,123.000L278.673,123.097C271.419,123.097,270.733,123.292,265.439,126.995ZZ" style="fill: rgb(0, 0, 0);"/></g></g></g></g></g></g></svg>