<?xml version="1.0" encoding="UTF-8"?>
<svg width="512px" height="512px" viewBox="0 0 512 512" version="1.1" xmlns="http://www.w3.org/2000/svg" xmlns:xlink="http://www.w3.org/1999/xlink">
    <title>Greatape</title>
    <g id="Greatape" stroke="none" stroke-width="1" fill="none" fill-rule="evenodd">
        <path d="M297.312432,29.2497672 C289.342166,30.3729532 275.475817,32.2585982 258.362015,34.5459753 C253.456046,35.2014642 240.34373,36.9652822 229.223534,38.4646463 C218.103338,39.9640104 206.195214,41.5537048 202.761036,41.9976307 C175.745502,45.4890156 167.287018,46.6318127 139.176709,50.5920832 C137.075171,50.8880338 135.040234,51.4751808 134.654298,51.8965241 C124.841766,62.6178986 114.609997,73.9252315 110.892759,78.1570871 C108.27981,81.1314499 104.246212,85.5707087 101.928216,88.0221066 C99.6102205,90.4735046 94.9474689,95.5545839 91.5662158,99.313394 C85.7135439,105.819553 74.271041,118.225706 70.4485481,122.210342 C69.4673543,123.233095 65.8547774,127.113138 62.4205993,130.832726 C58.9864213,134.552908 54.282638,139.612593 51.9676154,142.077065 C49.6525929,144.542131 46.0548825,148.430494 43.9735625,150.718466 C41.8916478,153.006437 38.4170326,156.75039 36.2512705,159.038362 C31.3345979,164.233542 24.7879543,171.257912 16.334227,180.409797 C12.7365166,184.304103 7.59387215,189.780377 4.90599599,192.578834 C2.21752516,195.376696 0.0101365867,198.134147 5.68434189e-13,198.705248 C-0.0106766137,199.276944 3.12557536,202.89491 6.96828681,206.745834 C13.4863865,213.276952 29.7819331,230.308373 38.6340846,239.841785 C40.7600043,242.130945 44.3969624,246.013365 46.715553,248.469518 C49.0347381,250.925075 52.6324485,254.806307 54.7107952,257.094278 C56.789142,259.38225 59.0393463,261.802745 59.71191,262.473091 C60.383879,263.143437 62.6501392,265.550264 64.7481098,267.821596 C66.8460804,270.092927 71.1698741,274.7592 74.3572671,278.191157 C77.5446601,281.623114 84.1103328,288.709883 88.9473206,293.939532 C93.7843083,299.169181 97.9059167,303.581697 98.1057234,303.745124 C98.3055301,303.90855 104.050568,310.05933 110.873135,317.413524 C117.695108,324.767718 125.439402,333.069191 128.082679,335.861111 C140.456424,348.932856 182.458651,394.150302 200.615493,413.945711 C203.594159,417.193442 206.700678,420.548737 207.518339,421.401527 C208.336001,422.25491 212.751373,427.07629 217.330277,432.116958 C226.503546,442.213746 232.30032,448.531519 236.954746,453.503251 C238.637642,455.300943 244.247691,461.451723 249.422448,467.171651 C260.131731,479.009675 265.763189,485 266.183021,485 C266.34239,485 267.950359,481.857456 269.75635,478.01723 C271.562341,474.177004 274.05041,468.895059 275.28493,466.280234 C276.519451,463.66541 279.328043,457.514629 281.526512,452.611834 C283.724981,447.709038 286.813065,440.889694 288.388921,437.457737 C289.964778,434.02578 291.996146,429.479551 292.904197,427.355007 C295.000383,422.448051 295.385725,421.961931 296.934227,422.273333 C299.588207,422.806995 310.89037,425.188268 333.586867,429.995979 C356.778125,434.908283 362.997704,436.213913 376.402594,438.980873 C380.163837,439.757 386.318597,441.045395 390.07984,441.844105 C431.489189,450.637047 449.720958,454.618711 456.58753,456.367672 C459.575116,457.128943 461.017768,457.274541 461.159893,456.828832 C461.273473,456.470482 461.892517,454.305527 462.534753,452.017555 C464.380587,445.443055 469.732553,427.684237 472.743331,418.143693 C475.813575,408.414763 478.087566,401.132477 479.237644,397.343953 C482.128895,387.817672 489.111426,365.157247 490.865682,359.607282 C491.950347,356.175325 493.695088,350.233137 494.744073,346.401824 L496.650562,339.436289 L504.169479,339.270485 L511.688397,339.104681 L511.844198,317.364199 L512,295.623717 L510.202929,293.295928 C508.41002,290.972895 505.336208,287.392368 488.496545,268.008793 C483.590576,262.361367 478.907606,256.893412 478.089945,255.856991 C476.312497,253.604082 468.147776,243.904866 466.655767,242.273572 C465.26485,240.753408 465.30172,240.540062 467.3652,238.192069 C468.989819,236.342675 470.359327,233.701702 470.359327,232.416873 C470.359327,231.413137 467.067868,228.780484 456.087418,221.000787 C450.036724,216.713663 441.159002,210.378062 436.358883,206.92174 C431.558764,203.465417 424.245006,198.231014 420.106747,195.289337 C415.968488,192.347659 410.663501,188.529421 408.31815,186.804231 C405.973394,185.079042 403.386016,183.207065 402.56895,182.644283 C395.261732,177.610152 380.575938,166.293905 380.569991,165.692495 C380.550368,163.701069 391.470756,152.15127 398.911178,146.294658 L403.629233,142.580419 L406.732779,129.712511 C408.439461,122.635251 410.234749,115.240052 410.721777,113.278934 C411.208806,111.317815 412.126966,107.573862 412.760876,104.959038 C413.395382,102.344213 414.06854,99.6034018 414.257048,98.8676853 C414.513943,97.8645436 414.34268,97.5305592 413.570807,97.5305592 C413.004688,97.5305592 409.695389,96.844762 406.216612,96.0068296 C402.737834,95.1688973 396.145401,93.5797971 391.566497,92.4756281 C369.861302,87.2424135 362.661124,85.5106866 358.265377,84.4647568 C347.986629,82.0204902 340.935117,80.3790936 339.132693,80.0118296 C337.143546,79.6071261 336.152243,77.838554 314.714052,36.4684655 L310.326035,28 L307.833208,28.0594278 C306.461915,28.0921131 301.727804,28.6275579 297.312432,29.2497672 Z M336.881227,89.042065 C338.955412,89.6745563 349.465803,92.3489718 360.237322,94.9847482 C371.00884,97.6199302 381.824869,100.302668 384.272942,100.945859 C386.721014,101.589645 391.348316,102.726821 394.555439,103.474041 L400.386896,104.832352 L400.008854,107.507956 C399.462266,111.374831 397.696093,118.954026 394.855142,129.625533 L392.369088,138.962506 L389.953063,139.542686 C388.624279,139.861904 386.39223,140.443273 384.993417,140.835013 C383.594603,141.226754 382.340003,141.437188 382.205878,141.302843 C382.071754,141.168498 381.747718,138.658744 381.485403,135.726339 L381.008845,130.394152 L365.875307,130.61707 C357.55186,130.739526 339.612386,131.007027 326.010006,131.211516 L301.278243,131.583045 L301.084178,156.532566 L300.890112,181.481492 L313.05629,184.58272 C319.747688,186.288188 331.899029,189.367421 340.05927,191.425396 L354.896073,195.167437 L381.567302,221.768331 C407.980965,248.112423 408.259303,248.366846 410.350699,248.090429 C411.512717,247.937061 419.540021,247.388387 428.189877,246.870624 C436.839732,246.352861 446.053387,245.722153 448.664664,245.468324 C451.275941,245.214496 453.679503,245.114034 454.005913,245.244218 C454.332322,245.374402 455.667635,246.853385 456.973273,248.530319 C458.278912,250.207848 460.415411,252.822224 461.72105,254.339846 C463.026688,255.858063 465.964375,259.326065 468.249243,262.047442 C470.53411,264.768224 476.102659,271.301787 480.623136,276.566801 C485.144207,281.831815 490.652221,288.279184 492.864092,290.894749 C495.075962,293.510314 497.585756,296.298864 498.442729,297.091261 L500,298.532794 L500,315.370496 L500,332.208792 L488.575662,332.209386 C482.292573,332.20998 443.550121,332.388314 402.481852,332.605287 L327.811787,333 L328.163716,329.483254 C328.357781,327.549519 329.043241,318.610824 329.687752,309.619819 C331.722174,281.235585 333.519208,257.713331 335.348289,235.517287 C335.659862,231.737796 335.577963,231.224788 334.615351,230.931132 C334.018911,230.748636 322.84858,227.771053 309.792194,224.314346 C296.735808,220.857044 282.715029,217.136402 278.634909,216.045593 C274.554788,214.954783 267.878227,213.188088 263.798106,212.119273 C259.717986,211.050458 256.044393,209.912687 255.634898,209.591686 C255.044986,209.129206 254.921544,197.867414 255.041426,155.513684 L255.192761,102.01943 L276.854492,97.6871027 C288.768445,95.3039661 302.922754,92.5326558 308.308513,91.5286354 C313.694273,90.5252094 320.103771,89.3214549 322.551844,88.8542199 C328.796951,87.6623543 332.518614,87.711099 336.881227,89.042065 Z M154.845874,156.9639 C174.258383,165.384899 179.367309,167.561394 179.722897,167.561394 C179.918353,167.561394 181.75281,168.321942 183.799206,169.252165 C185.845603,170.181791 188.646152,171.432843 190.021994,172.031483 L192.524062,173.12003 L192.524062,180.198567 L192.524062,187.277105 L172.794232,187.277105 L153.064402,187.277105 L153.219236,208.33707 L153.37407,229.397034 L159.702828,229.566709 L166.031586,229.736383 L166.031586,221.053106 L166.031586,212.369829 L182.515793,212.369829 L199,212.369829 L199,236.184616 L199,260 L162.940797,259.757437 C143.10853,259.623609 126.583701,259.413308 126.219282,259.290234 C125.855452,259.166563 125.370934,257.767345 125.143099,256.180529 C124.915264,254.593116 123.806112,248.455555 122.678121,242.540841 C121.550719,236.626128 120.143675,229.232736 119.552009,226.111082 C117.135307,213.365771 113.460506,195.368314 111.195694,185.187837 L110,179.812617 L113.95621,176.22615 C116.132125,174.253384 123.374579,167.90373 130.050683,162.115675 C139.947683,153.535159 142.405596,151.67531 143.365801,152.043337 C144.013395,152.291874 149.179428,154.506008 154.845874,156.9639 Z" id="Shape" fill="#000000"></path>
    </g>
</svg>