<svg xmlns:xlink="http://www.w3.org/1999/xlink" width="512" xmlns="http://www.w3.org/2000/svg" height="512" id="screenshot-24b0466e-7c13-801d-8004-20e978703030" viewBox="0 0 512 512" style="-webkit-print-color-adjust: exact;" fill="none" version="1.1"><g id="shape-24b0466e-7c13-801d-8004-20e978703030"><defs><clipPath class="frame-clip-def frame-clip" id="frame-clip-24b0466e-7c13-801d-8004-20e978703030-rumext-id-1"><rect rx="20" ry="20" x="0" y="0" width="512" height="512.0000000000018" transform="matrix(1.000000, 0.000000, 0.000000, 1.000000, 0.000000, 0.000000)"/></clipPath></defs><g clip-path="url(#frame-clip-24b0466e-7c13-801d-8004-20e978703030-rumext-id-1)" fill="none"><clipPath class="frame-clip-def frame-clip" id="frame-clip-24b0466e-7c13-801d-8004-20e978703030-rumext-id-1"><rect rx="20" ry="20" x="0" y="0" width="512" height="512.0000000000018" transform="matrix(1.000000, 0.000000, 0.000000, 1.000000, 0.000000, 0.000000)"/></clipPath><g class="fills" id="fills-24b0466e-7c13-801d-8004-20e978703030"><rect rx="20" ry="20" x="0" y="0" transform="matrix(1.000000, 0.000000, 0.000000, 1.000000, 0.000000, 0.000000)" width="512" height="512.0000000000018" class="frame-background"/></g><g class="frame-children"><g id="shape-24b0466e-7c13-801d-8004-20e98b3f6a7c" width="512px" height="308px" version="1.1" xmlns:xlink="http://www.w3.org/1999/xlink" rx="0" ry="0" style="fill: rgb(0, 0, 0);"><g id="shape-24b0466e-7c13-801d-8004-20e98b4c310c"><g class="fills" id="fills-24b0466e-7c13-801d-8004-20e98b4c310c"><path fill-rule="nonzero" rx="0" ry="0" d="M498.710,102.300C499.661,102.305,500.439,102.999,501.378,103.131C503.272,103.396,505.445,102.750,507.257,103.518C508.071,103.864,508.334,104.693,509.049,105.150C510.482,106.067,512.810,106.134,511.717,108.649C511.134,109.990,509.441,111.126,508.314,111.979C507.201,112.823,506.256,113.735,504.998,114.366L504.998,115.024L506.315,115.353C506.315,116.926,506.562,118.751,506.127,120.276C505.488,122.519,503.907,123.933,504.293,126.528C504.386,127.158,504.746,127.636,505.144,128.098L505.489,128.495C505.832,128.894,506.156,129.311,506.315,129.832L508.291,129.832C508.499,131.780,508.525,133.649,506.315,134.109C506.315,135.059,506.536,136.391,505.979,137.220C505.567,137.831,504.853,138.063,504.523,138.763C504.062,139.743,504.214,140.909,503.828,141.912C502.995,144.091,502.010,145.510,501.704,147.929C499.355,149.224,500.590,152.387,500.844,154.511C501.038,156.118,500.268,157.838,500.113,159.446C499.948,161.176,500.468,162.701,500.716,164.382L502.033,164.382C502.063,165.818,502.402,167.235,502.089,168.659C501.862,169.697,500.949,170.615,500.890,171.651C500.828,172.678,501.602,173.615,501.849,174.583C502.096,175.547,501.898,176.576,502.175,177.527C502.613,179.023,504.576,180.671,505.986,181.164L505.986,182.480C504.994,182.975,504.645,183.388,504.339,184.454C502.521,184.738,502.122,186.470,500.386,186.758C500.139,188.280,499.635,188.883,498.080,189.061C497.590,190.685,496.460,190.546,495.188,191.392C493.242,192.692,491.928,194.636,491.822,196.959C488.331,198.017,490.778,203.241,489.306,205.703C488.130,207.674,487.198,209.997,486.414,212.151C486.078,213.082,486.325,214.104,485.834,215.001C484.833,216.839,482.662,218.649,482.082,220.665C481.667,222.106,482.023,223.772,481.845,225.257C481.499,228.187,480.659,230.981,479.786,233.798C479.068,236.105,476.183,236.998,475.682,239.406C473.864,240.073,474.174,241.465,473.291,242.941C472.583,244.122,471.512,244.740,471.875,246.312C471.988,246.800,472.235,247.361,472.510,247.952L472.649,248.250C473.611,250.301,474.698,252.628,471.730,253.556L471.730,255.859C469.974,256.145,469.829,257.876,468.107,258.163C467.962,259.145,467.774,260.175,467.313,261.068C466.825,262.003,465.972,262.617,465.995,263.756C466.022,265.009,466.914,265.916,467.267,267.060C467.810,268.839,467.817,270.800,467.774,272.641C467.751,273.580,467.711,274.659,467.280,275.517C466.690,276.695,465.840,277.107,465.811,278.564C465.781,280.291,466.865,281.596,466.970,283.171C467.105,285.128,463.186,287.977,461.519,288.106C461.058,291.011,458.633,289.835,456.608,290.607C455.481,291.037,454.035,292.297,453.189,293.157C451.403,294.978,451.637,296.917,451.637,299.294L451.638,307.691C451.638,307.806,451.639,307.923,451.639,308.041L451.640,308.401C451.633,310.283,451.462,312.434,449.332,312.786C449.282,314.306,448.228,315.319,448.126,316.739C448.027,318.082,448.966,319.309,448.996,320.683C449.035,322.517,448.169,323.933,447.619,325.619C447.342,326.465,447.434,327.368,447.168,328.209C446.618,329.934,444.664,330.782,443.788,332.268C442.994,333.620,443.077,335.621,443.073,337.136C440.883,338.240,440.932,342.149,441.193,344.375C441.400,346.174,441.114,348.218,441.529,349.964C441.812,351.157,442.691,352.025,442.928,353.262C443.235,354.868,443.126,356.632,443.544,358.195C443.864,359.386,444.799,360.245,445.004,361.486C445.198,362.700,445.428,364.227,445.142,365.434C444.757,367.043,443.080,368.290,445.050,369.383C445.313,371.318,446.420,372.594,446.940,374.375C447.454,376.128,447.102,377.813,447.026,379.583C445.399,379.317,443.347,377.695,442.085,376.622C441.756,377.283,441.196,378.096,441.367,378.879C441.529,379.597,442.280,379.883,442.704,380.416C443.413,381.308,443.959,382.380,444.661,383.302C446.430,385.635,448.136,388.781,448.344,391.758C446.170,392.163,443.936,391.742,442.085,393.075C442.790,393.825,443.660,395.500,442.309,396.168C441.660,396.490,440.867,396.273,440.198,396.533C439.005,397.000,439.727,397.912,440.438,398.340L440.768,401.630C439.315,401.930,437.556,402.028,436.189,402.581C435.316,402.936,434.783,403.726,433.818,403.884C430.942,404.358,427.876,403.894,424.957,404.263C424.957,405.174,425.106,406.299,424.714,407.152C424.236,408.185,422.935,408.418,421.993,408.863C417.964,410.758,415.158,408.886,411.123,408.576C409.552,408.455,408.376,409.623,406.841,409.452C405.342,409.284,404.084,408.366,402.559,408.211C401.914,406.033,400.405,406.674,398.663,406.053C398.269,405.911,397.926,405.679,397.592,405.430L397.092,405.054C396.840,404.869,396.581,404.696,396.298,404.565C395.099,404.016,393.643,403.960,392.348,403.933C391.373,402.265,389.255,402.143,388.396,403.933C387.065,403.933,385.448,404.177,384.170,403.752C383.287,403.456,382.648,402.719,381.752,402.440C380.817,402.147,379.805,402.193,378.913,401.745C378.251,401.413,377.799,400.794,377.127,400.478C376.446,400.156,375.652,400.156,374.977,399.817C372.701,398.675,370.596,396.329,367.974,396.036C367.740,394.575,367.114,394.174,365.668,394.062C365.184,392.496,364.061,392.361,362.855,391.456C361.515,390.455,360.306,388.685,358.735,388.053C356.900,387.316,354.469,388.139,352.493,387.803C349.762,387.346,346.264,385.197,344.107,383.493C342.891,382.532,342.065,381.222,341.063,380.090C338.916,377.672,336.508,375.437,334.166,373.187C332.792,371.870,331.353,369.686,329.436,369.383C329.093,368.201,328.642,367.751,327.460,367.408C327.176,366.040,326.389,365.678,325.576,364.641C324.265,362.970,323.313,360.123,321.201,359.511C321.073,357.833,320.114,357.738,319.367,356.451C318.932,355.701,318.932,354.756,318.896,353.917C315.576,353.200,316.119,348.192,313.296,347.336C313.122,345.797,312.331,345.244,311.511,344.016C311.129,343.442,311.037,342.738,310.661,342.170C310.327,341.667,309.959,341.184,309.586,340.706L309.212,340.229C307.968,338.639,306.774,337.039,306.709,334.832C305.025,334.551,305.269,333.567,304.591,332.242C304.136,331.351,303.336,330.463,302.769,329.622C301.369,327.553,299.861,325.486,298.477,323.409C298.082,322.817,297.394,322.527,297.041,321.901C296.669,321.240,296.662,320.441,296.330,319.764C295.374,317.829,294.541,317.099,294.521,314.760L292.874,314.760C292.828,313.686,292.782,312.493,292.226,311.538C291.850,310.891,291.229,310.467,290.947,309.755C290.666,309.047,290.682,308.253,290.385,307.550C290.264,307.265,290.102,307.011,289.929,306.764L289.578,306.274C289.347,305.946,289.134,305.607,289.013,305.204C288.695,304.146,288.789,302.971,288.353,301.941C288.000,301.107,287.168,300.639,286.814,299.829C286.430,298.949,286.746,297.924,286.423,297.020C286.092,296.094,285.273,295.448,284.888,294.543C284.425,293.455,284.535,292.222,284.131,291.124C283.823,290.286,283.208,289.619,282.927,288.760C281.533,284.495,280.938,279.889,279.030,275.837C278.403,274.507,278.640,272.758,278.304,271.325C277.970,269.900,277.013,268.757,276.585,267.376C276.293,266.436,276.424,265.361,275.604,264.659C273.628,262.966,270.376,264.396,268.171,263.433C264.605,261.875,261.039,260.762,257.335,259.571C256.445,259.285,255.863,258.507,254.961,258.264C253.599,257.898,252.108,258.050,250.743,257.651C249.429,257.268,248.468,256.237,247.090,255.971C245.576,255.679,244.003,255.991,242.479,255.798C241.702,255.700,241.009,255.404,240.327,255.079L239.646,254.750C239.077,254.479,238.498,254.227,237.867,254.093C234.188,253.310,230.087,253.550,226.339,253.556C224.783,253.558,221.495,253.323,220.190,254.223C218.111,255.657,221.445,257.484,221.442,258.819C221.440,259.635,220.780,259.928,220.080,260.196L219.757,260.321C219.059,260.594,218.417,260.920,218.447,261.799C218.532,264.260,221.970,264.789,221.605,267.705C221.249,270.540,217.609,271.234,216.457,273.628C218.296,274.819,217.308,276.220,216.366,277.557L216.190,277.806C215.843,278.304,215.527,278.791,215.394,279.251C215.142,280.125,215.450,281.278,215.469,282.184C216.974,282.301,217.087,283.036,218.202,283.841C219.021,284.430,219.844,284.673,220.513,285.493C220.926,286.002,221.786,287.130,221.123,287.762C220.267,288.579,219.121,286.935,218.399,286.658C216.207,285.818,215.420,287.363,214.810,289.094C213.490,288.611,213.039,287.434,211.846,286.790L211.846,290.081C212.786,290.392,213.864,291.899,212.400,292.485C211.436,292.872,208.876,292.513,207.893,292.199C206.818,291.855,206.000,291.001,204.929,290.641C203.992,290.326,202.944,290.556,202.033,290.167C201.231,289.824,200.754,289.028,199.954,288.666C198.926,288.199,197.750,288.295,196.699,287.926C195.396,287.469,194.037,286.654,192.755,286.086C191.918,285.716,191.249,285.065,190.407,284.712C189.491,284.329,188.459,284.307,187.557,283.882C186.811,283.530,186.295,282.878,185.478,282.654C183.775,282.186,181.945,282.748,180.238,282.135C179.300,281.798,178.741,281.009,177.890,280.541C176.509,279.781,175.461,279.936,174.955,278.235L172.979,278.235C172.705,276.922,171.615,276.050,170.490,275.233L170.068,274.929C169.648,274.625,169.236,274.323,168.875,274.002C167.514,272.792,166.235,271.363,164.976,270.048C164.399,269.445,164.203,268.584,163.379,268.233C161.383,267.381,159.643,268.097,157.939,268.897L157.475,269.116C156.934,269.372,156.395,269.622,155.851,269.820C154.215,270.414,152.293,270.337,150.581,270.338C149.916,272.357,147.106,272.033,145.311,272.339C143.581,272.633,142.082,273.516,140.370,273.811C137.345,274.332,134.198,274.107,131.147,274.315C127.210,274.585,123.239,275.273,119.289,275.273C117.187,275.273,115.090,275.066,112.995,274.836L110.901,274.604C109.854,274.491,108.808,274.387,107.761,274.315C104.816,274.114,101.793,274.327,98.872,273.811C97.576,273.582,96.520,272.807,95.243,272.519C93.661,272.162,91.876,272.280,90.346,271.795C89.445,271.509,88.908,270.677,87.980,270.440C86.699,270.113,85.331,270.350,84.088,269.779C83.305,269.419,82.825,268.658,82.026,268.327C80.988,267.897,79.819,268.119,78.775,267.676C77.176,266.997,75.456,266.291,73.890,265.563C72.145,264.752,71.268,263.846,69.223,263.756C68.517,261.435,64.728,261.543,62.635,261.453L62.635,260.466C57.980,260.453,52.531,260.461,48.378,258.461C46.696,257.652,44.885,258.100,44.519,255.859L42.213,255.859L42.213,254.214C39.936,253.756,38.209,251.785,36.476,250.333C35.518,249.530,34.851,249.244,34.638,247.962C32.984,247.871,32.369,247.069,31.002,246.291C28.792,245.033,26.957,243.826,24.427,243.355C23.901,241.624,22.613,241.961,21.273,241.105C18.627,239.414,15.804,238.011,13.172,236.282C11.653,235.285,10.104,235.618,9.934,233.484L7.628,233.484L7.628,231.838C4.945,231.299,3.105,228.728,1.606,226.603C1.130,225.927,0.382,225.376,0.157,224.557C-0.118,223.556,0.052,222.339,0.052,221.309L3.676,221.309C3.644,219.776,2.751,217.214,3.685,215.857C4.369,214.864,5.938,215.095,6.940,214.637C7.647,214.314,8.213,213.763,8.975,213.552C10.146,213.228,11.396,213.431,12.569,213.034C13.634,212.673,14.438,211.820,15.533,211.540C16.608,211.265,17.746,211.377,18.809,210.995C19.732,210.663,20.277,209.830,21.175,209.472C22.430,208.971,23.830,209.393,25.073,208.936C25.960,208.610,26.547,207.809,27.421,207.453C28.741,206.914,30.280,207.141,31.617,206.651C32.456,206.343,33.124,205.728,33.984,205.448C35.474,204.962,37.111,205.042,38.590,204.518C39.511,204.191,40.277,203.562,41.225,203.301C42.511,202.946,43.896,203.082,45.173,202.741C46.260,202.450,47.045,201.594,48.155,201.348C49.453,201.061,50.820,201.125,52.095,200.697C52.499,200.561,52.867,200.357,53.225,200.136L53.936,199.687C54.293,199.466,54.658,199.262,55.059,199.126C56.114,198.769,57.284,199.124,58.297,198.600C59.041,198.215,59.548,197.514,60.342,197.203C61.378,196.796,62.550,197.100,63.581,196.665C64.300,196.361,64.704,195.697,65.356,195.303C66.475,194.628,67.962,194.666,69.223,194.655L69.223,193.339C71.130,193.187,72.926,192.517,74.822,192.352C75.346,190.862,76.726,191.017,78.087,190.649C79.070,190.383,79.825,189.730,80.756,189.355C81.699,188.976,82.739,188.988,83.711,188.713C84.864,188.387,85.601,187.471,86.693,187.051C87.850,186.606,89.117,186.960,90.274,186.574C91.354,186.213,92.163,185.339,93.269,184.989C94.770,184.514,96.378,184.719,97.866,184.313C98.964,184.014,99.708,183.103,100.849,182.883C102.548,182.554,104.420,182.792,106.084,182.377C107.163,182.108,107.963,181.293,109.080,181.043C111.458,180.511,113.965,180.782,116.312,180.184C117.392,179.909,118.181,179.078,119.294,178.909C122.094,178.483,125.041,178.838,127.853,178.387C129.569,178.111,131.088,177.129,132.794,176.929C136.705,176.470,140.732,176.876,144.652,176.501C148.225,176.160,151.574,174.754,155.192,174.596C165.907,174.127,176.745,174.583,187.472,174.583C190.691,174.583,194.183,175.125,197.353,174.855C198.171,174.785,199.203,174.690,199.914,174.250C201.214,173.447,201.245,172.412,202.953,172.279C203.078,169.975,205.089,168.928,205.258,166.686L207.235,166.357L207.235,164.382C208.550,164.173,209.001,163.722,209.211,162.408C210.780,161.943,211.189,160.376,212.834,160.104C213.129,158.682,213.716,158.095,215.140,157.801C215.541,155.373,218.728,154.550,219.422,152.207C221.215,151.922,221.581,150.189,223.374,149.904C223.652,148.627,224.254,148.512,225.177,147.706C226.442,146.601,227.666,145.507,229.068,144.535C230.148,143.786,230.994,143.557,231.609,142.336C233.983,141.956,234.952,140.056,237.538,140.032C237.994,137.845,239.860,137.769,241.820,137.729C242.093,136.156,243.519,135.899,244.962,135.705L245.338,135.655C245.838,135.588,246.328,135.515,246.761,135.383C247.659,135.110,248.455,134.618,249.396,134.485C251.850,134.138,254.568,134.387,256.954,133.643C257.872,133.356,258.398,132.489,259.320,132.238C260.515,131.913,261.716,132.096,262.883,131.542C263.677,131.164,264.167,130.367,264.962,130.028C265.652,129.734,266.446,129.885,267.139,129.587C267.917,129.252,268.227,128.415,268.966,128.050C269.633,127.720,270.423,127.780,271.093,127.425C271.764,127.069,272.180,126.391,272.867,126.067C273.913,125.573,275.272,125.577,276.405,125.554C276.724,123.719,278.186,123.970,279.699,123.505C280.661,123.211,281.405,122.532,282.334,122.172C283.374,121.769,284.565,121.873,285.585,121.421C286.270,121.118,286.679,120.450,287.360,120.156C288.659,119.594,290.207,119.819,291.514,119.166C292.176,118.835,292.614,118.193,293.289,117.899C294.087,117.552,294.999,117.773,295.806,117.459C296.626,117.140,297.087,116.333,297.884,115.975C299.189,115.389,300.720,115.571,302.084,115.256C304.199,114.768,305.773,113.870,308.026,113.652C310.888,113.375,314.021,112.808,316.590,114.366C315.763,115.478,315.101,116.245,314.943,117.657C313.232,118.175,313.157,119.857,313.053,121.555L313.023,122.018C312.911,123.556,312.651,125.022,310.991,125.554C310.948,129.025,306.962,130.732,306.709,134.109C304.699,134.759,305.961,136.629,307.677,136.346C308.685,136.180,308.787,135.269,309.192,134.522C309.571,133.835,310.282,133.437,310.655,132.751C311.122,131.887,310.991,130.779,310.991,129.832C312.588,129.577,312.848,128.631,313.698,127.389C314.745,125.857,315.895,123.906,316.633,122.221C317.829,119.486,317.641,117.689,321.201,117.657C321.201,119.167,321.626,121.434,321.004,122.831C320.701,123.511,319.956,123.778,319.548,124.374C319.110,125.014,319.083,125.837,318.754,126.528C317.786,128.575,316.310,129.928,318.566,131.806C319.057,130.292,320.381,129.825,320.958,128.480C321.317,127.640,320.951,126.204,321.966,125.765C323.089,125.279,324.904,125.951,326.142,125.827C327.832,125.657,328.435,124.756,329.835,124.076C330.763,123.625,335.609,122.810,335.306,124.824C335.217,125.431,334.541,125.662,334.100,125.963C333.478,126.391,332.990,127.005,332.331,127.380C331.659,127.762,330.839,127.778,330.184,128.189C328.105,129.496,326.419,131.791,324.660,133.492C323.003,135.094,320.737,136.826,319.561,138.806C317.384,142.475,322.621,144.726,323.253,147.615C323.734,149.821,323.869,152.991,323.066,155.134C322.740,155.997,321.962,156.431,321.534,157.212C321.070,158.067,321.201,159.166,321.201,160.104L325.483,160.104C325.892,158.871,327.427,158.252,328.507,159.316C329.298,160.095,329.383,161.374,329.436,162.408L331.083,162.408C331.215,164.372,332.529,165.065,333.191,166.742C333.807,168.302,333.389,170.620,333.389,172.279C331.916,172.509,331.313,173.113,331.083,174.583C329.607,174.695,328.844,175.597,328.161,176.548L327.891,176.929C327.263,177.817,326.632,178.662,325.483,178.861L325.483,182.480C327.703,182.652,329.364,186.084,331.083,182.809C333.886,182.445,336.356,180.647,338.715,179.186C340.006,178.386,341.053,178.437,341.623,176.886C342.618,176.805,343.665,176.704,344.545,176.184C345.200,175.797,345.615,175.080,346.320,174.780C347.117,174.441,348.040,174.675,348.856,174.390C349.729,174.087,350.368,173.365,351.205,172.985C353.521,171.932,356.847,171.133,358.092,168.660C360.760,168.304,362.569,165.988,364.766,164.719C365.523,164.281,366.465,164.496,367.216,164.049C367.826,163.688,368.079,162.960,368.731,162.652C369.519,162.280,370.451,162.492,371.268,162.214C372.338,161.850,373.149,160.997,374.232,160.647C376.314,159.975,379.272,160.873,380.161,158.459C382.602,158.334,383.840,156.412,386.090,156.156C386.403,154.724,387.243,154.608,388.340,153.784C390.458,152.199,392.961,151.109,395.270,149.777C396.561,149.032,397.022,148.108,398.607,147.929C398.880,146.290,400.860,144.912,402.246,144.077C404.423,142.765,406.268,141.040,408.366,139.706C409.865,138.753,410.537,137.851,412.441,137.729C412.727,136.010,414.974,134.711,416.393,133.808C419.387,131.907,422.009,129.475,424.809,127.370C431.789,122.120,439.236,116.480,447.685,114.206C449.503,113.717,450.672,114.863,452.309,115.260C454.104,115.694,456.397,115.569,458.212,115.306C458.763,115.226,459.255,114.998,459.737,114.743L460.314,114.430C460.701,114.223,461.094,114.029,461.519,113.909C463.130,113.454,464.852,113.666,466.446,113.276C467.428,113.036,468.139,112.260,469.108,111.971C470.366,111.597,471.792,111.758,473.004,111.221C473.785,110.874,474.246,110.123,475.066,109.834C476.206,109.433,477.481,109.534,478.614,109.092C479.375,108.795,479.898,108.102,480.692,107.888C482.557,107.385,484.632,107.934,486.552,107.463C487.705,107.180,488.479,106.426,489.516,105.914C491.368,104.998,493.275,105.842,494.128,103.507C495.709,103.365,497.158,102.292,498.710,102.300ZZM41.419,211.088C36.183,211.088,31.938,215.333,31.938,220.569C31.938,225.806,36.183,230.051,41.419,230.051C46.656,230.051,50.901,225.806,50.901,220.569C50.901,215.333,46.656,211.088,41.419,211.088ZZ" style="fill: rgb(0, 0, 0);"/></g></g></g></g></g></g></svg>