<svg width="512" xmlns="http://www.w3.org/2000/svg" height="512" fill="none"><g data-testid="hollo"><defs><clipPath id="a" class="frame-clip frame-clip-def"><rect rx="20" ry="20" width="512" height="512"/></clipPath></defs><g clip-path="url(#a)"><g class="fills"><rect rx="20" ry="20" width="512" height="512" class="frame-background"/></g><g data-testid="hollo" style="fill: rgb(0, 0, 0);" class="frame-children"><g data-testid="svg-circle"><circle cx="303.801" cy="303.801" transform="rotate(180 303.8 303.8)" style="fill: rgb(0, 0, 0); fill-opacity: 1;" r="208.199" class="fills"/><g class="strokes"><circle cx="303.801" cy="303.801" transform="rotate(180 303.8 303.8)" style="fill: none; stroke-width: 0.0867594; stroke: rgb(255, 255, 255); stroke-opacity: 1;" r="208.199" class="stroke-shape"/></g></g><path d="m119.166 209.13-5.501 20.598-42.212-11.168-10.309 38.604 42.212 11.168-5.501 20.597L0 263.041l5.501-20.598 38.374 10.153 10.31-38.604L15.81 203.84l5.501-20.598Zm31.573-98.892c4.791 4.266 8.455 8.728 10.992 13.385 2.6 4.588 4.1 9.269 4.501 14.045.394 4.643-.284 9.279-2.034 13.907-1.821 4.566-4.685 9.023-8.593 13.371-3.593 3.997-7.568 7.149-11.925 9.457-4.364 2.174-8.917 3.359-13.66 3.555-4.813.133-9.718-.761-14.713-2.684-4.932-1.992-9.793-5.122-14.585-9.388-6.412-5.709-10.793-11.63-13.145-17.764-2.422-6.197-2.905-12.434-1.448-18.713 1.457-6.278 4.77-12.292 9.938-18.043 4.854-5.4 10.303-9.134 16.347-11.201 6.044-2.067 12.357-2.317 18.94-.749 6.511 1.505 12.973 5.112 19.385 10.822Zm-35.645 39.658c3.805 3.388 7.357 5.857 10.658 7.407 3.293 1.417 6.397 1.845 9.311 1.283 2.844-.623 5.527-2.338 8.048-5.143 2.522-2.806 3.905-5.614 4.149-8.427.237-2.945-.566-5.933-2.409-8.963-1.851-3.163-4.679-6.438-8.484-9.826-3.804-3.387-7.353-5.79-10.646-7.207-3.23-1.487-6.267-1.919-9.112-1.295-2.844.624-5.526 2.339-8.048 5.144-3.719 4.138-4.985 8.44-3.798 12.905 1.18 4.333 4.623 9.041 10.331 14.122Zm99.302-32.387-18.261 10.58-54.223-92.706 18.261-10.58Zm40.263-15.685-20.057 6.616L200.697 6.616 220.754 0Zm91.63-46.147c.04 6.399-.822 12.097-2.587 17.095-1.67 4.998-4.149 9.248-7.436 12.75-3.193 3.407-7.1 6.019-11.722 7.836-4.621 1.722-9.863 2.602-15.724 2.638-5.389.037-10.405-.778-15.048-2.447-4.549-1.759-8.489-4.323-11.819-7.69-3.33-3.46-5.957-7.679-7.879-12.654-1.827-4.976-2.761-10.663-2.801-17.061-.054-8.563 1.413-15.771 4.402-21.624 2.988-5.946 7.308-10.49 12.961-13.63 5.653-3.141 12.356-4.735 20.108-4.783 7.279-.045 13.718 1.467 19.315 4.538 5.597 3.07 10.022 7.559 13.273 13.467 3.251 5.814 4.903 13.002 4.957 21.565Zm-53.462.332c.032 5.082.579 9.36 1.641 12.835 1.156 3.38 2.921 5.957 5.296 7.73 2.374 1.679 5.451 2.507 9.233 2.483 3.782-.022 6.801-.888 9.06-2.597 2.352-1.802 4.038-4.4 5.056-7.794 1.113-3.489 1.653-7.774 1.621-12.855-.032-5.081-.626-9.312-1.781-12.692-1.061-3.381-2.779-5.911-5.153-7.59-2.374-1.679-5.452-2.507-9.234-2.483-5.577.037-9.63 1.991-12.159 5.862-2.434 3.779-3.627 9.48-3.58 17.101Z" style="font-weight: bold; font-size: 12.7px; font-family: &quot;Droid Sans Armenian&quot;; white-space: pre; fill: rgb(0, 0, 0); fill-opacity: 1;" class="fills" data-testid="svg-path"/></g></g></g></svg>