<svg width="512" xmlns="http://www.w3.org/2000/svg" height="512" fill="none"><defs><clipPath id="a" class="frame-clip frame-clip-def"><rect rx="20" ry="20" width="512" height="512"/></clipPath></defs><g clip-path="url(#a)"><g class="fills"><rect rx="20" ry="20" width="512" height="512" class="frame-background"/></g><g class="frame-children"><path d="M220.935 472.016c-7.287-7.288-7.287-19.121 0-26.409l79.46-79.46c7.034-8.157 17.443-13.324 29.049-13.324 21.165 0 38.348 17.183 38.348 38.348 0 10.005-3.839 19.12-10.124 25.95a38.653 38.653 0 0 1 25.13-9.277c21.165 0 38.348 17.183 38.348 38.348 0 10.342-4.102 19.733-10.767 26.633l.134.134c-52.055 52.055-136.58 52.055-188.635 0l-.943-.943Zm135.23-53.405c.474-.457.959-.902 1.455-1.335M272.028 6.344c8.459-8.459 22.194-8.459 30.653 0l15.327 15.327c78.082 78.082 78.082 204.868 0 282.951L195.395 427.234c-8.459 8.459-22.194 8.459-30.653 0l-15.326-15.326c-78.083-78.083-78.083-204.869 0-282.952L272.028 6.344Zm-3.44 106.387c-30.828 0-55.855 25.028-55.855 55.855 0 30.827 25.027 55.854 55.855 55.854 30.827 0 55.854-25.027 55.854-55.854 0-30.827-25.027-55.855-55.854-55.855Z" style="fill: rgb(0, 0, 0); fill-opacity: 1;" class="fills"/></g></g></svg>