<svg xmlns:xlink="http://www.w3.org/1999/xlink" width="512" xmlns="http://www.w3.org/2000/svg" height="512" id="screenshot-24b0466e-7c13-801d-8004-20e977ac2e51" viewBox="0 0 512 512" style="-webkit-print-color-adjust: exact;" fill="none" version="1.1"><g id="shape-24b0466e-7c13-801d-8004-20e977ac2e51"><defs><clipPath class="frame-clip-def frame-clip" id="frame-clip-24b0466e-7c13-801d-8004-20e977ac2e51-rumext-id-7"><rect rx="20" ry="20" x="0" y="0" width="512" height="512.0000000000009" transform="matrix(1.000000, 0.000000, 0.000000, 1.000000, 0.000000, 0.000000)"/></clipPath></defs><g clip-path="url(#frame-clip-24b0466e-7c13-801d-8004-20e977ac2e51-rumext-id-7)" fill="none"><clipPath class="frame-clip-def frame-clip" id="frame-clip-24b0466e-7c13-801d-8004-20e977ac2e51-rumext-id-7"><rect rx="20" ry="20" x="0" y="0" width="512" height="512.0000000000009" transform="matrix(1.000000, 0.000000, 0.000000, 1.000000, 0.000000, 0.000000)"/></clipPath><g class="fills" id="fills-24b0466e-7c13-801d-8004-20e977ac2e51"><rect rx="20" ry="20" x="0" y="0" transform="matrix(1.000000, 0.000000, 0.000000, 1.000000, 0.000000, 0.000000)" width="512" height="512.0000000000009" class="frame-background"/></g><g class="frame-children"><g id="shape-24b0466e-7c13-801d-8004-20ea3599ac5f" rx="0" ry="0" style="fill: rgb(0, 0, 0);"><g id="shape-24b0466e-7c13-801d-8004-20ea676070d8" rx="0" ry="0"><g id="shape-24b0466e-7c13-801d-8004-20ea359c921f"><g class="fills" id="fills-24b0466e-7c13-801d-8004-20ea359c921f"><path fill-rule="evenodd" rx="0" ry="0" d="M263.222,205.302L283.349,216.977C283.367,216.988,283.385,216.998,283.403,217.008L303.572,228.598C308.240,231.280,311.113,236.259,311.099,241.643L311.056,257.901L311.056,257.971L311.104,281.235C311.115,286.616,308.243,291.590,303.577,294.271L283.403,305.864C283.385,305.874,283.367,305.884,283.349,305.895L263.222,317.570C258.568,320.270,252.824,320.270,248.169,317.570L228.042,305.895C228.025,305.884,228.007,305.874,227.989,305.864L207.815,294.271C203.149,291.590,200.277,286.616,200.288,281.235L200.336,257.971L200.336,257.901L200.293,241.643C200.279,236.259,203.151,231.280,207.820,228.598L227.989,217.008C228.007,216.998,228.025,216.988,228.042,216.977L248.169,205.302C252.824,202.602,258.568,202.602,263.222,205.302ZZM261.119,224.201C258.016,222.401,254.186,222.401,251.083,224.201L237.628,232.006L237.593,232.027L224.109,239.775C220.997,241.563,219.082,244.882,219.091,248.472L219.120,259.344L219.120,259.391L219.088,274.943C219.081,278.530,220.995,281.846,224.106,283.634L237.593,291.383L237.628,291.404L251.083,299.209C254.186,301.009,258.016,301.009,261.119,299.209L274.574,291.404L274.609,291.383L288.096,283.634C291.206,281.846,293.121,278.530,293.114,274.943L293.082,259.391L293.082,259.344L293.110,248.472C293.120,244.882,291.205,241.563,288.093,239.775L274.609,232.027L274.574,232.006Z" style="fill: rgb(0, 0, 0);"/></g></g><g id="shape-24b0466e-7c13-801d-8004-20ea359df867"><g class="fills" id="fills-24b0466e-7c13-801d-8004-20ea359df867"><path fill-rule="evenodd" rx="0" ry="0" d="M108.222,143.302L128.349,154.977C128.367,154.988,128.385,154.998,128.403,155.008L148.572,166.598C153.240,169.280,156.113,174.259,156.099,179.643L156.056,195.901L156.056,195.971L156.104,219.235C156.115,224.616,153.243,229.590,148.577,232.271L128.403,243.864C128.385,243.874,128.367,243.884,128.349,243.895L108.222,255.570C103.568,258.270,97.824,258.270,93.169,255.570L73.042,243.895C73.025,243.884,73.007,243.874,72.989,243.864L52.815,232.271C48.149,229.590,45.277,224.616,45.288,219.235L45.336,195.971L45.336,195.901L45.293,179.643C45.279,174.259,48.151,169.280,52.820,166.598L72.989,155.008C73.007,154.998,73.025,154.988,73.042,154.977L93.169,143.302C97.824,140.602,103.568,140.602,108.222,143.302ZZM106.119,162.201C103.016,160.401,99.186,160.401,96.083,162.201L82.628,170.006L82.593,170.027L69.109,177.775C65.997,179.563,64.082,182.882,64.091,186.472L64.120,197.344L64.120,197.391L64.088,212.943C64.081,216.530,65.995,219.846,69.106,221.634L82.593,229.383L82.628,229.404L96.083,237.209C99.186,239.009,103.016,239.009,106.119,237.209L119.574,229.404L119.609,229.383L133.096,221.634C136.206,219.846,138.121,216.530,138.114,212.943L138.082,197.391L138.082,197.344L138.110,186.472C138.120,182.882,136.205,179.563,133.093,177.775L119.609,170.027L119.574,170.006Z" style="fill: rgb(0, 0, 0);"/></g></g><g id="shape-24b0466e-7c13-801d-8004-20ea359f1b92"><g class="fills" id="fills-24b0466e-7c13-801d-8004-20ea359f1b92"><path fill-rule="evenodd" rx="0" ry="0" d="M418.222,142.302L438.349,153.977C438.367,153.988,438.385,153.998,438.403,154.008L458.572,165.598C463.240,168.280,466.113,173.259,466.099,178.643L466.056,194.901L466.056,194.971L466.104,218.235C466.115,223.616,463.243,228.590,458.577,231.271L438.403,242.864C438.385,242.874,438.367,242.884,438.349,242.895L418.222,254.570C413.568,257.270,407.824,257.270,403.169,254.570L383.042,242.895C383.025,242.884,383.007,242.874,382.989,242.864L362.815,231.271C358.149,228.590,355.277,223.616,355.288,218.235L355.336,194.971L355.336,194.901L355.293,178.643C355.279,173.259,358.151,168.280,362.820,165.598L382.989,154.008C383.007,153.998,383.025,153.988,383.042,153.977L403.169,142.302C407.824,139.602,413.568,139.602,418.222,142.302ZZM416.119,161.201C413.016,159.401,409.186,159.401,406.083,161.201L392.628,169.006L392.593,169.027L379.109,176.775C375.997,178.563,374.082,181.882,374.091,185.472L374.120,196.344L374.120,196.391L374.088,211.943C374.081,215.530,375.995,218.846,379.106,220.634L392.593,228.383L392.628,228.404L406.083,236.209C409.186,238.009,413.016,238.009,416.119,236.209L429.574,228.404L429.609,228.383L443.096,220.634C446.206,218.846,448.121,215.530,448.114,211.943L448.082,196.391L448.082,196.344L448.110,185.472C448.120,181.882,446.205,178.563,443.093,176.775L429.609,169.027L429.574,169.006Z" style="fill: rgb(0, 0, 0);"/></g></g><g id="shape-24b0466e-7c13-801d-8004-20ea35a01203"><g class="fills" id="fills-24b0466e-7c13-801d-8004-20ea35a01203"><path fill-rule="evenodd" rx="0" ry="0" d="M264.222,62.302L284.349,73.977C284.367,73.988,284.385,73.998,284.403,74.008L304.572,85.598C309.240,88.280,312.113,93.259,312.099,98.643L312.056,114.901L312.056,114.971L312.104,138.235C312.115,143.616,309.243,148.590,304.577,151.271L284.403,162.864C284.385,162.874,284.367,162.884,284.349,162.895L264.222,174.570C259.568,177.270,253.824,177.270,249.169,174.570L229.042,162.895C229.025,162.884,229.007,162.874,228.989,162.864L208.815,151.271C204.149,148.590,201.277,143.616,201.288,138.235L201.336,114.971L201.336,114.901L201.293,98.643C201.279,93.259,204.151,88.280,208.820,85.598L228.989,74.008C229.007,73.998,229.025,73.988,229.042,73.977L249.169,62.302C253.824,59.602,259.568,59.602,264.222,62.302ZZM262.119,81.201C259.016,79.401,255.186,79.401,252.083,81.201L238.628,89.006L238.593,89.027L225.109,96.775C221.997,98.563,220.082,101.882,220.091,105.472L220.120,116.344L220.120,116.391L220.088,131.943C220.081,135.530,221.995,138.846,225.106,140.634L238.593,148.383L238.628,148.404L252.083,156.209C255.186,158.009,259.016,158.009,262.119,156.209L275.574,148.404L275.609,148.383L289.096,140.634C292.206,138.846,294.121,135.530,294.114,131.943L294.082,116.391L294.082,116.344L294.110,105.472C294.120,101.882,292.205,98.563,289.093,96.775L275.609,89.027L275.574,89.006Z" style="fill: rgb(0, 0, 0);"/></g></g></g><g id="shape-24b0466e-7c13-801d-8004-20ea62b52207" rx="0" ry="0"><g id="shape-24b0466e-7c13-801d-8004-20ea35a0ade6"><g class="fills" id="fills-24b0466e-7c13-801d-8004-20ea35a0ade6"><path fill-rule="evenodd" rx="0" ry="0" d="M348.232,312.472C353.478,312.472,357.732,316.725,357.732,321.972L357.732,387.972C357.732,389.592,357.326,391.118,356.611,392.452C355.832,394.280,354.476,395.880,352.624,396.949L259.959,450.449C258.498,451.292,256.907,451.704,255.333,451.723L254.940,451.723C253.366,451.704,251.775,451.292,250.314,450.449L157.649,396.949C155.140,395.500,153.542,393.080,153.055,390.437C152.844,389.651,152.732,388.825,152.732,387.972L152.732,321.972C152.732,316.725,156.985,312.472,162.232,312.472C167.478,312.472,171.732,316.725,171.732,321.972L171.732,383.140L255.136,431.293L338.732,383.029L338.732,321.972C338.732,316.816,342.840,312.619,347.961,312.476Z" style="fill: rgb(0, 0, 0);"/></g></g><g id="shape-24b0466e-7c13-801d-8004-20ea35a1479f"><g class="fills" id="fills-24b0466e-7c13-801d-8004-20ea35a1479f"><path fill-rule="evenodd" rx="0" ry="0" d="M9.232,253.472C14.478,253.472,18.732,257.725,18.732,262.972L18.732,324.140L102.136,372.293L154.617,341.995C159.079,339.418,164.763,340.874,167.450,345.231L167.594,345.472C170.217,350.016,168.660,355.826,164.117,358.449L106.959,391.449C105.498,392.292,103.907,392.704,102.333,392.723L101.940,392.723C100.366,392.704,98.775,392.292,97.314,391.449L4.649,337.949C2.140,336.500,0.542,334.080,0.055,331.437C-0.156,330.651,-0.268,329.825,-0.268,328.972L-0.268,262.972C-0.268,257.725,3.985,253.472,9.232,253.472ZZ" style="fill: rgb(0, 0, 0);"/></g></g><g id="shape-24b0466e-7c13-801d-8004-20ea35a2166b"><g class="fills" id="fills-24b0466e-7c13-801d-8004-20ea35a2166b"><path fill-rule="evenodd" rx="0" ry="0" d="M502.768,253.472C497.522,253.472,493.268,257.725,493.268,262.972L493.268,324.140L409.864,372.293L357.383,341.995C352.921,339.418,347.237,340.874,344.550,345.231L344.406,345.472C341.783,350.016,343.340,355.826,347.883,358.449L405.041,391.449C406.502,392.292,408.093,392.704,409.667,392.723L410.060,392.723C411.634,392.704,413.225,392.292,414.686,391.449L507.351,337.949C509.860,336.500,511.458,334.080,511.945,331.437C512.156,330.651,512.268,329.825,512.268,328.972L512.268,262.972C512.268,257.725,508.015,253.472,502.768,253.472ZZ" style="fill: rgb(0, 0, 0);"/></g></g></g></g></g></g></g></svg>