<svg xmlns:xlink="http://www.w3.org/1999/xlink" width="512" xmlns="http://www.w3.org/2000/svg" height="512" id="screenshot-24b0466e-7c13-801d-8004-20e978044901" viewBox="0 0 512 512" style="-webkit-print-color-adjust: exact;" fill="none" version="1.1"><g id="shape-24b0466e-7c13-801d-8004-20e978044901"><defs><clipPath class="frame-clip-def frame-clip" id="frame-clip-24b0466e-7c13-801d-8004-20e978044901-rumext-id-24"><rect rx="20" ry="20" x="0" y="0" width="512" height="512.0000000000009" transform="matrix(1.000000, 0.000000, 0.000000, 1.000000, 0.000000, 0.000000)"/></clipPath></defs><g clip-path="url(#frame-clip-24b0466e-7c13-801d-8004-20e978044901-rumext-id-24)" fill="none"><clipPath class="frame-clip-def frame-clip" id="frame-clip-24b0466e-7c13-801d-8004-20e978044901-rumext-id-24"><rect rx="20" ry="20" x="0" y="0" width="512" height="512.0000000000009" transform="matrix(1.000000, 0.000000, 0.000000, 1.000000, 0.000000, 0.000000)"/></clipPath><g class="fills" id="fills-24b0466e-7c13-801d-8004-20e978044901"><rect rx="20" ry="20" x="0" y="0" transform="matrix(1.000000, 0.000000, 0.000000, 1.000000, 0.000000, 0.000000)" width="512" height="512.0000000000009" class="frame-background"/></g><g class="frame-children"><g id="shape-24b0466e-7c13-801d-8004-20e990f13f43" width="390px" height="512px" version="1.1" xmlns:xlink="http://www.w3.org/1999/xlink" rx="0" ry="0" style="fill: rgb(0, 0, 0);"><g id="shape-24b0466e-7c13-801d-8004-20e990f390e8" rx="0" ry="0" style="fill: rgb(0, 0, 0);"><g id="shape-24b0466e-7c13-801d-8004-20e990f47e5d"><g class="fills" id="fills-24b0466e-7c13-801d-8004-20e990f47e5d"><path fill-rule="nonzero" rx="0" ry="0" d="M304.186,0.953C299.984,25.055,295.787,49.139,291.593,73.057C340.512,73.243,389.424,72.867,438.534,71.956C442.546,48.052,446.743,23.954,450.937,0.048C402.030,-0.140,353.104,0.233,304.186,0.953ZZ" style="fill: rgb(0, 0, 0);"/></g></g><g id="shape-24b0466e-7c13-801d-8004-20e990f56667"><g class="fills" id="fills-24b0466e-7c13-801d-8004-20e990f56667"><path fill-rule="nonzero" rx="0" ry="0" d="M281.005,109.933C264.579,222.726,247.421,336.821,214.936,446.334C166.742,467.866,112.530,452.159,62.889,445.782C62.158,467.492,61.606,489.037,61.063,510.592C139.180,509.488,218.037,516.797,295.977,506.027C340.329,500.898,362.598,456.902,369.905,417.669C392.540,315.443,410.598,212.324,431.226,109.743C381.033,109.379,331.025,109.379,281.005,109.933ZL281.005,109.933ZZ" style="fill: rgb(0, 0, 0);"/></g></g></g></g></g></g></g></svg>