<?xml version="1.0" encoding="UTF-8"?>
<svg width="512px" height="512px" viewBox="0 0 512 512" version="1.1" xmlns="http://www.w3.org/2000/svg" xmlns:xlink="http://www.w3.org/1999/xlink">
    <title>Kazarma</title>
    <g id="Kazarma" stroke="none" stroke-width="1" fill="none" fill-rule="evenodd">
        <path d="M105.753103,480.874878 C106.85478,438.591126 112.921229,397.543324 123.391008,358.292915 L89.446501,310.113976 C71.2073109,363.903066 60.7105571,421.26556 59.2832788,480.874418 L0,480.87867 L0,31.0000007 L69.5343922,31.0000007 L69.5343922,163.858198 L70.135,164.791549 L70.1350294,164.260275 L272.352,479.042549 L273.534247,480.87867 Z M495.804746,267.883061 C504.749138,267.883061 512,275.133923 512,284.078315 L512,480.87867 L479.609492,480.87867 L479.609492,284.078315 C479.609492,275.133923 486.860354,267.883061 495.804746,267.883061 Z M356.332187,92.1193745 C369.949022,92.1193745 380.987648,103.158 380.987648,116.774836 L380.987648,480.87867 L331.676725,480.87867 L331.676725,116.774836 C331.676725,103.158 342.715351,92.1193745 356.332187,92.1193745 Z M430.29857,184.232118 C439.242962,184.232118 446.493824,191.48298 446.493824,200.427372 L446.493824,480.87867 L414.103316,480.87867 L414.103316,200.427372 C414.103316,191.48298 421.354178,184.232118 430.29857,184.232118 Z M279.22344,141.923115 C289.903311,141.923115 298.561057,150.580861 298.561057,161.260732 L298.560648,440.171375 L259.885648,380.696375 L259.885824,161.260732 C259.885824,150.580861 268.54357,141.923115 279.22344,141.923115 Z M210.574902,204.782205 C219.519293,204.782205 226.770156,212.033067 226.770156,220.977459 L226.769648,329.769375 L194.379648,279.959375 L194.379648,220.977459 C194.379648,212.033067 201.63051,204.782205 210.574902,204.782205 Z M180.426569,30.9995485 L294.573807,31.0090853 C233.025584,76.0158924 180.750606,132.918537 141.144577,198.326383 L97.1904173,130.041396 C121.617818,94.3045345 149.525601,61.1284284 180.426569,30.9995485 Z" id="Path-7" fill="#000000"></path>
    </g>
</svg>