<svg width="512" xmlns="http://www.w3.org/2000/svg" height="512" id="screenshot-24b0466e-7c13-801d-8004-20e972840c9a" viewBox="0 0 512 512" xmlns:xlink="http://www.w3.org/1999/xlink" fill="none" version="1.1"><g id="shape-24b0466e-7c13-801d-8004-20e972840c9a"><defs><clipPath id="frame-clip-24b0466e-7c13-801d-8004-20e972840c9a-render-1" class="frame-clip frame-clip-def"><rect rx="20" ry="20" x="0" y="0" width="512" height="512" transform="matrix(1.000000, 0.000000, 0.000000, 1.000000, 0.000000, 0.000000)"/></clipPath></defs><g clip-path="url(#frame-clip-24b0466e-7c13-801d-8004-20e972840c9a-render-1)" fill="none"><g class="fills" id="fills-24b0466e-7c13-801d-8004-20e972840c9a"><rect rx="20" ry="20" x="0" y="0" width="512" height="512" transform="matrix(1.000000, 0.000000, 0.000000, 1.000000, 0.000000, 0.000000)" class="frame-background"/></g><g class="frame-children"><g id="shape-f16b504d-40ad-80d4-8004-3c8cb186a130" rx="0" ry="0"><g id="shape-f22af9e7-b5ba-807e-8004-3b9897569551"><g class="fills" id="fills-f22af9e7-b5ba-807e-8004-3b9897569551"><path d="M218.291,189.493L153.491,189.493C141.918,164.640,134.824,149.333,110.931,149.333L46.824,149.840C29.171,149.840,10.744,165.627,17.411,189.493L76.504,441.120C89.464,487.600,98.131,496.000,107.038,496.000L124.104,496.000M316.664,16.000L467.198,16.000C489.598,16.000,500.264,35.040,494.398,50.320L369.411,453.227C358.211,483.440,338.504,495.973,306.638,495.973L107.038,495.973C117.438,495.973,127.304,479.493,141.598,441.013L260.451,54.613C269.144,32.480,280.718,16.000,316.664,16.000ZL316.664,16.000Z" width="24" class="icon icon-tabler icons-tabler-outline icon-tabler-brand-kbin" height="24"/></g><g width="24" class="strokes" height="24" id="strokes-f22af9e7-b5ba-807e-8004-3b9897569551"><g class="stroke-shape"><path d="M218.291,189.493L153.491,189.493C141.918,164.640,134.824,149.333,110.931,149.333L46.824,149.840C29.171,149.840,10.744,165.627,17.411,189.493L76.504,441.120C89.464,487.600,98.131,496.000,107.038,496.000L124.104,496.000M316.664,16.000L467.198,16.000C489.598,16.000,500.264,35.040,494.398,50.320L369.411,453.227C358.211,483.440,338.504,495.973,306.638,495.973L107.038,495.973C117.438,495.973,127.304,479.493,141.598,441.013L260.451,54.613C269.144,32.480,280.718,16.000,316.664,16.000ZL316.664,16.000Z" style="fill: none; stroke-width: 31.84; stroke: rgb(0, 0, 0); stroke-opacity: 1;"/></g></g></g></g></g></g></g></svg>