<?xml version="1.0" encoding="UTF-8"?>
<svg width="513px" height="512px" viewBox="0 0 513 512" version="1.1" xmlns="http://www.w3.org/2000/svg" xmlns:xlink="http://www.w3.org/1999/xlink">
    <title>kepi</title>
    <g id="All-Fediverse-Symbols" stroke="none" stroke-width="1" fill="none" fill-rule="evenodd">
        <g id="kepi" transform="translate(1.000000, 0.000000)">
            <g transform="translate(-0.028375, 0.000000)">
                <path d="M353.551763,35.073965 L354.999876,35.2593507 L355.879014,35.4573879 L356.486297,35.5931233 L357.244963,35.7614261 L358.972082,36.1392697 C362.619491,36.9295377 366.610388,37.7465196 372.538432,38.9326527 L381.540442,40.7370821 L383.951697,41.2298786 L385.07879,41.4626181 C401.851019,44.9322703 413.56477,47.9880586 424.743358,52.1780712 C438.687449,57.4046631 450.392631,64.0564553 460.345594,72.8506467 L461.034423,73.4592784 L461.172973,74.3679702 C463.807361,91.6457259 464.151376,110.453862 462.56548,132.065702 L462.516833,132.721466 C462.451618,133.591154 462.38422,134.458731 462.314475,135.325773 L462.208076,136.626135 C462.17201,137.059586 462.135337,137.493102 462.098035,137.926879 L461.984229,139.229188 C461.849211,140.749923 461.706255,142.276271 461.554487,143.816687 L461.422221,145.140685 C460.122395,157.976453 458.200385,171.943862 455.158364,191.852473 L452.654289,208.145111 C450.925097,219.447035 449.863754,226.647988 448.929739,233.584131 L448.822139,234.386211 L448.715492,235.187247 C448.517188,236.682363 448.322882,238.178941 448.127119,239.715702 L448.043115,240.376887 C446.190729,254.995005 445.033615,267.694701 444.564708,279.581297 C443.524904,305.939887 445.937118,328.105165 452.631127,347.596418 L452.796554,348.074706 L452.872139,348.018752 C460.572417,342.338618 468.873856,338.030856 476.848674,335.987369 L477.120414,335.918583 C488.402399,333.097955 498.548712,334.909959 506.600996,342.206121 L506.931917,342.505967 L507.140433,342.900856 C513.319731,354.603233 513.511482,368.605051 508.254078,381.502759 C503.185345,393.937609 493.529955,404.094758 481.740578,408.995883 L481.473954,409.1051 L481.01952,409.329659 C469.413724,415.045022 457.018791,420.312748 442.991957,425.601605 L442.343403,425.845723 C440.981952,426.357297 439.629521,426.860811 438.272342,427.361223 L437.300964,427.718556 L435.576063,428.349011 C426.437006,431.675644 416.682028,435.009792 402.219382,439.825073 L394.172874,442.501555 L388.624309,444.351519 C380.450011,447.084015 374.349257,449.161137 368.311754,451.281185 L367.802274,451.46024 L367.75656,451.474403 C322.666595,465.443516 275.817644,475.538387 228.032367,481.673453 L226.483351,481.870906 L225.202301,481.930442 C224.812231,481.948804 224.424888,481.967259 224.039007,481.985876 L221.677796,482.102777 C217.446492,482.317715 213.078855,482.569156 206.896323,482.948205 L189.18617,484.047486 L186.999359,484.178853 L186.901471,484.178853 C151.853017,483.559201 125.58388,481.185094 100.883978,475.389608 C70.2531821,468.202521 44.8118673,455.999149 24.253375,437.327111 L23.5813305,436.71285 L23.5333658,436.663721 C14.1658403,427.068868 6.67724225,415.50084 2.8577459,403.904013 C-1.65502594,390.202251 -0.945162275,377.019247 5.85973361,365.487062 L5.91922615,365.38624 L5.98775897,365.291332 C14.2276823,353.880211 26.1047584,350.702446 40.3038442,354.264176 C50.7499168,356.884492 61.8052121,362.903056 73.1595688,371.182952 L73.5773614,371.488509 L73.9760637,371.826088 C79.2810188,376.293499 83.7892894,379.086005 86.0554014,379.286245 L86.3168797,379.306019 C86.4862963,379.316795 86.5221457,379.296914 86.5566783,379.114253 L86.6145486,378.756731 C86.8762252,377.20778 86.4017013,374.316747 85.0422248,370.160862 L84.8688638,369.635199 L84.7810011,366.932866 L84.6598607,363.066522 L84.3803683,353.469802 C84.28672,350.12222 84.1820148,346.277542 84.055837,341.589374 L83.8357901,333.450739 L83.7017809,328.605468 C83.1203557,307.900176 82.5654712,292.891283 81.7755406,278.779593 L81.6850963,277.185618 C81.6698502,276.920509 81.6545169,276.655654 81.6390947,276.391022 L81.54548,274.805645 C81.4191996,272.694683 81.2870018,270.593848 81.1479868,268.486635 L81.0466838,266.97015 C79.5970606,245.537695 77.5292056,226.266539 74.5793658,207.910382 L74.4672038,207.212235 L74.3552061,206.425448 C74.1667772,205.111149 73.9741228,203.814733 73.7748138,202.522593 L73.6240463,201.554078 L73.4705556,200.585891 C73.4189129,200.263075 73.3667783,199.940101 73.314114,199.616756 L73.1544938,198.645399 C71.487877,188.592159 69.2756716,177.978574 65.3871868,160.471219 L64.0825518,154.591133 C61.5774696,143.263862 60.0269895,135.959159 58.7049336,128.994341 L58.4752987,127.775763 L58.3209436,126.946514 C58.0496351,125.481636 57.785336,124.015768 57.521198,122.514181 L57.3105279,121.306068 C55.1597789,108.862387 53.8205301,97.6538395 53.3005626,86.8003399 L53.2607741,85.9400242 L53.3333695,85.6121989 C55.2469038,76.9710799 60.0690092,69.8876247 67.4584038,64.015502 C73.3782296,59.3112 80.6735599,55.5299626 90.0618122,51.9074873 L90.3901594,51.7811851 C92.7343297,50.8822483 95.1771888,50.0022512 98.0204951,49.022074 L99.8868577,48.3835169 L105.966734,46.3347153 L106.031042,46.3166947 C144.832498,35.4435127 186.002986,29.6076932 229.887366,28.2868772 C268.861364,27.1138521 309.712096,29.4924648 353.551763,35.073965 Z M388.842606,178.130613 C385.920815,139.575687 348.396284,108.376769 310.584433,113.1701 L309.593551,113.305201 L309.104036,113.316561 C289.048622,113.895995 269.521006,125.691379 256.794107,143.489973 L256.481032,143.931531 L256.20464,143.568024 C240.302521,122.918021 213.798584,111.999755 188.298347,116.071146 L187.550755,116.195142 L186.48206,116.329475 C149.293807,121.348328 120.529138,159.628163 125.880603,197.37075 L126.029453,198.3566 L126.042886,198.74145 C126.711953,216.481916 133.094668,233.226508 144.459814,249.35759 L144.742612,249.757442 C154.009993,262.810719 166.153039,275.031743 181.695646,287.801492 L182.144693,288.169824 L183.864075,289.662905 C184.879924,290.543585 185.949021,291.468041 187.13073,292.487897 L194.971171,299.243228 C206.95077,309.572621 214.703228,316.454105 221.799264,323.240731 L222.631279,324.038922 C222.907751,324.304974 223.18343,324.571083 223.458529,324.837451 L224.282306,325.637532 C224.967699,326.305249 225.65082,326.975846 226.335034,327.652482 L226.860104,328.172707 C238.095842,339.325415 247.255283,350.015567 254.87929,361.205232 L255.492014,362.104521 L261.198942,363.035 L267.139455,361.612053 L267.686281,360.688782 C274.671278,348.895196 283.269238,337.623248 294.027183,325.763468 C295.181521,324.490902 296.318872,323.25273 297.463755,322.023641 L297.954952,321.497371 L298.575837,320.835169 C304.879855,314.12872 311.646252,307.449524 322.889911,296.653018 L327.937828,291.81302 C334.026211,285.974057 338.1526,281.980322 341.861162,278.303845 L343.1362,277.035936 L343.721503,276.451229 L344.6917,275.478248 L345.499284,274.664779 C345.876627,274.28394 346.255052,273.900975 346.636335,273.514126 L347.029505,273.11477 C353.956856,266.070496 359.898441,259.606496 365.28492,253.169504 L365.310967,253.13786 L365.846774,252.471531 C383.261415,230.664667 392.005782,204.940366 388.999343,179.887088 L388.913727,179.201078 Z" id="group" fill="#000000" fill-rule="nonzero"></path>
                <rect id="Rectangle" x="0.0283750675" y="0" width="512" height="512"></rect>
            </g>
        </g>
    </g>
</svg>