<svg xmlns:xlink="http://www.w3.org/1999/xlink" width="512" xmlns="http://www.w3.org/2000/svg" height="512" id="screenshot-24b0466e-7c13-801d-8004-20e974c3b323" viewBox="0 0 512 512" style="-webkit-print-color-adjust: exact;" fill="none" version="1.1"><g id="shape-24b0466e-7c13-801d-8004-20e974c3b323"><defs><clipPath class="frame-clip-def frame-clip" id="frame-clip-24b0466e-7c13-801d-8004-20e974c3b323-rumext-id-4"><rect rx="20" ry="20" x="0" y="0" width="511.9999999999998" height="512" transform="matrix(1.000000, 0.000000, 0.000000, 1.000000, 0.000000, 0.000000)"/></clipPath></defs><g clip-path="url(#frame-clip-24b0466e-7c13-801d-8004-20e974c3b323-rumext-id-4)" fill="none"><clipPath class="frame-clip-def frame-clip" id="frame-clip-24b0466e-7c13-801d-8004-20e974c3b323-rumext-id-4"><rect rx="20" ry="20" x="0" y="0" width="511.9999999999998" height="512" transform="matrix(1.000000, 0.000000, 0.000000, 1.000000, 0.000000, 0.000000)"/></clipPath><g class="fills" id="fills-24b0466e-7c13-801d-8004-20e974c3b323"><rect rx="20" ry="20" x="0" y="0" transform="matrix(1.000000, 0.000000, 0.000000, 1.000000, 0.000000, 0.000000)" width="511.9999999999998" height="512" class="frame-background"/></g><g class="frame-children"><g id="shape-24b0466e-7c13-801d-8004-20f1421f9c32" width="512px" height="376px" version="1.1" xmlns:xlink="http://www.w3.org/1999/xlink" rx="0" ry="0" style="fill: rgb(0, 0, 0);"><g id="shape-24b0466e-7c13-801d-8004-20f142218137" rx="0" ry="0" style="fill: rgb(0, 0, 0);"><g id="shape-24b0466e-7c13-801d-8004-20f14224c0e8"><g class="fills" id="fills-24b0466e-7c13-801d-8004-20f14224c0e8"><path fill-rule="evenodd" rx="0" ry="0" d="M239.390,70.678C240.746,68.801,242.849,71.152,245.070,73.720L245.452,74.162C247.684,76.742,249.998,79.310,251.767,77.855C253.198,76.677,255.761,79.478,258.217,81.944L258.594,82.320C260.847,84.554,262.953,86.315,263.937,84.209C264.586,82.818,266.217,83.994,267.916,85.405L268.207,85.649L268.499,85.895C270.736,87.780,272.909,89.614,272.944,86.103C272.957,84.748,275.859,92.295,278.762,99.961L279.306,101.398C282.258,109.204,285.024,116.562,284.533,114.127C282.685,104.964,289.103,112.365,286.168,119.035L286.112,119.154L286.218,119.036C286.517,118.704,286.827,118.375,287.149,118.048C287.207,117.990,287.254,117.942,287.292,117.904L287.376,117.820C287.544,117.654,286.973,118.249,286.177,119.094L286.106,119.168L286.057,119.276C285.524,120.397,284.718,121.492,283.556,122.478L283.503,122.520L283.479,122.558C278.934,129.340,278.486,135.570,279.120,132.719L279.144,132.609C304.902,133.332,332.583,144.834,360.019,161.784C385.696,177.648,403.954,189.655,419.008,211.943C433.303,212.677,449.487,212.728,465.223,216.692C481.632,220.826,497.565,229.516,509.031,247.496L509.242,247.827L509.394,248.193C514.500,260.545,511.698,272.066,504.500,280.976C497.303,289.886,486.223,296.954,473.890,303.780C469.420,306.255,464.795,308.707,460.137,311.165L458.389,312.087C439.443,322.079,420.208,332.219,408.862,344.353C415.604,351.355,425.991,357.975,435.062,365.781C440.192,370.194,444.797,375.127,447.344,381.362C449.890,387.597,450.024,395.066,446.792,403.008C441.303,416.500,430.032,426.238,416.064,432.540C402.096,438.842,385.311,441.858,367.864,441.995C333.748,442.265,297.196,431.524,274.388,410.372C262.602,410.996,250.269,411.621,237.611,410.372C214.803,431.523,178.252,442.263,144.136,441.995C126.689,441.858,109.904,438.842,95.936,432.540C81.968,426.238,70.697,416.500,65.208,403.008C61.976,395.065,62.109,387.596,64.656,381.362C67.203,375.127,71.808,370.194,76.938,365.781C86.010,357.975,96.396,351.354,103.138,344.353C93.188,333.713,77.172,324.606,60.604,315.787L58.858,314.860C58.567,314.705,58.276,314.551,57.984,314.397L56.235,313.472C55.360,313.010,54.485,312.549,53.610,312.087L51.863,311.165C47.205,308.707,42.580,306.255,38.110,303.780C25.777,296.953,14.698,289.886,7.500,280.976C0.302,272.066,-2.500,260.544,2.606,248.193L2.759,247.827L2.971,247.496C14.436,229.517,30.369,220.826,46.778,216.692C62.515,212.727,78.697,212.677,92.994,211.943C108.046,189.655,126.305,177.647,151.983,161.784C176.528,146.621,205.648,135.477,229.955,132.780C230.321,132.739,237.611,122.282,240.245,111.672C242.879,101.062,241.277,101.564,240.928,96.249C240.660,92.160,242.215,89.402,243.440,87.544L243.680,87.185C243.953,86.779,244.200,86.420,244.394,86.103C246.516,82.644,233.901,78.271,239.390,70.678ZZM323.680,225.001C298.894,224.820,280.115,261.237,288.385,268.520C292.008,271.710,298.593,266.259,305.217,260.301L306.227,259.390C306.452,259.187,306.676,258.983,306.900,258.781L307.571,258.173C311.370,254.736,315.066,251.452,318.101,249.876C331.441,246.543,342.880,275.074,355.506,269.201C368.131,263.327,343.872,225.869,323.680,225.001ZZM186.359,225.001C166.167,225.869,141.907,263.327,154.533,269.201C167.158,275.074,178.597,246.543,191.938,249.876C194.794,251.359,198.236,254.356,201.798,257.568L202.467,258.173C203.026,258.678,203.587,259.187,204.148,259.694L204.821,260.301C211.445,266.259,218.031,271.710,221.653,268.520C229.923,261.237,211.144,224.820,186.359,225.001ZZM285.996,119.285L285.904,119.384C285.670,119.632,285.424,119.895,285.176,120.162L284.729,120.644C283.296,122.196,282.018,123.659,283.036,122.893L283.301,122.687L283.503,122.520L283.649,122.306C284.337,121.300,285.116,120.283,285.996,119.285ZZ" style="fill: rgb(0, 0, 0);"/></g></g><g id="shape-24b0466e-7c13-801d-8004-20f142258811"><g class="fills" id="fills-24b0466e-7c13-801d-8004-20f142258811"><path fill-rule="evenodd" rx="0" ry="0" d="M244.931,108.364L270.601,108.364L270.601,147.621L244.931,147.621Z" style="fill: rgb(0, 0, 0);"/></g></g><g id="shape-24b0466e-7c13-801d-8004-20f142265f46"><g class="fills" id="fills-24b0466e-7c13-801d-8004-20f142265f46"><path fill="none" fill-rule="evenodd" rx="0" ry="0" d="M229.901,138.239C235.644,131.677,240.012,123.871,242.629,115.490C244.268,110.242,245.176,104.718,244.847,99.221C244.519,93.723,242.866,88.408,241.025,83.230L236.842,71.459C241.804,72.480,246.570,74.478,250.800,77.313C256.404,81.068,261.051,86.296,264.165,92.351L263.967,78.120C273.954,85.307,280.930,96.701,282.876,109.005C283.663,113.981,283.659,119.058,283.323,124.086C283.008,128.807,282.403,133.508,281.512,138.152" style="fill: none;"/></g><g id="strokes-24b0466e-7c13-801d-8004-20f142265f46" class="strokes"><g class="stroke-shape"><path fill-rule="evenodd" rx="0" ry="0" d="M229.901,138.239C235.644,131.677,240.012,123.871,242.629,115.490C244.268,110.242,245.176,104.718,244.847,99.221C244.519,93.723,242.866,88.408,241.025,83.230L236.842,71.459C241.804,72.480,246.570,74.478,250.800,77.313C256.404,81.068,261.051,86.296,264.165,92.351L263.967,78.120C273.954,85.307,280.930,96.701,282.876,109.005C283.663,113.981,283.659,119.058,283.323,124.086C283.008,128.807,282.403,133.508,281.512,138.152" style="fill: none; stroke-width: 6.981; stroke: rgb(0, 0, 0); stroke-opacity: 1;"/></g></g></g></g></g></g></g></g></svg>