<svg xmlns:xlink="http://www.w3.org/1999/xlink" width="538.439" xmlns="http://www.w3.org/2000/svg" height="538.439" id="screenshot-b7ca680a-9053-8086-8004-17e947d0984d" viewBox="-20 -20 538.439 538.439" style="-webkit-print-color-adjust: exact;" fill="none" version="1.1"><g id="shape-b7ca680a-9053-8086-8004-17e947d0984d" rx="0" ry="0"><g id="shape-b7ca680a-9053-8086-8004-17e930cc1e8c"><g class="fills" id="fills-b7ca680a-9053-8086-8004-17e930cc1e8c"><ellipse fill="none" rx="236.50000000000006" ry="246.5" cx="249.60795868459257" cy="248.607732046843" transform="matrix(1.000000, 0.000000, 0.000000, 1.000000, 0.000000, 0.000000)" style="fill: none;"/></g></g><g id="shape-b7ca680a-9053-8086-8004-17e930cc1e8d"><defs><mask width="614.4" height="614.4" x="-51.2" id="rumext-id-3-path-2-inside-1_1_3" data-old-y="-51.2" data-old-width="614.4" data-old-x="-51.2" fill="white" y="-51.2" data-old-height="614.4"><g class="svg-mask-wrapper" transform="matrix(1.000000, 0.000000, 0.000000, 1.000000, -98.892041, -98.892268)"><path d="M228.34 566.664C179.933 540.135 141.702 498.287 119.648 447.684C97.5936 397.081 92.9632 340.589 106.483 287.07C120.003 233.552 150.909 186.036 194.35 151.98C237.792 117.923 291.311 99.2524 346.509 98.8975L347.073 186.61C311.302 186.84 276.62 198.939 248.468 221.009C220.316 243.08 200.287 273.872 191.526 308.554C182.764 343.237 185.765 379.846 200.057 412.639C214.349 445.432 239.124 472.552 270.494 489.743L228.34 566.664Z"/></g></mask></defs><g class="fills" id="fills-b7ca680a-9053-8086-8004-17e930cc1e8d"><path mask="url(#rumext-id-3-path-2-inside-1_1_3)" rx="0" ry="0" d="M129.448,467.772C81.041,441.243,42.810,399.395,20.756,348.792C-1.298,298.189,-5.929,241.697,7.591,188.178C21.111,134.660,52.017,87.144,95.458,53.088C138.900,19.031,192.419,0.360,247.617,0.005L248.181,87.718C212.410,87.948,177.728,100.047,149.576,122.117C121.424,144.188,101.395,174.980,92.634,209.662C83.872,244.345,86.873,280.954,101.165,313.747C115.457,346.540,140.232,373.660,171.602,390.851L129.448,467.772ZZ" style="fill: rgb(255, 255, 255); fill-opacity: 1;"/></g><g id="strokes-b7ca680a-9053-8086-8004-17e930cc1e8d" class="strokes"><g class="stroke-shape"><path mask="url(#rumext-id-3-path-2-inside-1_1_3)" rx="0" ry="0" d="M129.448,467.772C81.041,441.243,42.810,399.395,20.756,348.792C-1.298,298.189,-5.929,241.697,7.591,188.178C21.111,134.660,52.017,87.144,95.458,53.088C138.900,19.031,192.419,0.360,247.617,0.005L248.181,87.718C212.410,87.948,177.728,100.047,149.576,122.117C121.424,144.188,101.395,174.980,92.634,209.662C83.872,244.345,86.873,280.954,101.165,313.747C115.457,346.540,140.232,373.660,171.602,390.851L129.448,467.772ZZ" style="fill: none; stroke-width: 40; stroke: rgb(0, 0, 0); stroke-opacity: 1;"/></g></g></g><g id="shape-b7ca680a-9053-8086-8004-17e930cc1e8e"><defs><mask width="614.4" height="614.4" x="-51.2" id="rumext-id-4-path-3-inside-2_1_3" data-old-y="-51.2" data-old-width="614.4" data-old-x="-51.2" fill="white" y="-51.2" data-old-height="614.4"><g class="svg-mask-wrapper" transform="matrix(1.000000, 0.000000, 0.000000, 1.000000, -98.892041, -98.892268)"><path d="M215.722 136.964C253.836 113.067 297.708 99.9312 342.684 98.9514C387.66 97.9716 432.062 109.184 471.181 131.399C510.299 153.614 542.676 186.004 564.875 225.132C587.074 264.259 598.268 308.667 597.27 353.642L509.577 351.696C510.224 322.549 502.97 293.772 488.584 268.415C474.198 243.059 453.217 222.069 427.866 207.672C402.515 193.276 373.74 186.01 344.594 186.645C315.448 187.28 287.017 195.792 262.317 211.279L215.722 136.964Z"/></g></mask></defs><g class="fills" id="fills-b7ca680a-9053-8086-8004-17e930cc1e8e"><path mask="url(#rumext-id-4-path-3-inside-2_1_3)" rx="0" ry="0" d="M116.830,38.072C154.944,14.175,198.816,1.039,243.792,0.059C288.768,-0.921,333.170,10.292,372.289,32.507C411.407,54.722,443.784,87.112,465.983,126.240C488.182,165.367,499.376,209.775,498.378,254.750L410.685,252.804C411.332,223.657,404.078,194.880,389.692,169.523C375.306,144.167,354.325,123.177,328.974,108.780C303.623,94.384,274.848,87.118,245.702,87.753C216.556,88.388,188.125,96.900,163.425,112.387L116.830,38.072ZZ" style="fill: rgb(255, 255, 255); fill-opacity: 1;"/></g><g id="strokes-b7ca680a-9053-8086-8004-17e930cc1e8e" class="strokes"><g class="stroke-shape"><path mask="url(#rumext-id-4-path-3-inside-2_1_3)" rx="0" ry="0" d="M116.830,38.072C154.944,14.175,198.816,1.039,243.792,0.059C288.768,-0.921,333.170,10.292,372.289,32.507C411.407,54.722,443.784,87.112,465.983,126.240C488.182,165.367,499.376,209.775,498.378,254.750L410.685,252.804C411.332,223.657,404.078,194.880,389.692,169.523C375.306,144.167,354.325,123.177,328.974,108.780C303.623,94.384,274.848,87.118,245.702,87.753C216.556,88.388,188.125,96.900,163.425,112.387L116.830,38.072ZZ" style="fill: none; stroke-width: 40; stroke: rgb(0, 0, 0); stroke-opacity: 1;"/></g></g></g><g id="shape-b7ca680a-9053-8086-8004-17e930cc1e8f"><defs><mask width="614.4" height="614.4" x="-51.2" id="rumext-id-5-path-4-inside-3_1_3" data-old-y="-51.2" data-old-width="614.4" data-old-x="-51.2" fill="white" y="-51.2" data-old-height="614.4"><g class="svg-mask-wrapper" transform="matrix(1.000000, 0.000000, 0.000000, 1.000000, -98.892041, -98.892268)"><path d="M596.25 324.926C600.625 371.746 591.665 418.847 570.404 460.79C549.144 502.733 516.451 537.805 476.102 561.954C435.754 586.104 389.397 598.346 342.386 597.265C295.375 596.185 249.629 581.827 210.432 555.849L258.889 482.735C284.29 499.569 313.936 508.874 344.401 509.574C374.866 510.274 404.908 502.341 431.055 486.691C457.203 471.041 478.389 448.313 492.167 421.132C505.945 393.952 511.752 363.427 508.917 333.086L596.25 324.926Z"/></g></mask></defs><g class="fills" id="fills-b7ca680a-9053-8086-8004-17e930cc1e8f"><path mask="url(#rumext-id-5-path-4-inside-3_1_3)" rx="0" ry="0" d="M497.358,226.034C501.733,272.854,492.773,319.955,471.512,361.898C450.252,403.841,417.559,438.913,377.210,463.062C336.862,487.212,290.505,499.454,243.494,498.373C196.483,497.293,150.737,482.935,111.540,456.957L159.997,383.843C185.398,400.677,215.044,409.982,245.509,410.682C275.974,411.382,306.016,403.449,332.163,387.799C358.311,372.149,379.497,349.421,393.275,322.240C407.053,295.060,412.860,264.535,410.025,234.194L497.358,226.034ZZ" style="fill: rgb(255, 255, 255); fill-opacity: 1;"/></g><g id="strokes-b7ca680a-9053-8086-8004-17e930cc1e8f" class="strokes"><g class="stroke-shape"><path mask="url(#rumext-id-5-path-4-inside-3_1_3)" rx="0" ry="0" d="M497.358,226.034C501.733,272.854,492.773,319.955,471.512,361.898C450.252,403.841,417.559,438.913,377.210,463.062C336.862,487.212,290.505,499.454,243.494,498.373C196.483,497.293,150.737,482.935,111.540,456.957L159.997,383.843C185.398,400.677,215.044,409.982,245.509,410.682C275.974,411.382,306.016,403.449,332.163,387.799C358.311,372.149,379.497,349.421,393.275,322.240C407.053,295.060,412.860,264.535,410.025,234.194L497.358,226.034ZZ" style="fill: none; stroke-width: 40; stroke: rgb(0, 0, 0); stroke-opacity: 1;"/></g></g></g><g id="shape-b7ca680a-9053-8086-8004-17e930cc1e90"><g class="fills" id="fills-b7ca680a-9053-8086-8004-17e930cc1e90"><path fill="none" rx="0" ry="0" d="M292.608,222.261C313.275,234.193,313.275,264.023,292.608,275.955L250.608,300.203C229.941,312.135,204.108,297.220,204.108,273.357L204.108,224.859C204.108,200.996,229.941,186.081,250.608,198.012L292.608,222.261ZZ" style="fill: none;"/></g><g id="strokes-b7ca680a-9053-8086-8004-17e930cc1e90" class="strokes"><g class="stroke-shape"><path rx="0" ry="0" d="M292.608,222.261C313.275,234.193,313.275,264.023,292.608,275.955L250.608,300.203C229.941,312.135,204.108,297.220,204.108,273.357L204.108,224.859C204.108,200.996,229.941,186.081,250.608,198.012L292.608,222.261ZZ" style="fill: none; stroke-width: 20; stroke: rgb(0, 0, 0); stroke-opacity: 1;"/></g></g></g></g></svg>