<svg xmlns:xlink="http://www.w3.org/1999/xlink" width="512" xmlns="http://www.w3.org/2000/svg" height="512" id="screenshot-e896cdf2-4b36-80a4-8004-1940a4c75f8c" viewBox="0 0 512 512" style="-webkit-print-color-adjust: exact;" fill="none" version="1.1"><g id="shape-e896cdf2-4b36-80a4-8004-1940a4c75f8c"><defs><clipPath class="frame-clip-def frame-clip" id="frame-clip-e896cdf2-4b36-80a4-8004-1940a4c75f8c-rumext-id-1"><rect rx="20" ry="20" x="0" y="0" width="512.0000000000001" height="512" transform="matrix(1.000000, 0.000000, 0.000000, 1.000000, 0.000000, 0.000000)"/></clipPath></defs><g clip-path="url(#frame-clip-e896cdf2-4b36-80a4-8004-1940a4c75f8c-rumext-id-1)" fill="none"><clipPath class="frame-clip-def frame-clip" id="frame-clip-e896cdf2-4b36-80a4-8004-1940a4c75f8c-rumext-id-1"><rect rx="20" ry="20" x="0" y="0" width="512.0000000000001" height="512" transform="matrix(1.000000, 0.000000, 0.000000, 1.000000, 0.000000, 0.000000)"/></clipPath><g class="fills" id="fills-e896cdf2-4b36-80a4-8004-1940a4c75f8c"><rect rx="20" ry="20" x="0" y="0" transform="matrix(1.000000, 0.000000, 0.000000, 1.000000, 0.000000, 0.000000)" width="512.0000000000001" height="512" class="frame-background"/></g><g class="frame-children"><g id="shape-e896cdf2-4b36-80a4-8004-1940a26b4fb0" clip-path="url(#rumext-id-2-clip0_496_5227)" rx="0" ry="0" style="fill: rgb(0, 0, 0);"><defs><clipPath id="rumext-id-2-clip0_496_5227" class="svg-def" transform="matrix(0.640000, 0.000000, 0.000000, 0.640000, 89.600000, -0.000000)"><rect width="520" height="799.39" fill="white"/></clipPath></defs><g id="shape-e896cdf2-4b36-80a4-8004-1940a26e9c3e"><g class="fills" id="fills-e896cdf2-4b36-80a4-8004-1940a26e9c3e"><path rx="0" ry="0" d="M371.200,395.028L345.600,409.550L345.600,282.071C301.434,293.439,268.800,333.531,268.800,381.245L268.800,453.116L256.000,460.377L243.200,453.116L243.200,381.245C243.200,333.531,210.566,293.439,166.400,282.071L166.400,409.550L140.800,395.028L140.800,116.584L166.400,102.061L166.400,255.805C205.930,263.830,238.845,290.071,256.000,325.384C273.155,290.071,306.070,263.830,345.600,255.805L345.600,102.061L371.200,116.584L371.200,395.028ZZ" style="fill: rgb(0, 0, 0); fill-opacity: 1;"/></g></g><g id="shape-e896cdf2-4b36-80a4-8004-1940a26f859c"><g class="fills" id="fills-e896cdf2-4b36-80a4-8004-1940a26f859c"><path rx="0" ry="0" d="M320.000,424.072L320.000,381.245C305.862,381.245,294.400,392.707,294.400,406.845L294.400,438.594L320.000,424.072ZZ" style="fill: rgb(0, 0, 0); fill-opacity: 1;"/></g></g><g id="shape-e896cdf2-4b36-80a4-8004-1940a270330f"><g class="fills" id="fills-e896cdf2-4b36-80a4-8004-1940a270330f"><path rx="0" ry="0" d="M217.600,406.845L217.600,438.594L192.000,424.072L192.000,381.245C206.138,381.245,217.600,392.707,217.600,406.845ZZ" style="fill: rgb(0, 0, 0); fill-opacity: 1;"/></g></g><g id="shape-e896cdf2-4b36-80a4-8004-1940a2709ae4"><g class="fills" id="fills-e896cdf2-4b36-80a4-8004-1940a2709ae4"><path rx="0" ry="0" d="M217.600,74.685L217.600,185.405L192.000,199.928L192.000,89.208L217.600,74.685ZZ" style="fill: rgb(0, 0, 0); fill-opacity: 1;"/></g></g><g id="shape-e896cdf2-4b36-80a4-8004-1940a27165c8"><g class="fills" id="fills-e896cdf2-4b36-80a4-8004-1940a27165c8"><path rx="0" ry="0" d="M268.800,58.495L268.800,168.986L256.000,161.725L243.200,168.986L243.200,58.495L256.000,51.234L268.800,58.495ZZ" style="fill: rgb(0, 0, 0); fill-opacity: 1;"/></g></g><g id="shape-e896cdf2-4b36-80a4-8004-1940a2718515"><g class="fills" id="fills-e896cdf2-4b36-80a4-8004-1940a2718515"><path rx="0" ry="0" d="M294.400,74.685L294.400,185.405L320.000,199.928L320.000,89.208L294.400,74.685ZZ" style="fill: rgb(0, 0, 0); fill-opacity: 1;"/></g></g><g id="shape-e896cdf2-4b36-80a4-8004-1940a2729a6c"><g class="fills" id="fills-e896cdf2-4b36-80a4-8004-1940a2729a6c"><path fill-rule="evenodd" clip-rule="evenodd" rx="0" ry="0" d="M422.400,398.891C422.400,415.647,413.304,431.083,398.646,439.201L278.326,505.840C264.436,513.533,247.564,513.533,233.674,505.840L113.354,439.201C98.696,431.083,89.600,415.647,89.600,398.891L89.600,112.719C89.600,95.963,98.696,80.527,113.354,72.409L233.674,5.770C247.564,-1.923,264.436,-1.923,278.326,5.770L398.646,72.409C413.304,80.527,422.400,95.963,422.400,112.719L422.400,398.891ZZM383.831,94.317C391.847,98.864,396.800,107.368,396.800,116.584L396.800,395.027C396.800,404.243,391.847,412.747,383.831,417.293L268.631,482.643C260.797,487.088,251.203,487.088,243.369,482.643L128.169,417.293C120.153,412.747,115.200,404.243,115.200,395.027L115.200,116.584C115.200,107.368,120.153,98.864,128.169,94.317L243.369,28.967C251.203,24.523,260.797,24.523,268.631,28.967L383.831,94.317ZZ" style="fill: rgb(0, 0, 0); fill-opacity: 1;"/></g></g></g></g></g></g></svg>