<?xml version="1.0" encoding="UTF-8"?>
<svg width="478px" height="513px" viewBox="0 0 478 513" version="1.1" xmlns="http://www.w3.org/2000/svg" xmlns:xlink="http://www.w3.org/1999/xlink">
    <title>Mastodon</title>
    <g id="MASTODON" stroke="none" stroke-width="1" fill="none" fill-rule="evenodd">
        <g id="Mastodon" transform="translate(-17.000000, 0.000000)" fill="#000000" fill-rule="nonzero">
            <path d="M494.981974,168.430153 C494.981974,57.1452892 422.119066,24.5154687 422.119066,24.5154687 C350.62877,-8.34333322 160.750547,-7.99986143 89.9465582,24.5154687 C89.9465582,24.5154687 17.0836496,57.1452892 17.0836496,168.430153 C17.0836496,300.895775 9.53427443,465.418765 137.873652,499.422472 C184.199363,511.672966 224.00516,514.30625 256.032812,512.4744 C314.140124,509.268664 346.739698,491.751602 346.739698,491.751602 L344.795162,449.504571 C344.795162,449.504571 303.273599,462.5565 256.604734,461.068122 C210.393407,459.465253 161.665622,456.030536 154.116247,399.243199 C153.42994,394.205613 153.086787,388.939045 153.086787,383.329006 C250.999895,407.257541 334.50056,393.74765 357.491839,390.999876 C421.661528,383.329006 477.595535,343.715259 484.687372,307.53623 C495.89705,250.519912 494.981974,168.430153 494.981974,168.430153 Z M409.421447,312 L356.1579,312 L356.1579,181.336506 C356.1579,124.47157 283.006249,122.297659 283.006249,189.231235 L283.006249,260.741466 L230.085601,260.741466 L230.085601,189.231235 C230.085601,122.297659 156.93395,124.47157 156.93395,181.336506 L156.93395,312 L103.556104,312 C103.556104,172.297613 97.6125328,142.778189 124.587204,111.771351 C154.190763,78.7050202 215.798169,76.5311092 243.230039,118.750752 L256.488775,141.061944 L269.747512,118.750752 C297.293681,76.3022764 359.015387,78.9338529 388.390347,111.771351 C415.479318,143.007022 409.421447,172.412029 409.421447,312 Z"></path>
        </g>
    </g>
</svg>