<svg width="512" xmlns="http://www.w3.org/2000/svg" height="512" fill="none"><g data-testid="mbin"><defs><clipPath id="a" class="frame-clip frame-clip-def"><rect rx="0" ry="0" width="512" height="512"/></clipPath></defs><g clip-path="url(#a)"><g class="fills"><rect rx="0" ry="0" width="512" height="512" class="frame-background"/></g><g class="frame-children"><path d="M241.077 41.596 2.309 454.212a17.154 17.154 0 0 0 0 17.192A17.238 17.238 0 0 0 17.232 480h477.536a17.238 17.238 0 0 0 14.923-8.596 17.154 17.154 0 0 0 0-17.192L270.923 41.596A17.24 17.24 0 0 0 256 33a17.24 17.24 0 0 0-14.923 8.596Zm14.92 163.204-37.249 64.749a25.984 25.984 0 0 0 0 25.902l37.249 64.749 37.254-64.749a25.98 25.98 0 0 0 0-25.902L255.997 204.8Zm0-51.8L405 412h-59.599l-44.699-77.7-44.705 77.7-44.699-77.7-44.699 77.7H107l148.997-259Z" style="fill: rgb(0, 0, 0); fill-opacity: 1;" class="fills" data-testid="mbin"/></g></g></g></svg>