<?xml version="1.0" encoding="UTF-8"?>
<svg width="512px" height="512px" viewBox="0 0 512 512" version="1.1" xmlns="http://www.w3.org/2000/svg" xmlns:xlink="http://www.w3.org/1999/xlink">
    <title>Micro.blog</title>
    <g id="microblog" stroke="none" stroke-width="1" fill="none" fill-rule="evenodd">
        <g id="Micro.blog" transform="translate(-1.000000, 1.000000)" fill="#000000" fill-rule="nonzero" stroke="#000000" stroke-width="0.5">
            <path d="M256.015504,0 C210.104554,0 167.392317,10.547142 127.878794,31.6414261 C89.4942291,52.3590266 59.0123686,80.4219581 36.4332127,115.830221 C13.4777376,151.991851 2,191.261121 2,233.638031 C2,276.014941 13.4777376,315.284211 36.4332127,351.44584 C59.0123686,386.854103 89.4942291,414.728693 127.878794,435.06961 C167.392317,456.540577 210.104554,467.276061 256.015504,467.276061 C287.250003,467.276061 317.543704,462.190832 346.896606,452.020374 C348.401883,451.267006 350.00124,451.172835 351.694677,451.737861 C353.388114,452.302886 354.799311,453.338766 355.928269,454.845501 C366.465208,469.159479 379.636382,481.213356 395.441792,491.007131 C411.247201,500.800905 428.557887,507.769553 447.37385,511.913073 C449.631766,512.289757 451.325202,511.442218 452.45416,509.370458 C453.583118,507.298698 453.583118,505.509451 452.45416,504.002716 C442.669859,491.572156 436.272432,477.729032 433.261878,462.473345 C430.251324,447.217657 430.721723,432.150311 434.673075,417.271307 C438.624427,402.392303 445.868573,389.114205 456.405512,377.437012 L456.405512,377.437012 C473.339879,357.096095 486.511054,334.87176 495.919035,310.764007 C505.327017,285.902886 510.031008,260.100057 510.031008,233.355518 C510.031008,191.16695 498.55327,151.991851 475.597795,115.830221 C453.018639,80.4219581 422.536779,52.3590266 384.152214,31.6414261 C344.638691,10.547142 301.926454,0 256.015504,0 Z M255.947073,108.155039 C257.828923,108.155039 259.428495,108.626541 260.74579,109.569544 C262.063085,110.512548 262.909917,111.738452 263.286287,113.247258 L290.384924,190.762152 L372.809944,192.459559 C376.197273,192.459559 378.455493,194.156965 379.584603,197.551778 C380.713713,200.946591 379.772788,203.775602 376.761828,206.03881 L311.838011,255.829399 L335.549318,334.475897 C336.302058,337.87071 335.267041,340.605421 332.444266,342.680028 C329.621492,344.754636 326.704624,344.848937 323.693665,342.96293 L256.511628,295.435549 L189.329591,342.96293 C186.318631,344.848937 183.401764,344.754636 180.57899,342.680028 C177.756215,340.605421 176.721198,337.87071 177.473937,334.475897 L201.185245,255.829399 L136.261427,206.03881 C133.250468,203.775602 132.309543,200.946591 133.438653,197.551778 C134.567763,194.156965 136.825982,192.459559 140.213312,192.459559 L222.638332,190.762152 L249.172414,113.247258 C250.301524,109.852445 252.559743,108.155039 255.947073,108.155039 Z"></path>
        </g>
    </g>
</svg>