<svg width="512" xmlns="http://www.w3.org/2000/svg" height="512" fill="none"><g data-testid="minds"><defs><clipPath id="a" class="frame-clip frame-clip-def"><rect rx="20" ry="20" width="512" height="512"/></clipPath></defs><g clip-path="url(#a)"><g class="fills"><rect rx="20" ry="20" width="512" height="512" class="frame-background"/></g><g class="frame-children"><path d="m329.869 393.369 14.774-47.863 67.96-103.203-8.865-149.57L315.095 0h-118.19 118.19-118.19l-88.643 92.733-8.865 149.57 67.96 103.203 14.774 47.863v88.717L256 512l73.869-29.914m-147.738-88.717-14.774-47.863 14.774 47.863Zm147.738 88.717v-88.717 88.717ZM315.095 0l88.643 92.733L315.095 0ZM167.357 345.506ZM108.262 92.733 196.905 0l-88.643 92.733ZM315.095 0h-118.19 118.19ZM167.357 345.506ZM315.095 0Zm-118.19 0Zm-13.286 386.151Zm57.431-122.1Zl109.118-88.667-8.615 164.253-157.934 46.514m14.358-274.724-86.146-17.443 86.146 17.443Zm0 0Zl43.073 152.624-71.789 75.586-66.045-100.296 8.615-145.357m238.337 81.4Zl48.816-81.4 8.615 145.357-57.431-63.957ZM312.838 3.863l37.33 171.521-152.191-63.957V3.863h114.861ZM183.619 386.151h143.577l-71.789 119.192-71.788-119.192Z" style="fill: rgb(0, 0, 0); fill-opacity: 1;" class="fills" data-testid="minds"/></g></g></g></svg>