<svg xmlns:xlink="http://www.w3.org/1999/xlink" width="512" xmlns="http://www.w3.org/2000/svg" height="512" id="screenshot-24b0466e-7c13-801d-8004-20e978d4dcf7" viewBox="0 0 512 512" style="-webkit-print-color-adjust: exact;" fill="none" version="1.1"><g id="shape-24b0466e-7c13-801d-8004-20e978d4dcf7"><defs><clipPath class="frame-clip-def frame-clip" id="frame-clip-24b0466e-7c13-801d-8004-20e978d4dcf7-rumext-id-18"><rect rx="20" ry="20" x="0" y="0" width="511.9999999999998" height="512.0000000000018" transform="matrix(1.000000, 0.000000, 0.000000, 1.000000, 0.000000, 0.000000)"/></clipPath></defs><g clip-path="url(#frame-clip-24b0466e-7c13-801d-8004-20e978d4dcf7-rumext-id-18)" fill="none"><clipPath class="frame-clip-def frame-clip" id="frame-clip-24b0466e-7c13-801d-8004-20e978d4dcf7-rumext-id-18"><rect rx="20" ry="20" x="0" y="0" width="511.9999999999998" height="512.0000000000018" transform="matrix(1.000000, 0.000000, 0.000000, 1.000000, 0.000000, 0.000000)"/></clipPath><g class="fills" id="fills-24b0466e-7c13-801d-8004-20e978d4dcf7"><rect rx="20" ry="20" x="0" y="0" transform="matrix(1.000000, 0.000000, 0.000000, 1.000000, 0.000000, 0.000000)" width="511.9999999999998" height="512.0000000000018" class="frame-background"/></g><g class="frame-children"><g id="shape-24b0466e-7c13-801d-8004-20e9834a3bd1" width="512px" height="359px" version="1.1" xmlns:xlink="http://www.w3.org/1999/xlink" rx="0" ry="0" style="fill: rgb(0, 0, 0);"><g id="shape-24b0466e-7c13-801d-8004-20e9834f984c"><g class="fills" id="fills-24b0466e-7c13-801d-8004-20e9834f984c"><path fill-rule="nonzero" rx="0" ry="0" d="M190.235,359.297C168.041,359.376,148.986,346.005,140.008,330.449C135.201,323.658,125.707,321.235,125.574,330.449L125.574,372.999C125.574,390.091,119.351,404.878,106.877,417.349C94.760,429.450,79.982,435.500,62.516,435.500C45.433,435.500,30.642,429.450,18.168,417.336C6.065,404.878,-0.000,390.091,-0.000,372.999L-0.000,139.001C-0.000,125.829,3.747,113.900,11.229,103.217C19.055,92.175,29.040,84.510,41.156,80.247C47.997,77.740,55.230,76.471,62.516,76.500C81.756,76.500,97.792,83.980,110.611,98.940L174.596,173.184C176.026,174.243,180.211,182.412,190.222,182.412C200.259,182.412,204.987,174.243,206.404,173.171L269.846,98.940C283.035,83.980,299.244,76.500,318.484,76.500C325.609,76.500,332.733,77.745,339.857,80.247C351.960,84.510,361.759,92.162,369.254,103.217C377.080,113.900,381.000,125.829,381.000,139.001L381.000,372.999C381.000,390.091,374.776,404.878,362.302,417.349C350.186,429.450,335.394,435.500,317.941,435.500C300.846,435.500,286.068,429.450,273.581,417.336C261.477,404.878,255.426,390.091,255.426,372.999L255.426,330.449C254.366,318.839,244.104,326.160,240.462,330.449C230.848,348.256,212.416,359.217,190.235,359.297ZL190.235,359.297ZZM457.730,184.500C442.830,184.500,430.063,179.332,419.427,168.996C409.142,158.306,404.000,145.474,404.000,130.500C404.000,115.526,409.142,102.871,419.427,92.534C430.063,81.845,442.830,76.500,457.730,76.500C472.629,76.500,485.401,81.845,496.046,92.534C506.682,102.871,512.000,115.526,512.000,130.500C512.000,145.474,506.682,158.306,496.046,168.996C485.401,179.332,472.629,184.500,457.730,184.500ZL457.730,184.500ZZM458.257,195.500C473.156,195.500,485.753,200.831,496.046,211.493C506.682,222.155,512.000,234.958,512.000,249.902L512.000,381.639C512.000,396.575,506.682,409.374,496.046,420.036C485.761,430.345,473.165,435.500,458.257,435.500C443.367,435.500,430.599,430.345,419.954,420.036C409.318,409.374,404.000,396.575,404.000,381.639L404.000,249.902C404.000,234.967,409.318,222.164,419.954,211.493C430.590,200.831,443.358,195.500,458.257,195.500ZZ" style="fill: rgb(0, 0, 0);"/></g></g></g></g></g></g></svg>