<?xml version="1.0" encoding="UTF-8"?>
<svg width="512px" height="503px" viewBox="0 0 512 503" version="1.1" xmlns="http://www.w3.org/2000/svg" xmlns:xlink="http://www.w3.org/1999/xlink">
    <title>Mistpark</title>
    <g id="All-Fediverse-Symbols" stroke="none" stroke-width="1" fill="none" fill-rule="evenodd">
        <g id="Mistpark" transform="translate(0.000000, -5.000000)" fill="#000000" fill-rule="nonzero">
            <path d="M330.961361,5 C400.269255,5 456.368307,94.1051895 456.368307,203.698932 C456.368307,221.664049 454.486463,238.555879 451.653787,255.110556 C454.893357,254.148763 457.809977,252.053624 461.240035,252.053624 C489.229705,252.053624 512,285.684617 512,327.086787 C512,368.488913 489.229705,402.120079 461.240035,402.119949 C457.113709,402.119949 453.315168,400.667079 449.550119,399.031189 L448.568499,398.601118 C448.077875,398.384842 447.587386,398.167331 447.096378,397.951402 C447.845263,401.534414 449.139355,404.824724 449.139355,408.511641 C449.139453,463.308556 364.242819,508 259.614488,508 C154.986157,508 70.0896205,463.308556 70.0896205,408.511641 C70.0896205,402.658102 71.531266,397.136025 73.3898257,391.55971 C31.9215375,383.703037 0,341.232151 0,289.570205 C0,232.337852 38.9224051,185.913299 86.904844,185.913299 C102.89899,185.913299 117.872331,191.363031 130.750153,200.364129 C138.294837,143.71718 162.705068,101.987299 192.039275,101.987299 C201.739625,101.987299 210.828867,106.913235 219.06936,115.048641 C239.701762,50.0346771 281.853253,5 330.961312,5 Z M318.795588,110 C279.950313,110 246.60784,141.157183 230.28727,186.137009 C223.768918,180.508556 216.579193,177.100544 208.906055,177.100544 C185.702243,177.100544 166.393359,205.971323 160.425392,245.16243 C150.238839,238.935057 138.39469,235.164665 125.743077,235.164665 C87.7882164,235.164665 57,267.283449 57,306.879601 C57,342.621841 82.250428,372.00526 115.052494,377.440918 C113.582345,381.298843 112.441977,385.119321 112.441977,389.169091 C112.441977,427.080263 179.596454,458 262.359117,458 C345.121754,458 412.276329,427.080263 412.276232,389.169091 C412.276232,386.618281 411.252606,384.341886 410.660209,381.862991 C414.285226,383.257291 417.874526,384.746976 421.848063,384.746976 C443.988336,384.747105 462,361.479412 462,332.835378 C462,304.191345 443.988336,280.923781 421.848063,280.923781 C419.134832,280.923781 416.827723,282.373302 414.265196,283.0387 C416.505895,271.585375 417.994465,259.898789 417.994465,247.469626 C417.994465,171.647327 373.619233,110 318.795588,110 Z"></path>
        </g>
    </g>
</svg>