<svg width="512" xmlns="http://www.w3.org/2000/svg" height="512" id="screenshot-f22af9e7-b5ba-807e-8004-3c05d9e706ce" viewBox="0 0 512 512" xmlns:xlink="http://www.w3.org/1999/xlink" fill="none" version="1.1"><g id="shape-f22af9e7-b5ba-807e-8004-3c05d9e706ce"><defs><clipPath id="frame-clip-f22af9e7-b5ba-807e-8004-3c05d9e706ce-render-1" class="frame-clip frame-clip-def"><rect rx="20" ry="20" x="0" y="0" width="512" height="512" transform="matrix(1.000000, 0.000000, 0.000000, 1.000000, 0.000000, 0.000000)"/></clipPath></defs><g clip-path="url(#frame-clip-f22af9e7-b5ba-807e-8004-3c05d9e706ce-render-1)" fill="none"><g class="fills" id="fills-f22af9e7-b5ba-807e-8004-3c05d9e706ce"><rect rx="20" ry="20" x="0" y="0" width="512" height="512" transform="matrix(1.000000, 0.000000, 0.000000, 1.000000, 0.000000, 0.000000)" class="frame-background"/></g><g class="frame-children"><g id="shape-f22af9e7-b5ba-807e-8004-3c05f8753995" rx="0" ry="0"><g id="shape-f22af9e7-b5ba-807e-8004-3c05e4b7b530"><g class="fills" id="fills-f22af9e7-b5ba-807e-8004-3c05e4b7b530"><path d="M437.019,181.013L437.019,74.981L330.982,74.981L256.001,0.000L181.020,74.981L74.982,74.981L74.982,181.013L0.000,255.999L74.982,330.981L74.982,437.019L181.020,437.019L256.001,512.000L330.981,437.019L437.018,437.019L437.018,330.982L512.000,256.001ZM404.107,317.348L404.107,404.107L317.348,404.107L256.001,465.454L194.654,404.107L107.894,404.107L107.894,317.348L74.982,284.437L46.546,255.999L107.894,194.651L107.894,107.894L194.652,107.894L256.001,46.546L317.349,107.894L404.107,107.894L404.107,194.652L465.456,256.001L437.019,284.437ZM404.103,194.656L317.344,194.656L317.344,107.898L255.996,169.248L194.648,107.898L194.648,194.657L107.889,194.657L169.237,256.005L107.889,317.352L194.649,317.352L194.649,404.111L255.996,342.757L317.343,404.107L317.343,317.353L404.103,317.353L342.748,256.004ZM324.568,284.408L284.395,284.408L284.395,324.581L255.996,296.174L227.592,324.579L227.592,284.405L187.419,284.405L215.824,256.001L187.422,227.600L227.596,227.600L227.596,187.427L256.001,215.832L284.405,187.427L284.405,227.600L324.579,227.600L296.165,256.005Z" style="fill: rgb(0, 0, 0); fill-opacity: 1;"/></g></g></g></g></g></g></svg>