<svg xmlns:xlink="http://www.w3.org/1999/xlink" width="512" xmlns="http://www.w3.org/2000/svg" height="512" id="screenshot-b7ca680a-9053-8086-8004-17fd0330882d" viewBox="0 0 512 512" style="-webkit-print-color-adjust: exact;" fill="none" version="1.1"><g id="shape-b7ca680a-9053-8086-8004-17fd0330882d"><defs><clipPath class="frame-clip-def frame-clip" id="frame-clip-b7ca680a-9053-8086-8004-17fd0330882d-rumext-id-1"><rect rx="0" ry="0" x="0" y="0" width="512" height="512" transform="matrix(1.000000, 0.000000, 0.000000, 1.000000, 0.000000, 0.000000)"/></clipPath></defs><g clip-path="url(#frame-clip-b7ca680a-9053-8086-8004-17fd0330882d-rumext-id-1)" fill="none"><clipPath class="frame-clip-def frame-clip" id="frame-clip-b7ca680a-9053-8086-8004-17fd0330882d-rumext-id-1"><rect rx="0" ry="0" x="0" y="0" width="512" height="512" transform="matrix(1.000000, 0.000000, 0.000000, 1.000000, 0.000000, 0.000000)"/></clipPath><g class="fills" id="fills-b7ca680a-9053-8086-8004-17fd0330882d"><rect rx="0" ry="0" x="0" y="0" transform="matrix(1.000000, 0.000000, 0.000000, 1.000000, 0.000000, 0.000000)" width="512" height="512" class="frame-background"/></g><g class="frame-children"><g id="shape-b7ca680a-9053-8086-8004-17fce4914e87"><g class="fills" id="fills-b7ca680a-9053-8086-8004-17fce4914e87"><path rx="0" ry="0" d="M320.284,271.427L320.284,271.427ZL320.284,271.427ZL292.284,299.427C306.570,306.284,316.855,321.142,316.855,338.856C316.855,362.856,297.427,382.285,273.427,382.285C256.284,382.285,241.427,371.999,233.998,357.713L200.284,391.428L199.712,391.999L319.713,512.000L365.998,465.714L365.998,465.714C347.713,465.714,332.284,450.857,332.284,431.999C332.284,413.142,347.141,398.285,365.998,398.285C384.284,398.285,399.713,413.142,399.713,431.999L440.284,391.428L393.999,345.713L393.999,345.713L390.570,342.285C391.141,342.285,392.284,342.285,392.856,342.285C411.141,342.285,426.570,327.427,426.570,308.570C426.570,299.999,423.141,292.570,417.999,286.284C412.284,281.141,404.284,277.713,395.713,277.713C377.427,277.713,361.998,292.570,361.998,311.427C361.998,311.999,361.998,313.142,361.998,313.713L359.713,311.427L359.713,311.427Z" style="fill: rgb(0, 0, 0); fill-opacity: 1;"/></g></g><g id="shape-b7ca680a-9053-8086-8004-17fce4914e88"><g class="fills" id="fills-b7ca680a-9053-8086-8004-17fce4914e88"><path rx="0" ry="0" d="M237.143,252.286C213.143,252.286,193.715,232.857,193.715,208.857C193.715,191.714,203.429,176.857,217.715,170.000L184.000,136.285L184.000,136.285L64.000,256.286L190.858,383.144L245.143,328.858C243.429,332.286,242.858,336.287,242.858,340.287C242.858,356.858,256.572,370.572,273.143,370.572C289.715,370.572,303.429,356.858,303.429,340.287C303.429,323.715,289.715,310.001,273.143,310.001C269.143,310.001,265.143,310.572,261.715,312.286L310.858,263.143L276.572,228.857C269.143,242.000,254.286,252.286,237.143,252.286ZZ" style="fill: rgb(0, 0, 0); fill-opacity: 1;"/></g></g><g id="shape-b7ca680a-9053-8086-8004-17fce4914e89"><g class="fills" id="fills-b7ca680a-9053-8086-8004-17fce4914e89"><path rx="0" ry="0" d="M448.000,126.858L398.286,77.143C398.857,77.143,400.000,77.143,400.571,77.143C418.857,77.143,434.286,62.286,434.286,43.429C434.286,25.143,419.428,10.286,400.571,10.286C382.286,10.286,366.857,25.143,366.857,44.000C366.857,44.572,366.857,45.715,366.857,46.286L320.571,0.000L200.571,120.001L196.571,124.572L194.285,126.858L248.571,181.144C245.142,180.001,241.714,179.430,238.285,179.430C221.714,179.430,207.999,193.144,207.999,209.716C207.999,226.287,221.714,240.002,238.285,240.002C254.857,240.002,268.571,226.287,268.571,209.716C268.571,206.859,267.999,204.573,267.428,201.716C267.428,200.573,266.857,200.001,266.857,198.858L269.714,201.716L322.285,254.287L324.571,252.002L329.143,247.430L368.000,208.573C368.000,208.573,368.000,208.573,368.000,208.573C349.714,208.573,334.285,193.716,334.285,174.858C334.285,156.001,349.143,141.144,368.000,141.144C386.286,141.144,401.714,156.001,401.714,174.858C401.714,174.858,401.714,174.858,401.714,174.858Z" style="fill: rgb(0, 0, 0); fill-opacity: 1;"/></g></g></g></g></g></svg>