<svg width="512" xmlns="http://www.w3.org/2000/svg" height="512" id="screenshot-58e2ee3b-6ed5-8049-8004-2216481a6c47" viewBox="0 0 512 512" xmlns:xlink="http://www.w3.org/1999/xlink" fill="none" version="1.1"><g id="shape-58e2ee3b-6ed5-8049-8004-2216481a6c47"><defs><clipPath id="frame-clip-58e2ee3b-6ed5-8049-8004-2216481a6c47-render-1" class="frame-clip frame-clip-def"><rect rx="20" ry="20" x="0" y="0" width="512" height="512" transform="matrix(1.000000, 0.000000, 0.000000, 1.000000, 0.000000, 0.000000)"/></clipPath></defs><g clip-path="url(#frame-clip-58e2ee3b-6ed5-8049-8004-2216481a6c47-render-1)" fill="none"><g class="fills" id="fills-58e2ee3b-6ed5-8049-8004-2216481a6c47"><rect rx="20" ry="20" x="0" y="0" width="512" height="512" transform="matrix(1.000000, 0.000000, 0.000000, 1.000000, 0.000000, 0.000000)" class="frame-background"/></g><g class="frame-children"><g id="shape-a2e26dde-73a9-8088-8004-310b0c5e4b29" rx="0" ry="0" style="fill: rgb(0, 0, 0);"><g id="shape-a2e26dde-73a9-8088-8004-310b0c62e901"><g class="fills" id="fills-a2e26dde-73a9-8088-8004-310b0c62e901"><path d="M256.390,139.457C203.320,139.457,158.338,175.435,144.397,224.181C132.281,198.326,106.024,180.211,75.781,180.211C34.189,180.211,0.000,214.401,0.000,255.992C0.000,297.584,34.189,331.789,75.781,331.789C106.024,331.789,132.281,313.663,144.397,287.803C158.338,336.553,203.320,372.543,256.390,372.543C309.068,372.543,353.820,337.096,368.118,288.896C380.458,314.169,406.390,331.789,436.204,331.789C477.795,331.789,512.000,297.584,512.000,255.992C512.000,214.401,477.795,180.211,436.204,180.211C406.390,180.211,380.458,197.820,368.118,223.089C353.820,174.892,309.068,139.457,256.390,139.457ZZM256.390,183.942C296.452,183.942,328.456,215.930,328.456,255.992C328.456,296.054,296.452,328.058,256.390,328.058C216.328,328.058,184.340,296.054,184.340,255.992C184.340,215.930,216.328,183.942,256.390,183.942ZZM75.781,224.697C93.333,224.697,107.092,238.440,107.092,255.992C107.092,273.544,93.333,287.303,75.781,287.303C58.229,287.303,44.485,273.544,44.485,255.992C44.485,238.440,58.229,224.697,75.781,224.697ZL75.781,224.697ZZM436.204,224.697C453.756,224.697,467.515,238.440,467.515,255.992C467.515,273.544,453.756,287.303,436.204,287.303C418.652,287.303,404.908,273.544,404.908,255.992C404.908,238.440,418.652,224.697,436.204,224.697ZL436.204,224.697ZZ" fill-rule="nonzero" stroke="none" stroke-width="1" style="fill: rgb(0, 0, 0);"/></g></g></g></g></g></g></svg>