<svg width="512" xmlns="http://www.w3.org/2000/svg" height="512" id="screenshot-58e2ee3b-6ed5-8049-8004-221647ef82a0" viewBox="0 0 512 512" xmlns:xlink="http://www.w3.org/1999/xlink" fill="none" version="1.1"><g id="shape-58e2ee3b-6ed5-8049-8004-221647ef82a0"><defs><clipPath id="frame-clip-58e2ee3b-6ed5-8049-8004-221647ef82a0-render-1" class="frame-clip frame-clip-def"><rect rx="20" ry="20" x="0" y="0" width="512" height="512" transform="matrix(1.000000, 0.000000, 0.000000, 1.000000, 0.000000, 0.000000)"/></clipPath></defs><g clip-path="url(#frame-clip-58e2ee3b-6ed5-8049-8004-221647ef82a0-render-1)" fill="none"><g class="fills" id="fills-58e2ee3b-6ed5-8049-8004-221647ef82a0"><rect rx="20" ry="20" x="0" y="0" width="512" height="512" transform="matrix(1.000000, 0.000000, 0.000000, 1.000000, 0.000000, 0.000000)" class="frame-background"/></g><g class="frame-children"><g id="shape-a2e26dde-73a9-8088-8004-310bf92153c5" rx="0" ry="0" style="fill: rgb(0, 0, 0);"><g id="shape-a2e26dde-73a9-8088-8004-310bf9262619"><defs><radialGradient id="render-3-nodebb-a" cx="0.6559900000000001" cy="0" r="1.69036" fx="0.6559900000000001" fy="0" gradientTransform="matrix(-.5183 .5916 -.38031 -.80624 .996 -.388)"><stop offset="0" stop-color="#2A6CBE"/><stop offset="0.38688" stop-color="#2062BC"/><stop offset="0.49182000000000003" stop-color="#1F5FBC"/><stop offset="0.66583" stop-color="#1C5ABD"/><stop offset="0.85354" stop-color="#1956BC"/><stop offset="1" stop-color="#1851BE"/></radialGradient></defs><g class="fills" id="fills-a2e26dde-73a9-8088-8004-310bf9262619"><path d="M249.905,91.429L249.902,327.499C249.859,366.817,249.231,393.900,249.231,420.571L249.231,420.571L119.766,420.571C42.437,420.571,0.000,384.366,0.000,327.471C0.000,289.384,21.690,261.642,55.639,250.358C27.820,238.602,10.845,212.271,10.845,179.827C10.845,127.164,52.810,91.429,126.367,91.429L126.367,91.429L249.905,91.429ZZM385.633,91.429C459.190,91.429,501.155,127.164,501.155,179.827C501.155,212.271,484.180,238.602,456.361,250.358C490.310,261.642,512.000,289.384,512.000,327.471C512.000,384.366,469.563,420.571,392.234,420.571L262.769,420.571L262.769,420.571C262.769,393.900,262.141,366.817,262.098,327.499L262.095,91.429L385.633,91.429ZZM183.421,279.510L124.952,279.510C86.288,279.510,66.956,294.087,66.956,322.769C66.956,352.862,84.873,367.909,120.237,367.909L120.237,367.909L150.886,367.909C175.405,367.909,183.421,356.153,183.421,320.418L183.421,320.418L183.421,279.510ZZM387.048,279.510L328.579,279.510L328.579,320.418C328.579,356.153,336.595,367.909,361.114,367.909L391.763,367.909C427.127,367.909,445.044,352.862,445.044,322.769C445.044,294.087,425.712,279.510,387.048,279.510ZZM183.892,144.091L130.139,144.091C95.718,144.091,77.801,159.608,77.801,185.940C77.801,212.271,95.718,227.788,130.139,227.788L130.139,227.788L183.892,227.788L183.892,144.091ZZM381.861,144.091L328.108,144.091L328.108,227.788L381.861,227.788C416.282,227.788,434.199,212.271,434.199,185.940C434.199,159.608,416.282,144.091,381.861,144.091ZZ"/></g></g></g></g></g></g></svg>