<svg xmlns:xlink="http://www.w3.org/1999/xlink" width="512" xmlns="http://www.w3.org/2000/svg" height="512" id="screenshot-24b0466e-7c13-801d-8004-20e79e9eb04d" viewBox="0 0 512 512" style="-webkit-print-color-adjust: exact;" fill="none" version="1.1"><g id="shape-24b0466e-7c13-801d-8004-20e79e9eb04d"><defs><clipPath class="frame-clip-def frame-clip" id="frame-clip-24b0466e-7c13-801d-8004-20e79e9eb04d-rumext-id-1"><rect rx="20" ry="20" x="0" y="0" width="512" height="512.0000000000009" transform="matrix(1.000000, 0.000000, 0.000000, 1.000000, 0.000000, 0.000000)"/></clipPath></defs><g clip-path="url(#frame-clip-24b0466e-7c13-801d-8004-20e79e9eb04d-rumext-id-1)" fill="none"><clipPath class="frame-clip-def frame-clip" id="frame-clip-24b0466e-7c13-801d-8004-20e79e9eb04d-rumext-id-1"><rect rx="20" ry="20" x="0" y="0" width="512" height="512.0000000000009" transform="matrix(1.000000, 0.000000, 0.000000, 1.000000, 0.000000, 0.000000)"/></clipPath><g class="fills" id="fills-24b0466e-7c13-801d-8004-20e79e9eb04d"><rect rx="20" ry="20" x="0" y="0" transform="matrix(1.000000, 0.000000, 0.000000, 1.000000, 0.000000, 0.000000)" width="512" height="512.0000000000009" class="frame-background"/></g><g class="frame-children"><g id="shape-24b0466e-7c13-801d-8004-20e7aa3936f5" rx="0" ry="0" style="fill: rgb(0, 0, 0);"><g id="shape-24b0466e-7c13-801d-8004-20e7aa3a75e6" rx="0" ry="0" style="fill: rgb(0, 0, 0);"><g id="shape-24b0466e-7c13-801d-8004-20e7aa3af8c3" rx="0" ry="0" style="fill: rgb(0, 0, 0);"><g id="shape-24b0466e-7c13-801d-8004-20e7aa3b4397" rx="0" ry="0" style="fill: rgb(0, 0, 0);"><g id="shape-24b0466e-7c13-801d-8004-20e7aa3dec6f"><g class="fills" id="fills-24b0466e-7c13-801d-8004-20e7aa3dec6f"><path fill-rule="nonzero" rx="0" ry="0" d="M435.086,408.356C429.811,402.945,423.449,400.236,416.000,400.236L367.978,400.236C360.529,400.236,354.167,402.945,348.893,408.356C343.616,413.771,340.978,420.223,340.978,427.717L340.978,486.089C340.978,493.583,341.429,512.000,341.429,512.000L442.967,512.000C442.967,512.000,443.000,493.583,443.000,486.089L443.000,427.717C443.000,420.223,440.360,413.771,435.086,408.356ZM280.011,273.917L231.989,273.917C224.540,273.917,218.178,276.624,212.904,282.037C207.626,287.452,204.989,293.902,204.989,301.396L204.989,486.089C204.989,493.583,205.217,512.000,205.217,512.000L306.755,512.000C306.755,512.000,307.011,493.583,307.011,486.089L307.011,301.396C307.011,293.902,304.371,287.452,299.096,282.037C293.822,276.624,287.460,273.917,280.011,273.917ZM144.022,135.330L96.000,135.330C88.551,135.330,82.189,138.039,76.914,143.450C71.637,148.867,69.000,155.315,69.000,162.812L69.000,486.089C69.000,493.892,69.004,512.000,69.004,512.000L170.545,512.000C170.545,512.000,171.022,493.925,171.022,486.089L171.022,162.812C171.022,155.315,168.382,148.867,163.107,143.450C157.833,138.039,151.471,135.330,144.022,135.330Z" style="fill: rgb(0, 0, 0);"/></g></g><g id="shape-24b0466e-7c13-801d-8004-20e7aa3f5d4d"><g class="fills" id="fills-24b0466e-7c13-801d-8004-20e7aa3f5d4d"><path fill-rule="nonzero" rx="0" ry="0" d="M368.975,274.489C361.548,274.489,355.158,277.152,349.791,282.476C344.429,287.799,341.746,294.221,341.746,301.739L341.746,350.204C341.746,357.722,344.429,364.141,349.791,369.465C355.158,374.791,361.548,377.453,368.975,377.453L416.906,377.453C424.332,377.453,442.580,377.421,442.580,377.421L442.580,274.942C442.580,274.942,424.332,274.489,416.906,274.489L368.975,274.489ZZM236.382,137.244C228.955,137.244,222.563,139.906,217.196,145.232C211.836,150.556,209.153,156.975,209.153,164.493L209.153,212.958C209.153,220.474,211.836,226.896,217.196,232.221C222.563,237.545,228.955,240.208,236.382,240.208L416.906,240.208C424.332,240.208,442.580,239.952,442.580,239.952L442.580,137.473C442.580,137.473,424.332,137.244,416.906,137.244L236.382,137.244ZZM416.906,0.000L96.586,0.000C89.161,0.000,82.769,2.661,77.402,7.986C72.040,13.310,69.356,19.729,69.356,27.247L69.356,75.714C69.356,83.230,72.040,89.650,77.402,94.975C82.769,100.301,89.161,102.962,96.586,102.962L416.906,102.962C424.669,102.962,442.580,102.480,442.580,102.480L442.580,0.002C442.580,0.002,424.639,0.000,416.906,0.000Z" style="fill: rgb(0, 0, 0);"/></g></g></g></g></g></g></g></g></g></svg>