<?xml version="1.0" encoding="UTF-8"?>
<svg width="512px" height="512px" viewBox="0 0 512 512" version="1.1" xmlns="http://www.w3.org/2000/svg" xmlns:xlink="http://www.w3.org/1999/xlink">
    <title>openEngiadina</title>
    <g id="openEngiadina" stroke="none" stroke-width="1" fill="none" fill-rule="evenodd">
        <path d="M256,0 C397.384896,0 512,114.615104 512,256 C512,397.384896 397.384896,512 256,512 C114.615104,512 0,397.384896 0,256 C0,114.615104 114.615104,0 256,0 Z M250.885287,264.145551 C200.973808,324.525014 197.060916,391.162029 239.146614,464.056595 C269.968975,473.944106 309.955921,465.873577 359.107451,439.845008 C323.260414,414.986823 298.010458,389.867967 283.357581,364.48844 C269.009972,339.637652 258.333272,307.051432 251.32748,266.729779 Z M263.362137,403.727086 C273.076242,398.118645 285.497621,401.446943 291.106062,411.161049 C296.714504,420.875154 293.386205,433.296533 283.6721,438.904974 C273.957994,444.513416 261.536616,441.185117 255.928174,431.471012 C250.319733,421.756906 253.648031,409.335528 263.362137,403.727086 Z M243.49694,252.978086 C166.25105,239.943209 106.585257,269.873053 64.49956,342.767619 C71.3479055,374.404322 98.3306615,404.998769 145.447828,434.550958 C149.052129,391.077422 158.180718,356.650889 172.833595,331.271362 C187.181204,306.420574 210.063349,280.881171 241.480029,254.653151 Z M243.582942,299.204098 L243.960139,300.74046 C250.838917,328.519071 259.858493,352.126309 271.086224,371.573311 C273.294899,375.253122 274.9118,377.87292 275.936928,379.432707 C268.432336,378.524687 259.803494,380.886152 250.050401,386.517103 C235.420762,394.963529 232.18762,414.131171 232.12495,413.948546 C231.760708,412.888238 230.982293,410.42878 229.789706,406.570172 C219.571123,368.994731 223.978997,333.77409 242.969736,300.270716 L243.582942,299.204098 Z M467,258 C427.600546,276.616166 393.267213,285.92425 364,285.92425 C335.342521,285.92425 301.82781,278.877125 263.455869,264.782875 L261,263.873671 C288.298461,337.291224 343.97804,374 428.038738,374 C451.981225,352.249856 464.968312,313.583189 467,258 Z M101.110283,341.008085 C106.718725,331.29398 119.140103,327.965681 128.854209,333.574123 C138.568314,339.182564 141.896613,351.603943 136.288171,361.318048 C130.67973,371.032154 118.258351,374.360452 108.544246,368.752011 C98.8301401,363.143569 95.5018418,350.722191 101.110283,341.008085 Z M287.675291,287.728005 L289.192421,288.169543 C316.652631,296.101998 341.574069,300.094611 364,300.094611 C368.285504,300.021745 371.358719,299.931363 373.219647,299.823464 C368.686952,305.868886 366.420604,314.522794 366.420604,325.785188 C366.420604,338.962189 375.52433,349.395766 379.440164,353.331195 L379.730908,353.62104 C380.477655,354.359444 380.990689,354.820371 381.146654,354.971413 L381.188163,355.013465 C381.196259,355.022598 381.198535,355.026825 381.19475,355.026085 C380.095822,354.811364 377.579975,354.255738 373.647208,353.359206 C336.046146,343.420602 307.785328,321.992014 288.291595,288.792413 L287.675291,287.728005 Z M408.235653,302.550899 C419.437784,302.550899 428.518906,311.644377 428.518906,322.861751 C428.518906,334.079124 419.437784,343.172602 408.235653,343.172602 C397.033522,343.172602 387.9524,334.079124 387.9524,322.861751 C387.9524,311.644377 397.033522,302.550899 408.235653,302.550899 Z M209.484175,264.183343 L208.342245,265.278187 C187.724651,285.124689 171.789971,304.73949 160.562239,324.186491 C158.479766,327.939165 157.019405,330.649342 156.181155,332.317022 C153.215227,325.363845 146.855717,319.071781 137.102624,313.44083 C122.472985,304.994404 104.256748,311.778241 104.383572,311.632656 C105.119705,310.787059 106.86045,308.883203 109.605809,305.921088 C137.037804,278.283815 169.743711,264.490825 208.253853,264.1856 L209.484175,264.183343 Z M365.222467,74.1628776 C362.377433,117.692697 353.85106,152.273301 339.643349,177.904691 C325.731631,203.002094 303.298696,228.936957 272.344542,255.709279 L270.357173,257.419288 C347.818787,269.104053 406.953145,238.137456 447.760247,164.519496 C440.360808,133.007131 412.848215,102.888258 365.222467,74.1628776 Z M83.9612622,135 C60.0187754,156.750144 47.031688,195.416811 45,251 C84.3994537,232.383834 118.732787,223.07575 148,223.07575 C176.657479,223.07575 210.17219,230.122875 248.544131,244.217125 L251,245.126329 C223.701539,171.708776 168.02196,135 83.9612622,135 Z M276.00595,48.7711243 C245.360844,38.3471954 205.239138,45.7186268 155.640833,70.8854186 C191.048575,96.3654342 215.856301,121.921137 230.064013,147.552527 C243.97573,172.64993 254.082097,205.417521 260.383111,245.855302 L260.780136,248.446853 C311.73778,188.947661 316.813052,122.389085 276.00595,48.7711243 Z M356.275004,176.568566 C359.36183,183.468921 365.830183,189.649038 375.680064,195.108916 C390.454885,203.298733 408.549953,196.198012 408.42569,196.345789 C407.704427,197.204104 405.997173,199.138051 403.303929,202.147627 C376.358449,230.259445 343.898243,244.621131 305.399293,245.598404 L304.169199,245.622133 L305.291847,244.507527 C325.559931,224.304221 341.14986,204.414309 352.036484,184.774319 C354.053146,180.985872 355.465986,178.250621 356.275004,176.568566 Z M130.80525,153.973915 C131.904178,154.188636 134.420025,154.744262 138.352792,155.640794 C175.953854,165.579398 204.214672,187.007986 223.708405,220.207587 L224.324709,221.271995 L222.807579,220.830457 C195.347369,212.898002 170.425931,208.905389 148,208.905389 C143.714496,208.978255 140.641281,209.068637 138.780353,209.176536 C143.313048,203.131114 145.579396,194.477206 145.579396,183.214812 C145.579396,170.037811 136.47567,159.604234 132.559836,155.668805 L132.269092,155.37896 C131.522345,154.640556 131.009311,154.179629 130.853346,154.028587 L130.811837,153.986535 C130.803741,153.977402 130.801465,153.973175 130.80525,153.973915 Z M282.152038,98.9940865 C282.49772,100.06059 283.233092,102.533259 284.358156,106.412092 C293.919401,144.160149 288.897513,179.298498 269.324953,212.465336 L268.693225,213.521089 L268.342898,211.978378 C261.949971,184.083947 253.343773,160.322891 242.457148,140.6829 C240.313032,136.965103 238.742099,134.317484 237.744348,132.740045 C245.23195,133.7789 253.900692,131.568388 263.750572,126.10851 C278.525394,117.918693 282.092566,98.8103955 282.152038,98.9940865 Z M103.764347,165.827398 C114.966478,165.827398 124.0476,174.920876 124.0476,186.138249 C124.0476,197.355623 114.966478,206.449101 103.764347,206.449101 C92.5622158,206.449101 83.4810943,197.355623 83.4810943,186.138249 C83.4810943,174.920876 92.5622158,165.827398 103.764347,165.827398 Z M375.65882,147.224776 C381.096873,137.414269 393.458272,133.869695 403.268779,139.307747 C413.079286,144.7458 416.62386,157.1072 411.185808,166.917707 C405.747755,176.728214 393.386355,180.272788 383.575848,174.834735 C373.765341,169.396683 370.220767,157.035283 375.65882,147.224776 Z M231.048289,73.1418377 C240.858796,67.703785 253.220196,71.2483593 258.658249,81.0588662 C264.096301,90.869373 260.551727,103.230773 250.74122,108.668826 C240.930713,114.106878 228.569314,110.562304 223.131261,100.751797 C217.693208,90.9412903 221.237782,78.5798904 231.048289,73.1418377 Z" id="Oval-2" fill="#000000"></path>
        <path d="M256,0 C397.384896,0 512,114.615104 512,256 C512,397.384896 397.384896,512 256,512 C114.615104,512 0,397.384896 0,256 C0,114.615104 114.615104,0 256,0 Z M256,47.2324723 C140.700878,47.2324723 47.2324723,140.700878 47.2324723,256 C47.2324723,371.299122 140.700878,464.767528 256,464.767528 C371.299122,464.767528 464.767528,371.299122 464.767528,256 C464.767528,140.700878 371.299122,47.2324723 256,47.2324723 Z" id="Oval" fill="#000000" fill-rule="nonzero"></path>
    </g>
</svg>