<?xml version="1.0" encoding="UTF-8"?>
<svg width="512px" height="512px" viewBox="0 0 512 512" version="1.1" xmlns="http://www.w3.org/2000/svg" xmlns:xlink="http://www.w3.org/1999/xlink">
    <title>Osada</title>
    <g id="All-Fediverse-Symbols" stroke="none" stroke-width="1" fill="none" fill-rule="evenodd">
        <g id="Osada" fill="#000000" fill-rule="nonzero">
            <path d="M503.380096,231.155575 C501.979853,230.515148 486.383283,230.426811 465.35808,230.625561 C460.417503,193.441478 445.902988,158.277983 423.307665,128.752401 C438.171793,113.978248 449.158332,102.781696 449.998473,101.059148 C455.38403,90.1055229 425.871189,59.4751162 413.979879,64.1348196 C412.558097,64.6869178 401.528474,75.8834703 386.901308,91.1434664 C356.374564,66.5040129 319.858676,50.887369 281.301342,45.9818341 C281.602927,25.6425318 281.624474,10.6254609 281.042833,8.83666087 C277.29449,-2.80156868 235.308698,-3.08866415 230.09548,8.83666087 C229.492301,10.2279526 229.384585,25.3333606 229.556924,45.9376656 C191.149284,50.7579649 154.74733,66.2101478 124.258543,90.6355368 C109.997594,75.5522148 99.2049408,64.4219151 97.5246507,63.5606372 C86.8397056,58.0396559 56.960646,88.2946387 61.5060549,100.484966 C62.0446106,101.942511 72.8803473,113.161139 87.679855,128.067797 C64.9509695,157.562447 50.3020446,192.734926 45.2416777,229.96305 C25.2074121,229.65387 10.3648214,229.631786 8.61990146,230.228053 C-2.73284957,234.070655 -3.01289846,277.112234 8.61990146,282.45655 C9.97706156,283.0749 24.6042291,283.185313 44.5738684,283.008648 C48.9408199,321.016366 63.7726864,356.964116 87.3351766,386.648524 C72.7295522,401.157665 62.0230682,412.089215 61.1829214,413.811762 C55.7973658,424.765388 85.310208,455.395796 97.201519,450.736093 C98.6233003,450.183994 109.803716,438.832852 124.603221,423.396189 C155.175493,446.584924 191.151394,461.13763 228.932198,465.598574 C228.630605,486.136626 228.609067,501.352455 229.190707,503.163339 C232.939051,514.801569 274.924843,515.088664 280.138061,503.163339 C280.74124,501.772056 280.848956,486.512058 280.676617,465.731079 C318.904372,461.37894 355.317799,446.692709 386.190413,423.175346 C400.817587,438.656178 411.933372,450.117742 413.635209,451.001095 C424.320145,456.522077 454.199211,426.267101 449.653803,414.076765 C449.115247,412.619229 438.236425,401.356423 423.372288,386.383521 C446.672833,356.918616 461.383347,321.30737 465.810466,283.649083 C486.340199,283.980338 501.592098,284.002423 503.380096,283.406156 C514.732851,279.541469 515.012898,236.49989 503.380096,231.155575 Z M429,231.155553 C390.48765,231.799999 349.693413,232.777783 341.168597,233 C339.374504,226.97871 336.971749,221.168959 334,215.666667 C355.102856,195.180482 376.142318,174.624821 397.118064,154 C413.584339,176.707804 424.519075,203.170302 429,231.155553 L429,231.155553 Z M361,117.461536 C335.728866,144.186812 309.234947,172.626373 301.426206,181 C294.135447,176.414283 286.248741,172.907083 278,170.58242 C278.407598,156.69231 279.523132,118.692307 280.31688,83 C309.604699,87.3804631 337.348579,99.2304846 361,117.461536 Z M230.283624,83 C230.841443,119.151313 231.678181,157.6772 232,171.591791 C223.925539,173.944861 216.206597,177.447802 209.064889,182 C189.455624,160.410987 169.767186,138.899064 150,117.464695 C173.554853,99.2145818 201.157731,87.3650325 230.283624,83 L230.283624,83 Z M113.226756,154 C134.081645,174.633748 155.006185,195.193704 176,215.679499 C172.984128,221.14449 170.592973,226.962066 168.783451,233 C157.538553,232.647414 118.030613,231.435427 81,230.553972 C85.5839499,202.761106 96.6372196,176.504299 113.226756,154 L113.226756,154 Z M81,282.809318 C117.931333,282.213567 157.589578,281.264774 169.141358,281 C171.052335,287.553253 173.650411,293.797602 177,299.622713 C169.012527,307.345411 139.896889,335.522198 112.885487,362 C95.758225,338.888772 84.7705219,311.599752 81,282.809318 L81,282.809318 Z M149,397.903875 C175.598706,369.576968 203.788599,339.098362 210.368395,332 C217.120204,335.9041 224.38808,338.943083 232,341.006042 C231.569945,355.64642 230.451809,394.776162 229.634713,431 C200.542445,426.916479 172.859876,415.554309 149,397.903892 L149,397.903875 Z M279.751804,431 C279.189501,395.028021 278.324415,356.150095 278,341.598393 C286.019616,339.449491 293.7219,336.221577 300.903198,332 C307.348093,338.978649 335.441816,369.358907 362,397.691795 C337.712128,415.547841 309.452188,426.992321 279.751804,431 L279.751804,431 Z M398.309841,361 C376.939772,339.864492 355.503047,318.799662 334,297.805841 C337.131098,292.184154 339.6121,286.208671 341.392931,280 C350.688135,280.287552 391.565418,281.570452 430,282.477338 C426.212235,311.004742 415.297254,338.050154 398.309841,361 L398.309841,361 Z"></path>
        </g>
    </g>
</svg>