<svg xmlns:xlink="http://www.w3.org/1999/xlink" width="512" xmlns="http://www.w3.org/2000/svg" height="512" id="screenshot-7df70fec-7f90-8051-8004-1ccc6d66af04" viewBox="0 0 512 512" style="-webkit-print-color-adjust: exact;" fill="none" version="1.1"><g id="shape-7df70fec-7f90-8051-8004-1ccc6d66af04"><defs><clipPath class="frame-clip-def frame-clip" id="frame-clip-7df70fec-7f90-8051-8004-1ccc6d66af04-rumext-id-1"><rect rx="20" ry="20" x="0" y="0" width="512" height="512" transform="matrix(1.000000, 0.000000, 0.000000, 1.000000, 0.000000, 0.000000)"/></clipPath></defs><g clip-path="url(#frame-clip-7df70fec-7f90-8051-8004-1ccc6d66af04-rumext-id-1)" fill="none"><clipPath class="frame-clip-def frame-clip" id="frame-clip-7df70fec-7f90-8051-8004-1ccc6d66af04-rumext-id-1"><rect rx="20" ry="20" x="0" y="0" width="512" height="512" transform="matrix(1.000000, 0.000000, 0.000000, 1.000000, 0.000000, 0.000000)"/></clipPath><g class="fills" id="fills-7df70fec-7f90-8051-8004-1ccc6d66af04"><rect rx="20" ry="20" x="0" y="0" transform="matrix(1.000000, 0.000000, 0.000000, 1.000000, 0.000000, 0.000000)" width="512" height="512" class="frame-background"/></g><g class="frame-children"><g id="shape-7df70fec-7f90-8051-8004-1ccc6d66af06"><g class="fills" id="fills-7df70fec-7f90-8051-8004-1ccc6d66af06"><path rx="0" ry="0" d="M251.000,284.000L463.712,129.789C463.712,129.789,504.442,190.037,507.000,265.500C510.000,354.000,447.932,421.044,447.932,421.044L251.000,284.000Z" style="opacity: 1; fill: rgb(0, 0, 0); fill-opacity: 1;"/></g></g><g id="shape-7df70fec-7f90-8051-8004-1cccb40842c0"><g class="fills" id="fills-7df70fec-7f90-8051-8004-1cccb40842c0"><path rx="0" ry="0" d="M399.456,423.065C357.252,463.875,299.787,489.000,236.500,489.000C107.076,489.000,2.000,383.924,2.000,254.500C2.000,125.076,107.076,20.000,236.500,20.000C307.586,20.000,371.327,51.699,414.347,101.720L216.198,271.812C216.198,271.812,209.265,276.342,210.000,284.000C210.787,292.205,218.481,295.607,218.481,295.607L399.456,423.065Z" style="fill: rgb(0, 0, 0); fill-opacity: 1;"/></g></g><g id="shape-7df70fec-7f90-8051-8004-1ccc6d66af0c"><g class="fills" id="fills-7df70fec-7f90-8051-8004-1ccc6d66af0c"><path rx="0" ry="0" d="M73.000,144.000L104.000,168.000M108.000,379.787L134.149,359.632M45.686,282.683L78.464,278.736M300.352,115.512L316.426,86.674M189.553,182.244L172.472,159.000M195.914,348.481L206.030,325.619M122.000,232.259L143.882,234.741M371.913,310.774L409.087,323.226M206.025,73.555L210.975,112.445"/></g><g id="strokes-7df70fec-7f90-8051-8004-1ccc6d66af0c" class="strokes"><g class="stroke-shape"><path rx="0" ry="0" d="M73.000,144.000L104.000,168.000M108.000,379.787L134.149,359.632M45.686,282.683L78.464,278.736M300.352,115.512L316.426,86.674M189.553,182.244L172.472,159.000M195.914,348.481L206.030,325.619M122.000,232.259L143.882,234.741M371.913,310.774L409.087,323.226M206.025,73.555L210.975,112.445" style="fill: none; stroke-width: 20; stroke: rgb(255, 255, 255); stroke-opacity: 1; stroke-linecap: round;"/></g></g></g><g id="shape-7df70fec-7f90-8051-8004-1ccc6d66af07"><g class="fills" id="fills-7df70fec-7f90-8051-8004-1ccc6d66af07"><path rx="0" ry="0" d="M447.000,374.000C501.000,301.000,478.000,216.000,458.000,179.000"/></g><g id="strokes-7df70fec-7f90-8051-8004-1ccc6d66af07" class="strokes"><g class="stroke-shape"><path rx="0" ry="0" d="M447.000,374.000C501.000,301.000,478.000,216.000,458.000,179.000" style="fill: none; stroke-width: 20; stroke: rgb(255, 255, 255); stroke-opacity: 1; stroke-linecap: round;"/></g></g></g></g></g></g></svg>