<svg xmlns:xlink="http://www.w3.org/1999/xlink" width="512" xmlns="http://www.w3.org/2000/svg" height="512" id="screenshot-e896cdf2-4b36-80a4-8004-1946544d2704" viewBox="0 0 512 512" style="-webkit-print-color-adjust: exact;" fill="none" version="1.1"><g id="shape-e896cdf2-4b36-80a4-8004-1946544d2704"><defs><clipPath class="frame-clip-def frame-clip" id="frame-clip-e896cdf2-4b36-80a4-8004-1946544d2704-rumext-id-1"><rect rx="20" ry="20" x="0" y="0" width="512" height="512" transform="matrix(1.000000, 0.000000, 0.000000, 1.000000, 0.000000, 0.000000)"/></clipPath></defs><g clip-path="url(#frame-clip-e896cdf2-4b36-80a4-8004-1946544d2704-rumext-id-1)" fill="none"><clipPath class="frame-clip-def frame-clip" id="frame-clip-e896cdf2-4b36-80a4-8004-1946544d2704-rumext-id-1"><rect rx="20" ry="20" x="0" y="0" width="512" height="512" transform="matrix(1.000000, 0.000000, 0.000000, 1.000000, 0.000000, 0.000000)"/></clipPath><g class="fills" id="fills-e896cdf2-4b36-80a4-8004-1946544d2704"><rect rx="20" ry="20" x="0" y="0" transform="matrix(1.000000, 0.000000, 0.000000, 1.000000, 0.000000, 0.000000)" width="512" height="512" class="frame-background"/></g><g class="frame-children"><g id="shape-e896cdf2-4b36-80a4-8004-19c3c0565e2d"><g class="fills" id="fills-e896cdf2-4b36-80a4-8004-19c3c0565e2d"><path rx="0" ry="0" d="M197.015,0.000C203.975,0.000,210.950,0.894,217.742,2.667C261.476,14.077,287.764,58.840,276.322,102.451C273.663,112.589,269.150,121.999,262.889,130.409L262.327,131.167L277.719,161.722L266.648,161.722L250.275,129.236C257.909,120.944,263.419,110.998,266.434,100.009L266.636,99.258C276.604,61.271,253.684,22.268,215.576,12.331C177.467,2.395,138.339,25.226,128.370,63.228C118.402,101.215,141.306,140.219,179.430,150.156C190.753,153.099,202.411,153.250,213.658,150.611L221.183,161.722L180.277,161.724C180.740,161.820,181.204,161.913,181.668,162.002L110.167,162.000L110.274,163.228C119.782,275.168,109.283,362.226,75.034,473.890L75.000,474.000L393.055,474.000L393.372,473.173C405.101,442.174,412.849,403.239,417.091,358.174L417.281,356.122C422.225,302.041,421.886,244.209,418.340,189.529C417.840,181.818,417.309,174.767,416.775,168.464L416.545,165.809L416.200,162.000L277.896,162.000L272.371,151.000L443.671,151.000C446.614,151.000,449.000,153.383,449.000,156.322L449.000,506.678C449.000,509.617,446.614,512.000,443.671,512.000L116.453,512.000C113.510,512.000,111.125,509.617,111.125,506.678L111.125,484.925L68.333,484.925C64.810,484.925,62.276,481.576,63.186,478.212L63.245,478.010C99.524,361.665,110.200,273.299,99.570,156.813C99.285,153.692,101.743,151.000,104.877,151.000L153.378,151.001C123.904,132.505,108.407,96.416,117.678,61.083C127.115,25.124,159.740,0.000,197.015,0.000ZM197.511,22.147C230.249,22.147,256.789,48.602,256.789,81.236C256.789,99.520,248.458,115.865,235.373,126.704L269.878,195.167C272.419,200.401,265.099,204.724,261.735,199.915L218.742,136.422C212.150,138.944,204.992,140.325,197.511,140.325C164.772,140.325,138.232,113.870,138.232,81.236C138.232,48.602,164.772,22.147,197.511,22.147ZM319.416,283.665C319.416,292.216,311.679,334.929,311.679,349.876C311.679,356.817,315.411,361.359,321.540,361.359C330.066,361.359,339.942,342.676,339.942,312.236C339.942,271.650,308.205,257.508,271.400,257.508C229.270,257.508,182.058,292.748,182.058,344.012C182.058,387.272,208.197,409.692,239.662,409.692C252.466,409.692,268.730,405.955,276.467,400.350C283.931,403.555,295.400,408.902,295.400,420.370C295.400,434.527,274.070,442.000,245.002,442.000C194.604,442.000,149.000,408.355,149.000,340.276C149.000,280.475,205.527,230.000,270.869,230.000C322.875,230.000,373.000,254.561,373.000,310.899C373.000,367.237,345.267,396.340,308.463,396.340C295.931,396.340,283.931,388.867,276.998,377.384C269.261,389.125,256.456,396.340,239.131,396.340C215.661,396.340,198.594,373.905,198.594,344.012C198.594,300.753,240.997,271.665,271.127,271.665C295.127,271.665,314.061,277.801,319.416,283.665ZL319.416,283.665ZM248.000,346.861C248.000,355.933,251.496,361.000,256.358,361.000C260.943,361.000,264.716,356.737,267.415,345.541C269.577,336.742,272.000,323.134,272.000,314.335C270.390,313.531,267.951,313.000,265.804,313.000C255.560,313.000,248.015,332.206,248.000,346.861ZL248.000,346.861Z" style="fill: rgb(0, 0, 0);"/></g></g></g></g></g></svg>