<?xml version="1.0" encoding="UTF-8"?>
<svg width="512px" height="512px" viewBox="0 0 512 512" version="1.1" xmlns="http://www.w3.org/2000/svg" xmlns:xlink="http://www.w3.org/1999/xlink">
    <title>Pixelfed</title>
    <g id="Pixelfed" stroke="none" stroke-width="1" fill="none" fill-rule="evenodd">
        <path d="M256,0 C209.819608,0 166.65098,11.6454902 126.494118,34.9364706 C87.9435294,57.8258824 57.4243137,88.5458824 34.9364706,127.096471 C11.6454902,166.851765 0,209.92 0,256.301176 C0,302.682353 11.6454902,345.750588 34.9364706,385.505882 C57.4243137,424.056471 87.9435294,454.575686 126.494118,477.063529 C166.65098,500.35451 209.819608,512 256,512 C302.180392,512 345.34902,500.35451 385.505882,477.063529 C424.056471,454.575686 454.575686,424.056471 477.063529,385.505882 C500.35451,345.750588 512,302.682353 512,256.301176 C512,209.92 500.35451,166.851765 477.063529,127.096471 C454.575686,88.5458824 424.056471,57.8258824 385.505882,34.9364706 C345.34902,11.6454902 302.180392,0 256,0 Z M215.391304,156 L282.869565,156 C297.329193,156 310.684265,159.515982 322.934783,166.547945 C335.1853,173.579909 344.925466,183.022831 352.15528,194.876712 C359.385093,206.730594 363,219.789954 363,234.054795 C363,248.319635 359.385093,261.378995 352.15528,273.232877 C344.925466,285.086758 335.1853,294.52968 322.934783,301.561644 C310.684265,308.593607 297.329193,312.109589 282.869565,312.109589 L235.875776,312.109589 L169,376 L169,201.205479 C169,188.748858 173.518634,178.100457 182.555901,169.260274 C191.593168,160.420091 202.538302,156 215.391304,156 Z" fill="#000000" fill-rule="nonzero"></path>
    </g>
</svg>