<svg xmlns:xlink="http://www.w3.org/1999/xlink" width="512" xmlns="http://www.w3.org/2000/svg" height="512" id="screenshot-26e61264-c11c-807c-8004-175e3fa62e2e" viewBox="0 0 512 512" style="-webkit-print-color-adjust: exact;" fill="none" version="1.1"><g id="shape-26e61264-c11c-807c-8004-175e3fa62e2e"><defs><clipPath class="frame-clip-def frame-clip" id="frame-clip-26e61264-c11c-807c-8004-175e3fa62e2e-rumext-id-1"><rect rx="0" ry="0" x="0" y="0" width="512" height="512.0000000000005" transform="matrix(1.000000, 0.000000, 0.000000, 1.000000, 0.000000, 0.000000)"/></clipPath></defs><g clip-path="url(#frame-clip-26e61264-c11c-807c-8004-175e3fa62e2e-rumext-id-1)" fill="none"><clipPath class="frame-clip-def frame-clip" id="frame-clip-26e61264-c11c-807c-8004-175e3fa62e2e-rumext-id-1"><rect rx="0" ry="0" x="0" y="0" width="512" height="512.0000000000005" transform="matrix(1.000000, 0.000000, 0.000000, 1.000000, 0.000000, 0.000000)"/></clipPath><g class="fills" id="fills-26e61264-c11c-807c-8004-175e3fa62e2e"><rect rx="0" ry="0" x="0" y="0" transform="matrix(1.000000, 0.000000, 0.000000, 1.000000, 0.000000, 0.000000)" width="512" height="512.0000000000005" class="frame-background"/></g><g class="frame-children"><g id="shape-26e61264-c11c-807c-8004-175f495e9799" rx="0" ry="0" style="fill: rgb(0, 0, 0);"><g id="shape-26e61264-c11c-807c-8004-175f495e979a" rx="0" ry="0" style="fill: rgb(0, 0, 0);"><g id="shape-26e61264-c11c-807c-8004-175f495e979b"><g class="fills" id="fills-26e61264-c11c-807c-8004-175f495e979b"><path fill-rule="evenodd" rx="0" ry="0" d="M134.312,0.000L225.897,0.000L225.897,512.000L97.000,512.000L97.000,37.298C97.000,16.699,113.705,0.000,134.312,0.000ZZM286.849,387.000L415.746,387.000L415.746,474.838C415.746,495.362,399.041,512.000,378.434,512.000L286.849,512.000L286.849,387.000ZZM286.849,0.000L415.746,0.000L415.746,216.747C415.746,237.321,399.041,254.000,378.434,254.000L286.849,254.000L286.849,0.000ZZ"/></g></g></g></g></g></g></g></svg>