<svg xmlns:xlink="http://www.w3.org/1999/xlink" width="512" xmlns="http://www.w3.org/2000/svg" height="512" id="screenshot-e896cdf2-4b36-80a4-8004-193cfb357db6" viewBox="0 0 512 512" style="-webkit-print-color-adjust: exact;" fill="none" version="1.1"><g id="shape-e896cdf2-4b36-80a4-8004-193cfb357db6"><defs><clipPath class="frame-clip-def frame-clip" id="frame-clip-e896cdf2-4b36-80a4-8004-193cfb357db6-rumext-id-1"><rect rx="20" ry="20" x="0" y="0" width="511.99999999999955" height="512.0000000000005" transform="matrix(1.000000, 0.000000, 0.000000, 1.000000, 0.000000, 0.000000)"/></clipPath></defs><g clip-path="url(#frame-clip-e896cdf2-4b36-80a4-8004-193cfb357db6-rumext-id-1)" fill="none"><clipPath class="frame-clip-def frame-clip" id="frame-clip-e896cdf2-4b36-80a4-8004-193cfb357db6-rumext-id-1"><rect rx="20" ry="20" x="0" y="0" width="511.99999999999955" height="512.0000000000005" transform="matrix(1.000000, 0.000000, 0.000000, 1.000000, 0.000000, 0.000000)"/></clipPath><g class="fills" id="fills-e896cdf2-4b36-80a4-8004-193cfb357db6"><rect rx="20" ry="20" x="0" y="0" transform="matrix(1.000000, 0.000000, 0.000000, 1.000000, 0.000000, 0.000000)" width="511.99999999999955" height="512.0000000000005" class="frame-background"/></g><g class="frame-children"><g id="shape-7df70fec-7f90-8051-8004-1ce65f6f5d5c" width="512" xmlns:xlink="http://www.w3.org/1999/xlink" version="1.1" height="524.488" rx="0" ry="0" style="fill: rgb(0, 0, 0);"><g id="shape-7df70fec-7f90-8051-8004-1ce65f760f49"><g class="fills" id="fills-7df70fec-7f90-8051-8004-1ce65f760f49"><path fill-rule="evenodd" rx="0" ry="0" d="M247.388,195.048L263.849,195.048C273.947,195.048,282.135,203.234,282.135,213.334C282.135,214.623,281.998,215.910,281.727,217.171L218.436,512.000L164.571,512.000L229.510,209.495C231.319,201.068,238.768,195.048,247.388,195.048ZZZ" style="-webkit-print-color-adjust: exact; fill: rgb(0, 0, 0);"/></g></g><g id="shape-7df70fec-7f90-8051-8004-1ce65f7e9cce"><g class="fills" id="fills-7df70fec-7f90-8051-8004-1ce65f7e9cce"><ellipse fill-rule="evenodd" rx="54.85712243254966" ry="54.85712243255148" cx="255.9999999252318" cy="176.76183895155964" transform="matrix(1.000000, 0.000000, 0.000000, 1.000000, 0.000000, 0.000000)" style="-webkit-print-color-adjust: exact; fill: rgb(0, 0, 0);"/></g></g><g id="shape-7df70fec-7f90-8051-8004-1ce65f7ba52f"><g class="fills" id="fills-7df70fec-7f90-8051-8004-1ce65f7ba52f"><path fill-rule="evenodd" rx="0" ry="0" d="M141.513,270.979C83.577,216.454,88.426,131.889,141.768,82.665C151.977,73.325,168.312,73.829,177.500,84.179C187.198,94.277,186.433,110.180,176.224,119.772C143.810,149.811,140.747,200.802,176.479,234.376C186.688,243.968,187.198,259.872,177.500,269.969C167.801,280.066,151.722,280.571,141.513,270.979ZZZM123.635,308.086C136.396,315.659,138.949,330.804,128.740,343.427C123.635,350.999,115.978,353.523,108.322,353.523C103.217,353.523,98.113,350.999,93.008,348.475C41.963,310.610,8.785,244.978,6.233,176.821C3.680,106.141,36.859,48.081,93.008,5.168C103.217,-2.404,121.083,-2.404,128.740,10.217C136.396,20.315,136.396,37.985,123.635,45.557C80.248,78.373,57.277,123.811,57.277,176.821C57.277,227.308,82.799,280.319,123.635,308.086ZZZM334.421,269.969C324.723,259.872,325.233,243.968,335.187,234.124C370.918,200.550,368.111,149.559,335.442,119.520C325.233,110.180,324.467,94.024,334.165,83.927C343.609,73.829,359.944,73.073,370.153,82.665C423.494,131.889,428.343,216.454,370.408,270.979C360.199,280.571,344.120,280.066,334.421,269.969ZZZM419.016,5.168C475.165,48.081,508.089,106.141,505.791,176.821C505.791,244.978,472.613,310.610,419.016,348.475C413.911,350.999,408.807,353.523,403.702,353.523C396.046,353.523,388.389,350.999,383.284,343.427C373.075,330.804,375.628,315.659,388.389,308.086C429.225,280.319,454.747,227.308,454.747,176.821C454.747,123.811,431.778,78.373,388.389,45.557C375.628,37.985,375.628,20.315,383.284,10.217C390.942,-2.404,408.807,-2.404,419.016,5.168ZZZ" style="-webkit-print-color-adjust: exact; fill: rgb(0, 0, 0);"/></g></g></g></g></g></g></svg>