<?xml version="1.0" encoding="UTF-8"?>
<svg width="512px" height="414px" viewBox="0 0 512 414" version="1.1" xmlns="http://www.w3.org/2000/svg" xmlns:xlink="http://www.w3.org/1999/xlink">
    <title>Prismo</title>
    <g id="All-Fediverse-Symbols" stroke="none" stroke-width="1" fill="none" fill-rule="evenodd">
        <g id="Prismo" transform="translate(0.000000, -49.000000)" fill="#0A0C0D" fill-rule="nonzero">
            <path d="M252.22701,49 L257.5094,49.3775283 L264.112048,51.4541036 L270.809098,56.1737165 L274.01636,59.2887494 L276.94042,62.5923764 L282.411273,69.3885647 L288.072287,76.1847529 L291.087691,79.582847 L296.748365,86.3790352 L302.218878,93.1752235 L305.142598,96.5733176 L311.370358,103.369506 L317.122717,110.165694 L319.764591,113.563788 L325.51695,120.359976 L331.74471,127.156165 L334.66843,130.554259 L340.138944,137.350447 L345.799618,144.146635 L348.815022,147.544729 L354.475696,154.340917 L359.94621,161.137106 L362.869929,164.5352 L369.097689,171.331388 L372.021409,174.729482 L374.850048,178.127576 L380.320562,184.923764 L383.244281,188.321859 L389.472042,195.118047 L392.395761,198.516141 L397.866275,205.312329 L403.618634,212.108517 L409.846394,218.904706 L412.770113,222.3028 L418.240627,229.098988 L423.901301,235.895176 L426.916705,239.29327 L432.577379,246.089459 L438.047893,252.885647 L440.971613,256.283741 L447.199373,263.079929 L450.123092,266.478023 L452.951732,269.876117 L458.422245,276.672306 L461.345965,280.0704 L467.573725,286.866588 L470.497445,290.264682 L475.967958,297.06087 L481.720317,303.857058 L487.948077,310.653247 L493.700436,317.449435 L496.34231,320.847529 L499.075869,324.245623 L501.812824,327.643717 L506.906412,334.439905 L510.302137,341.0458 L511.151069,344.443895 L512,351.430376 L506.906412,354.82847 L505.018389,355.582847 L501.622663,357.567334 L495.021373,360.775135 L491.625648,362.19214 L488.229922,363.700894 L481.438472,366.344611 L478.042746,367.853365 L474.647021,369.27037 L467.85557,372.573318 L464.459845,374.367511 L457.668394,377.29327 L450.876943,379.936988 L444.085493,382.862747 L440.689767,384.561794 L433.898317,387.487553 L427.106866,390.13127 L420.315415,393.057029 L416.91969,394.851223 L413.523964,396.359976 L410.128239,398.15417 L406.732514,399.571175 L403.336788,401.079929 L396.545338,403.723646 L393.149612,405.2324 L389.753887,406.649405 L382.962436,409.952353 L379.566711,411.746547 L372.77526,414.672306 L365.983809,417.316023 L362.588084,418.824777 L359.192359,420.241782 L355.796633,422.035975 L349.005182,425.338923 L342.213732,428.264682 L335.422281,430.908399 L328.63083,433.834158 L325.235105,435.533205 L318.443654,438.458964 L311.652203,441.102682 L304.860753,444.028441 L301.465027,445.822634 L294.673577,449.125582 L291.277851,450.542587 L287.882126,452.051341 L281.090675,454.695058 L274.299224,457.620817 L270.903499,459.319864 L264.112048,461.963581 L257.320598,463 L253.924872,462.717958 L247.133421,461.209204 L240.341971,458.847529 L233.55052,455.92177 L230.154795,454.222723 L223.363344,451.296964 L216.571893,448.653247 L209.780442,445.727488 L206.384717,444.028441 L199.593266,441.102682 L192.801816,438.458964 L189.40609,436.950211 L186.010365,435.533205 L179.218914,432.230258 L175.823189,430.436064 L169.031738,427.510305 L162.240287,424.866588 L155.448837,421.940829 L152.053111,420.241782 L145.261661,417.316023 L138.47021,414.672306 L135.074484,413.163552 L131.678759,411.746547 L128.283034,409.952353 L124.887308,408.443599 L121.491583,406.649405 L114.700132,403.723646 L107.908682,401.079929 L101.117231,398.15417 L97.7215054,396.455123 L90.9300547,393.529364 L84.138604,390.885647 L77.3471532,387.959888 L73.9514279,386.260841 L67.1599771,383.335082 L60.3685264,380.691364 L53.5770757,377.765605 L46.7856249,374.462658 L43.3898996,372.668464 L36.5984488,369.742705 L29.8069981,367.098988 L26.4112727,365.590234 L19.619822,362.474182 L16.2240967,361.057177 L9.52704709,357.944522 L6.41418564,356.055182 L3.77299045,353.788653 L0.471666253,347.937135 L0,344.634188 L0.471666253,341.236094 L1.69786268,337.838 L6.13132172,331.041811 L11.5077737,324.245623 L16.9786268,317.449435 L19.9026859,314.051341 L26.1284088,307.255153 L29.0524679,303.857058 L34.5233211,297.06087 L40.2770381,290.264682 L46.502761,283.468494 L49.4268201,280.0704 L54.8976733,273.274211 L60.6513903,266.478023 L67.065576,259.681835 L73.1968977,252.885647 L78.6677508,246.089459 L84.4214679,239.29327 L90.6471908,232.497082 L93.5712499,229.098988 L99.042103,222.3028 L104.79582,215.506612 L111.021543,208.710423 L113.945602,205.312329 L119.416455,198.516141 L122.246113,195.118047 L125.170172,191.719953 L131.395895,184.923764 L134.319954,181.52567 L139.790807,174.729482 L145.544524,167.933294 L155.165973,157.739012 L160.91969,150.942823 L166.390543,144.146635 L169.314602,140.748541 L175.540325,133.952353 L178.464384,130.554259 L181.294042,127.156165 L186.764895,120.359976 L189.688954,116.961882 L195.914677,110.165694 L198.838736,106.7676 L201.668394,103.369506 L207.139247,96.5733176 L210.063306,93.1752235 L216.289029,86.3790352 L219.213088,82.9809411 L224.683942,76.1847529 L227.513599,72.7866588 L230.437659,69.3885647 L236.851844,62.5923764 L239.964706,59.3832164 L242.699962,55.9851223 L244.492226,54.0971412 L247.133421,49 L252.22701,49 Z M268,93 L268,348 L273.080645,347.9048 L278.349613,347.15 L281.548387,346.3952 L288.322581,343.6548 L294.815645,339.5952 L300.177419,334.1178 L303.564516,327.6 L304.41129,324.3904 L305.163226,319.1 L305.258065,314 L308.645161,310.6 L313.725806,310.9774 L318.90129,313.0548 L324.357903,317.7774 L326.237742,320.8952 L327.179355,327.6 L326.522258,331 L324.168226,337.8 L322.474677,341.2 L320.5,344.6 L315.138226,351.1178 L308.645161,356.7822 L305.258065,359.2404 L298.483871,363.5822 L295.096774,365.3774 L291.709677,366.9822 L288.322581,368.3048 L281.73671,370.3822 L278.349613,371.0452 L276.467742,371.5178 L271.387097,371.8 L268,375.2 L268,433 L273.080645,432.0548 L278.349613,430.0726 L281.548387,428.75 L284.935484,426.9548 L291.709677,423.65 L298.483871,420.7226 L305.258065,418.0774 L312.032258,415.15 L315.419355,413.45 L322.193548,410.5226 L328.967742,407.8774 L335.741935,404.95 L339.129032,403.1548 L345.903226,399.85 L349.290323,398.4322 L352.677419,396.9226 L359.451613,394.2774 L362.83871,392.7678 L366.225806,391.35 L373,388.0452 L376.387097,386.25 L383.16129,383.3226 L389.935484,380.6774 L393.322581,379.1678 L396.709677,377.75 L400.096774,375.9548 L406.870968,372.65 L410.258065,371.2322 L413.645161,369.7226 L420.419355,367.0774 L427.193548,364.15 L430.580645,362.45 L437.354839,359.5226 L444.129032,356.8774 L450.903226,353.95 L454.290323,352.1548 L461.064516,348.85 L464.451613,347.4322 L471.036129,344.6 L472.919355,343.9404 L478,341.2 L476.211613,336.1 L472.919355,330.8096 L467.557581,324.2 L461.345645,317.4 L455.607903,310.6 L452.972742,307.2 L447.326452,300.4 L444.31871,297 L438.672419,290.2 L433.215806,283.4 L430.299516,280 L424.087581,273.2 L418.349839,266.4 L412.893226,259.6 L409.976935,256.2 L403.765,249.4 L398.027258,242.6 L392.570645,235.8 L389.654355,232.4 L383.442419,225.6 L380.526129,222.2 L375.069516,215.4 L369.423226,208.6 L366.415484,205.2 L360.769194,198.4 L355.312581,191.6 L352.39629,188.2 L346.184355,181.4 L343.268065,178 L337.811452,171.2 L332.07371,164.4 L325.861774,157.6 L320.124032,150.8 L317.488871,147.4 L311.751129,140.6 L305.539194,133.8 L302.622903,130.4 L297.16629,123.6 L291.52,116.8 L288.512258,113.4 L282.865629,106.6 L277.596661,100.17774 L274.680032,97.43904 L272.986484,95.64452 L268,93 Z M239.612903,97 L232.932871,103.976582 L227.381758,110.575758 L221.924806,117.363636 L219.008177,120.757576 L212.798274,127.545455 L209.881645,130.939394 L204.424694,137.727273 L198.685597,144.515152 L192.28771,151.30303 L189.088597,154.69697 L183.3495,161.484848 L177.892548,168.272727 L174.975919,171.666667 L168.766016,178.454545 L165.849387,181.848485 L160.392435,188.636364 L154.653339,195.424242 L148.443435,202.212121 L145.526806,205.606061 L140.069855,212.393939 L137.247387,215.787879 L134.330758,219.181818 L124.733758,229.363636 L118.994661,236.151515 L113.53771,242.939394 L110.621081,246.333333 L104.411177,253.121212 L101.494548,256.515152 L98.6720806,259.909091 L93.215129,266.69697 L90.2985,270.090909 L84.0885968,276.878788 L81.1719677,280.272727 L78.3495,283.666667 L72.8925484,290.454545 L69.9759194,293.848485 L63.7660161,300.636364 L60.8493871,304.030303 L55.3924355,310.818182 L52.5699677,314.212121 L49.6533387,317.606061 L46.4542258,321 L40.1505,327.787879 L37.5160161,330.991758 L34.2230806,336.272727 L33,341.363636 L38.0806452,344.099152 L39.9625161,344.757576 L46.5483871,347.584727 L49.9354839,349 L53.3225806,350.69697 L60.0967742,353.619152 L66.8709677,356.259636 L73.6451613,359.181818 L77.0322581,360.878788 L83.8064516,363.80097 L90.5806452,366.441455 L97.3548387,369.363636 L100.741935,371.155636 L104.129032,372.662545 L107.516129,374.454545 L114.290323,377.376727 L121.064516,380.017212 L127.83871,382.939394 L131.225806,384.636364 L138,387.558545 L144.774194,390.19903 L151.548387,393.121212 L154.935484,394.818182 L161.709677,397.740364 L168.483871,400.380848 L175.258065,403.30303 L178.645161,405.09503 L185.419355,408.393939 L192.193548,411.316121 L198.967742,413.956606 L205.741935,416.878788 L209.129032,418.575758 L215.903226,421.497939 L222.677419,424.138424 L229.451613,427.060606 L232.650387,428.757576 L236.037484,430.172848 L237.919355,431.30303 L243,433 L243,113.969697 L242.905839,107.27617 L242.811677,104.164945 L242.153226,101.431127 L242.059065,99.6398061 L239.612903,97 Z M185.419355,219.181818 L192.193548,219.464533 L195.580645,220.030303 L198.967742,220.878788 L205.45979,224.272727 L210.822581,229.646352 L214.209677,236.151515 L215.056452,239.545455 L215.621081,242.939394 L215.526919,249.727273 L214.774306,253.026861 L213.457065,256.138085 L208.752726,260.757576 L205.647774,261.794764 L202.449,261.794764 L199.344048,260.757576 L194.63971,256.138085 L193.322468,253.215564 L192.28771,248.030303 L192.193548,242.939394 L187.112903,243.88223 L181.843935,245.767564 L175.258065,247.8416 L172.05929,248.124655 L166.790323,247.653236 L161.709677,246.333333 L161.709677,241.242424 L162.085984,235.962812 L162.838597,232.757576 L166.225694,226.346764 L168.860177,223.706958 L175.258065,220.313018 L178.645161,219.558885 L185.419355,219.181818 Z"></path>
        </g>
    </g>
</svg>