<?xml version="1.0" encoding="UTF-8"?>
<svg width="512px" height="512px" viewBox="0 0 512 512" version="1.1" xmlns="http://www.w3.org/2000/svg" xmlns:xlink="http://www.w3.org/1999/xlink">
    <title>Quanta</title>
    <g id="All-Fediverse-Symbols" stroke="none" stroke-width="1" fill="none" fill-rule="evenodd">
        <g id="Quanta" fill-rule="nonzero">
            <g transform="translate(-0.000000, 0.000000)">
                <rect id="Rectangle" x="0" y="0" width="512" height="512"></rect>
                <path d="M91,291.872 L132.346,306.093 C143.041,364.404 194.376,408.663 256.012,408.663 C287.056604,408.663 315.487928,397.435081 337.429397,378.8388 L317.743,338.963 L317.743,329.476 L360.69,329.476 L367.010135,342.27517 C372.90967,331.262936 377.204225,319.271735 379.582,306.612 L421,292.34 C419.181348,326.46413 406.897268,357.843326 387.288173,383.35084 L416.714,442.962 L416.714,451.292 L373.196,451.292 L355.271725,414.980359 C327.628411,435.707972 293.250738,448 256.012,448 C167.643,448 95.384,378.778 91,291.872 Z M0,61 L179.57,176.985 C179.57,176.985 179.583655,177.057122 179.610635,177.194962 L179.642044,177.354469 C180.191382,180.128859 183.84772,197.85196 189.422,207.431 C197.896,221.994 226.304,234.561 226.304,234.561 C226.304,234.561 233.217,197.276 241.755,184.83 C249.015,174.245 264.46,176.985 274.274,179.423 C294.488,184.447 301.882,198.769 301.882,198.769 L301.882,216.628 L281.112,216.628 L267.917,313.02 L281.112722,216.630127 C281.114709,216.635974 281.122157,216.657904 281.15009,216.740141 L281.177819,216.82178 C281.324083,217.252403 281.795379,218.639966 283.314,223.111 C285.254,228.82 285.698,235.004 285.698,235.004 L257.462,389.543 L285.698,235.004 C285.698,235.004 314.106,222.455 322.58,207.912 C328.639,197.514 332.432,177.508 332.432,177.508 L512,61.684 L502.132,136.961 L396.706,191.655 L496.628,154.678 L457.121,216.628 L389.547,238.722 L452.373,225.504 L430.796,263.155 L377.438,278.9 L416.649,275.433 L293.154,320.489 L313.335,364.313 L257.379,390 L257.442,389.543 L257.379,390 L198.667,364.049 L218.848,320.165 L95.352,275.046 L134.563,278.518 L81.205,262.751 L59.628,225.048 L127.222,238.285 L54.879,216.16 L15.372,154.123 L115.296,191.151 L9.868,136.381 L0,61 Z M277.556,192.854 L281.132,203.624 L290.668,203.624 C290.668,203.624 290.159,201.181 287.163,198.721 C281.417,194.001 277.556,192.854 277.556,192.854 Z M256.012,119 C289.604,119 320.867,129.002 346.96,146.176 L310.981,170.923 C294.372,162.861 275.719,158.337 256.012,158.337 C237.107,158.337 219.172,162.501 203.081,169.956 L166.799,145.05 C192.537,128.566 223.162,119 256.012,119 Z" fill="#000000"></path>
            </g>
        </g>
    </g>
</svg>