<?xml version="1.0" encoding="UTF-8"?>
<svg width="512px" height="393px" viewBox="0 0 512 393" version="1.1" xmlns="http://www.w3.org/2000/svg" xmlns:xlink="http://www.w3.org/1999/xlink">
    <title>Rebased</title>
    <g id="All-Fediverse-Symbols" stroke="none" stroke-width="1" fill="none" fill-rule="evenodd">
        <g id="Rebased" transform="translate(0.000000, -60.000000)" fill="#000000" fill-rule="nonzero">
            <path d="M421.175652,60 C471.336554,60 512,100.663446 512,150.824348 C512,200.98525 471.336554,241.648696 421.175652,241.648696 C408.478915,241.648696 396.390679,239.043396 385.416373,234.338226 L329.408666,331.34497 C342.619074,344.133208 350.831304,362.053567 350.831304,381.891996 C350.831304,420.742106 319.337067,452.236344 280.486957,452.236344 C242.549521,452.236344 211.626406,422.204463 210.194439,384.617528 L134.444573,372.619125 C123.393714,396.993463 98.848962,413.947648 70.3443478,413.947648 C31.4942373,413.947648 0,382.453411 0,343.6033 C0,304.75319 31.4942373,273.258952 70.3443478,273.258952 C109.194458,273.258952 140.688696,304.75319 140.688696,343.6033 C140.688696,345.195 140.635831,346.774353 140.53176,348.339698 L213.642725,359.91804 C222.87101,331.829173 249.310481,311.547648 280.486957,311.547648 C290.505728,311.547648 300.035308,313.642125 308.661722,317.417103 L364.067433,221.451993 C343.500265,204.801052 330.351304,179.348252 330.351304,150.824348 C330.351304,100.663446 371.01475,60 421.175652,60 Z"></path>
        </g>
    </g>
</svg>