<svg xmlns:xlink="http://www.w3.org/1999/xlink" width="512" xmlns="http://www.w3.org/2000/svg" height="512" id="screenshot-19143d7c-b9a0-8033-8004-20e65db08941" viewBox="0 0 512 512" style="-webkit-print-color-adjust: exact;" fill="none" version="1.1"><g id="shape-19143d7c-b9a0-8033-8004-20e65db08941"><g fill="none"><g class="fills" id="fills-19143d7c-b9a0-8033-8004-20e65db08941"><rect rx="20" ry="20" x="0" y="0" transform="matrix(1.000000, 0.000000, 0.000000, 1.000000, 0.000000, 0.000000)" width="512" height="512" class="frame-background"/></g><g class="frame-children"><g id="shape-19143d7c-b9a0-8033-8004-20e66691e38d" width="512px" height="512px" version="1.1" xmlns:xlink="http://www.w3.org/1999/xlink" rx="0" ry="0" style="fill: rgb(0, 0, 0);"><g id="shape-19143d7c-b9a0-8033-8004-20e66692e881" rx="0" ry="0" style="fill: rgb(0, 0, 0);"><g id="shape-19143d7c-b9a0-8033-8004-20e6669325c9" rx="0" ry="0" style="fill: rgb(0, 0, 0);"><g id="shape-19143d7c-b9a0-8033-8004-20e66695460c"><g class="fills" id="fills-19143d7c-b9a0-8033-8004-20e66695460c"><path fill-rule="evenodd" rx="0" ry="0" d="M384.000,24.626L350.176,89.058C285.623,60.274,225.492,59.610,169.782,87.065C86.218,128.249,68.311,191.353,68.311,221.908L68.311,380.000L0.000,380.000L0.000,0.048L68.311,0.048L68.311,87.730C96.377,45.400,140.149,18.166,199.627,6.027C259.105,-6.113,320.562,0.087,384.000,24.626ZZM255.500,161.000C309.900,161.000,354.000,205.100,354.000,259.500C354.000,313.900,309.900,358.000,255.500,358.000C201.100,358.000,157.000,313.900,157.000,259.500C157.000,205.100,201.100,161.000,255.500,161.000ZZM128.000,487.374L161.824,422.942C226.377,451.726,286.508,452.390,342.218,424.935C425.782,383.751,443.689,320.647,443.689,290.092C443.689,269.721,443.689,217.024,443.689,132.000L512.000,132.000L512.000,512.000L443.689,512.000L443.689,424.270C415.623,466.600,371.851,493.834,312.373,505.973C252.895,518.113,191.438,511.913,128.000,487.374ZZ" style="fill: rgb(0, 0, 0);"/></g></g><g id="shape-19143d7c-b9a0-8033-8004-20e66695f90c"><g class="fills" id="fills-19143d7c-b9a0-8033-8004-20e66695f90c"><rect width="512" height="512" x="0" transform="matrix(1.000000, 0.000000, 0.000000, 1.000000, 0.000000, 0.000000)" fill-rule="evenodd" style="fill: none;" ry="0" fill="none" rx="0" y="0"/></g></g></g></g></g></g></g></g></svg>