<?xml version="1.0" encoding="UTF-8"?>
<svg width="512px" height="512px" viewBox="0 0 512 512" version="1.1" xmlns="http://www.w3.org/2000/svg" xmlns:xlink="http://www.w3.org/1999/xlink">
    <title>Redmatrix</title>
    <g id="All-Fediverse-Symbols" stroke="none" stroke-width="1" fill="none" fill-rule="evenodd">
        <g id="Oval-2" fill="#000000">
            <path d="M256,0 C397.384896,0 512,114.615104 512,256 C512,397.384896 397.384896,512 256,512 C114.615104,512 0,397.384896 0,256 C0,114.615104 114.615104,0 256,0 Z M252.387724,64.0533848 L193.345561,64.0533848 L179.287903,151.77317 L115.747289,151.77317 L115.747289,207.441496 L169.728696,207.441496 L156.79565,288.413605 L93.2550366,288.413605 L93.2550366,344.081931 L147.798749,344.081931 L131.491866,443.610149 L190.534029,443.610149 L206.840913,344.081931 L271.506139,344.081931 L255.199256,443.610149 L314.241419,443.610149 L330.548302,344.081931 L391.277385,344.081931 L391.277385,288.413605 L339.545203,288.413605 L352.478249,207.441496 L413.769637,207.441496 L413.769637,151.77317 L362.037456,151.77317 L376.095114,64.0533848 L317.052951,64.0533848 L302.995293,151.77317 L238.330066,151.77317 L252.387724,64.0533848 Z M293.436085,207.441496 L280.50304,288.413605 L215.837814,288.413605 L228.770859,207.441496 L293.436085,207.441496 Z"></path>
        </g>
    </g>
</svg>