<?xml version="1.0" encoding="UTF-8"?>
<svg width="512px" height="512px" viewBox="0 0 512 512" version="1.1" xmlns="http://www.w3.org/2000/svg" xmlns:xlink="http://www.w3.org/1999/xlink">
    <title>reel2bits</title>
    <g id="All-Fediverse-Symbols" stroke="none" stroke-width="1" fill="none" fill-rule="evenodd">
        <g id="reel2bits">
            <polygon id="tape-2" fill="#000000" fill-rule="nonzero" points="430 319 452 324 445 328 320 411 311 417 299 404 320 391.829829 416.12926 328"></polygon>
            <path d="M48,315 L77,315 L98,331 C91.3038496,326.291018 99.4383835,331.556623 122.403602,346.796815 C145.36882,362.037008 168.234286,377.343642 191,392.716718 L196,396 L193,413 L191,412 L70,331 C62.7388509,326.643311 55.4055176,321.309977 48,315 Z" id="tape-1" fill="#000000" fill-rule="nonzero"></path>
            <path d="M306.666666,104 L493.333334,104 C503.642649,104 512,112.357351 512,122.666666 L512,309.333334 C512,319.642649 503.642649,328 493.333334,328 L306.666666,328 C296.357351,328 288,319.642649 288,309.333334 L288,122.666666 C288,112.357351 296.357351,104 306.666666,104 Z M454,216 L360,152 L360,280 L454,216 Z" id="Play" fill="#000000" fill-rule="nonzero"></path>
            <path d="M34.7610537,238.95221 L71.6416535,246.32833 C61.1056151,226.775158 61.7803744,204.025619 71.6311081,185.673778 L34.7610537,193.04779 C32.9568265,200.4021 32,208.08931 32,216 C32,223.91069 32.9568265,231.5979 34.7610612,238.952213 L34.7610537,238.95221 Z M154.744075,123.77455 L129.921168,152.019997 C150.739695,152.664932 170.778753,163.455342 182.444278,182.356406 L194.488778,146.75214 C183.441387,136.14223 169.860581,128.150462 154.744075,123.77455 Z M194.488778,285.24786 L182.449208,249.658168 C177.065532,258.384513 169.50231,265.939464 160,271.425626 C150.49769,276.911787 140.173298,279.684254 129.924224,279.983481 L154.744075,308.22545 C169.860581,303.849538 183.441387,295.85777 194.488778,285.24786 L194.488778,285.24786 Z M96.0153784,216.002689 C96.0153784,233.67285 110.339874,247.997347 128.010036,247.997347 C145.680198,247.997347 160.004694,233.67285 160.004694,216.002689 C160.004694,198.332528 145.680198,184.008031 128.010036,184.008031 C110.339874,184.008031 96.0153784,198.332528 96.0153784,216.002689 Z M128,344 C57.307552,344 0,286.692448 0,216 C0,145.307552 57.307552,88 128,88 C198.692448,88 256,145.307552 256,216 C256,286.692448 198.692448,344 128,344 Z" id="Reel" fill="#000000" fill-rule="nonzero"></path>
            <path d="M207,360 L303,360 C311.836556,360 319,367.163444 319,376 L319,414 L303,424 L207,424 L191,414 L191,376 C191,367.163444 198.163444,360 207,360 Z" id="head" fill="#000000" fill-rule="nonzero"></path>
            <rect id="Rectangle" x="0" y="0" width="512" height="512"></rect>
        </g>
    </g>
</svg>