<svg width="512" xmlns="http://www.w3.org/2000/svg" height="512" id="screenshot-58e2ee3b-6ed5-8049-8004-221648eb4e6d" viewBox="0 0 512 512" xmlns:xlink="http://www.w3.org/1999/xlink" fill="none" version="1.1"><g id="shape-58e2ee3b-6ed5-8049-8004-221648eb4e6d"><defs><clipPath id="frame-clip-58e2ee3b-6ed5-8049-8004-221648eb4e6d-render-1" class="frame-clip frame-clip-def"><rect rx="20" ry="20" x="0" y="0" width="512" height="512" transform="matrix(1.000000, 0.000000, 0.000000, 1.000000, 0.000000, 0.000000)"/></clipPath></defs><g clip-path="url(#frame-clip-58e2ee3b-6ed5-8049-8004-221648eb4e6d-render-1)" fill="none"><g class="fills" id="fills-58e2ee3b-6ed5-8049-8004-221648eb4e6d"><rect rx="20" ry="20" x="0" y="0" width="512" height="512" transform="matrix(1.000000, 0.000000, 0.000000, 1.000000, 0.000000, 0.000000)" class="frame-background"/></g><g class="frame-children"><g id="shape-a2e26dde-73a9-8088-8004-2e5a9250b1bf" version="1.0" width="400.000000pt" height="400.000000pt" preserveAspectRatio="xMidYMid meet" rx="0" ry="0" style="fill: rgb(0, 0, 0);"><g id="shape-a2e26dde-73a9-8088-8004-2e5a925c2fc5"><g class="fills" id="fills-a2e26dde-73a9-8088-8004-2e5a925c2fc5"><path d="M228.878,35.864C208.962,38.353,185.824,46.554,171.912,55.926C167.812,58.855,167.665,58.855,160.929,55.780C156.389,53.730,150.092,52.558,141.452,52.119C115.239,50.801,90.783,63.249,63.251,91.659C34.109,121.972,12.143,155.947,3.210,184.943C-0.452,196.512,-1.037,214.085,1.745,223.897C8.335,246.742,29.423,265.340,53.879,270.173L62.080,271.784L59.297,284.378C56.954,294.629,56.368,303.123,56.368,327.139C56.222,355.256,56.515,358.039,60.176,371.658C75.699,429.357,119.193,462.453,195.197,474.461C215.406,477.536,270.761,478.854,295.510,476.658C383.962,468.896,434.778,434.775,451.765,371.511C455.426,358.039,455.719,355.256,455.573,327.139C455.426,303.269,454.840,294.482,452.644,284.378L449.861,271.784L458.062,270.173C475.928,266.658,493.648,254.650,503.313,239.566C516.346,218.918,514.736,192.704,498.334,159.901C480.468,124.315,442.686,80.236,417.058,64.859C400.949,55.341,386.891,51.387,370.928,52.119C361.702,52.558,355.698,53.730,351.012,55.780C344.276,58.855,344.129,58.855,340.029,55.926C314.255,38.500,270.908,30.592,228.878,35.864ZZM214.527,198.416C221.703,202.955,228.146,212.328,228.146,218.332C228.146,224.336,226.535,224.483,216.284,218.771C211.891,216.428,206.473,214.378,203.983,214.378C201.640,214.378,196.075,216.428,191.682,218.771C181.577,224.336,179.820,224.336,179.820,218.625C179.820,208.227,193.000,195.340,203.690,195.340C207.058,195.340,211.598,196.658,214.527,198.416ZZM318.502,198.416C325.677,202.955,332.121,212.328,332.121,218.332C332.121,224.336,330.510,224.483,320.259,218.771C310.154,213.206,306.493,213.353,294.778,219.064C283.502,224.629,281.012,223.750,283.795,215.257C289.067,199.001,306.054,190.801,318.502,198.416ZZM291.117,292.871C302.100,296.533,309.422,304.148,311.472,313.813C314.548,328.311,308.836,341.930,292.728,358.039C278.230,372.390,270.615,376.198,255.970,376.198C241.326,376.198,233.711,372.390,219.213,358.039C203.397,342.076,197.247,328.164,200.469,314.252C203.251,301.365,212.916,293.604,230.050,290.528C242.937,288.332,281.744,289.796,291.117,292.871ZZ" stroke="none" style="fill: rgb(0, 0, 0);"/></g></g></g></g></g></g></svg>