<svg width="512" xmlns="http://www.w3.org/2000/svg" height="512" fill="none"><g data-testid="sharky"><defs><clipPath id="a" class="frame-clip frame-clip-def"><rect rx="20" ry="20" width="512" height="512"/></clipPath></defs><g clip-path="url(#a)"><g class="fills"><rect rx="20" ry="20" width="512" height="512" class="frame-background"/></g><g class="frame-children"><path d="M482.824 494.549c.137 4.551.275 9.1.455 13.647v.017c.023.736.016 1.48.009 2.318-.005.456-.009.941-.009 1.469H28.794c0-1.914-.021-3.81-.044-5.693-.049-4.016-.095-7.974.078-11.916l.071-1.597c.654-15.054 1.309-30.092 2.391-45.114 1.122-15.435 2.463-30.87 4.296-46.238 2.462-20.612 5.146-41.21 8.338-61.704 4.958-31.719 12.345-62.877 21.717-93.61 10.545-34.606 26.726-66.493 45.387-97.296 24.401-40.276 53.045-77.241 86.292-110.59 12.379-12.412 25.504-24.009 40.838-32.753 5.347-3.041 10.884-5.384 17.319-5.485 8.219-.137 14.975 3.429 21.53 7.522 15.401 9.611 28.731 21.75 41.347 34.689 33.772 34.64 62.35 73.2 87.294 114.632 26.301 43.672 43.417 90.707 54.148 140.322 6.299 29.103 11.564 58.377 14.637 87.991 2.751 26.471 5.009 52.977 7.03 79.499.758 9.937 1.06 19.913 1.361 29.89ZM328.583 210.377Zc2.064 2.447 4.016 4.957 5.951 7.443 4.376 5.623 8.655 11.124 13.212 16.387 5.008 5.808 5.943 11.496 3.344 18.764-1.988 5.554-3.373 11.329-4.828 17.39-.644 2.687-1.301 5.429-2.031 8.232l8.596-5.646c4.42-2.901 8.759-5.75 13.274-8.719 1.263 2.624 2.559 5.212 3.849 7.79 2.8 5.599 5.575 11.144 7.935 16.866l.084-.086c10.631 25.725 20.615 51.705 27.322 78.787 2.412 9.78 4.636 19.646 4.125 29.8-.169 3.176-1.001 6.521-2.41 9.356-.335.669-.694 1.206-1.071 1.62-1.714 1.96-3.799 1.263-5.348-1.722-8.507-16.487-19.239-31.43-31.395-45.404-.935-1.07-1.461-2.989-1.326-4.432.977-10.121 2.08-20.231 3.209-30.589l.918-8.448-2.052 1.1c-1.573.842-3.003 1.607-4.417 2.398-1.827 1.018-3.655 2.032-5.482 3.046-5.766 3.201-11.53 6.401-17.254 9.689-1.512.866-2.446.832-3.922-.171-2.622-1.793-5.297-3.514-7.973-5.236-2.49-1.603-4.981-3.204-7.428-4.867-.952-.644-1.869-2.036-1.953-3.14-.67-8.632-1.238-17.282-1.807-25.923-.211-3.207-.423-6.413-.639-9.617-.057-.852-.118-1.703-.179-2.558-.067-.916-.132-1.833-.193-2.756l-1.302-.95c-.153.293-.291.6-.431.907-.332.735-.664 1.471-1.189 2.029-4.091 4.382-8.205 8.745-12.318 13.109-4.113 4.364-8.228 8.727-12.319 13.109a8.574 8.574 0 0 1-.249.256c-1.253 1.267-2.421 1.553-4.268 1.051-1.859-.502-3.756-.862-5.656-1.223-1.832-.347-3.665-.695-5.467-1.172-1.086-.287-2.291-1.392-2.767-2.428-2.554-5.537-5.053-11.107-7.55-16.676-2.053-4.572-4.103-9.144-6.187-13.701-.324-.705-.884-1.294-1.446-1.881a17.34 17.34 0 0 1-.754-.827c-.1.128-.204.253-.31.376-.154.186-.313.369-.471.553-.217.25-.434.501-.635.758a5.528 5.528 0 0 0-.662 1.072 2256.91 2256.91 0 0 0-13.55 30.123c-.303.68-.632 1.21-1.028 1.619-.701.763-1.62 1.127-3.014 1.251-3.242.306-6.486 1.035-9.594 2.037-2.41.765-3.82.17-5.467-1.63-5.371-5.835-10.811-11.604-16.252-17.375-2.712-2.875-5.426-5.752-8.131-8.638-.47-.505-.864-1.081-1.258-1.657a31.777 31.777 0 0 0-.576-.822l-.748.515-.286 3.88c-.383 5.202-.765 10.404-1.105 15.608-.185 2.781-.359 5.562-.524 8.344-.273 4.519-.546 9.039-.903 13.559-.059.658-.482 1.418-1.005 1.999-.223.26-.479.49-.761.684-5.28 3.549-10.595 7.03-16.029 10.324-.882.526-2.614.492-3.548-.017-6.709-3.618-13.377-7.337-20.044-11.056-1.939-1.081-3.877-2.163-5.817-3.241a47.45 47.45 0 0 0-2.038-1.063c-.37-.186-.779-.391-1.244-.628l.621 5.892c.425 4.04.835 7.908 1.234 11.777.191 1.807.386 3.615.581 5.422.59 5.462 1.18 10.924 1.627 16.397.102 1.274-.492 2.938-1.341 3.906-12.413 14.06-23.111 29.273-31.736 45.93a5.695 5.695 0 0 1-1.042 1.462c-1.265 1.292-2.814 1.172-4.102-.715-1.546-2.258-2.769-5.077-3.09-7.759-1.121-9.391.729-18.594 2.767-27.694 5.484-24.554 14.144-48.088 23.551-71.333 3.247-8.018 6.918-15.866 10.588-23.712 1.529-3.271 3.059-6.542 4.558-9.824.315-.686.711-1.334 1.145-2.044.222-.362.454-.741.688-1.149l.022.014.047-.081c7.049 4.638 13.789 9.065 21.08 13.855l.365.239a612.62 612.62 0 0 1-2.166-8.64c-1.593-6.489-3.128-12.739-5.152-18.835-1.969-5.909-1.103-10.357 2.785-15.043 4.678-5.629 9.15-11.437 13.792-17.463 2.067-2.682 4.164-5.406 6.329-8.178l.007.01.061-.076a57526.95 57526.95 0 0 0 24.629 31.354c.144-2.355.286-4.621.424-6.828.25-4.007.488-7.823.705-11.639.215-3.69.421-7.379.628-11.069.416-7.43.832-14.86 1.308-22.281.058-.834.53-1.914 1.16-2.534.134-.139.275-.259.42-.351 7.556-4.754 15.519-8.609 24.263-11.003 3.306 6.822 6.595 13.621 9.953 20.564l7.877 16.282a59997.14 59997.14 0 0 0 18.831-36.795l.028.008.039-.077c8.711 2.531 16.793 6.368 24.383 11.241.934.612 1.377 2.479 1.46 3.803.848 14.297 1.62 28.606 2.427 43.523l.392 7.264a24409.31 24409.31 0 0 1 24.646-31.352Z" fill-rule="evenodd" clip-rule="evenodd" style="fill: rgb(0, 0, 0);" class="fills" data-testid="sharky"/></g></g></g></svg>