<?xml version="1.0" encoding="UTF-8"?>
<svg width="512px" height="512px" viewBox="0 0 512 512" version="1.1" xmlns="http://www.w3.org/2000/svg" xmlns:xlink="http://www.w3.org/1999/xlink">
    <title>SkoHub</title>
    <g id="SkoHub" stroke="none" stroke-width="1" fill="none" fill-rule="evenodd">
        <g id="Group" fill="#000000" fill-rule="nonzero">
            <path d="M0,313.478606 C16.9386855,347.807675 49.2351125,370.392589 72.4975739,383.943538 L290.441994,512 L128.056462,512 C57.5915307,512 0,454.408469 0,383.943538 Z M44.0405823,0 C52.3970004,52.1711513 96.889281,84.01588 126.249669,101.406264 L428.209969,278.697839 C472.70225,304.896339 551.523599,364.97221 488.28584,476.315836 L468.185267,511.774151 C459.828849,459.828849 415.336568,427.758271 385.97618,410.593736 L84.01588,233.076312 C39.2977503,207.103661 -39.5235995,147.02779 23.9400088,35.458315 L44.0405823,0 Z M383.943538,0 C454.408469,0 512,57.5915307 511.774813,128.056462 L511.774813,198.295545 C494.835465,164.192325 462.539038,141.607411 439.502426,128.056462 L221.558006,0 L383.943538,0 Z" id="Path-2"></path>
        </g>
    </g>
</svg>