<?xml version="1.0" encoding="UTF-8"?>
<svg width="512px" height="512px" viewBox="0 0 512 512" version="1.1" xmlns="http://www.w3.org/2000/svg" xmlns:xlink="http://www.w3.org/1999/xlink">
    <title>Smithereen</title>
    <g id="All-Fediverse-Symbols" stroke="none" stroke-width="1" fill="none" fill-rule="evenodd">
        <g id="Smithereen" fill="#000000">
            <path d="M470.281481,0 C493.321983,0 512,18.2796893 512,40.8288288 L512,371.171171 C512,393.720311 493.321983,412 470.281481,412 L354.926,412 L254,512 L153.074,412 L41.7185185,412 C18.678017,412 0,393.720311 0,371.171171 L0,40.8288288 C0,18.2796893 18.678017,0 41.7185185,0 L470.281481,0 Z M256.5,305 C237.998461,305 223,319.998461 223,338.5 C223,357.001539 237.998461,372 256.5,372 C275.001539,372 290,357.001539 290,338.5 C290,319.998461 275.001539,305 256.5,305 Z M255.654816,69 C237.153277,69 223,85.1915743 223,103.467163 C223,121.742752 236.725716,263 255.227255,263 C273.728794,263 290,121.742752 290,103.467163 C290,85.1915743 274.156355,69 255.654816,69 Z"></path>
        </g>
    </g>
</svg>