<svg xmlns:xlink="http://www.w3.org/1999/xlink" width="512" xmlns="http://www.w3.org/2000/svg" height="512" id="screenshot-e896cdf2-4b36-80a4-8004-19465912912d" viewBox="0 0 512 512" style="-webkit-print-color-adjust: exact;" fill="none" version="1.1"><g id="shape-e896cdf2-4b36-80a4-8004-19465912912d"><g fill="none"><g class="fills" id="fills-e896cdf2-4b36-80a4-8004-19465912912d"><rect rx="20" ry="20" x="0" y="0" transform="matrix(1.000000, 0.000000, 0.000000, 1.000000, 0.000000, 0.000000)" width="512" height="512" class="frame-background"/></g><g class="frame-children"><g id="shape-e896cdf2-4b36-80a4-8004-1947a232a868"><g class="fills" id="fills-e896cdf2-4b36-80a4-8004-1947a232a868"><path rx="0" ry="0" d="M0.000,96.057L0.000,191.887L16.085,191.887L32.170,191.887L32.170,223.604L32.170,255.320L47.802,255.320L63.434,255.320L63.434,223.604L63.434,191.887L79.972,191.887L96.510,191.887L96.510,223.604L96.510,255.320L128.000,255.320L159.490,255.320L159.490,223.604L159.490,191.887L175.575,191.887L191.660,191.887L191.660,176.028L191.660,160.170L143.541,160.079L95.377,159.943L95.377,143.858L95.377,127.773L143.541,127.638L191.660,127.547L191.660,111.915L191.660,96.283L159.490,96.283L127.320,96.283L127.320,79.972L127.320,63.660L143.405,63.660L159.490,63.660L159.490,31.943L159.490,0.227L79.745,0.227L0.000,0.227L0.000,96.057ZZM224.283,15.858L224.283,31.490L240.368,31.490L256.453,31.490L256.453,47.575L256.453,63.660L287.943,63.660L319.434,63.660L319.434,48.028L319.434,32.396L303.575,32.396L287.717,32.396L287.717,16.312L287.717,0.227L256.000,0.227L224.283,0.227L224.283,15.858ZZM352.510,15.858L352.510,31.490L368.595,31.490L384.680,31.490L384.680,47.575L384.680,63.660L400.674,63.751L416.623,63.887L416.759,79.836L416.850,95.830L432.708,95.830L448.566,95.830L448.566,128.000L448.566,160.170L400.538,160.170L352.510,160.170L352.510,176.255L352.510,192.340L336.425,192.340L320.340,192.340L320.340,223.830L320.340,255.320L352.057,255.320L383.773,255.320L383.773,223.604L383.773,191.887L400.221,191.977L416.623,192.113L416.759,223.694L416.850,255.320L432.617,255.411L448.340,255.547L448.476,303.439L448.566,351.377L464.561,351.468L480.510,351.604L480.646,383.411L480.736,415.264L496.368,415.264L512.000,415.264L512.000,207.745L512.000,0.227L432.255,0.227L352.510,0.227L352.510,15.858ZZM352.510,111.915L352.510,127.547L384.000,127.547L415.490,127.547L415.490,111.915L415.490,96.283L384.000,96.283L352.510,96.283L352.510,111.915ZZM192.566,143.858L192.566,159.717L207.972,159.717L223.377,159.717L223.377,143.858L223.377,128.000L207.972,128.000L192.566,128.000L192.566,143.858ZZM320.340,143.858L320.340,159.717L335.972,159.717L351.604,159.717L351.604,143.858L351.604,128.000L335.972,128.000L320.340,128.000L320.340,143.858ZZM192.566,207.972L192.566,223.604L207.972,223.604L223.377,223.604L223.377,207.972L223.377,192.340L207.972,192.340L192.566,192.340L192.566,207.972ZZM0.000,351.830L0.000,447.434L15.632,447.434L31.264,447.434L31.354,431.439L31.490,415.490L47.802,415.490L64.113,415.490L64.249,447.524L64.340,479.604L80.334,479.694L96.283,479.830L96.419,495.779L96.510,511.773L111.915,511.773L127.320,511.773L127.411,479.739L127.547,447.660L159.626,447.524L191.660,447.434L191.660,431.802L191.660,416.170L159.490,416.170L127.320,416.170L127.320,400.312L127.320,384.453L111.371,384.362L95.377,384.227L95.241,368.232L95.150,352.283L79.292,352.283L63.434,352.283L63.434,320.340L63.434,288.396L47.349,288.396L31.264,288.396L31.264,272.312L31.264,256.227L15.632,256.227L0.000,256.227L0.000,351.830ZZM192.566,335.745L192.566,351.377L208.425,351.377L224.283,351.377L224.283,367.462L224.283,383.547L256.000,383.547L287.717,383.547L287.717,367.462L287.717,351.377L303.575,351.377L319.434,351.377L319.434,335.745L319.434,320.113L256.000,320.113L192.566,320.113L192.566,335.745ZZM416.850,367.915L416.850,383.547L432.255,383.547L447.660,383.547L447.660,367.915L447.660,352.283L432.255,352.283L416.850,352.283L416.850,367.915ZZM384.680,399.858L384.680,415.264L400.085,415.264L415.490,415.264L415.490,399.858L415.490,384.453L400.085,384.453L384.680,384.453L384.680,399.858ZZM352.510,431.802L352.510,447.434L368.142,447.434L383.773,447.434L383.773,431.802L383.773,416.170L368.142,416.170L352.510,416.170L352.510,431.802ZZM448.566,431.802L448.566,447.434L464.198,447.434L479.830,447.434L479.830,431.802L479.830,416.170L464.198,416.170L448.566,416.170L448.566,431.802ZZM192.566,463.972L192.566,479.604L240.504,479.694L288.396,479.830L288.532,495.779L288.623,511.773L304.028,511.773L319.434,511.773L319.434,495.688L319.434,479.604L335.519,479.604L351.604,479.604L351.604,463.972L351.604,448.340L272.085,448.340L192.566,448.340L192.566,463.972ZZ" style="fill: rgb(0, 0, 0);"/></g></g></g></g></g></svg>