<?xml version="1.0" encoding="UTF-8"?>
<svg width="494px" height="512px" viewBox="0 0 494 512" version="1.1" xmlns="http://www.w3.org/2000/svg" xmlns:xlink="http://www.w3.org/1999/xlink">
    <title>Socialhome</title>
    <g id="All-Fediverse-Symbols" stroke="none" stroke-width="1" fill="none" fill-rule="evenodd">
        <g id="Socialhome" fill="#000000" fill-rule="nonzero">
            <path d="M165,171 L323,171 L323,378 L165.009672,378 L165,171 Z M353,286 L469,286 L469,512 L353,512 L353,286 Z M30,378 L134,378 L134,171 L30.0481481,171 M324,512 L31,512 L31.0489557,403 L324,403 M350,171 L463,171 L463,264 L350,264 L350,171 Z M482.413603,99.0949642 L253.051932,2.32539015 C248.608438,-0.771828985 221.462465,-0.771828985 216.063645,2.30563118 L8.78226671,100.082913 C2.24685288,103.145554 -1.18252469,110.273604 0.370493442,117.396714 C1.9382089,124.549462 30.8723574,145 30.8723574,145 L462.973931,145 C462.973931,145 494,122.622962 494,114.017929 C494,106.756506 489.071495,100.809055 482.408704,99.0900244 L482.413603,99.0949642 Z"></path>
        </g>
    </g>
</svg>