<svg xmlns:xlink="http://www.w3.org/1999/xlink" width="512" xmlns="http://www.w3.org/2000/svg" height="512" id="screenshot-7df70fec-7f90-8051-8004-1ce34bd07f38" viewBox="0 0 512 512" style="-webkit-print-color-adjust: exact;" fill="none" version="1.1"><g id="shape-7df70fec-7f90-8051-8004-1ce34bd07f38"><defs><clipPath class="frame-clip-def frame-clip" id="frame-clip-7df70fec-7f90-8051-8004-1ce34bd07f38-rumext-id-1"><rect rx="20" ry="20" x="0" y="0" width="512.0000000000002" height="512.0000000000014" transform="matrix(1.000000, 0.000000, 0.000000, 1.000000, 0.000000, 0.000000)"/></clipPath></defs><g clip-path="url(#frame-clip-7df70fec-7f90-8051-8004-1ce34bd07f38-rumext-id-1)" fill="none"><clipPath class="frame-clip-def frame-clip" id="frame-clip-7df70fec-7f90-8051-8004-1ce34bd07f38-rumext-id-1"><rect rx="20" ry="20" x="0" y="0" width="512.0000000000002" height="512.0000000000014" transform="matrix(1.000000, 0.000000, 0.000000, 1.000000, 0.000000, 0.000000)"/></clipPath><g class="fills" id="fills-7df70fec-7f90-8051-8004-1ce34bd07f38"><rect rx="20" ry="20" x="0" y="0" transform="matrix(1.000000, 0.000000, 0.000000, 1.000000, 0.000000, 0.000000)" width="512.0000000000002" height="512.0000000000014" class="frame-background"/></g><g class="frame-children"><g id="shape-24b0466e-7c13-801d-8004-20e7fcd6dfef" width="512px" height="512px" version="1.1" xmlns:xlink="http://www.w3.org/1999/xlink" rx="0" ry="0" style="fill: rgb(0, 0, 0);"><g id="shape-24b0466e-7c13-801d-8004-20e7fcda7687" rx="0" ry="0" style="fill: rgb(0, 0, 0);"><g id="shape-24b0466e-7c13-801d-8004-20e7fcdbabad"><g class="fills" id="fills-24b0466e-7c13-801d-8004-20e7fcdbabad"><path fill-rule="nonzero" rx="0" ry="0" d="M512.000,307.200C487.294,217.088,436.257,172.032,358.888,172.032C334.182,172.032,308.175,181.589,280.869,200.704C253.562,219.136,226.905,237.909,200.899,257.024C174.893,275.456,151.487,284.672,130.682,284.672C76.069,284.672,39.010,247.466,19.505,173.056L0.000,183.296C15.604,285.696,65.666,336.896,150.187,336.896C176.843,336.896,203.825,327.680,231.131,309.248C258.438,290.133,284.444,271.360,309.150,252.928C333.857,234.496,356.612,225.280,377.417,225.280C428.780,225.280,467.139,255.658,492.495,316.416L512.000,307.200ZZ" style="fill: rgb(0, 0, 0);"/></g></g><g id="shape-24b0466e-7c13-801d-8004-20e7fcdc996a"><g class="fills" id="fills-24b0466e-7c13-801d-8004-20e7fcdc996a"><path fill-rule="nonzero" rx="0" ry="0" d="M512.000,482.304C487.294,392.192,436.257,347.136,358.888,347.136C334.182,347.136,308.175,356.693,280.869,375.808C253.562,394.240,226.905,413.013,200.899,432.128C174.893,450.560,151.487,459.776,130.682,459.776C76.069,459.776,39.010,422.570,19.505,348.160L0.000,358.400C15.604,460.800,65.666,512.000,150.187,512.000C176.843,512.000,203.825,502.784,231.131,484.352C258.438,465.237,284.444,446.464,309.150,428.032C333.857,409.600,356.612,400.384,377.417,400.384C428.780,400.384,467.139,430.762,492.495,491.520L512.000,482.304ZZ" style="fill: rgb(0, 0, 0);"/></g></g><g id="shape-24b0466e-7c13-801d-8004-20e7fcdd806b"><g class="fills" id="fills-24b0466e-7c13-801d-8004-20e7fcdd806b"><path fill-rule="nonzero" rx="0" ry="0" d="M512.000,135.168C487.294,45.056,436.257,0.000,358.888,0.000C334.182,0.000,308.175,9.557,280.869,28.672C253.562,47.104,226.905,65.877,200.899,84.992C174.893,103.424,151.487,112.640,130.682,112.640C76.069,112.640,39.010,75.435,19.505,1.024L0.000,11.264C15.604,113.664,65.666,164.864,150.187,164.864C176.843,164.864,203.825,155.648,231.131,137.216C258.438,118.101,284.444,99.328,309.150,80.896C333.857,62.464,356.612,53.248,377.417,53.248C428.780,53.248,467.139,83.627,492.495,144.384L512.000,135.168ZZ" style="fill: rgb(0, 0, 0);"/></g></g></g></g></g></g></g></svg>