<?xml version="1.0" standalone="no"?>
<!DOCTYPE svg PUBLIC "-//W3C//DTD SVG 1.0//EN" "http://www.w3.org/TR/2001/REC-SVG-20010904/DTD/svg10.dtd">
<svg xmlns="http://www.w3.org/2000/svg" xmlns:xlink="http://www.w3.org/1999/xlink" id="body_1" width="192" height="192">

<defs>
    <clipPath  id="1">

    <path id=""  clip-rule="evenodd" transform="matrix(1 0 0 1 0 0)"  d="M0 144L0 0L0 0L144 0L144 0L144 144L144 144L0 144z" />    </clipPath>
</defs>

<g transform="matrix(1.3333 0 0 1.3333 0 0)">
	<g clip-path="url(#1)" >
    <path id=""  transform="matrix(1 0 0 -1 0 144)"  d="M60.75 127.854004C 50.493748 125.00925 42.19275 118.10175 38.94975 109.713745L38.94975 109.713745L38.94975 109.713745C 36.458252 103.2675 36.528 94.076996 39.111748 88.4655L39.111748 88.4655L39.111748 88.4655C 43.03275 79.95 48.529503 75.72075 64.31775 69.072L64.31775 69.072L64.31775 69.072C 77.335495 63.590256 80.31 62.06025 83.64825 59.12925L83.64825 59.12925L83.64825 59.12925C 87.53025 55.720497 89.253 51.891754 89.2335 46.7175L89.2335 46.7175L89.2335 46.7175C 89.19675 37.044754 83.238 31.143005 71.48625 29.14125L71.48625 29.14125L71.48625 29.14125C 64.044 27.873749 56.7075 29.5065 46.2825 34.74974L46.2825 34.74974L38.19 38.819992L38.19 38.819992L35.25525 33.472504L35.25525 33.472504L35.25525 33.472504C 33.64125 30.531754 32.24625 27.787506 32.15625 27.375L32.15625 27.375L32.15625 27.375C 31.91175 26.254501 39.303 22.03125 46.08975 19.413742L46.08975 19.413742L46.08975 19.413742C 62.6055 13.044754 80.10899 13.690491 91.6455 21.09375L91.6455 21.09375L91.6455 21.09375C 101.82525 27.625504 107.1465 40.126495 105.078 52.649246L105.078 52.649246L105.078 52.649246C 103.930504 59.598747 102.14325 63.56475 98.25975 67.77825L98.25975 67.77825L98.25975 67.77825C 93.882 72.526505 89.331 75.243744 77.44425 80.20351L77.44425 80.20351L77.44425 80.20351C 64.4865 85.611 61.476753 87.1575 58.03425 90.18075L58.03425 90.18075L58.03425 90.18075C 51.663002 95.77425 51.5505 105.29325 57.7935 110.54625L57.7935 110.54625L57.7935 110.54625C 64.84575 116.48025 76.131004 116.7555 90.284996 111.33825L90.284996 111.33825L90.284996 111.33825C 94.047005 109.89825 97.429504 108.642746 97.8015 108.5475L97.8015 108.5475L97.8015 108.5475C 98.433 108.386246 104.18175 118.158 104.229004 119.472L104.229004 119.472L104.229004 119.472C 104.26201 120.39975 92.3955 125.82075 87.375 127.17225L87.375 127.17225L87.375 127.17225C 80.88975 128.91824 65.964005 129.3 60.75 127.854004M0.35775 72C 0.35775 37.96875 0.45000002 24.046494 0.5625 41.0625L0.5625 41.0625L0.5625 41.0625C 0.67499995 58.077744 0.67499995 85.92149 0.5625 102.9375L0.5625 102.9375L0.5625 102.9375C 0.45000002 119.95275 0.35775 106.03125 0.35775 72M7.6260004 142.398C 5.7315 141.456 3.5437498 139.5225 2.376 137.7585L2.376 137.7585L0.375 134.7345L0.375 134.7345L0.375 72L0.375 72L0.375 9.265503L0.375 9.265503L2.388 6.2235107L2.388 6.2235107L2.388 6.2235107C 3.60675 4.382248 5.70825 2.5484924 7.71375 1.5780029L7.71375 1.5780029L11.0265 -0.025497437L11.0265 -0.025497437L72.881256 0.17474365L72.881256 0.17474365L134.73526 0.375L134.73526 0.375L137.7135 2.3467407L137.7135 2.3467407L137.7135 2.3467407C 139.56525 3.5715027 141.4605 5.7982483 142.72125 8.228241L142.72125 8.228241L144.75 12.138748L144.75 12.138748L144.75 73.31925L144.75 73.31925L144.75 73.31925C 144.75 106.96875 144.534 134.2845 144.27075 134.02051L144.27075 134.02051L144.27075 134.02051C 144.00674 133.75725 143.11426 134.91 142.287 136.58176L142.287 136.58176L142.287 136.58176C 141.4455 138.2835 139.4505 140.50426 137.75925 141.624L137.75925 141.624L134.73526 143.625L134.73526 143.625L72.80475 143.81924L72.80475 143.81924L10.875 144.01276L10.875 144.01276L7.6260004 142.398" stroke="none" fill="#000000" fill-rule="evenodd" />
	</g>
</g>
</svg>