<?xml version="1.0" encoding="UTF-8"?>
<svg width="512px" height="512px" viewBox="0 0 512 512" version="1.1" xmlns="http://www.w3.org/2000/svg" xmlns:xlink="http://www.w3.org/1999/xlink">
    <title>takesama</title>
    <g id="takesama" stroke="none" stroke-width="1" fill="none" fill-rule="evenodd">
        <path d="M127.093004,35.175744 C102.031281,35.5302185 99.3912416,61.0057349 97.0226985,79.8203829 C91.8988528,109.582084 67.7985223,134.147122 37.5263975,138.966311 C16.1341523,144.259955 -3.21117221,153.839008 0.447600212,179.324735 C15.8121625,198.876326 43.0959737,189.691546 63.4940258,185.323752 C89.3617716,178.438516 113.50231,164.128989 130.404955,143.216066 C168.669741,186.974913 232.426383,199.091544 287.809515,190.338877 C321.920516,184.681418 355.896205,170.148635 378.511962,143.286534 C404.512464,175.49174 447.058306,191.223748 487.689015,191.038233 C515.79009,190.800035 521.693303,148.95139 493.904446,142.555191 C472.064169,139.09842 447.634014,136.557785 431.723438,119.056593 C414.877725,101.984572 410.179746,77.3777919 407.840344,54.5261375 C399.736879,26.279795 349.692768,29.7270088 347.760684,59.8897405 C346.252572,91.3315937 330.569427,125.658 298.321717,135.649605 C264.932031,146.921472 225.471797,146.350478 194.85252,127.694969 C170.277383,112.330951 162.333956,82.0715198 160.298173,55.0011854 C156.531956,40.9379187 140.73045,33.7607062 127.093004,35.175744 Z M126.198012,240.186326 C101.824948,242.04381 99.4500058,269.369546 99.2310669,288.92482 C98.5867678,307.773922 98.29508,333.334584 112.644261,343.063403 C131.786034,356.441647 158.225965,340.981975 159.001844,316.449721 C159.394478,296.479555 162.249857,275.90948 156.064378,256.916028 C150.857742,245.840969 138.422764,238.740447 126.198012,240.186326 Z M373.121536,240.194274 C351.55098,242.946385 346.93146,270.63685 346.011324,288.944928 C345.873413,310.024794 346.644464,341.253485 368.735731,347.133541 C386.821373,352.463691 404.325904,332.233591 405.282577,312.980097 C405.011441,293.56765 408.541914,268.916622 402.047053,254.287544 C396.150747,244.64572 384.498431,238.843167 373.121536,240.194274 Z M152.537455,395.179418 C136.9835,398.236186 125.435377,414.696371 129.35247,430.371886 C133.871174,445.997157 149.484928,454.507207 163.325494,460.751511 C197.83294,475.086155 235.994526,477.381503 272.916405,475.373348 C302.570151,472.625718 333.585774,467.223093 358.379007,449.642205 C366.788832,443.442321 374.251539,433.881414 373.046451,422.846378 C372.976324,408.745432 359.58652,397.17203 346.067798,395.677357 C335.365066,394.058896 326.999298,402.250022 317.269491,405.074825 C281.106145,418.745386 240.715626,419.81875 203.269045,411.014148 C185.200349,408.013581 167.798393,392.26142 152.537455,395.179418 Z" id="Shape" fill="#000000"></path>
    </g>
</svg>