<svg width="512" xmlns="http://www.w3.org/2000/svg" height="512" id="screenshot-58e2ee3b-6ed5-8049-8004-2216490ebef7" viewBox="0 0 512 512" xmlns:xlink="http://www.w3.org/1999/xlink" fill="none" version="1.1"><g id="shape-58e2ee3b-6ed5-8049-8004-2216490ebef7"><defs><clipPath id="frame-clip-58e2ee3b-6ed5-8049-8004-2216490ebef7-render-1" class="frame-clip frame-clip-def"><rect rx="20" ry="20" x="0" y="0" width="512" height="512" transform="matrix(1.000000, 0.000000, 0.000000, 1.000000, 0.000000, 0.000000)"/></clipPath></defs><g clip-path="url(#frame-clip-58e2ee3b-6ed5-8049-8004-2216490ebef7-render-1)" fill="none"><g class="fills" id="fills-58e2ee3b-6ed5-8049-8004-2216490ebef7"><rect rx="20" ry="20" x="0" y="0" width="512" height="512" transform="matrix(1.000000, 0.000000, 0.000000, 1.000000, 0.000000, 0.000000)" class="frame-background"/></g><g class="frame-children"><g id="shape-a2e26dde-73a9-8088-8004-29c4f043fb14" rx="0" ry="0" style="fill: rgb(0, 0, 0);"><g id="shape-a2e26dde-73a9-8088-8004-29c4f04609d4"><g class="fills" id="fills-a2e26dde-73a9-8088-8004-29c4f04609d4"><path d="M473.417,97.046C467.144,97.634,457.264,100.261,450.677,103.084C442.953,106.377,432.446,112.493,424.409,118.374C410.216,128.725,391.711,147.152,375.558,167.029C364.345,180.791,363.757,181.614,330.666,227.250C314.592,249.402,298.713,269.632,286.599,283.433C280.953,289.863,267.074,303.938,258.762,311.662C234.768,333.892,208.852,353.769,185.877,367.491C179.369,371.412,165.529,378.704,165.216,378.391C165.137,378.312,166.588,376.940,168.470,375.333C177.605,367.727,190.974,355.063,200.266,345.183C226.770,317.150,247.627,287.432,257.939,263.124C261.193,255.518,265.584,241.561,267.152,234.033C269.073,224.819,269.818,213.802,269.348,201.492C268.995,192.905,268.681,191.102,266.172,183.810C262.839,174.047,258.331,166.559,251.626,159.541C245.079,152.680,239.237,148.524,229.945,144.015C218.928,138.683,208.774,135.860,193.679,133.861C187.798,133.077,186.113,132.998,174.860,133.194C167.098,133.351,160.981,133.665,158.394,134.018C152.513,134.880,149.611,134.802,147.534,133.822C142.358,131.312,137.575,121.079,138.791,115.159C139.065,113.983,139.143,112.925,139.026,112.807C138.281,112.062,133.145,115.002,132.282,116.688C131.302,118.609,131.106,122.687,131.890,125.431C132.478,127.392,133.027,128.137,135.772,130.920C137.536,132.645,139.575,134.370,140.280,134.684C140.947,134.958,141.535,135.351,141.535,135.468C141.535,135.939,139.300,136.684,131.773,138.762C112.130,144.133,101.348,148.877,80.765,161.227C69.905,167.774,66.964,168.833,59.398,168.911C54.614,168.950,50.419,168.166,47.479,166.676C44.852,165.343,44.734,164.873,46.381,162.677C48.537,159.855,49.478,156.992,49.478,153.072C49.478,148.955,48.930,146.603,47.244,143.074C45.558,139.546,41.598,135.233,36.266,131.116C29.248,125.667,26.856,122.138,26.856,117.198C26.856,115.042,27.052,114.140,27.758,112.964C28.229,112.140,28.621,111.317,28.621,111.082C28.621,110.455,25.092,110.690,23.563,111.474C20.309,113.160,17.016,118.531,15.212,125.039C14.467,127.745,14.350,129.195,14.350,135.429C14.350,141.624,14.467,143.113,15.212,145.701C16.937,152.052,19.172,156.365,22.661,160.168C26.700,164.559,30.659,166.324,37.481,166.755C41.794,167.029,41.833,167.029,44.303,168.715C49.126,172.009,52.184,172.949,59.202,173.302L64.102,173.577L56.261,181.457C48.185,189.534,44.499,193.846,39.324,201.217C26.935,218.860,17.996,241.286,16.467,258.537C15.996,264.222,15.957,279.159,16.467,283.864C16.663,285.785,17.329,289.314,17.878,291.706C19.329,297.547,19.368,301.978,17.917,305.663C16.506,309.309,14.663,312.093,11.958,314.524C7.998,318.131,5.371,318.915,2.470,317.346C0.274,316.170,0.000,316.288,0.000,318.327C0.000,322.875,4.548,326.952,9.606,326.952C16.388,326.913,21.015,321.306,23.132,310.564C23.367,309.348,23.720,308.407,23.877,308.486C24.033,308.603,25.053,310.133,26.151,311.936C32.541,322.326,43.166,330.206,56.888,334.754C69.317,338.871,89.430,339.224,103.583,335.577C109.425,334.088,112.444,332.872,120.952,328.795L128.793,324.992L133.929,324.874C139.653,324.717,142.907,325.188,144.475,326.442C145.024,326.874,146.004,328.246,146.632,329.500C148.474,333.107,149.925,333.382,151.376,330.402C152.081,328.991,152.199,328.167,152.042,326.050C151.611,320.013,147.259,316.170,140.908,316.170C139.771,316.170,138.751,316.013,138.634,315.817C138.516,315.621,139.183,313.622,140.163,311.348C142.633,305.585,143.495,301.664,143.495,296.371L143.495,292.058L145.064,289.510C147.141,286.177,147.847,283.747,147.847,279.826C147.847,272.808,144.750,265.869,138.163,258.341C134.909,254.616,131.302,251.911,126.441,249.559C121.697,247.246,118.325,246.383,113.973,246.383C109.778,246.383,107.504,247.167,105.661,249.167C103.779,251.245,103.818,252.264,105.779,252.264C108.170,252.303,110.405,253.558,111.738,255.636C114.091,259.360,114.875,262.458,116.208,273.827C117.501,284.256,120.873,290.098,127.891,293.823C129.891,294.881,130.910,295.156,133.302,295.313C134.909,295.391,136.948,295.273,137.810,295.038C139.849,294.489,140.045,294.842,139.810,298.723C139.575,302.644,138.555,305.585,136.203,309.192C129.616,319.385,116.835,326.638,98.526,330.520C92.645,331.774,81.392,332.206,74.963,331.461C62.064,329.971,50.184,324.874,42.264,317.425C31.091,306.918,25.955,290.686,26.817,268.535C27.052,262.418,27.876,254.420,28.346,253.989C28.464,253.871,29.483,255.479,30.620,257.557C31.757,259.596,33.835,262.732,35.207,264.457C37.677,267.515,37.717,267.633,37.403,269.240C37.246,270.142,37.089,272.220,37.089,273.867C37.050,276.533,37.207,277.121,38.579,279.944C40.735,284.335,44.970,288.530,49.322,290.647C59.123,295.352,75.707,293.862,85.470,287.354C88.528,285.315,89.822,284.021,90.998,281.708C91.978,279.787,92.213,276.886,91.429,276.101C90.998,275.670,90.802,275.709,90.371,276.297C89.665,277.278,86.176,278.532,84.176,278.532C80.216,278.493,76.609,276.376,69.827,270.142C62.730,263.555,57.751,261.399,50.537,261.752C47.440,261.909,46.303,262.183,43.323,263.399L39.794,264.810L38.501,263.359C34.188,258.419,32.502,253.166,32.502,244.619C32.502,237.130,33.678,232.504,37.638,224.153C48.302,201.727,63.985,182.555,83.666,167.970C89.312,163.775,108.249,153.072,109.974,153.072C110.719,153.072,110.523,153.895,109.190,156.600C107.935,159.031,107.033,162.325,107.033,164.246C107.033,166.245,106.484,166.951,104.485,167.578C102.525,168.205,99.192,171.499,97.859,174.165C96.526,176.792,95.664,180.163,95.664,182.790C95.664,188.044,98.055,195.219,101.623,200.551C106.053,207.216,111.189,210.313,114.953,208.627L116.051,208.157L114.365,206.000C112.757,203.883,112.718,203.805,112.757,200.904C112.836,197.845,113.385,195.924,116.208,189.142C118.286,184.123,118.913,181.183,118.678,178.007C118.246,173.145,115.149,168.715,111.111,167.225L109.190,166.559L109.268,164.755C109.425,160.011,116.012,151.974,122.128,148.994C127.656,146.328,140.006,143.623,152.748,142.290C160.354,141.506,174.625,141.506,181.133,142.290C197.012,144.250,213.204,151.974,223.084,162.325C231.710,171.342,237.630,182.751,239.982,194.709C242.099,205.648,241.825,223.212,239.355,236.581C237.551,246.109,232.298,262.928,227.750,273.514C214.145,305.310,188.700,342.046,162.746,367.217C151.376,378.273,140.947,386.742,137.497,387.683C128.518,390.231,111.424,390.153,101.270,387.565C95.193,385.997,85.587,381.723,72.179,374.627C63.514,370.040,60.378,368.942,56.653,369.177C54.575,369.334,53.281,369.687,51.439,370.628C48.616,372.039,44.930,375.646,43.401,378.430C40.579,383.605,41.324,392.387,45.009,398.112C46.930,401.052,54.183,408.266,57.241,410.226C60.299,412.187,65.475,413.912,71.160,414.774C76.805,415.676,87.195,415.402,93.703,414.265C106.445,411.951,120.716,406.149,138.791,395.916C142.907,393.603,148.043,391.133,152.905,389.133C185.485,375.842,212.381,359.219,244.256,332.676C259.899,319.660,272.171,308.329,289.343,291.117C312.592,267.829,327.020,251.205,360.267,209.529C397.709,162.599,411.432,147.426,432.642,129.509C445.580,118.609,461.812,108.612,472.045,105.318C478.278,103.280,485.492,102.652,490.864,103.672C498.705,105.122,504.507,110.455,505.801,117.433C506.193,119.707,506.154,120.491,505.370,124.373C504.900,126.804,504.625,129.038,504.743,129.352C504.900,129.783,508.859,131.900,509.487,131.900C509.722,131.900,511.173,127.039,511.604,124.922C512.231,121.824,512.113,118.649,511.251,115.238C510.075,110.651,508.663,108.141,505.370,104.809C500.587,99.947,495.412,97.908,485.571,97.007C480.709,96.575,478.514,96.575,473.417,97.046ZZM75.198,389.094C79.981,389.878,87.783,391.525,97.153,393.760C103.505,395.289,107.112,395.681,116.953,395.994C121.422,396.151,125.068,396.387,125.068,396.543C125.068,397.014,112.287,402.777,107.229,404.620C99.545,407.364,90.449,409.364,81.941,410.070C74.139,410.736,64.338,405.914,61.397,399.993C60.613,398.464,60.378,397.367,60.378,395.485C60.378,393.211,60.495,392.897,61.672,391.564C62.809,390.349,63.514,389.996,66.494,389.251C68.415,388.780,70.062,388.349,70.179,388.349C70.297,388.310,72.532,388.663,75.198,389.094ZZ" stroke="none" style="fill: rgb(0, 0, 0);"/></g></g></g></g></g></g></svg>