<svg width="512" xmlns="http://www.w3.org/2000/svg" height="512" fill="none"><g data-testid="viverse"><defs><clipPath id="a" class="frame-clip frame-clip-def"><rect rx="20" ry="20" width="512" height="512"/></clipPath></defs><g clip-path="url(#a)"><g class="fills"><rect rx="20" ry="20" width="512" height="512" class="frame-background"/></g><g class="frame-children"><path d="M509.627 318.465c-20.148-96.07-69.228-182.183-141.932-249.016-27.311-25.104-54.951-30.646-97.267-30.646h-13.057c-7.843 0-15.1-.07-22.85.376-31.209 1.808-65.118 7.749-90.692 31.256C71.337 137.104 22.421 222.982 2.343 318.77-9.281 374.167 23.337 429 78.194 446.308c111.756 35.647 242.699 35.647 354.714 1.244 55.491-17.518 88.485-73.009 76.719-129.087ZM81.411 436.092C31.815 420.476 2.32 370.974 12.793 320.954c19.632-93.604 67.444-177.51 138.269-242.652 14.865-13.667 32.642-22.098 51.076-25.315a113.811 113.811 0 0 0-24.023 16.955C105.528 136.705 56.542 222.7 36.417 318.63 25.873 368.907 51.54 418.691 97.168 440.742a449.599 449.599 0 0 1-15.757-4.65Zm34.943-.634c-49.268-15.522-78.575-64.696-68.148-114.363 19.608-93.464 67.35-177.252 138.057-242.3 14.724-13.55 32.313-21.91 50.584-25.127a114.065 114.065 0 0 0-21.746 15.781c-72.681 66.856-121.76 152.969-141.886 249.04-10.379 49.526 14.161 98.582 58.286 121.431a483.704 483.704 0 0 1-15.147-4.462Zm37.62-.634c-46.426-21.839-78.035-64.273-67.702-113.588 19.562-93.323 66.598-176.993 137.212-241.948 8.807-8.618 14.419-11.812 14.419-11.812 11.554-7.702 25.221-8.102 36.188-1.644 6.458 3.875 9.957 6.975 15.241 11.812 70.848 65.119 116.735 149.659 136.367 243.287 10.473 49.996-18.998 99.498-68.571 115.138-54.951 24.493-148.485 24.493-203.154-1.245Zm221.823 5.284c45.346-21.933 70.849-71.436 60.375-121.385-20.102-95.812-69.041-181.666-141.533-248.311a114.595 114.595 0 0 0-21.863-15.781c13.879.376 35.107 11.436 48.939 24.141 70.755 65.024 118.496 148.812 138.105 242.276 10.426 49.644-18.881 98.818-68.125 114.363a440.672 440.672 0 0 1-15.898 4.697Zm53.095-5.331a435.55 435.55 0 0 1-15.24 4.509c43.843-22.732 68.242-71.483 57.933-120.703C451.46 222.63 402.45 136.658 329.84 69.918a114.385 114.385 0 0 0-21.51-15.592c18.176 3.17 35.671 11.483 50.348 24.939 70.637 64.931 118.331 148.578 137.916 241.924 10.333 49.315-18.739 98.16-67.702 113.588Z" style="fill: rgb(0, 0, 0); fill-opacity: 1;" class="fills" data-testid="viverse"/></g></g></g></svg>