<svg width="512" xmlns="http://www.w3.org/2000/svg" height="512" fill="none"><g data-testid="vocata"><defs><clipPath id="a" class="frame-clip frame-clip-def"><rect rx="20" ry="20" width="512" height="512"/></clipPath></defs><g clip-path="url(#a)"><g class="fills"><rect rx="20" ry="20" width="512" height="512" class="frame-background"/></g><g class="frame-children"><path d="M83.196 270.694H54.044V512l181.034-115.472v-34.673L83.196 458.728V270.694Zm116.669 77.855Zl-86.966 55.47v-110.94l86.966 55.47ZM83.196 240.799V53.277l151.882 96.878V115.47L54.044 0v240.799h29.152Zm117.042-78.122Zl-86.965 55.47v-110.94l86.965 55.47Zm257.718 93.578-19.368-12.16L261.07 132.633v34.144l142.518 89.486-142.518 89.482v34.133l196.886-123.623Zm-110.125-.196Zl-86.965 54.605V201.455l86.965 54.604Zm-215.16.511Zl86.965-54.604v109.209l-86.965-54.605Z" style="fill: rgb(0, 0, 0); fill-opacity: 1;" class="fills" data-testid="vocata"/></g></g></g></svg>