<svg width="512" xmlns="http://www.w3.org/2000/svg" height="512" fill="none"><g data-testid="wafrn"><defs><clipPath id="a" class="frame-clip frame-clip-def"><rect rx="20" ry="20" width="512" height="512"/></clipPath></defs><g clip-path="url(#a)"><g class="fills"><rect rx="20" ry="20" width="512" height="512" class="frame-background"/></g><g class="frame-children"><path d="M411.843 59.348c-3.207 3.634-3.848 5.985-16.354 65.524-17.637 83.802-24.051 111.38-31.64 136.82-4.81 15.927-7.482 20.844-11.223 20.844-2.993 0-4.062-2.352-6.307-13.575-1.176-5.879-2.886-12.72-3.741-15.179-.855-2.458-4.917-17.851-9.086-34.098-18.385-72.793-18.706-73.862-22.126-77.389-5.559-5.558-6.628-5.558-60.714-1.817-18.493 1.282-24.692 2.993-27.685 7.696-1.39 1.924-2.245 9.406-3.848 30.785-5.452 72.365-8.872 98.66-14.11 105.18-2.565 3.314-5.131 3.421-8.017.214-3.42-3.634-4.917-6.948-23.836-52.056-3.1-7.375-6.948-16.461-8.552-20.309-1.71-3.848-14.537-34.419-28.646-67.983-14.11-33.564-26.616-62.959-27.792-65.31-2.352-4.597-5.986-6.734-11.33-6.734-2.031 0-23.516 6.948-47.781 15.499-34.632 12.079-44.787 16.033-46.711 18.278-4.383 4.917-3.421 8.658 9.834 39.122 6.734 15.499 16.568 38.16 21.806 50.56A10317.904 10317.904 0 0 1 51.3 235.504c22.554 52.163 33.136 76.854 33.136 77.389 0 .748 2.993 7.803 26.723 62.638 7.803 17.958 17.209 40.084 20.951 49.17 13.361 32.281 11.33 30.571 35.487 30.143 9.834-.107 28.006-.855 40.405-1.603 25.868-1.604 26.295-1.817 32.388-11.865 6.627-11.01 17.851-42.436 27.899-77.603 8.551-30.143 8.444-29.929 10.582-29.929 1.176 0 2.458 1.175 3.207 2.886 1.71 4.489 30.677 92.14 32.174 97.484 1.817 6.841 3.848 9.407 9.192 11.437 4.276 1.604 6.734 1.711 26.83.428 12.292-.641 28.754-1.603 36.77-2.031 20.203-1.176 21.058-1.71 34.847-25.974 16.354-28.861 28.005-58.042 42.543-106.678 5.665-19.026 14.109-50.345 15.071-56.117.321-2.352 2.138-10.262 3.848-17.637C494.577 189.541 512 98.363 512 87.246c0-10.048-3.421-12.506-22.554-16.247-6.093-1.176-24.05-4.81-39.977-8.124-15.82-3.207-30.25-5.879-32.067-5.879-2.138 0-4.169.855-5.559 2.352Z" style="fill: rgb(0, 0, 0); fill-opacity: 1;" class="fills" data-testid="wafrn"/></g></g></g></svg>