<svg xmlns:xlink="http://www.w3.org/1999/xlink" width="512" xmlns="http://www.w3.org/2000/svg" height="512" id="screenshot-19143d7c-b9a0-8033-8004-20e3e18490d9" viewBox="0 0 512 512" style="-webkit-print-color-adjust: exact;" fill="none" version="1.1"><g id="shape-19143d7c-b9a0-8033-8004-20e3e18490d9"><defs><clipPath class="frame-clip-def frame-clip" id="frame-clip-19143d7c-b9a0-8033-8004-20e3e18490d9-rumext-id-1"><rect rx="20" ry="20" x="0" y="0" width="511.99999999999955" height="512" transform="matrix(1.000000, 0.000000, 0.000000, 1.000000, 0.000000, 0.000000)"/></clipPath></defs><g clip-path="url(#frame-clip-19143d7c-b9a0-8033-8004-20e3e18490d9-rumext-id-1)" fill="none"><clipPath class="frame-clip-def frame-clip" id="frame-clip-19143d7c-b9a0-8033-8004-20e3e18490d9-rumext-id-1"><rect rx="20" ry="20" x="0" y="0" width="511.99999999999955" height="512" transform="matrix(1.000000, 0.000000, 0.000000, 1.000000, 0.000000, 0.000000)"/></clipPath><g class="fills" id="fills-19143d7c-b9a0-8033-8004-20e3e18490d9"><rect rx="20" ry="20" x="0" y="0" transform="matrix(1.000000, 0.000000, 0.000000, 1.000000, 0.000000, 0.000000)" width="511.99999999999955" height="512" class="frame-background"/></g><g class="frame-children"><g id="shape-19143d7c-b9a0-8033-8004-20e3ec33cece" width="360px" height="512px" version="1.1" xmlns:xlink="http://www.w3.org/1999/xlink" rx="0" ry="0" style="fill: rgb(0, 0, 0);"><g id="shape-19143d7c-b9a0-8033-8004-20e3ec391845"><g class="fills" id="fills-19143d7c-b9a0-8033-8004-20e3ec391845"><path fill-rule="evenodd" rx="0" ry="0" d="M298.512,0.000L298.512,102.187C303.322,100.668,308.095,99.098,312.813,97.490C369.852,78.053,435.258,117.805,435.258,178.062L435.258,362.888C435.258,389.983,416.263,413.367,389.744,418.916L355.780,426.027C360.308,402.411,357.030,377.663,346.100,355.876C343.727,357.244,341.399,358.707,339.116,360.265C344.983,382.752,343.206,407.547,333.834,430.619L324.863,432.498C324.936,415.370,321.034,398.258,313.211,382.663C310.838,384.030,308.510,385.493,306.227,387.051C310.323,402.755,310.695,419.581,307.353,436.162L237.736,450.733C235.323,439.352,231.360,428.247,225.859,417.759C221.661,417.056,219.209,418.045,217.536,420.627C225.722,447.750,224.176,478.086,212.966,506.297C194.560,515.386,164.886,511.576,149.599,508.698C167.894,495.522,182.176,477.545,190.387,456.731C178.923,453.332,166.737,451.500,154.102,451.500C149.465,451.500,144.886,451.745,140.383,452.225C144.854,454.311,149.135,456.661,153.202,459.263C150.299,474.658,145.392,489.763,138.605,503.972C126.869,477.964,33.774,263.996,98.970,159.350C98.364,158.726,97.762,158.077,97.170,157.410C87.250,145.787,82.319,130.230,82.319,110.456L82.262,110.456L82.262,0.000L119.957,23.399L119.957,107.606C119.957,117.338,121.946,124.697,125.930,129.653C133.094,124.209,141.169,119.463,150.232,115.515C152.978,114.317,160.517,114.142,170.674,114.334C171.364,110.650,171.710,106.527,171.710,101.968L171.710,50.736L209.122,50.736L209.122,101.968C209.122,106.982,209.531,111.463,210.350,115.410C228.510,115.697,247.140,115.333,260.681,112.642C260.810,111.041,260.875,109.362,260.875,107.606L260.875,23.457L298.512,0.000ZZM185.166,230.560C173.749,230.560,164.495,240.526,164.495,252.821C164.495,265.115,173.749,275.082,185.166,275.082C196.582,275.082,205.836,265.115,205.836,252.821C205.836,240.526,196.582,230.560,185.166,230.560ZZM369.779,163.974C356.489,161.742,342.640,161.446,328.583,163.357C286.249,169.110,251.074,193.626,230.308,227.377C247.115,209.288,270.050,196.685,296.426,193.101C307.779,191.559,318.963,191.794,329.696,193.600C323.031,222.749,304.723,248.035,279.298,263.512C325.187,248.359,359.237,210.067,369.779,163.974ZZ" style="fill: rgb(0, 0, 0);"/></g></g></g></g></g></g></svg>