<svg xmlns:xlink="http://www.w3.org/1999/xlink" width="512" xmlns="http://www.w3.org/2000/svg" height="512" id="screenshot-24b0466e-7c13-801d-8004-20e8e184bc84" viewBox="0 0 512 512" style="-webkit-print-color-adjust: exact;" fill="none" version="1.1"><g id="shape-24b0466e-7c13-801d-8004-20e8e184bc84"><defs><clipPath class="frame-clip-def frame-clip" id="frame-clip-24b0466e-7c13-801d-8004-20e8e184bc84-rumext-id-29"><rect rx="20" ry="20" x="0" y="0" width="512.0000000000001" height="512.0000000000018" transform="matrix(1.000000, 0.000000, 0.000000, 1.000000, 0.000000, 0.000000)"/></clipPath></defs><g clip-path="url(#frame-clip-24b0466e-7c13-801d-8004-20e8e184bc84-rumext-id-29)" fill="none"><clipPath class="frame-clip-def frame-clip" id="frame-clip-24b0466e-7c13-801d-8004-20e8e184bc84-rumext-id-29"><rect rx="20" ry="20" x="0" y="0" width="512.0000000000001" height="512.0000000000018" transform="matrix(1.000000, 0.000000, 0.000000, 1.000000, 0.000000, 0.000000)"/></clipPath><g class="fills" id="fills-24b0466e-7c13-801d-8004-20e8e184bc84"><rect rx="20" ry="20" x="0" y="0" transform="matrix(1.000000, 0.000000, 0.000000, 1.000000, 0.000000, 0.000000)" width="512.0000000000001" height="512.0000000000018" class="frame-background"/></g><g class="frame-children"><g id="shape-24b0466e-7c13-801d-8004-20e8ec9bcde0" width="512px" height="293px" version="1.1" xmlns:xlink="http://www.w3.org/1999/xlink" rx="0" ry="0" style="fill: rgb(0, 0, 0);"><g id="shape-24b0466e-7c13-801d-8004-20e8ec9fe15b"><g class="fills" id="fills-24b0466e-7c13-801d-8004-20e8ec9fe15b"><path fill-rule="nonzero" rx="0" ry="0" d="M273.323,109.620L319.808,269.837C324.676,287.290,329.413,304.779,334.016,322.304L334.549,322.304C335.701,314.366,337.643,305.832,340.373,296.614L347.904,271.522L370.304,198.082L374.848,183.765C376.171,179.519,377.536,175.614,378.944,172.008C380.395,168.445,381.739,165.031,383.083,161.809C384.405,158.588,385.899,155.387,387.627,152.187L387.627,151.589L354.155,153.829L354.155,109.620L464.427,109.620L464.427,146.767C456.661,146.767,449.877,149.306,444.032,154.406C438.072,159.634,432.956,165.751,428.864,172.542C424.755,179.221,421.236,186.246,418.347,193.537C416.217,198.891,414.183,204.283,412.245,209.710L346.197,401.676L284.672,401.676L244.693,277.774C243.563,274.744,242.133,270.413,240.448,264.844C238.635,258.815,236.878,252.770,235.179,246.708C233.408,240.158,231.488,233.415,229.525,226.438C227.563,219.440,225.707,212.825,224.000,206.574L223.445,206.574C222.315,214.703,220.459,223.835,217.899,233.949C215.360,244.062,212.715,253.941,209.963,263.564C207.232,273.187,204.672,281.892,202.325,289.659C199.957,297.425,198.187,302.887,197.077,306.109L165.056,401.676L107.456,401.676L37.163,200.365C33.546,190.569,30.188,180.680,27.093,170.707C26.129,167.780,25.324,164.802,24.683,161.788L22.677,152.720L0.000,153.851L0.000,109.620L139.221,109.620L139.221,146.767C131.072,147.343,125.355,149.776,122.027,154.128C118.720,158.481,117.099,164.071,117.099,170.856C116.907,174.078,117.120,177.492,117.781,181.055C118.489,184.793,119.401,188.490,120.512,192.129L140.053,263.009C142.336,271.522,144.533,280.462,146.709,289.808C148.864,299.153,150.635,308.670,151.979,318.314L152.533,318.314L155.392,305.554C157.559,295.349,159.913,285.184,162.453,275.064C163.989,269.133,165.760,262.540,167.872,255.392L210.389,109.620L273.323,109.620ZL273.323,109.620ZZM512.000,354.757C512.000,381.058,490.682,402.380,464.384,402.380C438.086,402.380,416.768,381.058,416.768,354.757C416.768,328.455,438.086,307.133,464.384,307.133C490.682,307.133,512.000,328.455,512.000,354.757Z" style="fill: rgb(0, 0, 0);"/></g></g></g></g></g></g></svg>