<svg xmlns:xlink="http://www.w3.org/1999/xlink" width="512" xmlns="http://www.w3.org/2000/svg" height="512" id="screenshot-24b0466e-7c13-801d-8004-20e8f001f723" viewBox="0 0 512 512" style="-webkit-print-color-adjust: exact;" fill="none" version="1.1"><g id="shape-24b0466e-7c13-801d-8004-20e8f001f723"><defs><clipPath class="frame-clip-def frame-clip" id="frame-clip-24b0466e-7c13-801d-8004-20e8f001f723-rumext-id-21"><rect rx="20" ry="20" x="0" y="0" width="512" height="512.0000000000009" transform="matrix(1.000000, 0.000000, 0.000000, 1.000000, 0.000000, 0.000000)"/></clipPath></defs><g clip-path="url(#frame-clip-24b0466e-7c13-801d-8004-20e8f001f723-rumext-id-21)" fill="none"><clipPath class="frame-clip-def frame-clip" id="frame-clip-24b0466e-7c13-801d-8004-20e8f001f723-rumext-id-21"><rect rx="20" ry="20" x="0" y="0" width="512" height="512.0000000000009" transform="matrix(1.000000, 0.000000, 0.000000, 1.000000, 0.000000, 0.000000)"/></clipPath><g class="fills" id="fills-24b0466e-7c13-801d-8004-20e8f001f723"><rect rx="20" ry="20" x="0" y="0" transform="matrix(1.000000, 0.000000, 0.000000, 1.000000, 0.000000, 0.000000)" width="512" height="512.0000000000009" class="frame-background"/></g><g class="frame-children"><g id="shape-24b0466e-7c13-801d-8004-20e928854bf3" rx="0" ry="0"><g id="shape-24b0466e-7c13-801d-8004-20e8f85ad65f"><g class="fills" id="fills-24b0466e-7c13-801d-8004-20e8f85ad65f"><path fill-rule="nonzero" rx="0" ry="0" d="M495.432,288.935C487.920,309.261,478.421,328.150,466.932,345.603C455.444,363.057,442.299,378.301,427.497,391.335C412.694,404.370,396.566,414.643,379.113,422.155C361.881,429.446,343.654,433.091,324.433,433.091C316.480,433.091,308.306,431.876,299.910,429.446C291.736,427.015,284.224,422.707,277.376,416.521C270.748,410.114,265.335,401.609,261.137,391.004C256.940,380.179,254.841,366.591,254.841,350.243C254.841,344.278,255.172,337.760,255.835,330.691L254.510,330.691C249.871,343.946,243.464,356.760,235.289,369.132C227.336,381.504,218.167,392.440,207.784,401.940C197.400,411.440,186.133,419.062,173.982,424.806C162.051,430.329,149.900,433.091,137.528,433.091C124.273,433.091,113.116,430.771,104.058,426.132C95.221,421.492,88.040,415.196,82.517,407.242C76.994,399.068,73.017,389.679,70.587,379.074C68.157,368.248,66.942,356.760,66.942,344.609C66.942,326.714,67.826,308.045,69.593,288.604C71.581,269.162,73.680,250.383,75.889,232.267C78.099,214.151,80.087,197.471,81.854,182.227C83.843,166.762,84.837,154.169,84.837,144.448C84.837,140.250,84.616,136.274,84.174,132.518C83.953,128.541,83.180,125.117,81.854,122.245C80.528,119.372,78.650,117.053,76.220,115.285C73.790,113.518,70.476,112.634,66.279,112.634C62.523,112.634,58.546,113.849,54.348,116.280C50.151,118.489,45.953,122.245,41.755,127.547C37.779,132.628,33.802,139.367,29.825,147.762C25.849,156.157,22.203,166.320,18.889,178.250L-0.000,174.273C1.546,166.320,4.308,156.930,8.285,146.105C12.482,135.058,18.006,124.564,24.854,114.623C31.924,104.460,40.430,95.954,50.372,89.105C60.534,82.036,72.464,78.500,86.162,78.500C104.057,78.500,117.644,84.134,126.923,95.402C136.423,106.669,141.173,123.018,141.173,144.448C141.173,154.390,140.732,165.657,139.848,178.250C138.965,190.622,137.750,203.546,136.203,217.023C134.877,230.500,133.441,244.197,131.895,258.116C130.348,271.813,128.802,284.958,127.255,297.551C125.930,309.923,124.825,321.191,123.941,331.353C123.058,341.516,122.616,349.801,122.616,356.208C122.616,361.289,123.058,366.260,123.941,371.121C124.825,375.981,126.371,380.289,128.581,384.045C130.790,387.801,133.773,390.894,137.528,393.324C141.284,395.754,146.034,396.969,151.778,396.969C166.360,396.969,180.720,391.667,194.859,381.062C208.999,370.458,221.592,355.103,232.638,334.999C243.905,314.894,252.964,290.261,259.812,261.098C266.882,231.715,270.417,198.355,270.417,161.018C270.417,149.308,270.086,137.268,269.423,124.896C268.760,112.303,267.545,99.378,265.777,86.123L323.771,86.123C324.213,88.111,324.545,90.541,324.765,93.413C325.208,96.065,325.539,98.826,325.760,101.698C325.980,104.570,326.091,107.442,326.091,110.314C326.311,112.966,326.421,115.064,326.421,116.611C326.421,139.367,325.206,161.239,322.776,182.227C320.567,202.994,318.026,222.877,315.154,241.877C312.282,260.656,309.631,278.662,307.201,295.894C304.991,313.127,303.887,329.475,303.887,344.940C303.887,351.568,304.328,358.086,305.212,364.493C306.317,370.900,308.195,376.533,310.845,381.394C313.717,386.254,317.584,390.231,322.444,393.324C327.526,396.196,334.043,397.632,341.996,397.632C353.043,397.632,364.089,395.312,375.136,390.673C386.403,385.812,397.118,379.074,407.281,370.458C417.443,361.842,426.833,351.568,435.449,339.638C444.286,327.708,451.908,314.563,458.315,300.202C464.943,285.621,470.024,270.156,473.559,253.808C477.315,237.238,479.193,220.116,479.193,202.442C479.193,193.825,478.640,185.430,477.535,177.256C476.430,169.081,474.663,161.459,472.233,154.390C469.803,147.320,466.378,141.244,461.960,136.163C457.762,130.861,452.570,126.884,446.384,124.233C443.733,130.198,439.867,134.506,434.786,137.157C429.704,139.808,424.291,141.134,418.547,141.134C415.454,141.134,412.251,140.581,408.937,139.476C405.623,138.372,402.530,136.605,399.658,134.174C397.007,131.744,394.797,128.761,393.030,125.226C391.263,121.471,390.379,117.052,390.379,111.971C390.379,108.215,391.042,104.349,392.367,100.372C393.914,96.395,396.233,92.860,399.326,89.767C402.419,86.454,406.507,83.802,411.588,81.814C416.890,79.605,423.408,78.500,431.140,78.500C444.838,78.500,456.768,81.703,466.931,88.110C477.093,94.517,485.488,103.134,492.116,113.959C498.744,124.785,503.715,137.378,507.029,151.738C510.343,166.098,512.000,181.342,512.000,197.470C512.000,212.493,510.564,227.848,507.692,243.534C505.041,258.999,500.954,274.132,495.432,288.935ZL495.432,288.935ZZ" style="fill: rgb(0, 0, 0);"/></g></g></g></g></g></g></svg>