<svg width="512" xmlns="http://www.w3.org/2000/svg" height="512" id="screenshot-f16b504d-40ad-80d4-8004-3f439b2573d7" viewBox="0 0 512 512" xmlns:xlink="http://www.w3.org/1999/xlink" fill="none" version="1.1"><g id="shape-f16b504d-40ad-80d4-8004-3f439b2573d7"><defs><clipPath id="frame-clip-f16b504d-40ad-80d4-8004-3f439b2573d7-render-1" class="frame-clip frame-clip-def"><rect rx="20" ry="20" x="0" y="0" width="512" height="512" transform="matrix(1.000000, 0.000000, 0.000000, 1.000000, 0.000000, 0.000000)"/></clipPath></defs><g clip-path="url(#frame-clip-f16b504d-40ad-80d4-8004-3f439b2573d7-render-1)" fill="none"><g class="fills" id="fills-f16b504d-40ad-80d4-8004-3f439b2573d7"><rect rx="20" ry="20" x="0" y="0" width="512" height="512" transform="matrix(1.000000, 0.000000, 0.000000, 1.000000, 0.000000, 0.000000)" class="frame-background"/></g><g class="frame-children"><g id="shape-f16b504d-40ad-80d4-8004-3f43c3add348" rx="0" ry="0" style="fill: rgb(0, 0, 0);"><g id="shape-f16b504d-40ad-80d4-8004-3f43c3b049d4"><g class="fills" id="fills-f16b504d-40ad-80d4-8004-3f43c3b049d4"><path d="M95.000,311.268L95.000,379.268C95.000,393.627,106.641,405.268,121.000,405.268L255.050,405.268L294.999,471.392L334.949,405.268L469.000,405.268C483.359,405.268,495.000,393.627,495.000,379.268L495.000,168.268C495.000,153.908,483.359,142.268,469.000,142.268L434.000,142.268L434.000,125.268L469.000,125.268C492.748,125.268,512.000,144.520,512.000,168.268L512.000,379.268C512.000,403.016,492.748,422.268,469.000,422.268L344.540,422.268L300.991,494.351C298.992,497.660,294.689,498.722,291.380,496.723C290.409,496.136,289.595,495.322,289.009,494.351L245.459,422.268L121.000,422.268C97.252,422.268,78.000,403.016,78.000,379.268L78.000,311.268L95.000,311.268ZZM391.000,14.268C414.748,14.268,434.000,33.520,434.000,57.268L434.000,268.268C434.000,292.016,414.748,311.268,391.000,311.268L266.540,311.268L222.991,383.351C220.992,386.660,216.689,387.722,213.380,385.723C212.409,385.136,211.595,384.322,211.009,383.351L167.459,311.268L43.000,311.268C19.252,311.268,0.000,292.016,0.000,268.268L0.000,57.268C0.000,33.520,19.252,14.268,43.000,14.268L391.000,14.268ZZM391.000,31.268L43.000,31.268C28.641,31.268,17.000,42.908,17.000,57.268L17.000,268.268C17.000,282.627,28.641,294.268,43.000,294.268L177.050,294.268L216.999,360.392L256.949,294.268L391.000,294.268C405.359,294.268,417.000,282.627,417.000,268.268L417.000,57.268C417.000,42.908,405.359,31.268,391.000,31.268ZZ" fill-rule="nonzero" stroke="none" stroke-width="1" style="fill: rgb(0, 0, 0);"/></g></g></g></g></g></g></svg>