<?xml version="1.0" encoding="UTF-8"?>
<svg width="512px" height="510px" viewBox="0 0 512 510" version="1.1" xmlns="http://www.w3.org/2000/svg" xmlns:xlink="http://www.w3.org/1999/xlink">
    <title>XWiki</title>
    <g id="All-Fediverse-Symbols" stroke="none" stroke-width="1" fill="none" fill-rule="evenodd">
        <g id="XWiki" transform="translate(0.000000, -1.000000)" fill="#000000" fill-rule="nonzero">
            <g transform="translate(0.000000, 1.000000)" id="Path">
                <path d="M254.792453,0 C264.563458,0 272.527446,7.47959779 272.89258,16.8394665 L272.90566,17.5111508 L272.90566,95.9982833 C272.90566,105.669425 264.796101,113.509434 254.792453,113.509434 C245.021448,113.509434 237.057459,106.029836 236.692325,96.6699674 L236.679245,95.9982833 L236.679245,17.5111508 C236.679245,7.84000924 244.788805,0 254.792453,0 Z"></path>
                <path d="M494.488849,234.264151 C504.159991,234.264151 512,242.37371 512,252.377358 C512,262.110638 504.578049,270.050828 495.268865,270.472918 L494.488849,270.490566 L416.001717,270.490566 C406.330576,270.490566 398.490566,262.381007 398.490566,252.377358 C398.490566,242.644079 405.912517,234.703889 415.221701,234.281799 L416.001717,234.264151 L494.488849,234.264151 Z"></path>
                <path d="M272.90566,492.073755 C272.90566,501.744896 264.796101,509.584906 254.792453,509.584906 C245.059173,509.584906 237.118983,502.162954 236.696893,492.853771 L236.679245,492.073755 L236.679245,413.586623 C236.679245,403.915481 244.788805,396.075472 254.792453,396.075472 C264.525732,396.075472 272.465922,403.497423 272.888012,412.806606 L272.90566,413.586623 L272.90566,492.073755 Z"></path>
                <path d="M17.5111508,270.490566 C7.84000924,270.490566 0,262.381007 0,252.377358 C0,242.644079 7.42195177,234.703889 16.7311355,234.281799 L17.5111508,234.264151 L95.9982833,234.264151 C105.669425,234.264151 113.509434,242.37371 113.509434,252.377358 C113.509434,262.110638 106.087482,270.050828 96.7782986,270.472918 L95.9982833,270.490566 L17.5111508,270.490566 Z"></path>
                <path d="M448.350347,34.1711464 C460.919701,45.1442987 462.397091,64.0571086 451.842747,76.8277769 L451.244012,77.5308499 L295.726776,254.792816 L451.244012,432.054057 C462.448005,444.824601 461.152467,464.2374 448.350347,475.413759 C435.780993,486.386911 416.79289,485.340647 405.502658,473.212418 L404.883433,472.527231 L254.791744,301.450339 L104.701473,472.527231 C93.4974793,485.297775 74.0366791,486.590119 61.2345589,475.413759 C48.6652046,464.440606 47.1878151,445.527798 57.7421574,432.75713 L58.340894,432.054057 L213.856712,254.792816 L58.340894,77.5308499 C47.1369007,64.7603058 48.4324386,45.3475054 61.2345589,34.1711464 C73.8039134,23.197994 92.792015,24.2442576 104.082247,36.3724883 L104.701473,37.0576742 L254.791744,208.133297 L404.883433,37.0576742 C416.087426,24.28713 435.548227,22.9947875 448.350347,34.1711464 Z"></path>
            </g>
        </g>
    </g>
</svg>