<?xml version="1.0" encoding="UTF-8"?>
<svg width="512px" height="512px" viewBox="0 0 512 512" version="1.1" xmlns="http://www.w3.org/2000/svg" xmlns:xlink="http://www.w3.org/1999/xlink">
    <title>yeet</title>
    <g id="yeet" stroke="none" stroke-width="1" fill="none" fill-rule="evenodd">
        <g id="Group" transform="translate(256.000000, 256.000000) scale(-1, 1) rotate(-180.000000) translate(-256.000000, -256.000000) " fill="#000000" fill-rule="nonzero">
            <path d="M250.639711,507.656318 C250.085199,505.161011 245.46426,480.947292 240.288809,453.776173 C235.113357,426.605054 230.677256,403.685199 230.492419,402.945848 C230.215162,402.206498 228.551625,404.424549 226.333574,408.490975 C219.032491,421.984116 211.731408,430.116968 197.776173,440.560289 C192.970397,444.164621 186.870758,449.340072 184.190614,452.020217 C175.965343,460.707581 168.571841,473.831047 164.782671,486.769675 L163.119134,492.592058 L158.405776,492.592058 L153.692419,492.592058 L152.583394,486.215162 C149.256318,465.883032 153.137906,448.508303 165.984116,426.420217 C176.242599,408.675812 180.124188,398.602166 181.602888,385.848375 L182.157401,381.227437 L178.183394,378.824549 L174.209386,376.514079 L126.336462,408.398556 L78.4635379,440.283032 L75.1364621,436.955957 L71.8093863,433.628881 L102.769675,387.974007 C119.774729,362.92852 134.00722,341.949458 134.376895,341.302527 C134.838989,340.470758 133.914801,340.563177 131.604332,341.579783 C120.329242,346.293141 99.9046931,347.771841 83.3617329,345.091697 C65.1552347,342.134296 48.7971119,344.629603 31.699639,353.039711 L22.6425993,357.568231 L19.500361,354.425993 L16.265704,351.283755 L19.8700361,345.923466 C27.2635379,334.833213 39.832491,324.667148 53.4180505,318.844765 C56.8375451,317.366065 65.8021661,314.501083 73.3805054,312.46787 C80.866426,310.342238 89.9234657,307.477256 93.3429603,305.998556 C99.6274368,303.41083 111.45704,296.017329 113.582671,293.522022 C115.153791,291.581227 113.952347,283.910469 111.919134,283.355957 C110.532852,282.893863 1.0166065,260.620939 0.277256318,260.620939 C0.184837545,260.620939 0,258.587726 0,256 C0,252.025993 0.277256318,251.379061 2.12563177,250.916968 C3.23465704,250.73213 27.2635379,246.111191 55.4512635,240.750903 C83.6389892,235.390614 107.483032,230.769675 108.499639,230.492419 C109.793502,230.030325 108.499639,229.013718 103.416606,226.241155 C90.0158845,219.032491 81.7906137,211.638989 71.4397112,197.776173 C58.3162455,180.031769 43.5292419,169.680866 23.7516245,164.320578 L19.4079422,163.211552 L19.4079422,158.405776 L19.4079422,153.6 L25.2303249,152.583394 C33.5480144,151.104693 46.0245487,151.289531 54.2498195,153.045487 C63.9537906,154.986282 73.4729242,158.960289 85.5797834,165.984116 C103.324188,176.150181 113.120578,180.031769 126.151625,181.602888 L130.772563,182.249819 L132.990614,177.998556 L135.301083,173.839711 L103.509025,126.151625 L71.8093863,78.4635379 L74.9516245,75.2288809 C76.6151625,73.4729242 78.4635379,72.1790614 79.0180505,72.4563177 C79.4801444,72.6411552 99.5350181,86.0418773 123.379061,102.307581 C147.315523,118.573285 167.92491,132.52852 169.311191,133.452708 L171.806498,135.023827 L170.050542,130.587726 C165.522022,118.480866 164.228159,99.7198556 166.908303,83.3617329 C169.865704,65.1552347 167.370397,48.7971119 158.960289,31.699639 L154.431769,22.6425993 L157.574007,19.500361 L160.716245,16.265704 L165.984116,19.7776173 C177.074368,27.1711191 188.072202,41.033935 193.894585,55.1740072 C195.00361,57.8541516 197.406498,65.3400722 199.162455,71.9942238 C200.918412,78.5559567 203.598556,87.3357401 205.262094,91.4945848 C207.942238,98.5184116 215.520578,111.087365 218.477978,113.582671 C220.418773,115.246209 228.089531,113.952347 228.644043,111.919134 C228.9213,111.087365 233.727076,87.6129964 239.364621,59.6101083 C245.002166,31.699639 250.085199,6.83898917 250.547292,4.43610108 L251.563899,0 L256,0 L260.436101,0 L261.360289,4.43610108 C261.914801,6.83898917 266.53574,31.0527076 271.711191,58.2238267 C276.886643,85.3949458 281.322744,108.314801 281.507581,109.054152 C281.784838,109.793502 283.448375,107.575451 285.666426,103.509025 C292.782671,90.3855596 300.45343,81.6057762 312.837545,72.5487365 C330.859206,59.5176895 340.932852,45.7472924 346.755235,26.6166065 L348.880866,19.4079422 L353.594224,19.4079422 L358.307581,19.4079422 L359.324188,25.3227437 C360.895307,33.4555957 360.710469,45.93213 358.954513,54.2498195 C357.013718,63.9537906 353.039711,73.4729242 346.108303,85.4873646 C335.849819,103.046931 331.968231,113.212996 330.397112,126.151625 L329.750181,130.772563 L333.909025,132.990614 L338.160289,135.301083 L385.848375,103.509025 L433.536462,71.8093863 L436.771119,74.8592058 C438.527076,76.6151625 439.820939,78.4635379 439.543682,79.0180505 C439.358845,79.4801444 425.40361,100.274368 408.583394,125.135018 C391.670758,149.903249 378.085199,170.420217 378.270036,170.605054 C378.454874,170.789892 380.395668,170.420217 382.5213,169.588448 C394.443321,165.429603 412.834657,164.320578 428.638267,166.908303 C446.844765,169.865704 463.202888,167.370397 480.300361,158.960289 L489.357401,154.431769 L492.499639,157.574007 L495.641877,160.716245 L493.054152,164.690253 C481.779061,181.787726 465.236101,192.508303 439.358845,199.254874 C423.92491,203.413718 414.498195,207.202888 405.903249,212.932852 C397.493141,218.477978 397.123466,218.940072 397.862816,224.023105 C398.417329,227.350181 398.971841,228.366787 400.54296,228.736462 C401.559567,229.013718 426.235379,234.004332 455.162455,239.826715 C484.181949,245.649097 508.765343,250.639711 509.966787,250.916968 C511.722744,251.379061 512,252.025993 512,255.907581 C512,259.78917 511.722744,260.52852 509.966787,260.898195 C508.765343,261.175451 484.551625,265.79639 456.086643,271.249097 C427.621661,276.701805 403.685199,281.322744 402.945848,281.507581 C402.206498,281.784838 404.424549,283.448375 408.490975,285.666426 C421.61444,292.782671 430.394224,300.545848 439.451264,312.837545 C446.382671,322.356679 453.776173,330.119856 460.430325,334.648375 C467.454152,339.454152 478.821661,344.906859 486.492419,347.12491 L492.592058,348.880866 L492.592058,353.594224 L492.592058,358.4 L485.106137,359.509025 C465.698195,362.558845 447.861372,358.492419 426.420217,346.015884 C408.675812,335.757401 398.602166,331.875812 385.848375,330.397112 L381.227437,329.842599 L378.824549,333.816606 L376.514079,337.790614 L408.398556,385.663538 L440.283032,433.536462 L436.955957,436.863538 L433.628881,440.190614 L388.066426,409.230325 C362.92852,392.225271 341.949458,378.085199 341.302527,377.715523 C340.563177,377.25343 340.563177,378.085199 341.579783,380.395668 C346.293141,391.670758 347.771841,412.095307 345.091697,428.638267 C342.134296,446.844765 344.629603,463.202888 353.039711,480.300361 L357.568231,489.357401 L354.425993,492.499639 L351.283755,495.641877 L347.309747,493.054152 C330.027437,481.686643 319.21444,464.958845 312.837545,440.098195 C308.309025,422.168953 302.394224,408.953069 295.093141,400.358123 C292.597834,397.400722 292.228159,397.215884 288.161733,397.862816 C285.296751,398.32491 283.633213,399.06426 283.355957,400.080866 C283.0787,400.912635 278.088087,425.40361 272.265704,454.423105 C266.350903,483.535018 261.360289,508.395668 260.990614,509.689531 C260.436101,511.722744 259.974007,512 256,512 L251.563899,512 L250.639711,507.656318 Z" id="Path"></path>
        </g>
    </g>
</svg>