<svg xmlns:xlink="http://www.w3.org/1999/xlink" width="512" xmlns="http://www.w3.org/2000/svg" height="512" id="screenshot-e896cdf2-4b36-80a4-8004-194556c44de5" viewBox="0 0 512 512" style="-webkit-print-color-adjust: exact;" fill="none" version="1.1"><g id="shape-e896cdf2-4b36-80a4-8004-194556c44de5"><defs><clipPath class="frame-clip-def frame-clip" id="frame-clip-e896cdf2-4b36-80a4-8004-194556c44de5-rumext-id-1"><rect rx="20" ry="20" x="0" y="0" width="512" height="512" transform="matrix(1.000000, 0.000000, 0.000000, 1.000000, 0.000000, 0.000000)"/></clipPath></defs><g clip-path="url(#frame-clip-e896cdf2-4b36-80a4-8004-194556c44de5-rumext-id-1)" fill="none"><clipPath class="frame-clip-def frame-clip" id="frame-clip-e896cdf2-4b36-80a4-8004-194556c44de5-rumext-id-1"><rect rx="20" ry="20" x="0" y="0" width="512" height="512" transform="matrix(1.000000, 0.000000, 0.000000, 1.000000, 0.000000, 0.000000)"/></clipPath><g class="fills" id="fills-e896cdf2-4b36-80a4-8004-194556c44de5"><rect rx="20" ry="20" x="0" y="0" transform="matrix(1.000000, 0.000000, 0.000000, 1.000000, 0.000000, 0.000000)" width="512" height="512" class="frame-background"/></g><g class="frame-children"><g id="shape-e896cdf2-4b36-80a4-8004-19454f9fda3f"><g class="fills" id="fills-e896cdf2-4b36-80a4-8004-19454f9fda3f"><path fill-rule="nonzero" rx="0" ry="0" d="M440.656,124.650L341.742,246.108L313.142,218.676L241.239,354.456L209.347,328.098L71.344,512.000L130.887,257.115L166.939,290.241L206.697,130.971L253.944,167.958L295.296,-0.000L440.656,124.650ZZ" style="fill: rgb(0, 0, 0);"/></g></g></g></g></g></svg>